<?xml version="1.0" encoding="utf-8"?>
<!-- Generator: Adobe Illustrator 24.0.0, SVG Export Plug-In . SVG Version: 6.00 Build 0)  -->
<svg version="1.1" id="Layer_1" xmlns="http://www.w3.org/2000/svg" xmlns:xlink="http://www.w3.org/1999/xlink" x="0px" y="0px"
	 viewBox="0 0 108.8 40" style="enable-background:new 0 0 108.8 40;" xml:space="preserve">
<style type="text/css">
	.st0{fill:#00953A;}
</style>
<g>
	<g>
		<path class="st0" d="M31,29.5l-3.5-5.1c-0.1-0.2-0.3-0.3-0.6-0.3c-0.4,0-0.6,0.3-0.6,0.6c0,0.2,0.1,0.3,0.1,0.4l2.4,3.5
			c0,0,0,0,0,0l0.4,0.6c0,0,0,0.1,0,0.1c0,0-0.1,0.1-0.1,0.1H22c-0.4,0-0.7-0.1-1-0.3c-0.8-0.6-1-1.7-0.5-2.5l3.9-5.7
			c0.1-0.1,0.1-0.2,0.1-0.4c0-0.4-0.3-0.6-0.7-0.6c-0.2,0-0.4,0.1-0.5,0.3l-7.3,10.6l14.3,0c0.3,0,0.5-0.1,0.6-0.4
			C31.2,30,31.2,29.8,31,29.5z M16.4,23.3c0-0.9,0.3-1.7,0.7-2.4l3.7-5.3c0.1-0.1,0.1-0.2,0.1-0.4c0-0.4-0.3-0.7-0.7-0.7
			c-0.2,0-0.4,0.1-0.6,0.3L8.9,30.6h6l2.9-4.2C16.9,25.6,16.4,24.6,16.4,23.3z M11.8,19.5c0-0.9,0.3-1.7,0.7-2.3l4-5.8
			c0,0,0.1-0.1,0.1-0.1c0,0,0,0,0.1,0c0.1,0,0.1,0,0.1,0c0,0,0.1,0.1,0.1,0.1l0.8,1.2c0.1,0.2,0.3,0.3,0.5,0.3c0.1,0,0.3,0,0.4-0.1
			c0.3-0.2,0.4-0.6,0.2-0.9l-1.5-2.2c-0.2-0.3-0.6-0.4-0.9-0.2c-0.1,0-0.2,0.2-0.2,0.2L2.4,29.5c-0.1,0.2-0.2,0.5,0,0.7
			c0.1,0.2,0.4,0.4,0.6,0.4l4.6,0l5.5-8.1C12.3,21.8,11.8,20.7,11.8,19.5z"/>
		<g>
			<path class="st0" d="M44.2,20.2c0,0-1.6,4.1-2,5h3.9C45.8,24.3,44.2,20.2,44.2,20.2 M51.7,30.6h-2.2c-1.2,0-1.7-1.1-1.7-1.1
				l-1.2-3.1h-4.9l-1.6,4.2h-1.9c0,0,4.3-10.5,5.8-14c0.1-0.2,0.2-0.5,0.6-0.5c0.3,0,1.2,0,1.2,0L51.7,30.6z"/>
			<path class="st0" d="M74,17.8c-0.9-0.5-2.1-0.4-2.1-0.4l0,5.7c0,0,1.2,0.1,2.2-0.5c0.6-0.4,1.1-1.1,1.1-2.4
				C75.2,18.9,74.7,18.2,74,17.8 M71.9,23.9l0,6.7h-3.4V16.7c0,0,0-0.6,0.6-0.6h4.2c0.5,0,1,0,1.4,0c0.4,0,0.7,0.1,1,0.1
				c0.3,0.1,0.5,0.1,0.7,0.2c0.2,0.1,0.4,0.2,0.6,0.3c0.4,0.3,0.7,0.7,1,1.1c0.2,0.5,0.4,1,0.4,1.6c0,1-0.3,1.9-0.8,2.5
				c-0.6,0.6-1.4,1.1-2.4,1.4c0.7,1.2,4.5,7.2,4.5,7.2s-1.5,0-2.6,0c-1.3,0-1.9-1.2-1.9-1.2l-3-5.5L71.9,23.9L71.9,23.9z"/>
			<path class="st0" d="M52.7,16.7c0,0,0-0.6,0.6-0.6c1.7,0,5.9,0,7.5,0v1.1c0,0.8-0.7,0.7-0.7,0.7c-0.7,0-3.9,0-3.9,0v4.3l4.6,0
				v1.2c0,0,0,0.6-0.7,0.6c0,0-2.3,0-3.9,0l0,6.6h-3.4L52.7,16.7L52.7,16.7z"/>
			<path class="st0" d="M62.5,16.8c0,0-0.1-0.7,0.6-0.7h2.8v14.5h-3.4V16.8z"/>
			<path class="st0" d="M81.6,30.6h-2l2.1-14c0,0,0.1-0.5,0.6-0.5h1.2l4.8,10.1l4.9-10.1h1.3c0.5,0,0.6,0.5,0.6,0.5l1.7,14h-3.4
				c0,0-0.7-8-0.8-9.7h0l-4.6,9.7h-0.8c0,0-3.8-7.8-4.6-9.4h0L81.6,30.6z"/>
			<path class="st0" d="M98.4,16.7c0,0,0-0.5,0.6-0.5h7.5c0,0,0,0.9,0,1.2c0,0.6-0.5,0.6-0.5,0.6h-4.2v4.3h4.6v1.1
				c0,0.7-0.6,0.7-0.6,0.7l-4.1,0v4.8l4.7,0V30c0,0,0,0.6-0.6,0.6h-7.5L98.4,16.7L98.4,16.7z"/>
		</g>
	</g>
</g>
</svg>
