<?xml version="1.0" encoding="utf-8"?>
<!-- Generator: Adobe Illustrator 24.0.0, SVG Export Plug-In . SVG Version: 6.00 Build 0)  -->
<svg version="1.1" id="Layer_1" xmlns="http://www.w3.org/2000/svg" xmlns:xlink="http://www.w3.org/1999/xlink" x="0px" y="0px"
	 viewBox="0 0 59.3 40" style="enable-background:new 0 0 59.3 40;" xml:space="preserve">
<style type="text/css">
	.st0{fill:#DB2455;}
</style>
<g>
	<path class="st0" d="M56.9,8.1c0,3-2.4,5.4-5.4,5.4c-3,0-5.4-2.4-5.4-5.4c0-3,2.4-5.4,5.4-5.4C54.5,2.7,56.9,5.1,56.9,8.1z"/>
	<path class="st0" d="M19.3,18.4c4.7-1.1,20-2.1,30.9,0.7c1.8,0.5,6.1,1.7,6.4,4.6c0,0,0.6,2.1-4.6,4.6c-5.2,2.5-9.6,4-13.1,5
		c-3.4,1-9.5,2.7-11.5,3c-1.7,0.3-5.3,1.1-7.2,1c-1.3,0-0.5-0.7,0.4-1.2c1.6-1,6.3-2.5,8.7-3.3c2.4-0.8,10.1-3.5,11.7-4.1
		c2-0.7,5.7-2.4,6.7-3.1c1.3-0.9,2.8-2.2,1.3-3.1c-1.3-0.8-2.6-0.9-5.4-1.3c-2.8-0.4-9.4-0.6-11.2-0.7c-1.8,0-5.8-0.2-6.9-0.2
		c-0.8,0-6.3-0.3-7.1-0.8C17.9,19.1,17.9,18.7,19.3,18.4z"/>
	<path class="st0" d="M8.8,22.7H5.6l-2.8,8h3.1l0.2-1h2.2l0.3,1h3.1L8.8,22.7z M6.5,27.8L7.2,25l0.6,2.7H6.5z"/>
	<path class="st0" d="M29.2,22.7H26l-2.8,8h3.1l0.2-1h2.2l0.3,1H32L29.2,22.7z M26.9,27.8l0.6-2.7l0.6,2.7H26.9z"/>
	<polygon class="st0" points="13.5,30.7 13.5,22.7 16.3,22.7 18.7,26.8 18.7,22.7 21.5,22.7 21.5,30.7 18.7,30.7 16.3,26.5 
		16.3,30.7 	"/>
	<g>
		<path class="st0" d="M2.5,33h0.4c0,0.1,0,0.1,0,0.1c0,0,0,0,0.1,0c0,0,0.1,0,0.3,0c0.2,0,0.3,0,0.3,0c0,0,0.1,0,0.1,0
			c0,0,0.1-0.1,0.1-0.1c0,0,0-0.1,0-0.1c0,0-0.1,0-0.1,0c-0.1,0-0.2,0-0.4,0c-0.2,0-0.3,0-0.4,0c-0.1,0-0.2,0-0.3,0
			c-0.1,0-0.1,0-0.1-0.1c-0.1-0.1-0.1-0.2-0.1-0.3c0-0.2,0-0.3,0.1-0.4C2.6,32,2.7,32,2.8,32c0.1,0,0.3,0,0.6,0c0.2,0,0.4,0,0.5,0
			C4,32,4.1,32,4.1,32.1c0.1,0.1,0.1,0.2,0.1,0.3c0,0,0,0,0,0.1H3.8c0,0,0-0.1,0-0.1c0,0,0,0,0,0c0,0-0.1,0-0.1,0c0,0-0.2,0-0.3,0
			c-0.2,0-0.3,0-0.4,0c0,0-0.1,0-0.1,0.1c0,0.1,0,0.1,0.1,0.1c0,0,0.2,0,0.5,0c0.2,0,0.4,0,0.5,0c0.1,0,0.1,0,0.2,0.1
			c0.1,0,0.1,0.1,0.1,0.1c0,0.1,0,0.1,0,0.2c0,0.1,0,0.2-0.1,0.3c0,0.1-0.1,0.1-0.1,0.1c-0.1,0-0.1,0-0.2,0.1c-0.1,0-0.3,0-0.5,0
			c-0.2,0-0.4,0-0.5,0c-0.1,0-0.2,0-0.2-0.1c-0.1,0-0.1-0.1-0.1-0.1C2.5,33.2,2.5,33.1,2.5,33L2.5,33z"/>
		<path class="st0" d="M5.5,32h1.6v0.3H5.9v0.2H7v0.3H5.9v0.2h1.2v0.4H5.5V32z"/>
		<path class="st0" d="M9.2,32.6h1c0,0,0,0,0,0c0,0.2,0,0.4,0,0.5c0,0.2-0.1,0.3-0.3,0.3c-0.1,0-0.2,0-0.3,0c-0.1,0-0.2,0-0.4,0
			c-0.3,0-0.4,0-0.5,0c-0.1,0-0.2,0-0.3-0.1c0,0-0.1-0.1-0.1-0.1c0,0,0-0.1,0-0.2c0-0.1,0-0.2,0-0.4c0-0.1,0-0.2,0-0.3
			c0-0.1,0-0.1,0-0.2c0-0.1,0.1-0.2,0.3-0.2c0.2,0,0.4,0,0.7,0c0.2,0,0.3,0,0.4,0c0.1,0,0.2,0,0.3,0c0.1,0,0.2,0.1,0.2,0.2
			c0,0.1,0,0.1,0,0.2H9.8c0,0,0-0.1,0-0.1c0,0,0,0,0,0c0,0-0.1,0-0.2,0c-0.1,0-0.2,0-0.3,0c-0.2,0-0.3,0-0.3,0c-0.1,0-0.1,0-0.1,0
			c0,0,0,0.1,0,0.1c0,0,0,0.1,0,0.2c0,0.1,0,0.2,0,0.3c0,0,0,0.1,0,0.1c0,0,0.1,0,0.1,0c0,0,0.2,0,0.4,0c0.2,0,0.3,0,0.4,0
			c0,0,0.1,0,0.1,0c0,0,0,0,0,0c0,0,0-0.1,0-0.1c0,0,0,0,0,0H9.2V32.6z"/>
		<path class="st0" d="M11.4,32h0.5v0.7c0,0.2,0,0.3,0,0.3c0,0.1,0,0.1,0.1,0.1c0.1,0,0.2,0,0.4,0c0.2,0,0.3,0,0.3,0
			c0.1,0,0.1,0,0.1-0.1c0,0,0,0,0-0.1c0,0,0-0.1,0-0.1c0-0.1,0-0.1,0-0.2V32h0.5v0.7c0,0.2,0,0.4,0,0.5c0,0.1-0.1,0.2-0.2,0.3
			c-0.1,0-0.1,0.1-0.2,0.1c-0.1,0-0.3,0-0.5,0c-0.2,0-0.3,0-0.4,0c-0.1,0-0.2,0-0.3,0c-0.2,0-0.3-0.1-0.3-0.3c0-0.1,0-0.1,0-0.2
			c0,0,0-0.2,0-0.3V32z"/>
		<path class="st0" d="M14.6,33.5V32h1.1c0.3,0,0.4,0,0.5,0c0.1,0,0.1,0,0.1,0.1c0.1,0,0.1,0.1,0.1,0.1c0,0.1,0,0.2,0,0.3
			c0,0.1,0,0.2,0,0.2c0,0.1,0,0.1-0.1,0.1c0,0-0.1,0.1-0.2,0.1c0.1,0,0.2,0,0.2,0.1c0,0,0,0.1,0,0.1c0,0,0,0.1,0,0.3v0.1H16v-0.1
			c0-0.1,0-0.1,0-0.2c0,0,0-0.1,0-0.1c0,0,0,0-0.1,0c0,0-0.1,0-0.2,0H15v0.4H14.6z M15,32.7h0.6c0.1,0,0.2,0,0.2,0c0,0,0,0,0.1,0
			c0,0,0,0,0-0.1c0,0,0-0.1,0-0.1c0,0,0-0.1,0-0.1c0,0,0,0,0-0.1c0,0,0,0-0.1,0c0,0-0.1,0-0.2,0H15V32.7z"/>
		<path class="st0" d="M18.6,31.9c0.3,0,0.5,0,0.7,0c0.2,0,0.3,0.1,0.3,0.2c0,0.1,0,0.3,0,0.5c0,0.2,0,0.4,0,0.5
			c0,0.1-0.1,0.2-0.3,0.2c-0.1,0-0.3,0-0.7,0c-0.3,0-0.5,0-0.7,0c-0.2,0-0.3-0.1-0.3-0.2c0-0.1,0-0.3,0-0.5c0-0.2,0-0.4,0-0.5
			c0-0.1,0.1-0.2,0.3-0.2C18.1,32,18.3,31.9,18.6,31.9z M18.6,32.3c-0.2,0-0.4,0-0.4,0c-0.1,0-0.1,0-0.1,0.1c0,0.1,0,0.2,0,0.3
			c0,0.1,0,0.2,0,0.2c0,0.1,0.1,0.1,0.2,0.1c0.1,0,0.2,0,0.4,0c0.2,0,0.3,0,0.4,0c0.1,0,0.1,0,0.1,0c0,0,0-0.1,0.1-0.1
			c0,0,0-0.1,0-0.2c0-0.1,0-0.2,0-0.2c0-0.1,0-0.1,0-0.1c0,0-0.1-0.1-0.1-0.1C18.9,32.3,18.8,32.3,18.6,32.3z"/>
		<path class="st0" d="M20.8,33h0.4c0,0.1,0,0.1,0,0.1c0,0,0,0,0.1,0c0,0,0.1,0,0.3,0c0.2,0,0.3,0,0.3,0c0,0,0.1,0,0.1,0
			c0,0,0-0.1,0-0.1c0,0,0-0.1,0-0.1c0,0-0.1,0-0.1,0c-0.1,0-0.2,0-0.4,0c-0.2,0-0.3,0-0.4,0c-0.1,0-0.2,0-0.3,0
			c-0.1,0-0.1,0-0.1-0.1c-0.1-0.1-0.1-0.2-0.1-0.3c0-0.2,0-0.3,0.1-0.4c0-0.1,0.1-0.1,0.2-0.1c0.1,0,0.3,0,0.6,0c0.2,0,0.4,0,0.5,0
			c0.1,0,0.2,0.1,0.3,0.1c0.1,0.1,0.1,0.2,0.1,0.3c0,0,0,0,0,0.1h-0.4c0,0,0-0.1,0-0.1c0,0,0,0,0,0c0,0-0.1,0-0.1,0c0,0-0.2,0-0.3,0
			c-0.2,0-0.3,0-0.4,0c0,0-0.1,0-0.1,0.1c0,0.1,0,0.1,0.1,0.1c0,0,0.2,0,0.5,0c0.2,0,0.4,0,0.5,0c0.1,0,0.1,0,0.2,0.1
			c0.1,0,0.1,0.1,0.1,0.1c0,0.1,0,0.1,0,0.2c0,0.1,0,0.2-0.1,0.3c0,0.1-0.1,0.1-0.1,0.1c-0.1,0-0.1,0-0.2,0.1c-0.1,0-0.3,0-0.5,0
			c-0.2,0-0.4,0-0.5,0c-0.1,0-0.2,0-0.2-0.1c-0.1,0-0.1-0.1-0.1-0.1C20.8,33.2,20.8,33.1,20.8,33L20.8,33z"/>
	</g>
</g>
</svg>
