<?xml version="1.0" encoding="utf-8"?>
<!-- Generator: Adobe Illustrator 24.0.0, SVG Export Plug-In . SVG Version: 6.00 Build 0)  -->
<svg version="1.1" id="Layer_1" xmlns="http://www.w3.org/2000/svg" xmlns:xlink="http://www.w3.org/1999/xlink" x="0px" y="0px"
	 viewBox="0 0 92.4 40" style="enable-background:new 0 0 92.4 40;" xml:space="preserve">
<style type="text/css">
	.st0{fill:#43AB38;}
	.st1{fill:#30326D;}
</style>
<g>
	<path class="st0" d="M71.1,25.5c0.7,0.9,1.3,1.8,2.3,2.5c0.6,0.5,1.3,0.8,2,1.1c0.4,0.1,0.6,0.1,0.8-0.2c1.1-1.3,1.8-2.7,2.3-4.3
		c0.1-0.3,0-0.3-0.3-0.3c-0.7,0-1.4-0.1-2.1-0.1c-0.3,0-0.4-0.1-0.4-0.4c-0.1-0.6,0.1-1.1,0.4-1.6c2.7-3.8,5.4-7.6,8.1-11.4
		c0.1-0.2,0.3-0.4,0.5-0.5c0.3-0.2,0.6-0.2,0.7,0.1c0.2,0.3,0.4,0.5,0.6,0.9c1.4,3.9,2.9,7.9,4.3,11.8c0.2,0.5,0.2,0.5-0.4,0.6
		c-0.7,0-1.4,0.1-2.2,0.1c-0.3,0-0.5,0.1-0.6,0.4c-0.6,1.7-1.5,3.2-2.7,4.4c-2.6,2.5-5.8,3.5-9.4,3.2c-3.5-0.2-5.5-2.2-6.9-5.2
		C69.2,26.4,70.1,26,71.1,25.5z"/>
	<path class="st1" d="M71.1,25.5c-1,0.5-1.9,0.9-3,1.1c-1.5,0.2-3,0-4.3-0.8c-0.3-0.2-0.5-0.4-0.8-0.6c-0.3,1.6-0.6,3.2-0.8,4.8
		c-0.2,1.1-0.4,2.2-0.6,3.4c0,0.2,0,0.3-0.3,0.3c-0.8,0-1.5,0-2.3,0c0.5-3.1,1.1-6.2,1.6-9.2c0.7-3.7,1.3-7.4,2-11.2
		c0.1-0.4,0.2-0.5,0.6-0.5c0.6,0,1.1,0,1.7,0c0.3,0,0.3,0.1,0.3,0.4c-0.1,0.3-0.1,0.7-0.2,1.1c0.6-0.3,1-0.6,1.5-0.8
		c0,0.9,0,1.8,0,2.7c-1.7,1.1-2.7,2.7-2.6,4.8c0.1,1.8,1.7,3.3,3.4,3.2c0.1,0.1,0.2,0.1,0.4,0.1c0.8-0.1,1.7-0.3,2.4-0.8
		c1.1-0.6,1.8-1.5,2.3-2.7c0.6-1.5,0.6-3-0.5-4.2c-1-1.2-2.3-1.4-3.8-1c-0.1-0.8-0.3-1.6-0.3-2.5c1.6-0.4,3.2-0.4,4.7,0.5
		c1.8,1,2.7,2.6,2.8,4.6c0.1,3-1.2,5.4-3.6,7.1C71.4,25.3,71.2,25.4,71.1,25.5z"/>
	<path class="st1" d="M14,14.3c0-0.2,0.1-0.3,0.1-0.4c0.1-0.4,0-1,0.3-1.2c0.3-0.2,0.8-0.1,1.2-0.1c0.4,0,0.9-0.2,1.2,0.1
		c0.2,0.3-0.1,0.8-0.1,1.1c-0.7,4.1-1.4,8.2-2.2,12.3c-0.1,0.3-0.2,0.5-0.5,0.5c-0.6,0-1.2,0-1.8,0c-0.3,0-0.4,0-0.3-0.3
		c0.1-0.4,0.2-0.7,0.1-1.1c-0.2,0-0.4,0.2-0.5,0.3c-2.1,1.2-4.3,1.6-6.6,0.5c-2.1-1.1-3-3-2.9-5.3c0.2-3.9,3.1-7.2,6.9-7.8
		c1.8-0.3,3.4,0,4.8,1.2C13.8,14.2,13.9,14.2,14,14.3z M8.1,24.1c2.3,0,5.1-2.1,5.1-5.2c0-2.2-1.8-3.8-4-3.5c-2.2,0.3-4,1.9-4.5,4.1
		C4,22,5.6,24.2,8.1,24.1z"/>
	<path class="st1" d="M20.7,14c0.5-0.2,0.9-0.5,1.4-0.7c2.2-0.9,4.4-0.9,6.2,0.8c1.7,1.5,2.1,3.4,1.8,5.6c-0.4,2.2-0.8,4.4-1.2,6.6
		c-0.1,0.4-0.2,0.5-0.5,0.4c-0.6,0-1.1,0-1.7,0c-0.3,0-0.4-0.1-0.3-0.4c0.4-2.4,0.9-4.8,1.3-7.2c0.3-1.7-0.8-3.3-2.5-3.7
		c-2-0.4-4.1,0.7-5.1,2.6c-0.3,0.7-0.3,1.5-0.5,2.3c-0.4,2-0.7,4-1,5.9c0,0.3-0.1,0.4-0.4,0.4c-0.6,0-1.1,0-1.7,0
		c-0.4,0-0.5-0.1-0.5-0.5c0.4-1.9,0.7-3.9,1-5.8c0.4-2.4,0.8-4.7,1.2-7.1c0.1-0.4,0.2-0.6,0.6-0.5c0.6,0,1.1,0,1.7,0
		c0.3,0,0.4,0.1,0.3,0.4C20.8,13.4,20.7,13.7,20.7,14z"/>
	<path class="st1" d="M32.9,15.4c-0.5,0-1,0-1.5,0C31,15.4,31,15.2,31,15c0.1-0.6,0.2-1.3,0.3-1.9c0-0.3,0.2-0.4,0.5-0.4
		c1,0,2,0,3,0c0.3,0,0.4-0.1,0.5-0.4c0.3-2,0.7-4,1-6c0.1-0.4,0.2-0.6,0.6-0.5c0.5,0.1,1.1,0,1.7,0c0.3,0,0.5,0,0.4,0.4
		c-0.4,2-0.7,4.1-1.1,6.1c-0.1,0.4,0,0.4,0.4,0.4c1,0,1.9,0,2.9,0c0.3,0,0.4,0.1,0.3,0.4c-0.1,0.6-0.3,1.2-0.3,1.9
		c0,0.4-0.2,0.5-0.5,0.5c-0.9,0-1.8,0-2.7,0c-0.4,0-0.6,0.1-0.6,0.5c-0.6,3.5-1.2,6.9-1.8,10.4c-0.1,0.4-0.2,0.5-0.6,0.5
		c-0.5,0-1.1,0-1.7,0c-0.4,0-0.5-0.1-0.4-0.5c0.6-3.3,1.2-6.6,1.8-9.9c0.2-1,0.2-1-0.8-1C33.5,15.4,33.2,15.4,32.9,15.4z"/>
	<path class="st1" d="M54.6,22.8c0.2,0.8,0.4,1.5,0.6,2.1c0.1,0.3,0,0.4-0.2,0.5c-1.2,0.7-2.5,1.2-3.9,1.3c-4.1,0.2-6.9-3.2-6-7.3
		c0.8-3.7,4.4-6.7,8.3-6.6c1.4,0,2.6,0.4,3.7,1.3c0.2,0.1,0.2,0.2,0.1,0.4c-0.4,0.6-0.9,1.3-1.3,2c-0.1,0.2-0.2,0.2-0.4,0.1
		c-1.6-1.4-3.3-1.3-5.1-0.4c-1.9,1-2.9,2.7-2.8,4.9c0.1,2.2,2.4,3.7,4.7,3.1C53.1,23.8,53.9,23.4,54.6,22.8z"/>
	<path class="st1" d="M57.4,26.7c-0.2,0-0.3,0-0.5,0c-0.8,0-0.8,0-0.6-0.8c0.8-4.3,1.5-8.5,2.3-12.8c0.1-0.4,0.2-0.5,0.5-0.5
		c0.6,0,1.1,0,1.7,0c0.3,0,0.4,0,0.3,0.4c-0.8,4.5-1.6,8.9-2.4,13.4c0,0.3-0.1,0.4-0.4,0.4C58,26.7,57.7,26.7,57.4,26.7z"/>
	<path class="st1" d="M41.5,26.7C41.5,26.7,41.4,26.7,41.5,26.7c-1.3,0-1.3,0-1.1-1.3c0.7-4.1,1.5-8.2,2.2-12.3
		c0.1-0.4,0.2-0.6,0.6-0.5c0.5,0,1.1,0,1.6,0c0.3,0,0.4,0.1,0.3,0.4c-0.4,2.3-0.8,4.5-1.2,6.8c-0.4,2.1-0.8,4.2-1.1,6.4
		c-0.1,0.4-0.2,0.6-0.6,0.5C42,26.7,41.7,26.7,41.5,26.7z"/>
	<path class="st0" d="M70,23.4c-0.7,0.5-1.5,0.7-2.4,0.8c-0.1,0-0.3,0-0.4-0.1c-0.1-0.6-0.3-1.3-0.4-1.9c-0.2-2-0.3-4.1-0.4-6.1
		c0-0.9,0-1.8,0-2.7c0.2-2.4,0.3-4.7,0.9-7c0,2,0.1,4,0.2,6c0,0.2,0,0.4,0.1,0.5c0,0.8,0.1,1.7,0.3,2.5c0.1,0.6,0.2,1.2,0.3,1.7
		C68.6,19.3,69.1,21.4,70,23.4z"/>
	<path class="st1" d="M60.4,9.9c-0.7,0-1.1-0.4-1.1-1.1c0-0.8,0.7-1.5,1.5-1.6c0.6,0,1.1,0.4,1.1,1.1C61.9,9.1,61.2,9.8,60.4,9.9z"
		/>
	<path class="st1" d="M46,8.4c0,0.8-0.8,1.5-1.6,1.4c-0.6,0-1.1-0.5-1-1.2c0.1-0.8,0.8-1.5,1.6-1.5C45.5,7.3,46,7.8,46,8.4z"/>
	<path class="st1" d="M16.6,30h-1.2v-0.6h3V30h-1.2v3.1h-0.7V30z M19.3,33.2c-0.2,0-0.4-0.1-0.5-0.2c-0.1-0.1-0.2-0.2-0.3-0.4
		c-0.1-0.2-0.1-0.3-0.1-0.5v-1.6H19V32c0,0.2,0,0.3,0.1,0.4c0.1,0.1,0.2,0.2,0.4,0.2c0.2,0,0.3-0.1,0.4-0.2c0.1-0.1,0.2-0.3,0.2-0.5
		v-1.4h0.6v2.6h-0.6v-0.3c-0.1,0.1-0.2,0.2-0.4,0.3C19.6,33.2,19.4,33.2,19.3,33.2L19.3,33.2z M22.2,33.2c-0.2,0-0.3,0-0.5-0.1
		c-0.2-0.1-0.3-0.2-0.4-0.3c-0.1-0.1-0.2-0.2-0.2-0.4l0.5-0.2c0,0.1,0.1,0.2,0.2,0.3c0.1,0.1,0.2,0.1,0.4,0.1c0.1,0,0.2,0,0.2,0
		c0.1,0,0.1-0.1,0.1-0.1c0,0,0-0.1,0-0.1c0-0.1,0-0.1-0.1-0.1c0,0-0.1-0.1-0.2-0.1c-0.1,0-0.1,0-0.3-0.1c-0.2,0-0.3-0.1-0.4-0.1
		c-0.1,0-0.2-0.1-0.3-0.2c-0.1-0.1-0.1-0.2-0.1-0.4c0-0.2,0-0.3,0.1-0.4c0.1-0.1,0.2-0.2,0.4-0.3c0.1-0.1,0.3-0.1,0.5-0.1
		c0.2,0,0.4,0,0.6,0.1c0.2,0.1,0.3,0.2,0.4,0.4l-0.5,0.3c-0.1-0.1-0.1-0.2-0.2-0.2C22.5,31,22.4,31,22.3,31c-0.1,0-0.2,0-0.2,0.1
		c-0.1,0-0.1,0.1-0.1,0.2c0,0,0,0.1,0.1,0.1c0,0,0.1,0.1,0.1,0.1c0.1,0,0.1,0,0.2,0.1c0.2,0.1,0.3,0.1,0.4,0.2
		c0.1,0.1,0.2,0.1,0.3,0.2c0.1,0.1,0.1,0.3,0.1,0.4c0,0.2,0,0.4-0.1,0.5c-0.1,0.1-0.2,0.2-0.4,0.3C22.6,33.2,22.4,33.2,22.2,33.2
		L22.2,33.2z M24.7,30.5h0.7l0.6,1.8l0.6-1.8h0.7l-1.1,2.6h-0.5L24.7,30.5z M28.8,33.2c-0.3,0-0.5-0.1-0.7-0.2
		c-0.2-0.1-0.3-0.3-0.4-0.5c-0.1-0.2-0.1-0.4-0.1-0.7c0-0.2,0-0.5,0.1-0.7c0.1-0.2,0.2-0.4,0.4-0.5c0.2-0.1,0.4-0.2,0.7-0.2
		c0.3,0,0.5,0.1,0.7,0.2c0.2,0.1,0.3,0.3,0.4,0.5c0.1,0.2,0.1,0.4,0.1,0.6c0,0.1,0,0.1,0,0.2c0,0,0,0.1,0,0.1h-1.8
		c0.1,0.4,0.3,0.6,0.7,0.6c0.1,0,0.2,0,0.3-0.1c0.1,0,0.2-0.1,0.3-0.2l0.4,0.4c-0.1,0.2-0.3,0.3-0.5,0.4
		C29.2,33.2,29,33.2,28.8,33.2L28.8,33.2z M29.3,31.6c0-0.1,0-0.1,0-0.2c0-0.1-0.1-0.2-0.2-0.3C29,31.1,28.9,31,28.7,31
		c-0.3,0-0.5,0.2-0.6,0.6H29.3z M30.5,30.5h0.6v0.3c0.1-0.1,0.2-0.2,0.4-0.3c0.1-0.1,0.3-0.1,0.4-0.1c0.2,0,0.4,0.1,0.5,0.2
		c0.1,0.1,0.2,0.2,0.3,0.4c0.1,0.2,0.1,0.3,0.1,0.5v1.6h-0.6v-1.5c0-0.2,0-0.3-0.1-0.4c-0.1-0.1-0.2-0.2-0.4-0.2
		c-0.2,0-0.3,0.1-0.4,0.2c-0.1,0.1-0.2,0.3-0.2,0.5v1.4h-0.6V30.5z M34.5,33.2c-0.2,0-0.3,0-0.4-0.1c-0.1-0.1-0.2-0.2-0.3-0.3
		c-0.1-0.1-0.1-0.3-0.1-0.4v-1.4h-0.4v-0.5h0.4v-0.7l0.6-0.5v1.1h0.7v0.5h-0.7v1.2c0,0.1,0,0.2,0.1,0.3c0.1,0,0.1,0.1,0.2,0.1
		c0.1,0,0.1,0,0.2,0c0.1,0,0.1,0,0.2-0.1v0.6c-0.1,0-0.1,0-0.2,0.1C34.6,33.2,34.6,33.2,34.5,33.2L34.5,33.2z M36.5,30.5
		c0.2,0,0.4,0,0.6,0.1c0.2,0.1,0.3,0.2,0.4,0.4c0.1,0.2,0.1,0.4,0.1,0.6v1.6h-0.5l0-0.3c-0.1,0.1-0.2,0.2-0.4,0.3
		c-0.2,0.1-0.3,0.1-0.5,0.1c-0.2,0-0.3,0-0.5-0.1c-0.1-0.1-0.3-0.2-0.3-0.3c-0.1-0.1-0.1-0.3-0.1-0.5c0-0.3,0.1-0.5,0.3-0.6
		c0.2-0.1,0.4-0.2,0.8-0.2h0.7c0-0.1,0-0.2-0.1-0.3c0-0.1-0.1-0.1-0.2-0.2c-0.1,0-0.2-0.1-0.3-0.1c-0.1,0-0.3,0-0.4,0.1
		c-0.1,0.1-0.2,0.2-0.3,0.3l-0.5-0.4c0.1-0.2,0.3-0.3,0.5-0.4C36.1,30.5,36.3,30.5,36.5,30.5L36.5,30.5z M36.4,32.7
		c0.1,0,0.2,0,0.3-0.1c0.1-0.1,0.2-0.1,0.2-0.2c0.1-0.1,0.1-0.2,0.1-0.3v0h-0.7c-0.1,0-0.2,0-0.3,0.1C36,32.2,36,32.3,36,32.4
		c0,0.1,0,0.2,0.1,0.2C36.1,32.6,36.3,32.7,36.4,32.7L36.4,32.7z M39.1,33.2c-0.2,0-0.3,0-0.5-0.1c-0.2-0.1-0.3-0.2-0.4-0.3
		c-0.1-0.1-0.2-0.2-0.2-0.4l0.5-0.2c0,0.1,0.1,0.2,0.2,0.3c0.1,0.1,0.2,0.1,0.4,0.1c0.1,0,0.2,0,0.2,0c0.1,0,0.1-0.1,0.1-0.1
		c0,0,0-0.1,0-0.1c0-0.1,0-0.1-0.1-0.1c0,0-0.1-0.1-0.2-0.1c-0.1,0-0.1,0-0.3-0.1c-0.2,0-0.3-0.1-0.4-0.1c-0.1,0-0.2-0.1-0.3-0.2
		c-0.1-0.1-0.1-0.2-0.1-0.4c0-0.2,0-0.3,0.1-0.4c0.1-0.1,0.2-0.2,0.4-0.3c0.1-0.1,0.3-0.1,0.5-0.1c0.2,0,0.4,0,0.6,0.1
		c0.2,0.1,0.3,0.2,0.4,0.4l-0.5,0.3c-0.1-0.1-0.1-0.2-0.2-0.2C39.4,31,39.3,31,39.2,31c-0.1,0-0.2,0-0.2,0.1c-0.1,0-0.1,0.1-0.1,0.2
		c0,0,0,0.1,0.1,0.1c0,0,0.1,0.1,0.1,0.1c0.1,0,0.1,0,0.2,0.1c0.2,0.1,0.3,0.1,0.4,0.2c0.1,0.1,0.2,0.1,0.3,0.2
		c0.1,0.1,0.1,0.3,0.1,0.4c0,0.2,0,0.4-0.1,0.5c-0.1,0.1-0.2,0.2-0.4,0.3C39.5,33.2,39.3,33.2,39.1,33.2L39.1,33.2z M40.9,32.5h0.6
		v0.7h-0.6V32.5z M42.6,32.5h0.6v0.7h-0.6V32.5z M44.3,32.5h0.6v0.7h-0.6V32.5z M47.9,29.5v0.7h-0.7v-0.7H47.9z M47.8,30.6l0.1,2.6
		h-0.6l0.1-2.6H47.8z M48.8,29.5h0.7v1.4c0.1-0.1,0.2-0.2,0.4-0.3c0.1-0.1,0.3-0.1,0.4-0.1c0.2,0,0.4,0.1,0.5,0.2
		c0.1,0.1,0.3,0.2,0.3,0.4c0.1,0.2,0.1,0.3,0.1,0.5v1.6h-0.7v-1.5c0-0.2,0-0.3-0.1-0.4c-0.1-0.1-0.2-0.2-0.4-0.2
		c-0.2,0-0.3,0.1-0.5,0.2c-0.1,0.1-0.2,0.3-0.2,0.6v1.3h-0.7V29.5z M52.9,33.2c-0.3,0-0.5-0.1-0.7-0.2c-0.2-0.1-0.4-0.3-0.5-0.5
		c-0.1-0.2-0.2-0.4-0.2-0.7c0-0.2,0.1-0.5,0.2-0.7c0.1-0.2,0.3-0.4,0.5-0.5c0.2-0.1,0.4-0.2,0.7-0.2c0.3,0,0.5,0.1,0.7,0.2
		c0.2,0.1,0.4,0.3,0.5,0.5c0.1,0.2,0.2,0.4,0.2,0.7c0,0.2-0.1,0.5-0.2,0.7c-0.1,0.2-0.3,0.4-0.5,0.5C53.4,33.2,53.2,33.2,52.9,33.2
		L52.9,33.2z M52.9,32.7c0.2,0,0.3,0,0.4-0.1c0.1-0.1,0.2-0.2,0.2-0.3s0.1-0.3,0.1-0.4c0-0.2-0.1-0.4-0.2-0.6
		c-0.1-0.2-0.3-0.2-0.5-0.2c-0.2,0-0.3,0-0.4,0.1c-0.1,0.1-0.2,0.2-0.2,0.3c0,0.1-0.1,0.3-0.1,0.4c0,0.2,0,0.3,0.1,0.4
		c0,0.1,0.1,0.2,0.2,0.3C52.7,32.6,52.8,32.7,52.9,32.7L52.9,32.7z M55.3,33.1l-1-2.6H55l0.7,1.8l0.7-1.8H57l-1.5,3.8h-0.7
		L55.3,33.1z M57.5,32.5h0.7v0.7h-0.7V32.5z M57.5,29.5h0.6L58.1,32h-0.5L57.5,29.5z"/>
</g>
</svg>
