<?xml version="1.0" encoding="utf-8"?>
<!-- Generator: Adobe Illustrator 25.1.0, SVG Export Plug-In . SVG Version: 6.00 Build 0)  -->
<svg version="1.1" id="Layer_1" xmlns="http://www.w3.org/2000/svg" xmlns:xlink="http://www.w3.org/1999/xlink" x="0px" y="0px"
	 viewBox="0 0 38.3 38.5" style="enable-background:new 0 0 38.3 38.5;" xml:space="preserve">
<style type="text/css">
	.st0{fill:#222D80;}
	.st1{fill:#C0003C;}
	.st2{fill:#FFFFFF;}
</style>
<g>
	<rect x="0" class="st0" width="38.3" height="38.5"/>
	<polygon class="st1" points="23.7,19 38.3,0 36.2,0 21.5,19 	"/>
	<path class="st2" d="M29.3,27.5c0.7,1.9,2,6.8,2.6,7.2h-3.6c0,0,0-0.7-0.2-1.3c-0.2-0.6-1.5-4.8-1.5-4.8h-5.7L20,29.9
		c0,0,1.1,3.4,1.2,3.6c0.1,0.3,0.6,1.2,0.6,1.2h-3.5c0,0-0.1-0.5-0.1-0.7c0-0.2-0.3-1.1-0.3-1.1s-0.8,0.9-1,1.3
		c-0.2,0.4-0.3,0.6-0.3,0.6h-2.7c0,0-0.1-0.5-0.1-0.7c0-0.2-0.4-1.2-0.4-1.2s-0.8,0.9-1,1.3c-0.2,0.4-0.3,0.6-0.3,0.6H9.4
		c0,0,0.8-0.7,1-1c0.4-0.5,2.1-2.7,2.1-2.7l-0.7-2.3H6.2c0,0-3.2,4.3-3.4,4.4c-0.1,0.1-1.1,1.5-1.1,1.6H0v-1.1c0,0,0.1-0.1,0.1-0.1
		c0.1,0,2.5-3,4.7-6c2-2.6,3.9-5.1,4-5.3c0.4-0.6,1-1.8,1-1.8h2.9c0,0,0.1,1.2,0.2,1.4c0.1,0.2,1.9,6.2,1.9,6.2l1-1.3l-1.7-5.3
		c0,0-0.4-1-0.5-1.1H17c0,0,0,0.5,0.1,0.9c0.1,0.4,0.9,3.1,0.9,3.1s2.3-3,2.5-3.2c0.3-0.4,0.3-0.9,0.3-0.9h2.9c0,0-0.5,0.4-1.4,1.6
		c-0.3,0.4-3.3,4.3-3.3,4.3s0.3,0.9,0.4,1.4c0,0.1,0.1,0.2,0.1,0.2c0,0,0.1-0.1,0.2-0.2c0.8-1,4.3-5.7,4.5-6.1
		c0.2-0.3,0.4-0.7,0.6-1.1h2.8c0,0,0.1,0.8,0.2,1.1L29.3,27.5z M25,23.1c-0.4,0.9-2.8,3.8-2.8,3.8H26c0,0-0.7-2.3-0.9-2.8
		C25.1,23.7,25.1,23.2,25,23.1C25.1,23.1,25.1,23,25,23.1 M10.3,23.1c-0.4,0.9-2.8,3.8-2.8,3.8h3.8c0,0-0.7-2.3-0.9-2.8
		C10.3,23.7,10.4,23.2,10.3,23.1C10.4,23.1,10.4,23,10.3,23.1 M16.1,32.1l1.1-1.5c-0.1-0.1-0.7-1.9-0.7-1.9l-1,1.3L16.1,32.1z"/>
</g>
</svg>
