<?xml version="1.0" encoding="utf-8"?>
<!-- Generator: Adobe Illustrator 24.0.0, SVG Export Plug-In . SVG Version: 6.00 Build 0)  -->
<svg version="1.1" id="Layer_1" xmlns="http://www.w3.org/2000/svg" xmlns:xlink="http://www.w3.org/1999/xlink" x="0px" y="0px"
	 viewBox="0 0 176.1 40" style="enable-background:new 0 0 176.1 40;" xml:space="preserve">
<style type="text/css">
	.st0{fill-rule:evenodd;clip-rule:evenodd;fill:#ED3247;}
	.st1{fill:#ED3247;}
</style>
<g>
	<path class="st0" d="M35.4,13.7c-0.2-0.4-0.5-0.8-0.9-1.1c-0.6-0.5-1.3-0.9-2-1.2c-1.9-0.8-3.9-1.2-6-1.5c-1.2-0.2-2.5-0.2-3.8-0.3
		c-1.8-0.1-3.5-0.1-5.2,0.1c-1.4,0.1-2.8,0.3-4.2,0.6c-1.6,0.3-3.1,0.7-4.5,1.4C8,12,7.4,12.4,6.8,12.9c-0.8,0.9-0.9,1.9,0,2.8
		c0.3,0.3,0.7,0.6,1.1,0.9c1.1,0.7,2.3,1.1,3.5,1.4c1.3,0.4,2.6,0.6,3.9,0.8c0.5,0.1,1,0.1,1.5,0.2c0.8-2.6,1.7-5.2,2.5-7.9
		c0,0,0,0,0,0c0.1,2.7,0.3,5.3,0.4,8c0.2,0,0.3,0,0.5,0c1,0,2.1,0,3.1-0.1c1.6-0.1,3.2-0.3,4.7-0.6c1.5-0.3,3-0.7,4.5-1.3
		c0.8-0.4,1.6-0.8,2.2-1.5C35.5,15.1,35.7,14.4,35.4,13.7"/>
	<path class="st0" d="M16.4,19.3c-1.8,0-3.6,0.2-5.4,0.5c-1.7,0.3-3.4,0.8-5,1.5c-1,0.5-1.9,1-2.6,1.8c-0.6,0.7-0.9,1.6-0.6,2.5
		c0.3,0.8,0.8,1.4,1.5,1.9c1.1,0.8,2.5,1.4,3.9,1.8c1.4,0.4,2.9,0.7,4.4,0.9c0.2,0,0.5,0.1,0.7,0.1c1.2-3.7,2.4-7.4,3.6-11.1
		C16.6,19.3,16.5,19.3,16.4,19.3"/>
	<path class="st0" d="M29.6,21.9c-1.3-0.8-2.7-1.3-4.2-1.7c-1.4-0.4-2.9-0.6-4.4-0.8c-0.4,0-0.7-0.1-1.1-0.1
		c0.2,3.7,0.4,7.4,0.6,11.1c0.1,0,0.2,0,0.3,0c0.9-0.1,1.8-0.2,2.7-0.4c1.6-0.3,3.2-0.7,4.7-1.4c1.1-0.5,2.1-1,2.9-1.9
		c0.9-1,1.1-2.2,0.3-3.3C31,22.8,30.3,22.3,29.6,21.9"/>
	<path class="st1" d="M55.9,21.2c1.2-0.3,1.8-1.1,1.8-2.3v-1.7c0-1.9-1.1-2.8-3.2-2.8H42.6v14h11c2.8,0,4.2-1,4.2-2.8v-1.8
		C57.8,22.4,57.2,21.5,55.9,21.2 M46,22.4h7.1c0.6,0,0.9,0.1,1,0.2c0.2,0.1,0.4,0.5,0.4,0.9v1c0,0.5-0.1,0.8-0.4,0.9
		c-0.2,0.1-0.5,0.2-1,0.2H46C46,25.6,46,22.4,46,22.4z M54.5,19c0,0.2,0,0.8-1.3,0.8H46v-3h7.1c1.3,0,1.3,0.6,1.3,0.8
		C54.5,17.7,54.5,19,54.5,19z"/>
	<path class="st1" d="M70.8,14.4h-3.2l-7.9,14h3.5l1.6-3h8.5l1.6,3h3.9L70.8,14.4L70.8,14.4z M71.8,22.6h-5.5l2.8-5.1L71.8,22.6z"/>
	<path class="st1" d="M94.2,21.7c0,0.3,0,0.9,0.1,2c-0.3-0.4-0.8-0.8-1.3-1.2l-9.6-8.1l0,0H81v14h3.2v-7.6c0-0.5,0-1.1-0.1-1.8
		c0.3,0.3,0.6,0.6,0.9,0.8L95,28.4l0,0h2.4v-14h-3.2L94.2,21.7L94.2,21.7z"/>
	<path class="st1" d="M115,14.4h-10.1c-1.4,0-2.3,0.2-2.8,0.7c-0.5,0.5-0.8,1.4-0.8,2.7V25c0,1.3,0.2,2.2,0.8,2.7
		c0.5,0.5,1.4,0.7,2.8,0.7H115c1.4,0,2.3-0.2,2.8-0.7c0.5-0.5,0.8-1.4,0.8-2.7v-7.2c0-1.3-0.2-2.2-0.8-2.7
		C117.3,14.6,116.4,14.4,115,14.4 M115.1,25.5h-10.2v-8.4h10.2V25.5z"/>
	<path class="st1" d="M134.6,23.2c2.1,0,3.2-0.9,3.2-2.8v-3.2c0-1.9-1.1-2.8-3.2-2.8h-11.9v14h3.4v-5.2h2.8l5.5,5.1l0,0h5l-6.3-5.2
		H134.6z M126.1,17h7c0.6,0,0.9,0.1,1,0.1c0.2,0.1,0.3,0.4,0.3,0.8v1.7c0,0.4-0.1,0.7-0.3,0.8c-0.1,0.1-0.4,0.1-1,0.1h-7V17z"/>
	<polygon class="st1" points="140.5,17.1 146.7,17.1 146.7,28.4 150.2,28.4 150.2,17.1 156.5,17.1 156.5,14.4 140.5,14.4 	"/>
	<polygon class="st1" points="162.8,25.5 162.8,22.4 169.3,22.4 169.3,19.8 162.8,19.8 162.8,17 173.4,17 173.4,14.4 159.3,14.4 
		159.3,28.4 173.5,28.4 173.5,25.5 	"/>
</g>
</svg>
