<?xml version="1.0" encoding="utf-8"?>
<!-- Generator: Adobe Illustrator 24.0.0, SVG Export Plug-In . SVG Version: 6.00 Build 0)  -->
<svg version="1.1" id="Layer_1" xmlns="http://www.w3.org/2000/svg" xmlns:xlink="http://www.w3.org/1999/xlink" x="0px" y="0px"
	 viewBox="0 0 113.3 40" style="enable-background:new 0 0 113.3 40;" xml:space="preserve">
<style type="text/css">
	.st0{fill:#E86726;}
</style>
<g>
	<path class="st0" d="M2.3,6.8h3.9c0,2.4,0,4.8,0,7.1c2.4-2.8,7.4-2.4,9.6,0.6c1.5,1.9,1.8,4.5,1.5,6.8c-0.3,2.5-1.8,4.9-4.2,5.9
		c-2.3,0.9-5.4,0.6-6.9-1.6c0,0.6,0,1.1,0,1.7H2.3C2.3,20.5,2.3,13.6,2.3,6.8 M8.4,16c-2.4,1-2.9,4.3-1.7,6.4c1,1.8,3.6,2.2,5.1,0.9
		c1.6-1.3,1.8-3.8,0.9-5.6C12.1,16,10,15.3,8.4,16"/>
	<path class="st0" d="M21.2,13c2-1.2,4.5-1.2,6.6-0.5c1.9,0.6,3.2,2.3,3.4,4.2c0.2,3.6-0.2,7.1,0.2,10.7c-1.2,0-2.5,0-3.7,0
		c-0.1-0.5-0.1-1.1-0.1-1.6c-1.9,2.4-5.9,2.7-8.1,0.5c-1.7-1.7-1.6-4.9,0.3-6.4c2-1.6,4.7-1.2,7-1.9c0.7-0.3,0.6-1.3,0.3-1.8
		c-0.7-1-2.3-1.1-3.4-0.7c-0.9,0.3-1.4,1.3-1.6,2.2c-1.2-0.3-2.4-0.5-3.6-0.8C18.8,15.3,19.7,13.8,21.2,13 M23.8,21.2
		c-0.8,0.2-1.6,0.9-1.5,1.8c0,0.8,0.7,1.5,1.5,1.6c1.2,0.2,2.6-0.3,3.1-1.5c0.4-0.8,0.4-1.7,0.4-2.5C26.2,20.9,25,21,23.8,21.2"/>
	<path class="st0" d="M37.3,14.1c1.6-2.3,5.1-2.7,7.3-1.1c1.5,1.1,2.1,3,2.1,4.8c0,3.2,0,6.4,0,9.6h-4c0-2.9,0-5.8,0-8.8
		c0-0.9-0.3-1.9-1.1-2.5c-1.1-0.7-2.7-0.6-3.5,0.5c-0.6,0.7-0.7,1.6-0.7,2.5c0,2.7,0,5.5,0,8.2h-4c0-5.1,0-10.1,0-15.2h3.9
		C37.3,12.8,37.3,13.5,37.3,14.1"/>
	<path class="st0" d="M60,13.9c2.6-2.5,7.2-2.6,9.9-0.2c1.9,1.8,2.4,4.6,2.2,7.1c-3.5,0.1-7,0-10.5,0.1c0.2,1.8,1.8,3.3,3.7,3.2
		c1.5,0.1,2.8-0.9,3.3-2.2c1.1,0.3,2.2,0.7,3.4,1c-0.6,1.8-1.8,3.3-3.6,4.1c-2.5,1.1-5.6,0.8-7.8-0.9C56.8,23.3,56.6,17.1,60,13.9
		 M62.4,16.4c-0.4,0.5-0.6,1.1-0.8,1.7c2.2,0,4.4,0,6.5,0c-0.1-0.7-0.3-1.5-0.9-2C65.8,14.9,63.5,15,62.4,16.4"/>
	<path class="st0" d="M101.5,12.2c2.4-0.5,5,0,6.9,1.6c3.4,2.9,3.5,8.8,0.2,11.8c-2.9,2.6-7.8,2.6-10.6-0.1c-3.2-3-3.2-8.8,0.2-11.7
		C99.2,13,100.3,12.5,101.5,12.2 M102.6,15.7c-3.3,0.7-3.9,5.7-1.2,7.5c1.4,1,3.5,0.7,4.7-0.5c1.2-1.3,1.3-3.4,0.6-5
		C106,16.2,104.2,15.3,102.6,15.7"/>
	<path class="st0" d="M48.4,12.2h3.9c0,0.7,0,1.4,0,2.1c1-1.8,3.2-2.4,5.1-2.1c0,1.4,0,2.8,0,4.2c-1.1-0.1-2.3-0.2-3.3,0.4
		c-1.2,0.7-1.7,2.1-1.7,3.4c0,2.4,0,4.7,0,7.1c-1.3,0-2.7,0-4,0C48.4,22.3,48.4,17.3,48.4,12.2"/>
	<path class="st0" d="M75.9,13.3c2.3-1.6,6-1.7,7.9,0.6c0-0.6,0-1.1,0-1.7c1.3,0,2.6,0,3.9,0c0,4.5,0,9.1,0,13.6
		c0,2.1-0.8,4.3-2.4,5.7c-2.1,1.8-5.2,2-7.8,1.3c-2.3-0.6-4.2-2.6-4.7-5c1.2-0.4,2.4-0.7,3.7-1c0.3,1.2,1.1,2.3,2.4,2.6
		c1.4,0.3,3.2,0.1,4.1-1.1c0.8-1,0.8-2.4,0.8-3.6c-2.1,2.4-6,2.1-8.3,0.2C71.8,22.1,72.1,15.8,75.9,13.3 M79.7,15.7
		c-2.6,0.4-3.5,3.7-2.2,5.7c0.9,1.5,3.1,1.9,4.6,1c2.1-1.2,2.2-4.5,0.4-6.1C81.8,15.8,80.7,15.5,79.7,15.7"/>
	<path class="st0" d="M89.8,12.2c1.3,0,2.7,0,4,0v15.2h-4V12.2z"/>
</g>
</svg>
