<?xml version="1.0" encoding="utf-8"?>
<!-- Generator: Adobe Illustrator 24.0.0, SVG Export Plug-In . SVG Version: 6.00 Build 0)  -->
<svg version="1.1" id="Layer_1" xmlns="http://www.w3.org/2000/svg" xmlns:xlink="http://www.w3.org/1999/xlink" x="0px" y="0px"
	 viewBox="0 0 40.3 40" style="enable-background:new 0 0 40.3 40;" xml:space="preserve">
<style type="text/css">
	.st0{fill:#61AC70;}
	.st1{fill:#FFFFFF;}
</style>
<g>
	<ellipse class="st0" cx="20.1" cy="20" rx="18.2" ry="17.9"/>
	<g id="XMLID_1_">
		<g>
			<path class="st1" d="M7.9,9.1h2.3v2.1l-0.1,0.9c0.5-0.4,1-0.7,1.6-0.7c1.6,0,2.6,1.3,2.6,3.3c0,2.3-1.3,3.6-2.7,3.6
				c-0.6,0-1.2-0.3-1.7-0.9H9.8l-0.2,0.7H7.9V9.1z M11,16.6c0.5,0,1-0.4,1-1.7c0-1.1-0.3-1.5-0.9-1.5c-0.3,0-0.6,0.1-0.9,0.5v2.4
				C10.4,16.6,10.7,16.6,11,16.6"/>
			<path class="st1" d="M15.4,9.8c0-0.7,0.5-1.1,1.3-1.1c0.7,0,1.3,0.5,1.3,1.1c0,0.7-0.5,1.1-1.3,1.1C15.9,10.9,15.4,10.4,15.4,9.8
				 M15.5,11.7h2.3v6.6h-2.3V11.7z"/>
			<path class="st1" d="M22.1,11.6c2,0,2.9,1.4,2.9,3.2c0,0.4-0.1,0.7-0.1,0.9h-3.8c0.2,0.8,0.8,1.1,1.5,1.1c0.4,0,0.9-0.1,1.3-0.4
				l0.7,1.3c-0.7,0.5-1.7,0.8-2.4,0.8c-1.9,0-3.4-1.3-3.4-3.5C19,12.9,20.5,11.6,22.1,11.6 M23.1,14.3c0-0.6-0.2-1-0.9-1
				c-0.5,0-0.9,0.3-1.1,1H23.1z"/>
			<path id="XMLID_143_" class="st1" d="M26.2,11.7H28l0.2,0.8h0.1c0.5-0.5,1.2-0.9,2.1-0.9c1.4,0,2.1,1.1,2.1,2.7v4.1h-2.3v-3.8
				c0-0.8-0.2-1.1-0.7-1.1c-0.4,0-0.7,0.2-1,0.5v4.3h-2.3C26.2,18.3,26.2,11.7,26.2,11.7z"/>
			<path class="st1" d="M7.9,20h2.3v2.1L10.1,23c0.5-0.4,1-0.7,1.6-0.7c1.6,0,2.6,1.3,2.6,3.3c0,2.3-1.3,3.6-2.7,3.6
				c-0.6,0-1.2-0.3-1.7-0.9H9.8L9.6,29H7.9V20z M11,27.5c0.5,0,1-0.4,1-1.7c0-1.1-0.3-1.5-0.9-1.5c-0.3,0-0.6,0.1-0.9,0.5v2.4
				C10.4,27.4,10.7,27.5,11,27.5"/>
			<path class="st1" d="M15.4,20.6c0-0.7,0.5-1.1,1.3-1.1c0.7,0,1.3,0.5,1.3,1.1c0,0.7-0.5,1.1-1.3,1.1
				C15.9,21.8,15.4,21.3,15.4,20.6 M15.5,22.6h2.3v6.6h-2.3V22.6z"/>
			<path class="st1" d="M22.1,22.4c1.9,0,2.9,1.4,2.9,3.2c0,0.4-0.1,0.7-0.1,0.9h-3.7c0.2,0.8,0.8,1.1,1.5,1.1
				c0.4,0,0.9-0.1,1.3-0.4l0.7,1.3C24,29,23,29.3,22.3,29.3c-1.9,0-3.4-1.3-3.4-3.4C18.9,23.7,20.5,22.4,22.1,22.4 M23,25.1
				c0-0.6-0.2-1-0.9-1c-0.5,0-0.9,0.3-1,1H23z"/>
			<path id="XMLID_136_" class="st1" d="M26.2,22.6H28l0.2,0.8h0.1c0.5-0.5,1.2-0.9,2.1-0.9c1.4,0,2,1.1,2,2.7v4h-2.3v-3.8
				c0-0.8-0.2-1.1-0.7-1.1c-0.4,0-0.7,0.2-1,0.5v4.3h-2.3v-6.5H26.2z"/>
			<path class="st1" d="M26.1,20.1c0-0.2,0.1-0.4,0.1-0.6h0.3v0.3l0,0c0.2-0.2,0.4-0.3,0.7-0.3c0.4,0,0.7,0.4,0.6,0.9
				c-0.1,0.6-0.6,0.9-1,0.9c-0.2,0-0.4-0.1-0.5-0.3l0,0l-0.2,1h-0.3L26.1,20.1z M26.3,20.6v0.1c0,0.2,0.2,0.4,0.4,0.4
				c0.3,0,0.6-0.3,0.7-0.7c0.1-0.4-0.1-0.7-0.4-0.7c-0.2,0-0.4,0.2-0.6,0.4v0.1L26.3,20.6z"/>
			<path class="st1" d="M28.9,21.3v-0.2l0,0c-0.1,0.1-0.3,0.3-0.6,0.3c-0.4,0-0.5-0.2-0.4-0.5c0.1-0.4,0.5-0.7,1.2-0.7l0,0
				c0-0.1,0-0.4-0.3-0.4c-0.2,0-0.3,0.1-0.5,0.1v-0.2c0.2-0.1,0.4-0.2,0.6-0.2c0.5,0,0.6,0.4,0.5,0.7l-0.1,0.7c0,0.2,0,0.3,0,0.4
				C29.3,21.3,28.9,21.3,28.9,21.3z M29,20.4c-0.3,0-0.8,0.1-0.8,0.4c0,0.2,0.1,0.3,0.2,0.3c0.2,0,0.4-0.1,0.5-0.3v-0.1L29,20.4z"/>
			<path id="XMLID_131_" class="st1" d="M30,20.1c0-0.2,0.1-0.4,0.1-0.5h0.3v0.3l0,0c0.1-0.2,0.3-0.4,0.6-0.4h0.1L31,19.8h-0.1
				c-0.2,0-0.4,0.2-0.5,0.4v0.1l-0.2,0.9h-0.3L30,20.1z"/>
			<path class="st1" d="M32,21.3v-0.2l0,0c-0.1,0.1-0.3,0.3-0.6,0.3c-0.4,0-0.5-0.2-0.4-0.5c0.1-0.4,0.5-0.7,1.2-0.7l0,0
				c0-0.1,0-0.4-0.3-0.4c-0.2,0-0.3,0.1-0.5,0.1v-0.2c0.2-0.1,0.4-0.2,0.6-0.2c0.5,0,0.6,0.4,0.5,0.7l-0.1,0.7c0,0.2,0,0.3,0,0.4
				C32.4,21.3,32,21.3,32,21.3z M32.1,20.4c-0.3,0-0.8,0.1-0.8,0.4c0,0.2,0.1,0.3,0.3,0.3c0.2,0,0.4-0.1,0.5-0.3v-0.1V20.4z"/>
		</g>
	</g>
</g>
</svg>
