<svg width="164" height="78" viewBox="0 0 164 78" fill="none" xmlns="http://www.w3.org/2000/svg">
<path d="M109.811 5.88219C109.97 5.88219 110.169 5.84297 110.407 5.80376C110.645 5.76454 110.804 5.72533 110.963 5.6469C111.122 5.56846 111.202 5.45082 111.241 5.33317C111.281 5.21552 111.281 5.01945 111.281 4.9018C111.281 4.47043 111.122 4.11748 110.844 3.84297C110.566 3.56846 110.089 3.4116 109.414 3.4116C109.136 3.4116 108.858 3.45082 108.58 3.49003C108.301 3.52925 108.103 3.6469 107.944 3.76454C107.745 3.88219 107.586 4.07827 107.467 4.27435C107.348 4.47043 107.269 4.74494 107.229 5.05866H106.355C106.395 4.62729 106.474 4.27435 106.673 3.96062C106.832 3.6469 107.07 3.4116 107.348 3.21552C107.626 3.01944 107.944 2.86258 108.301 2.78415C108.659 2.70572 109.056 2.6665 109.454 2.6665C109.811 2.6665 110.169 2.70572 110.487 2.78415C110.804 2.86258 111.082 2.98023 111.361 3.17631C111.599 3.33317 111.798 3.56846 111.917 3.88219C112.036 4.1567 112.115 4.54886 112.115 4.94101V8.94101C112.115 9.25474 112.155 9.49003 112.314 9.56846C112.433 9.6469 112.672 9.6469 113.029 9.49003V10.1567C112.95 10.1567 112.87 10.1959 112.751 10.2351C112.632 10.2743 112.513 10.2743 112.354 10.2743C112.235 10.2743 112.076 10.2743 111.956 10.2351C111.798 10.2351 111.718 10.1567 111.599 10.1175C111.519 10.0391 111.44 9.96062 111.4 9.88219C111.361 9.80376 111.321 9.68611 111.281 9.56846C111.281 9.45082 111.241 9.33317 111.241 9.17631C110.884 9.56846 110.447 9.88219 110.01 10.0783C109.533 10.2743 109.056 10.392 108.5 10.392C108.182 10.392 107.864 10.3528 107.547 10.2743C107.229 10.1959 106.99 10.0391 106.752 9.88219C106.514 9.68611 106.355 9.49003 106.196 9.21552C106.077 8.94101 105.997 8.6665 105.997 8.27435C105.997 7.01945 106.871 6.31356 108.58 6.07827L109.811 5.88219ZM111.241 6.31356C110.884 6.47043 110.526 6.54886 110.129 6.62729C109.771 6.6665 109.374 6.70572 109.017 6.74494C108.341 6.78415 107.864 6.94101 107.467 7.17631C107.07 7.4116 106.911 7.80376 106.911 8.27435C106.911 8.50964 106.951 8.70572 107.03 8.86258C107.11 9.01945 107.229 9.17631 107.388 9.25474C107.547 9.37239 107.706 9.45082 107.904 9.49003C108.103 9.52925 108.301 9.56846 108.5 9.56846C108.858 9.56846 109.175 9.52925 109.493 9.45082C109.811 9.37239 110.089 9.25474 110.367 9.05866C110.606 8.9018 110.804 8.6665 110.963 8.39199C111.122 8.11748 111.202 7.80376 111.202 7.45082V6.31356H111.241Z" fill="#3338BE"/>
<path d="M114.34 10.1569V0H115.214V3.88235C115.572 3.52941 115.929 3.21569 116.287 3.01961C116.644 2.78431 117.081 2.66667 117.598 2.66667C118.075 2.66667 118.472 2.7451 118.869 2.90196C119.266 3.05882 119.584 3.33333 119.862 3.72549C120.061 4 120.14 4.27451 120.18 4.54902C120.22 4.82353 120.22 5.09804 120.22 5.41176V10.1961H119.346V5.41176C119.346 4.7451 119.187 4.27451 118.909 3.92157C118.631 3.60784 118.114 3.41176 117.439 3.41176C117.161 3.41176 116.923 3.45098 116.724 3.52941C116.486 3.60784 116.287 3.72549 116.128 3.84314C115.969 3.96078 115.81 4.11765 115.691 4.31372C115.572 4.47059 115.453 4.66667 115.413 4.86274C115.333 5.09804 115.294 5.33333 115.254 5.52941C115.254 5.7647 115.214 6 115.214 6.23529V10.1569H114.34Z" fill="#3338BE"/>
<path d="M125.265 10.3528C124.789 10.3528 124.351 10.2743 123.914 10.1175C123.477 9.96062 123.12 9.72533 122.842 9.4116C122.524 9.09788 122.286 8.70572 122.087 8.19591C121.888 7.68611 121.809 7.13709 121.809 6.50964C121.809 5.96062 121.888 5.49003 122.008 5.01944C122.166 4.54886 122.365 4.1567 122.643 3.80376C122.921 3.45082 123.279 3.17631 123.716 2.98023C124.153 2.78415 124.63 2.6665 125.225 2.6665C125.821 2.6665 126.298 2.78415 126.735 2.98023C127.172 3.17631 127.53 3.45082 127.808 3.80376C128.086 4.1567 128.324 4.54886 128.443 5.01944C128.563 5.49003 128.642 5.99984 128.642 6.54886C128.642 7.13709 128.563 7.6469 128.404 8.11748C128.245 8.58807 128.006 8.98023 127.728 9.33317C127.411 9.68611 127.053 9.9214 126.656 10.1175C126.219 10.2743 125.782 10.3528 125.265 10.3528ZM127.768 6.50964C127.768 6.07827 127.728 5.68611 127.609 5.29395C127.53 4.9018 127.371 4.58807 127.172 4.31356C126.974 4.03905 126.695 3.80376 126.417 3.6469C126.1 3.49003 125.702 3.4116 125.265 3.4116C124.828 3.4116 124.431 3.49003 124.113 3.68611C123.795 3.84297 123.517 4.07827 123.319 4.39199C123.12 4.6665 122.961 5.01944 122.882 5.37239C122.802 5.72533 122.723 6.11748 122.723 6.50964C122.723 6.98023 122.762 7.37239 122.882 7.76454C123.001 8.1567 123.16 8.47042 123.358 8.74493C123.557 9.01944 123.835 9.21552 124.153 9.37238C124.471 9.52925 124.828 9.60768 125.225 9.60768C125.663 9.60768 126.06 9.52925 126.378 9.33317C126.695 9.17631 126.974 8.94101 127.172 8.62729C127.371 8.35278 127.53 7.99984 127.609 7.6469C127.728 7.29395 127.768 6.9018 127.768 6.50964Z" fill="#3338BE"/>
<path d="M131.145 10.1567H130.271V2.86258H131.145V4.23513H131.185C131.423 3.6469 131.741 3.25474 132.098 3.01944C132.456 2.78415 132.972 2.6665 133.608 2.6665V3.56846C133.131 3.56846 132.734 3.6469 132.416 3.80376C132.098 3.96062 131.86 4.19592 131.661 4.47043C131.463 4.74493 131.344 5.05866 131.264 5.45082C131.185 5.84297 131.145 6.19592 131.145 6.62729V10.1567Z" fill="#3338BE"/>
<path d="M138.415 5.88219C138.574 5.88219 138.773 5.84297 139.011 5.80376C139.249 5.76454 139.408 5.72533 139.567 5.6469C139.726 5.56846 139.806 5.45082 139.845 5.33317C139.885 5.21552 139.885 5.01945 139.885 4.9018C139.885 4.47043 139.726 4.11748 139.448 3.84297C139.17 3.56846 138.693 3.4116 138.018 3.4116C137.74 3.4116 137.462 3.45082 137.184 3.49003C136.906 3.52925 136.707 3.6469 136.548 3.76454C136.349 3.88219 136.19 4.07827 136.071 4.27435C135.952 4.47043 135.873 4.74494 135.833 5.05866H134.959C134.999 4.62729 135.078 4.27435 135.277 3.96062C135.436 3.6469 135.674 3.4116 135.952 3.21552C136.23 3.01944 136.548 2.86258 136.906 2.78415C137.263 2.70572 137.66 2.6665 138.058 2.6665C138.415 2.6665 138.773 2.70572 139.091 2.78415C139.408 2.86258 139.686 2.98023 139.965 3.17631C140.203 3.33317 140.402 3.56846 140.521 3.88219C140.64 4.1567 140.719 4.54886 140.719 4.94101V8.94101C140.719 9.25474 140.759 9.49003 140.918 9.56846C141.037 9.6469 141.276 9.6469 141.633 9.49003V10.1567C141.554 10.1567 141.474 10.1959 141.355 10.2351C141.236 10.2743 141.117 10.2743 140.958 10.2743C140.839 10.2743 140.68 10.2743 140.561 10.2351C140.402 10.2351 140.322 10.1567 140.203 10.1175C140.123 10.0391 140.044 9.96062 140.004 9.88219C139.965 9.80376 139.925 9.68611 139.885 9.56846C139.885 9.45082 139.845 9.33317 139.845 9.17631C139.488 9.56846 139.051 9.88219 138.614 10.0783C138.137 10.2743 137.66 10.392 137.104 10.392C136.786 10.392 136.469 10.3528 136.151 10.2743C135.833 10.1959 135.595 10.0391 135.356 9.88219C135.118 9.68611 134.959 9.49003 134.8 9.21552C134.681 8.94101 134.601 8.6665 134.601 8.27435C134.601 7.01945 135.475 6.31356 137.184 6.07827L138.415 5.88219ZM139.845 6.31356C139.488 6.47043 139.13 6.54886 138.733 6.62729C138.375 6.6665 137.978 6.70572 137.621 6.74494C136.945 6.78415 136.469 6.94101 136.071 7.17631C135.674 7.4116 135.515 7.80376 135.515 8.27435C135.515 8.50964 135.555 8.70572 135.634 8.86258C135.714 9.01945 135.833 9.17631 135.992 9.25474C136.151 9.37239 136.31 9.45082 136.508 9.49003C136.707 9.52925 136.906 9.56846 137.104 9.56846C137.462 9.56846 137.78 9.52925 138.097 9.45082C138.415 9.37239 138.693 9.25474 138.971 9.05866C139.21 8.9018 139.408 8.6665 139.567 8.39199C139.726 8.11748 139.806 7.80376 139.806 7.45082V6.31356H139.845Z" fill="#3338BE"/>
<path d="M147.473 6.70572C147.473 7.09788 147.513 7.49003 147.632 7.84297C147.751 8.19592 147.91 8.50964 148.109 8.74494C148.307 9.01945 148.586 9.21552 148.903 9.37239C149.221 9.52925 149.579 9.60768 149.976 9.60768C150.532 9.60768 151.009 9.45082 151.406 9.17631C151.803 8.9018 152.082 8.47043 152.201 7.92141H153.154C153.035 8.27435 152.916 8.58807 152.757 8.9018C152.598 9.21552 152.36 9.45082 152.121 9.68611C151.883 9.92141 151.565 10.0783 151.208 10.1959C150.85 10.3136 150.453 10.392 149.976 10.392C149.38 10.392 148.864 10.2743 148.427 10.0783C147.99 9.88219 147.632 9.60768 147.354 9.25474C147.076 8.9018 146.877 8.50964 146.758 8.03905C146.639 7.56847 146.559 7.05866 146.559 6.54886C146.559 6.03905 146.639 5.49003 146.798 5.01945C146.957 4.54886 147.195 4.1567 147.473 3.80376C147.751 3.45082 148.109 3.17631 148.546 2.98023C148.983 2.78415 149.46 2.6665 149.976 2.6665C151.009 2.6665 151.803 3.01944 152.36 3.68611C152.956 4.39199 153.234 5.37239 153.234 6.70572H147.473ZM152.32 5.99984C152.32 5.6469 152.28 5.29395 152.161 4.98023C152.042 4.6665 151.923 4.39199 151.724 4.1567C151.525 3.92141 151.287 3.72533 150.969 3.60768C150.691 3.49003 150.334 3.4116 149.936 3.4116C149.539 3.4116 149.221 3.49003 148.943 3.60768C148.665 3.76454 148.387 3.92141 148.188 4.1567C147.99 4.39199 147.831 4.6665 147.712 4.98023C147.592 5.29395 147.513 5.60768 147.473 5.96062H152.32V5.99984Z" fill="#3338BE"/>
<path d="M155.379 7.88237C155.498 8.50982 155.737 8.9412 156.094 9.21571C156.452 9.49021 156.928 9.60786 157.604 9.60786C157.922 9.60786 158.2 9.56865 158.438 9.49022C158.677 9.41178 158.835 9.29414 158.994 9.17649C159.153 9.05884 159.272 8.90198 159.312 8.74512C159.392 8.58825 159.431 8.43139 159.431 8.23531C159.431 7.88237 159.312 7.60786 159.074 7.451C158.835 7.29414 158.557 7.13727 158.2 7.05884C157.842 6.9412 157.485 6.86276 157.048 6.82355C156.65 6.74512 156.253 6.66669 155.896 6.50982C155.538 6.35296 155.26 6.15688 155.022 5.92159C154.783 5.64708 154.664 5.29414 154.664 4.82355C154.664 4.1961 154.902 3.72551 155.339 3.33335C155.776 2.9412 156.452 2.74512 157.246 2.74512C158.041 2.74512 158.716 2.90198 159.193 3.29414C159.709 3.64708 159.988 4.23531 160.107 5.05884H159.272C159.193 4.50982 158.994 4.07845 158.637 3.88237C158.279 3.64708 157.842 3.52943 157.286 3.52943C156.73 3.52943 156.333 3.64708 156.054 3.88237C155.776 4.11767 155.617 4.43139 155.617 4.78433C155.617 5.09806 155.737 5.37257 155.975 5.52943C156.213 5.68629 156.491 5.84316 156.849 5.9608C157.207 6.07845 157.564 6.15688 158.001 6.23531C158.398 6.31374 158.796 6.43139 159.153 6.58825C159.511 6.74512 159.789 6.9412 160.027 7.21571C160.266 7.49021 160.385 7.84316 160.385 8.31374C160.385 8.66669 160.305 8.98041 160.146 9.25492C159.988 9.52943 159.789 9.76472 159.511 9.92159C159.233 10.0784 158.915 10.2353 158.557 10.3137C158.2 10.3922 157.803 10.4314 157.365 10.4314C156.928 10.4314 156.531 10.353 156.213 10.2353C155.856 10.1177 155.578 9.92159 155.339 9.68629C155.101 9.451 154.902 9.21571 154.783 8.90198C154.664 8.58825 154.585 8.27453 154.545 7.92159H155.379V7.88237Z" fill="#3338BE"/>
<path d="M162.49 4.47048V3.21558H163.524V4.47048H162.49V4.47048ZM162.49 10.1568V8.90185H163.524V10.1568H162.49Z" fill="#3338BE"/>
<path d="M107.586 60.5883H97.1378L86.6099 24.7451H97.0981L107.586 60.5883Z" fill="#3338BE"/>
<path d="M106.792 60.5883H117.2L127.768 24.7451H117.32L106.792 60.5883Z" fill="#3338BE"/>
<path d="M80.77 60.6274H71.275V48.3137H71.0764C71.0764 52.3529 69.9242 55.5294 67.62 57.8823C65.3158 60.196 62.1376 61.2941 58.125 61.2941C53.5961 61.2941 50.0205 59.6862 47.5177 56.3921C45.0148 53.098 43.7038 48.5882 43.7038 42.7451C43.7038 36.9019 45.0148 32.3921 47.5177 29.098C50.0205 25.8039 53.5961 24.196 58.125 24.196C62.1773 24.196 65.3555 25.3333 67.62 27.6078C69.9242 29.8823 71.0764 33.0196 71.0764 37.0588H71.2353V24.7451H80.7302V60.6274H80.77ZM71.7517 42.8235C71.7517 39.4902 70.9174 36.7843 69.2886 34.7451C67.6995 32.7058 65.1966 31.5686 62.5746 31.6862C59.6744 31.6862 57.4497 32.6666 55.8606 34.6666C54.2714 36.6666 53.4371 39.3725 53.4371 42.8627C53.4371 46.3529 54.2714 49.0588 55.8606 50.9411C57.4497 52.8235 59.6744 53.8431 62.5746 53.8431C65.4747 53.8431 67.8187 52.9804 69.2886 50.7843C70.8777 48.3921 71.7517 45.647 71.7517 42.8235Z" fill="#3338BE"/>
<path d="M137.422 43.8431C137.66 47.1372 138.534 49.6863 140.044 51.4902C141.514 53.3333 143.778 54.3529 146.122 54.2353C148.149 54.2745 150.095 53.6863 151.764 52.5098C153.313 51.3333 154.386 49.647 154.783 47.8039H164C163.325 52 161.497 55.2549 158.319 57.6078C155.141 60 151.088 61.1765 146.242 61.2157C140.6 61.2157 136.23 59.6078 133.052 56.3529C129.874 53.098 128.285 48.5882 128.245 42.7059C128.245 36.8235 129.794 32.2353 132.933 28.9412C136.071 25.647 140.481 24.0392 146.122 23.9608C151.764 23.9216 156.015 25.5686 159.113 28.8235C162.212 32.0784 163.801 36.6274 163.801 42.4706V43.5686L137.422 43.8431ZM140.044 33.7647C138.614 35.3725 137.74 37.7647 137.422 40.7059V40.7451L154.426 40.7059C154.147 37.7255 153.273 35.3725 151.803 33.7647C150.334 32.1568 148.268 31.2157 146.003 31.2941H145.844C143.659 31.2157 141.514 32.1568 140.044 33.7647Z" fill="#3338BE"/>
<path d="M20.9794 60.5883H10.531L0.0427856 24.7451H10.4912L20.9794 60.5883Z" fill="#3338BE"/>
<path d="M14.0667 78H24.5152L41.1214 24.7451H30.7127L14.0667 78Z" fill="#3338BE"/>
<path fill-rule="evenodd" clip-rule="evenodd" d="M18.0792 3.84304L16.9271 4.98029C16.4504 4.5097 16.0133 4.27441 15.6558 4.27441C15.4969 4.27441 15.2982 4.31362 15.1791 4.39206C15.0599 4.47049 14.9804 4.58813 14.9804 4.70578C14.9804 4.82343 15.0202 4.90186 15.0996 4.98029C15.2585 5.13715 15.4572 5.2548 15.6558 5.33323L16.3312 5.68617C17.0463 6.03911 17.5627 6.39206 17.8408 6.745C18.4765 7.64696 18.3573 8.90186 17.523 9.68617C17.0463 10.1175 16.3709 10.3528 15.5763 10.3528C14.5434 10.3528 13.5899 9.88225 12.994 9.09794L14.1461 7.84304C14.3448 8.07833 14.6229 8.31362 14.9407 8.47049C15.1791 8.62735 15.4572 8.70578 15.7353 8.70578C15.9339 8.70578 16.1723 8.66657 16.3312 8.5097C16.4504 8.43127 16.5695 8.27441 16.5695 8.11755C16.5695 7.84304 16.2914 7.56853 15.7353 7.29402L15.0996 6.98029C13.868 6.39206 13.2721 5.60774 13.2721 4.70578C13.2721 4.11755 13.5105 3.56853 13.9475 3.21559C14.4242 2.78421 15.0599 2.58813 15.6955 2.58813C16.6093 2.62735 17.523 3.09794 18.0792 3.84304Z" fill="#A0C34B"/>
<path fill-rule="evenodd" clip-rule="evenodd" d="M19.5492 2.98035L21.3767 2.8627V3.72545C21.6548 3.37251 22.0123 3.098 22.4096 2.94114C22.8069 2.74506 23.2439 2.66663 23.6412 2.66663C24.0782 2.66663 24.5152 2.78427 24.8727 3.01957C25.2303 3.25486 25.5481 3.6078 25.7467 4.03917C26.0248 3.6078 26.3824 3.25486 26.8194 3.01957C27.2564 2.78427 27.7331 2.66663 28.2099 2.66663C28.6866 2.66663 29.1633 2.78427 29.5606 3.05878C29.9182 3.29408 30.236 3.64702 30.3949 4.03917C30.5538 4.43133 30.6333 5.098 30.6333 5.99996V10.4313H28.8058V6.58819C28.8058 5.72545 28.6866 5.13721 28.488 4.8627C28.2893 4.54898 27.9318 4.39212 27.5742 4.39212C27.2564 4.39212 26.9783 4.47055 26.7399 4.66663C26.5016 4.8627 26.3029 5.13721 26.1838 5.41172C26.0646 5.72545 26.0248 6.27447 26.0248 6.98035V10.3921H24.1974V6.74506C24.2371 6.23525 24.1576 5.76466 24.0384 5.29408C23.959 5.01957 23.8001 4.78427 23.6014 4.62741C23.4028 4.47055 23.1644 4.39212 22.8863 4.39212C22.6082 4.39212 22.2904 4.47055 22.052 4.66663C21.8137 4.8627 21.615 5.13721 21.4959 5.45094C21.3767 5.80388 21.3369 6.31368 21.3369 7.05878V10.4313H19.5095L19.5492 2.98035Z" fill="#A0C34B"/>
<path fill-rule="evenodd" clip-rule="evenodd" d="M35.5198 2.66663C35.9568 2.66663 36.3938 2.74506 36.8308 2.90192C37.2679 3.098 37.6254 3.33329 37.9432 3.64702V2.98035L39.8502 2.82349V10.3529H37.9432V9.45094C37.6254 9.76466 37.2281 9.99996 36.8308 10.196C36.4336 10.3529 36.0363 10.4313 35.5993 10.4313C34.6061 10.4313 33.6923 10.0392 33.017 9.33329C32.3019 8.58819 31.9046 7.6078 31.9443 6.58819C31.9443 5.45094 32.3019 4.50976 32.9772 3.80388C33.6129 3.05878 34.5266 2.66663 35.5198 2.66663ZM35.7582 4.23525C35.1623 4.23525 34.6061 4.47055 34.2088 4.90192C33.7718 5.37251 33.5732 5.96074 33.5732 6.54898C33.5334 7.17643 33.7718 7.76466 34.2088 8.23525C34.6061 8.66663 35.1623 8.90192 35.7582 8.90192C36.3541 8.90192 36.95 8.66663 37.3473 8.23525C37.7843 7.76466 38.0227 7.17643 37.983 6.54898C38.0227 5.92153 37.7843 5.33329 37.3473 4.8627C36.9103 4.43133 36.3541 4.19604 35.7582 4.23525Z" fill="#A0C34B"/>
<path fill-rule="evenodd" clip-rule="evenodd" d="M41.1611 2.98035L42.6708 2.82349V3.76467C42.8297 3.41172 43.0283 3.13721 43.3064 2.94114C43.5845 2.74506 43.8626 2.66663 44.1804 2.66663C44.4188 2.66663 44.6572 2.74506 44.8956 2.8627L44.3394 4.50976C44.101 4.47055 44.101 4.47055 43.8229 4.47055C43.5448 4.47055 43.3064 4.66663 43.1475 5.01957C42.9886 5.37251 42.8694 6.27447 42.8694 6.90192V7.25486V10.3921H41.1214L41.1611 2.98035Z" fill="#A0C34B"/>
<path fill-rule="evenodd" clip-rule="evenodd" d="M47.0409 0.157442L48.8287 0.0397949V2.82411H49.8616V4.43195H48.8287V10.3927H47.0806V4.43195H45.8888V2.82411H47.0806L47.0409 0.157442Z" fill="#A0C34B"/>
<path fill-rule="evenodd" clip-rule="evenodd" d="M52.4836 0.0794678H53.4376V10.4324H52.4836V0.0794678Z" fill="#3338BE"/>
<path fill-rule="evenodd" clip-rule="evenodd" d="M61.6211 4.15679C62.1773 4.86267 62.4554 5.76464 62.4554 6.6666H55.7414C55.7414 7.45091 56.0195 8.19601 56.5757 8.74503C57.0921 9.29405 57.8072 9.56856 58.5621 9.56856C58.9593 9.56856 59.3169 9.49012 59.6744 9.37248C59.9923 9.25483 60.3101 9.09797 60.5882 8.86267C60.8663 8.58816 61.1444 8.27444 61.343 7.9215L61.4225 7.80385L62.217 8.23522C61.9787 8.70581 61.6608 9.09797 61.3033 9.45091C60.9457 9.76463 60.5485 9.99993 60.1512 10.1568C59.6744 10.3137 59.1977 10.3921 58.6812 10.3921C57.4497 10.3921 56.4962 9.99993 55.8208 9.21562C55.1455 8.50973 54.7879 7.56856 54.7879 6.58816C54.7879 5.6862 55.1057 4.82346 55.6619 4.11758C56.377 3.21562 57.4497 2.70581 58.6018 2.74503C59.7936 2.70581 60.906 3.25483 61.6211 4.15679ZM56.6948 4.31366C56.2578 4.70581 55.9797 5.25483 55.8208 5.80385H61.3827C61.3033 5.37248 61.1047 4.94111 60.8266 4.58816C60.5485 4.27444 60.2306 4.03915 59.8731 3.88228C59.4758 3.6862 59.0388 3.60777 58.6018 3.60777C57.8867 3.60777 57.2113 3.84307 56.6948 4.31366Z" fill="#3338BE"/>
<path fill-rule="evenodd" clip-rule="evenodd" d="M63.8458 2.78421H64.839V4.15676C65.1966 3.68617 65.6336 3.29402 66.15 2.98029C66.6268 2.745 67.183 2.58813 67.6994 2.58813C68.2556 2.58813 68.7721 2.70578 69.2488 3.01951C69.6858 3.29402 70.0434 3.68617 70.242 4.19598C70.4407 4.66657 70.5598 5.45088 70.5598 6.47049V10.3528H69.5666V6.78421C69.6064 6.19598 69.5666 5.60774 69.4475 5.05872C69.2885 4.11755 68.4543 3.4901 67.5008 3.56853C66.9049 3.56853 66.3487 3.76461 65.9117 4.15676C65.4349 4.5097 65.1171 5.01951 64.9582 5.60774C64.839 6.27441 64.7993 6.98029 64.7993 7.64696V10.4313H63.8061L63.8458 2.78421Z" fill="#3338BE"/>
<path fill-rule="evenodd" clip-rule="evenodd" d="M83.5906 2.78421H84.5838V4.15676C84.9414 3.68617 85.3784 3.29402 85.8949 2.98029C86.3716 2.745 86.9278 2.58813 87.4443 2.58813C88.0004 2.58813 88.5169 2.70578 88.9936 3.01951C89.4306 3.29402 89.7882 3.68617 89.9868 4.19598C90.1855 4.66657 90.3047 5.45088 90.3047 6.47049V10.3528H89.3115V6.78421C89.3512 6.19598 89.3114 5.60774 89.1923 5.05872C89.0334 4.11755 88.1991 3.4901 87.2456 3.56853C86.6497 3.56853 86.0935 3.76461 85.6565 4.15676C85.1798 4.5097 84.8619 5.01951 84.703 5.60774C84.5838 6.27441 84.5441 6.98029 84.5441 7.64696V10.4313H83.5509L83.5906 2.78421Z" fill="#3338BE"/>
<path fill-rule="evenodd" clip-rule="evenodd" d="M79.6178 0.0794678V10.3932H78.6644V9.02064C78.3068 9.49123 77.8301 9.84417 77.3136 10.1187C76.7972 10.354 76.241 10.4716 75.6848 10.4716C74.6518 10.4716 73.6984 10.0795 72.9833 9.33437C72.2284 8.62849 71.8312 7.60888 71.8709 6.58927C71.8709 5.56966 72.2682 4.58927 72.9833 3.88339C73.6984 3.13829 74.6518 2.74613 75.6848 2.74613C76.241 2.74613 76.8369 2.86378 77.3533 3.13829C77.8698 3.4128 78.3465 3.80496 78.6644 4.31476V0.0794678H79.6178ZM75.8039 3.68731C74.7313 3.68731 73.7778 4.23633 73.2614 5.17751C72.7449 6.07947 72.7449 7.21672 73.2614 8.1579C73.4997 8.62849 73.897 8.98143 74.334 9.25594C74.771 9.53045 75.2875 9.64809 75.8039 9.64809C76.3204 9.64809 76.8369 9.53045 77.2739 9.25594C77.7109 9.02064 78.1082 8.62849 78.3465 8.19711C78.5849 7.72653 78.7438 7.21672 78.7041 6.70692C78.7438 5.9226 78.426 5.13829 77.8698 4.58927C77.3533 3.96182 76.5985 3.64809 75.8039 3.68731Z" fill="#3338BE"/>
<path fill-rule="evenodd" clip-rule="evenodd" d="M81.6444 0.510742C81.8034 0.510742 82.0021 0.589174 82.1213 0.706821C82.3996 0.942115 82.3996 1.37349 82.1213 1.60878C82.0021 1.72643 81.8431 1.80486 81.6444 1.80486C81.4456 1.80486 81.2866 1.72643 81.1674 1.60878C80.8891 1.37349 80.8891 0.942115 81.1674 0.706821C81.2866 0.549958 81.4456 0.510742 81.6444 0.510742Z" fill="#3338BE"/>
<path fill-rule="evenodd" clip-rule="evenodd" d="M81.1672 2.62744H82.1212V10.3921H81.1672V2.62744Z" fill="#3338BE"/>
<path fill-rule="evenodd" clip-rule="evenodd" d="M95.4693 2.66663C96.0255 2.66663 96.5419 2.78427 97.0186 3.01957C97.5748 3.29408 98.0516 3.68623 98.4091 4.11761V2.8627H99.3626V8.70584C99.3626 9.72545 99.2831 10.4705 99.0845 10.9411C98.8461 11.6078 98.3694 12.1568 97.7735 12.5098C97.0981 12.9019 96.3035 13.0588 95.5487 13.0588C94.9528 13.0588 94.3966 12.9803 93.8404 12.7843C93.3637 12.6274 92.9664 12.3921 92.6088 12.0784C92.2513 11.6862 91.9335 11.2549 91.7348 10.7451H92.7677C93.0061 11.2156 93.4034 11.5686 93.8801 11.8431C94.3966 12.0784 94.9528 12.196 95.5487 12.196C96.1049 12.196 96.7008 12.0784 97.2173 11.8431C97.6146 11.647 97.9721 11.3333 98.1708 10.9411C98.3694 10.5882 98.4489 9.99996 98.4489 9.17643V8.78427C98.0913 9.21564 97.6543 9.56859 97.1378 9.80388C96.6214 10.0392 96.0652 10.1568 95.4693 10.1568C94.7939 10.1568 94.1185 9.99996 93.5226 9.64702C92.9267 9.33329 92.4499 8.8627 92.1321 8.31368C91.8143 7.76466 91.6156 7.098 91.6554 6.47055C91.6156 4.39212 93.324 2.66663 95.4693 2.66663ZM95.5884 3.56859C95.072 3.56859 94.5555 3.68623 94.0788 3.96074C93.6418 4.19604 93.2445 4.58819 93.0061 5.01957C92.728 5.45094 92.6088 5.96074 92.6088 6.50976C92.5691 7.25486 92.8869 7.99996 93.4431 8.50976C94.6747 9.56859 96.4625 9.56859 97.694 8.50976C98.2502 7.96074 98.5283 7.21564 98.4886 6.47055C98.4886 5.96074 98.3694 5.45094 98.131 4.98035C97.8927 4.54898 97.5351 4.19604 97.0981 3.96074C96.6611 3.72545 96.2241 3.6078 95.7473 3.6078L95.5884 3.56859Z" fill="#3338BE"/>
<path fill-rule="evenodd" clip-rule="evenodd" d="M9.14043 3.09908C9.69663 3.56966 10.0144 4.04025 10.0144 4.74613V9.4128C10.0144 9.96182 9.61716 10.3932 9.02124 10.3932H0.996204C0.400284 10.3932 0.00300496 9.96182 0.00300496 9.4128V4.74613C-0.036723 4.04025 0.320821 3.56966 0.877013 3.09908L4.17444 0.393193C4.41281 0.197115 4.69091 0.0794678 5.00873 0.0794678C5.32655 0.0794678 5.64437 0.197115 5.84301 0.393193L9.14043 3.09908ZM4.73063 4.43241H3.65797C3.49906 4.43241 3.37988 4.55006 3.37988 4.70692V5.72653H4.6909V4.43241H4.73063ZM3.41961 6.27555V7.29515C3.41961 7.45202 3.53879 7.56966 3.6977 7.56966H4.77036V6.27555H3.41961ZM5.28682 4.43241V5.72653H6.59785V4.70692C6.59785 4.55006 6.47866 4.43241 6.31975 4.43241H5.28682ZM5.28682 6.27555V7.56966H6.35948C6.51839 7.56966 6.63757 7.45202 6.63757 7.29515V6.27555H5.28682Z" fill="#A0C34B"/>
</svg>
