<?xml version="1.0" encoding="utf-8"?>
<!-- Generator: Adobe Illustrator 24.0.0, SVG Export Plug-In . SVG Version: 6.00 Build 0)  -->
<svg version="1.1" id="Layer_1" xmlns="http://www.w3.org/2000/svg" xmlns:xlink="http://www.w3.org/1999/xlink" x="0px" y="0px"
	 viewBox="0 0 73 40" style="enable-background:new 0 0 73 40;" xml:space="preserve">
<style type="text/css">
	.st0{fill:#929496;}
	.st1{fill:#C1CB3D;}
</style>
<g>
	<g>
		<g>
			<g>
				<path class="st0" d="M18.8,19.4c1.3,0.6,2.3,1.3,3,2.1c0.7,0.8,1.1,1.9,1.1,3.2c0,1.1-0.2,2-0.7,2.8c-0.4,0.8-1.1,1.4-1.8,1.9
					c-0.8,0.5-1.6,0.9-2.7,1.1c-1,0.3-2.1,0.4-3.3,0.4H2.8V9.3h11.1c1.1,0,2.1,0.1,3,0.4c0.9,0.2,1.7,0.6,2.3,1
					c0.7,0.4,1.2,1,1.6,1.7c0.4,0.7,0.6,1.5,0.6,2.5c0,1.8-0.8,3.2-2.5,4.3V19.4z M13.5,18c1.1,0,1.9-0.3,2.6-0.7
					c0.6-0.4,0.9-1.3,0.9-2.4c0-0.9-0.3-1.5-0.9-1.8s-1.4-0.4-2.5-0.4H6.9V18L13.5,18L13.5,18z M6.9,21.2v6.3h7.4
					c1.6,0,2.6-0.3,3.4-0.9c0.7-0.6,1.1-1.4,1.1-2.4c0-1.1-0.4-1.9-1.1-2.3c-0.7-0.4-1.8-0.7-3.3-0.7H6.9z"/>
				<path class="st0" d="M14.4,31.2H2.3V8.8h11.6C15,8.8,16,8.9,17,9.1c0.9,0.3,1.8,0.6,2.5,1.1c0.8,0.5,1.3,1.1,1.7,1.9
					c0.4,0.8,0.6,1.7,0.6,2.7c0,1.8-0.7,3.2-2.1,4.3c1.1,0.5,2,1.2,2.6,2c0.8,0.9,1.2,2.1,1.2,3.5c0,1.1-0.3,2.1-0.8,3
					c-0.5,0.8-1.1,1.5-2,2.1c-0.8,0.5-1.8,0.9-2.8,1.1C16.8,31.1,15.6,31.2,14.4,31.2z M3.3,30.1h11.2c1.1,0,2.2-0.1,3.2-0.3
					c0.9-0.3,1.8-0.6,2.5-1c0.7-0.4,1.3-1,1.6-1.7c0.4-0.7,0.6-1.5,0.6-2.5c0-1.1-0.3-2.1-0.9-2.8c-0.6-0.8-1.6-1.4-2.8-2l-0.3-0.1
					v-0.8l0.3-0.1c1.5-1,2.3-2.3,2.3-3.9c0-0.9-0.2-1.6-0.5-2.3c-0.3-0.6-0.8-1.1-1.4-1.5c-0.6-0.4-1.3-0.7-2.2-0.9
					c-0.8-0.2-1.7-0.3-2.8-0.3H3.3V30.1z M14.4,27.9H6.4v-7.2h8.2c1.6,0,2.8,0.3,3.5,0.8c0.8,0.6,1.3,1.5,1.3,2.8
					c0,1.1-0.4,2.1-1.3,2.8C17.3,27.6,16.1,27.9,14.4,27.9z M7.4,26.9h6.9c1.4,0,2.5-0.3,3.1-0.8c0.6-0.5,0.9-1.1,0.9-2
					c0-0.9-0.3-1.5-0.8-1.9c-0.6-0.4-1.6-0.6-3-0.6H7.4V26.9z M13.5,18.5H6.4v-6.4h7.2c1.1,0,2,0.2,2.7,0.5c0.6,0.3,1.2,0.9,1.2,2.3
					c0,1.3-0.4,2.3-1.2,2.8C15.6,18.2,14.6,18.5,13.5,18.5z M7.4,17.4h6c0.9,0,1.7-0.2,2.3-0.6c0.5-0.4,0.8-1,0.8-2
					c0-1.1-0.5-1.3-0.6-1.4c-0.6-0.3-1.3-0.4-2.3-0.4H7.4V17.4z"/>
			</g>
		</g>
	</g>
	<polygon class="st1" points="70.8,16.9 62.8,16.9 62.8,9 57,9 57,16.9 49,16.9 49,22.7 57,22.7 57,30.7 62.8,30.7 62.8,22.7 
		70.8,22.7 	"/>
	<polygon class="st1" points="46.6,13.3 42.5,9.2 35.9,15.7 29.4,9.2 25.3,13.3 31.8,19.8 25.3,26.4 29.4,30.5 35.9,23.9 42.5,30.5 
		46.6,26.4 40,19.8 	"/>
</g>
</svg>
