<?xml version="1.0" encoding="utf-8"?>
<!-- Generator: Adobe Illustrator 24.0.0, SVG Export Plug-In . SVG Version: 6.00 Build 0)  -->
<svg version="1.1" id="Layer_1" xmlns="http://www.w3.org/2000/svg" xmlns:xlink="http://www.w3.org/1999/xlink" x="0px" y="0px"
	 viewBox="0 0 154.4 40" style="enable-background:new 0 0 154.4 40;" xml:space="preserve">
<style type="text/css">
	.st0{fill:#FF0000;}
	.st1{fill:#004785;}
</style>
<g>
	<path class="st0" d="M150.6,20.6c-0.7-0.2-1.4-0.4-2.1-0.6c0.4-0.4,1-1.2,1.4-1.8c0.5-0.6,0.7-1.2,0.7-1.7c0-0.4-0.2-0.9-0.5-1.4
		c-0.6-1-1.6-2-2.4-2.6c-0.6-0.4-1.5-1-2.4-1c-0.5,0-1,0.2-1.4,0.7c-0.4,0.6-0.9,1.2-1.2,1.8c-0.3-0.5-0.8-1.3-1.3-1.9
		c-0.7-0.9-1.2-1.2-2.1-1.2c-1.5,0-3.2,0.9-4.1,1.6c-0.7,0.5-1.8,1.4-1.8,2.5c0,0.3,0.1,0.7,0.4,1c0.4,0.6,0.9,1.2,1.3,1.7
		c-0.5,0.1-1.5,0.4-2.2,0.6c-1.5,0.5-2.1,1.1-2.1,3.1c0,0.8,0.1,1.8,0.5,2.8c0.4,1.1,1.1,3,2.9,2.4c0.7-0.2,1.4-0.5,2.1-0.7
		c0,0.6-0.1,1.1-0.1,1.9c0,1.9,0.4,2.5,1.6,3.1c1.1,0.5,2.4,0.7,3.6,0.7c1.2,0,3.3-0.1,3.3-2c0-1.2,0-1.5-0.1-2.2
		c0.5,0.2,1.4,0.6,2.2,0.8c0.5,0.2,0.9,0.2,1.3,0.2c0.6,0,1.1-0.3,1.8-1c1.1-1.2,2.1-3.4,2.1-4.9C151.8,21.7,151.5,20.9,150.6,20.6
		 M137.6,15.4c1.4-1,2.8-1.2,3.8-1.2c0.4,0,0.8,0,1,0.1c-0.7,1.1-1,1.9-1.1,2.3c0-0.1-0.2-0.7-1.1-0.7c-0.9,0-1.8,0.6-2.4,0.6
		c-0.5,0-0.6-0.4-0.6-0.5C137.3,15.8,137.4,15.6,137.6,15.4 M136.1,22.1c0,0.6-0.1,1-0.4,1.1c-0.3,0.1-0.6,0-0.7-0.5
		c-0.7-2.1,0-4,0.4-4.8c0.8,0.9,1.5,1.5,1.8,1.7c-0.1,0-0.1,0-0.2,0C136,19.9,136,21.3,136.1,22.1 M141,27.6c-2.3,0-3.9-1.3-4.5-1.9
		c0.6-0.2,1.1-0.5,1.5-0.7c0.3-0.1,0.5-0.3,0.7-0.5c0,0.1,0,0.2,0,0.3c0,1,1.3,1.3,2.1,1.5c0.6,0.2,1,0.4,1,0.8
		C141.7,27.3,141.6,27.6,141,27.6 M143.7,24.1c-0.4-0.4-1-0.6-2.3-0.6c-1.1,0-2,0.2-2.4,0.6c0.1-0.2,0.2-0.5,0.2-0.8
		c0-0.4-0.1-0.8-0.3-1.5c-0.4-1.1-0.8-1.8-1.3-2.1c0.5,0.1,1.2-0.1,2.2-0.8c0.9-0.7,1.5-1.3,1.6-1.9c0.1,0.5,0.5,1.1,1.5,1.8
		c0.9,0.7,1.7,1,2.3,1c-0.5,0.2-0.9,0.8-1.3,2c-0.2,0.7-0.3,1.2-0.3,1.7C143.6,23.7,143.6,23.9,143.7,24.1 M146.8,24.9
		c-0.8,1.1-1.8,1.7-2.4,2c0-0.6-0.1-1.2-0.2-1.6c-0.1-0.3-0.1-0.6-0.3-0.9c0.1,0.1,0.2,0.1,0.3,0.1c0.9,0.3,1.6-0.8,2.1-1.5
		c0.3-0.4,0.6-0.7,0.9-0.7c0.2,0,0.5,0.1,0.5,0.5C147.7,23.3,147.4,24.1,146.8,24.9 M146,19.6c-0.1,0-0.3,0-0.4,0
		c0.1-0.1,0.4-0.4,0.4-0.8c0-0.7-0.6-1.4-1-1.8c-0.3-0.4-0.4-0.6-0.4-0.9c0-0.3,0.2-0.5,0.5-0.5c0.1,0,0.3,0.1,0.5,0.2
		c1.9,1.3,2.4,3.3,2.5,4.2C147.3,19.7,146.4,19.6,146,19.6 M34.6,14.1h-3c-2.1-2.1-4.8-3.3-7.5-3.3c-2.8,0-5.5,1.2-7.5,3.3h-3
		c2.3-3.3,6.3-5.6,10.5-5.6C28.4,8.5,32.4,10.8,34.6,14.1"/>
	<path class="st1" d="M43.3,15.9c-1.3,0-2.6,0.6-3.5,1.5v-5.2l-2.6,1.4v15.4h2.6v-1.2c0.7,0.8,2.1,1.5,3.4,1.5
		c2.6,0,5.3-2.1,5.3-6.4C48.5,17.9,46,15.9,43.3,15.9 M42.9,26.9c-1.3,0-2.6-0.9-3.2-1.7v-5.4c0.7-0.8,1.9-1.6,3.1-1.6
		c1.8,0,3.2,1.4,3.2,4.6C46,25.5,44.7,26.9,42.9,26.9 M73.2,21.6v7.3h-2.6v-7.2c0-2.6-1-3.5-2.6-3.5c-1.7,0-2.7,1.2-2.7,3.3v7.5
		h-2.6V16.2h2.6v1.2c0.6-0.9,2-1.5,3.3-1.5C71.6,15.9,73.2,17.5,73.2,21.6 M55.3,15.9c-1.8,0-3.2,0.4-4.4,1.1l1,1.9
		c1-0.6,2-0.8,3.3-0.8c1.6,0,2.6,0.8,2.6,2.2v0.9c-0.7-0.3-1.7-0.5-2.9-0.5c-2.9,0-5.2,1.3-5.2,4.1c0,3.1,2.5,4.3,4.6,4.3
		c1.4,0,2.7-0.7,3.6-1.5v1.3h2.6v-8.8C60.4,17.3,58.2,15.9,55.3,15.9 M57.8,25.3c-0.6,0.8-1.8,1.6-3.2,1.6c-1.7,0-2.6-0.9-2.6-2.1
		c0-1.2,1.1-1.9,2.7-1.9c1.4,0,2.3,0.2,3,0.6V25.3z M80.4,15.9c-1.8,0-3.2,0.4-4.4,1.1l1,1.9c1-0.6,2-0.8,3.3-0.8
		c1.6,0,2.6,0.8,2.6,2.2v0.9c-0.7-0.3-1.7-0.5-2.9-0.5c-2.9,0-5.2,1.3-5.2,4.1c0,3.1,2.5,4.3,4.6,4.3c1.4,0,2.7-0.7,3.6-1.5v1.3h2.6
		v-8.8C85.5,17.3,83.2,15.9,80.4,15.9 M82.9,25.3c-0.6,0.8-1.8,1.6-3.2,1.6c-1.7,0-2.6-0.9-2.6-2.1c0-1.2,1.1-1.9,2.7-1.9
		c1.4,0,2.3,0.2,3,0.6V25.3z M105.4,21.5v7.4h-2.6v-7.2c0-2.6-0.8-3.5-2.5-3.5c-1.7,0-2.4,1.2-2.4,3.3v7.5h-2.6v-7.2
		c0-2.6-0.8-3.5-2.4-3.5c-1.7,0-2.6,1.2-2.6,3.3v7.5h-2.6V16.2h2.6v1.2c0.6-0.9,1.8-1.5,3.1-1.5c1.7,0,2.8,0.7,3.5,1.9
		c0.9-1.1,1.9-1.9,3.9-1.9C103.9,15.9,105.4,17.2,105.4,21.5 M118.4,22.3c0-3.5-1.9-6.4-5.6-6.4c-3.3,0-5.8,2.3-5.8,6.7
		c0,4.2,2.8,6.6,5.8,6.6c1.9,0,3.5-0.6,4.6-1.7l-1.4-1.6c-0.9,0.6-2,1-3.1,1c-1.6,0-3.1-1-3.4-3.5h8.8
		C118.4,23.2,118.4,22.7,118.4,22.3 M109.6,21.4c0.2-2,1.4-3.2,3.1-3.2c2.1,0,3.1,1.5,3.2,3.2H109.6z M129.4,28.9h-3l-1.2-2.2
		c-0.5-0.9-1.1-2.1-1.3-2.6c-0.2,0.5-0.9,1.7-1.4,2.6l-1.2,2.2h-2.8l3.9-6.6l-3.6-6.1h2.9l1,1.8c0.5,0.9,1.1,2.1,1.3,2.6
		c0.3-0.5,0.9-1.7,1.4-2.6l1-1.8h2.9l-3.7,6.1L129.4,28.9z M5.2,22.6c0,2.4,1.7,4.1,4,4.1c1.1,0,2.2-0.5,3.1-1.4l0.1-0.1l1.5,1.8
		l0,0c-1.2,1.5-2.7,2.2-4.5,2.2c-1.8,0-3.5-0.6-4.7-1.7c-1.3-1.2-2-2.9-2-4.9c0-2,0.7-3.7,2-4.9c1.2-1.1,2.9-1.7,4.7-1.7
		c1.8,0,3.3,0.7,4.5,2.2l0,0l-1.5,1.8l-0.1-0.1c-0.9-0.9-2-1.4-3.1-1.4C6.9,18.4,5.2,20.2,5.2,22.6 M15.3,16.1h2.6v12.8h-2.6V16.1z
		 M28.2,26.1l0.2-0.1l-0.6,2.5l0,0c-0.4,0.3-1.1,0.6-2.3,0.6c-1.7,0-2.9-1.4-2.9-3.3v-7.2h-2.2v-2.4h2.2v-2.6l2.6-1.4v4h2.7v2.4H25
		v6.8c0,1,0.4,1.4,1.2,1.4C26.8,26.8,27.5,26.6,28.2,26.1 M30.4,16.1H33v12.8h-2.6V16.1z"/>
</g>
</svg>
