<?xml version="1.0" encoding="utf-8"?>
<!-- Generator: Adobe Illustrator 24.0.0, SVG Export Plug-In . SVG Version: 6.00 Build 0)  -->
<svg version="1.1" id="Layer_1" xmlns="http://www.w3.org/2000/svg" xmlns:xlink="http://www.w3.org/1999/xlink" x="0px" y="0px"
	 viewBox="0 0 52.7 40" style="enable-background:new 0 0 52.7 40;" xml:space="preserve">
<style type="text/css">
	.st0{fill:#0A2240;}
	.st1{fill:#0071CE;}
</style>
<g>
	<g>
		<g>
			<path class="st0" d="M17.1,6.4l0.1-0.5l3.2-0.8l-0.1,1L17.1,6.4z M3.9,10.7c0,1.7,1.2,3,2.7,3c0.6,0,1.1-0.1,1.6-0.3l0.3,1
				c-0.6,0.2-1.2,0.3-1.9,0.3c-2.2,0-3.9-1.7-3.9-4c0-2.3,1.7-4,3.9-4c0.7,0,1.3,0.1,1.9,0.3L8.2,8c-0.4-0.2-1-0.3-1.6-0.3
				C5.1,7.7,3.9,9.1,3.9,10.7 M14,14.6l-1.8-3.2h-1.4v3.2H9.6V6.8H12c1.9,0,2.9,1.1,2.9,2.3c0,0.9-0.5,1.7-1.5,2.1l2,3.4H14z
				 M12,7.8h-1.2v2.5H12c1.1,0,1.7-0.5,1.7-1.3C13.7,8.4,13.1,7.8,12,7.8 M21.2,14.6h-4.8V6.8h4.8v1h-3.5v2.2H21v1h-3.4v2.4h3.5
				V14.6z M22.5,14.6V6.8h2.2c2.4,0,4,1.7,4,3.9c0,2.2-1.6,3.9-4,3.9H22.5z M24.8,7.8h-1v5.7h1c1.7,0,2.8-1.2,2.8-2.9
				C27.6,9.1,26.5,7.8,24.8,7.8 M30.2,6.8h1.3v7.8h-1.3V6.8z M38.2,7.8H36v6.8h-1.3V7.8h-2.2v-1h5.6V7.8z M38.8,10.7
				c0-2.3,1.7-4,4-4c2.1,0,4,1.7,4,4c0,2.3-1.7,4-4,4C40.6,14.7,38.8,13,38.8,10.7 M40.1,10.7c0,1.7,1.1,3,2.7,3
				c1.5,0,2.7-1.3,2.7-3c0-1.6-1.1-3-2.7-3C41.2,7.7,40.1,9.1,40.1,10.7 M7.4,24.6l-1.8-3.2H4.2v3.2H2.9v-7.8h2.4
				c1.9,0,2.9,1.1,2.9,2.3c0,0.9-0.5,1.7-1.5,2.1l2,3.4H7.4z M5.4,17.9H4.2v2.5h1.2c1.1,0,1.7-0.5,1.7-1.3C7,18.4,6.5,17.9,5.4,17.9
				 M14.6,24.6H9.8v-7.8h4.8v1H11v2.2h3.4v1H11v2.4h3.5V24.6z M20.9,24.6l-0.7-2h-2.9l-0.7,2h-1.4l2.9-7.8h1.2l2.9,7.8H20.9z
				 M18.6,18.8l-1,2.8h2.2l-1-2.8l-0.1-0.5h-0.1L18.6,18.8z M23.3,24.6v-7.8h1.3v6.8h3.3v1H23.3z"/>
		</g>
		<g>
			<g>
				<g>
					<path class="st0" d="M48.9,6.3V5.5h0.3c0,0,0.1,0,0.1,0c0,0,0.1,0,0.1,0.1c0,0,0,0,0,0.1c0,0,0,0.1,0,0.1c0,0,0,0.1,0,0.1
						c0,0,0,0,0,0.1c0,0,0,0-0.1,0.1c0,0,0,0-0.1,0l0.2,0.3h-0.1L49.2,6H49L48.9,6.3L48.9,6.3z M49,6h0.2c0,0,0,0,0.1,0c0,0,0,0,0,0
						c0,0,0,0,0-0.1c0,0,0,0,0-0.1c0,0,0,0,0-0.1c0,0,0,0,0-0.1c0,0,0,0,0,0c0,0,0,0-0.1,0H49V6z"/>
					<path class="st0" d="M49.5,6.3h-0.1L49.2,6H49v0.3h-0.1V5.5h0.3c0,0,0.1,0,0.1,0c0,0,0.1,0,0.1,0.1c0,0,0,0.1,0,0.1
						c0,0,0,0.1,0,0.1c0,0,0,0.1,0,0.1c0,0,0,0.1,0,0.1c0,0,0,0-0.1,0.1c0,0,0,0,0,0L49.5,6.3z M49.4,6.3L49.4,6.3L49.2,6l0,0
						c0,0,0,0,0.1,0c0,0,0,0,0,0c0,0,0,0,0-0.1c0,0,0,0,0-0.1c0,0,0-0.1,0-0.1c0,0,0-0.1,0-0.1c0,0,0,0-0.1-0.1c0,0-0.1,0-0.1,0
						h-0.3v0.7h0V6h0.3L49.4,6.3z M49.2,6H49V5.6h0.3c0,0,0,0,0.1,0c0,0,0,0,0.1,0c0,0,0,0,0,0.1c0,0,0,0,0,0.1c0,0,0,0,0,0.1
						c0,0,0,0,0,0.1C49.3,5.9,49.3,5.9,49.2,6C49.3,6,49.3,6,49.2,6z M49,5.9h0.2c0,0,0,0,0.1,0c0,0,0,0,0,0c0,0,0,0,0,0
						c0,0,0,0,0-0.1c0,0,0,0,0-0.1c0,0,0,0,0,0c0,0,0,0,0,0c0,0,0,0-0.1,0H49V5.9z"/>
				</g>
			</g>
			<g>
				<path class="st0" d="M49.1,6.8c-0.5,0-0.9-0.4-0.9-0.9c0-0.5,0.4-0.9,0.9-0.9c0.5,0,0.9,0.4,0.9,0.9C50,6.4,49.6,6.8,49.1,6.8z
					 M49.1,5.2c-0.4,0-0.7,0.3-0.7,0.7c0,0.4,0.3,0.7,0.7,0.7c0.4,0,0.7-0.3,0.7-0.7C49.8,5.5,49.5,5.2,49.1,5.2z"/>
			</g>
		</g>
	</g>
	<g>
		<path class="st1" d="M5,32.4H3.7l-0.3,0.9H2.7l1.3-3.5h0.5l1.3,3.5H5.3L5,32.4z M3.8,31.9h1l-0.4-1.2l0-0.2h0l0,0.2L3.8,31.9z"/>
		<path class="st1" d="M7.5,31.9H6.9v1.4H6.4v-3.5h1.1c0.8,0,1.3,0.5,1.3,1c0,0.4-0.2,0.8-0.7,0.9L9,33.3H8.3L7.5,31.9z M6.9,30.3
			v1.1h0.5c0.5,0,0.7-0.2,0.7-0.6c0-0.3-0.2-0.6-0.7-0.6H6.9z"/>
		<path class="st1" d="M10.6,31.9H10v1.4H9.4v-3.5h1.1c0.8,0,1.3,0.5,1.3,1c0,0.4-0.2,0.8-0.7,0.9l0.9,1.5h-0.6L10.6,31.9z M10,30.3
			v1.1h0.5c0.5,0,0.7-0.2,0.7-0.6c0-0.3-0.2-0.6-0.7-0.6H10z"/>
		<path class="st1" d="M12.4,33.3v-3.5h2.1v0.5H13v1h1.5v0.5H13v1.1h1.6v0.5H12.4z"/>
		<path class="st1" d="M15.9,31l-0.2-0.3l0,0v2.6h-0.6v-3.5h0.5l1.7,2.3l0.2,0.3l0,0v-2.6h0.6v3.5h-0.5L15.9,31z"/>
		<path class="st1" d="M18.9,29.8h1c1.1,0,1.8,0.7,1.8,1.7s-0.7,1.7-1.8,1.7h-1V29.8z M19.5,30.3v2.5h0.4c0.8,0,1.2-0.5,1.2-1.3
			c0-0.7-0.5-1.3-1.2-1.3H19.5z"/>
		<path class="st1" d="M24.2,32.4h-1.3l-0.3,0.9H22l1.3-3.5h0.5l1.3,3.5h-0.6L24.2,32.4z M23,31.9h1l-0.4-1.2l0-0.2h0l0,0.2L23,31.9
			z"/>
		<path class="st1" d="M28.9,30.7L28.9,30.7l-0.1,0.2l-1.1,2.5h-0.4l-1.1-2.5l-0.1-0.2l0,0v2.7h-0.6v-3.5h0.7l1.1,2.6l0.1,0.2h0
			l0.1-0.2l1.1-2.6h0.7v3.5h-0.6V30.7z"/>
		<path class="st1" d="M30.2,29.8h0.6v3.5h-0.6V29.8z"/>
		<path class="st1" d="M31.6,33.3v-3.5h2.1v0.5h-1.6v1h1.5v0.5h-1.5v1.1h1.6v0.5H31.6z"/>
		<path class="st1" d="M35.1,31l-0.2-0.3l0,0v2.6h-0.6v-3.5h0.5l1.7,2.3l0.2,0.3l0,0v-2.6h0.6v3.5h-0.5L35.1,31z"/>
		<path class="st1" d="M39.3,30.3v3h-0.6v-3h-1v-0.5h2.5v0.5H39.3z"/>
		<path class="st1" d="M42.2,29.8c1,0,1.8,0.8,1.8,1.8c0,1-0.8,1.8-1.8,1.8c-1,0-1.8-0.8-1.8-1.8C40.4,30.5,41.2,29.8,42.2,29.8z
			 M42.2,32.9c0.7,0,1.2-0.6,1.2-1.3c0-0.7-0.5-1.3-1.2-1.3c-0.7,0-1.2,0.6-1.2,1.3C41,32.3,41.5,32.9,42.2,32.9z"/>
	</g>
	<g>
		<rect x="2.7" y="28.3" class="st0" width="41.2" height="0.3"/>
	</g>
	<g>
		<rect x="2.7" y="34.6" class="st0" width="41.2" height="0.3"/>
	</g>
</g>
</svg>
