<?xml version="1.0" encoding="utf-8"?>
<!-- Generator: Adobe Illustrator 24.0.0, SVG Export Plug-In . SVG Version: 6.00 Build 0)  -->
<svg version="1.1" id="Layer_1" xmlns="http://www.w3.org/2000/svg" xmlns:xlink="http://www.w3.org/1999/xlink" x="0px" y="0px"
	 viewBox="0 0 145.2 40" style="enable-background:new 0 0 145.2 40;" xml:space="preserve">
<style type="text/css">
	.st0{fill:#212121;}
	.st1{fill:#0BCE7C;}
</style>
<g>
	<g>
		<g>
			<path class="st0" d="M43,13.4c-3.8,0-6.5,2.5-6.5,6.6s2.8,6.6,6.5,6.6c3.1,0,5.6-1.8,6.1-4.8h-2.8c-0.4,1.7-1.7,2.5-3.3,2.5
				c-2.1,0-3.8-1.5-3.8-4.2c0-2.6,1.5-4.2,3.8-4.2c1.7,0,2.9,0.9,3.3,2.6h2.8C48.7,15.2,46.2,13.4,43,13.4"/>
			<path class="st0" d="M53.1,18.5v-1h-2.4v8.9h2.5v-4.5c0-1.2,0.9-2,2.3-2v-2.4C54.2,17.4,53.5,18,53.1,18.5"/>
			<path class="st0" d="M60.4,17.4c-2.7,0-4.5,1.7-4.5,4.6s1.8,4.6,4.6,4.6c2.1,0,3.8-1.2,4-2.8H62c-0.2,0.5-0.7,0.8-1.6,0.8
				c-1.1,0-1.8-0.7-1.8-1.8h6.1v-1C64.6,19,63,17.4,60.4,17.4 M58.6,21.1c0.1-1.1,0.7-1.7,1.8-1.7s1.7,0.7,1.7,1.7H58.6z"/>
			<path class="st0" d="M72.4,18.3c-0.5-0.6-1.4-0.9-2.5-0.9c-2.5,0-4.2,1.8-4.2,4.6s1.7,4.6,4.2,4.6c1.3,0,2.2-0.5,2.7-1.1v0.9h2.3
				V13.1h-2.5V18.3z M72.4,22.2c0,1.5-0.8,2.3-2.1,2.3c-1.3,0-2.1-0.8-2.1-2.5c0-1.6,0.9-2.5,2.1-2.5c1.2,0,2.1,0.8,2.1,2.3V22.2z"
				/>
			<path class="st0" d="M78.4,15.8c0.8,0,1.5-0.6,1.5-1.5c0-0.8-0.6-1.5-1.5-1.5c-0.8,0-1.5,0.6-1.5,1.5
				C76.9,15.1,77.6,15.8,78.4,15.8"/>
			<rect x="77.1" y="17.5" class="st0" width="2.5" height="8.8"/>
			<path class="st0" d="M81.6,27.3c0,0.8-0.6,1.4-1.5,1.4c-0.3,0-0.5,0-0.6-0.1v2.2c0.3,0,0.5,0.1,0.8,0.1c2.2,0,3.7-1.4,3.7-3.6
				v-9.7h-2.5C81.6,17.5,81.6,27.3,81.6,27.3z"/>
			<path class="st0" d="M82.8,12.7c-0.8,0-1.5,0.6-1.5,1.5c0,0.8,0.6,1.5,1.5,1.5c0.8,0,1.5-0.6,1.5-1.5
				C84.4,13.5,83.7,12.7,82.8,12.7"/>
			<path class="st0" d="M91.4,22.6c0,1-0.6,1.7-1.5,1.7c-1,0-1.4-0.6-1.4-1.7v-5.1H86v5.5c0,2.1,1.2,3.5,3.3,3.5
				c1.3,0,1.9-0.6,2.3-1.1v0.9H94v-8.8h-2.5v5H91.4z"/>
			<path class="st0" d="M98.6,17.4c-2.2,0-3.6,1.1-3.6,2.8c0,1.8,1.3,2.2,3.1,2.7c1.3,0.3,1.6,0.5,1.6,1c0,0.6-0.5,0.8-1.1,0.8
				c-0.8,0-1.2-0.4-1.3-0.9h-2.4h-0.1c0.2,1.8,1.5,2.8,3.8,2.8c2.3,0,3.6-1.1,3.6-2.9c0-1.6-1.3-2.1-3-2.6c-1.1-0.3-1.7-0.4-1.7-1
				c0-0.5,0.4-0.7,1-0.7c0.7,0,1,0.4,1.1,0.9h2.5C102,18.6,100.8,17.4,98.6,17.4"/>
			<path class="st0" d="M107.4,14.7h-2.5v2.9h-1.7v2.1h1.6v3.9c0,2,1.3,2.9,3.2,2.9c0.6,0,1-0.1,1.4-0.1v-2.2
				c-0.2,0-0.4,0.1-0.7,0.1c-0.7,0-1.4-0.4-1.4-1.4v-3.3h2.1v-2.1h-2.1L107.4,14.7z"/>
			<path class="st0" d="M114.9,17.4c-2.7,0-4.7,1.8-4.7,4.6s2,4.6,4.7,4.6c2.7,0,4.7-1.8,4.7-4.6C119.6,19.2,117.5,17.4,114.9,17.4
				 M114.9,24.4c-1.3,0-2.2-0.9-2.2-2.5c0-1.6,0.9-2.5,2.2-2.5c1.3,0,2.2,0.9,2.2,2.5C117,23.5,116.2,24.4,114.9,24.4"/>
		</g>
		<g>
			<path class="st1" d="M16.4,20.2c-3.5,0.1-6.3,2.9-6.4,6.4C13.6,26.5,16.3,23.7,16.4,20.2"/>
			<path class="st1" d="M9.6,13.4c-3.5,0.1-6.3,2.9-6.4,6.4C6.7,19.7,9.5,16.9,9.6,13.4"/>
			<path class="st1" d="M23.3,27.1c-3.5,0.1-6.3,2.9-6.4,6.4C20.4,33.3,23.2,30.6,23.3,27.1"/>
			<path class="st1" d="M16.9,6.5c0.1,3.5,2.9,6.3,6.4,6.4C23.2,9.4,20.4,6.7,16.9,6.5"/>
			<path class="st1" d="M23.3,13.4c-3.5,0.1-6.3,2.9-6.4,6.4C20.4,19.7,23.2,16.9,23.3,13.4"/>
			<path class="st1" d="M16.4,6.5c-3.5,0.1-6.3,2.9-6.4,6.4C13.6,12.8,16.3,10.1,16.4,6.5"/>
			<path class="st1" d="M10,13.4c0.1,3.5,2.9,6.3,6.4,6.4C16.3,16.3,13.6,13.5,10,13.4"/>
			<path class="st1" d="M3.2,20.2c0.1,3.5,2.9,6.3,6.4,6.4C9.5,23.1,6.7,20.3,3.2,20.2"/>
			<path class="st1" d="M16.9,20.2c0.1,3.5,2.9,6.3,6.4,6.4C23.2,23.1,20.4,20.3,16.9,20.2"/>
			<path class="st1" d="M10,27.1c0.1,3.5,2.9,6.3,6.4,6.4C16.3,29.9,13.6,27.2,10,27.1"/>
			<path class="st1" d="M23.7,13.4c0.1,3.5,2.9,6.3,6.4,6.4C30,16.3,27.2,13.5,23.7,13.4"/>
			<path class="st1" d="M30.1,20.2c-3.5,0.1-6.3,2.9-6.4,6.4C27.2,26.5,30,23.7,30.1,20.2"/>
		</g>
		<g>
			<path class="st0" d="M120,25.7c0-0.5,0.4-0.8,0.8-0.8s0.8,0.4,0.8,0.8c0,0.5-0.4,0.8-0.8,0.8C120.4,26.5,120,26.2,120,25.7z"/>
			<path class="st0" d="M122.4,23.9L122.4,23.9c0-1.7,1.2-2.7,2.6-2.7c1.2,0,2.3,0.6,2.4,1.9h-1.3c-0.1-0.6-0.5-0.8-1-0.8
				c-0.7,0-1.2,0.6-1.2,1.5v0.1c0,1,0.5,1.6,1.2,1.6c0.6,0,1-0.4,1.1-1h1.3c-0.1,1.2-0.9,2-2.4,2C123.5,26.5,122.4,25.6,122.4,23.9z
				"/>
			<path class="st0" d="M128,23.9L128,23.9c0-1.7,1.2-2.7,2.7-2.7c1.6,0,2.7,1,2.7,2.6v0.1c0,1.6-1.2,2.6-2.7,2.6
				C129.1,26.5,128,25.5,128,23.9z M131.9,23.9L131.9,23.9c0-1-0.5-1.7-1.2-1.7s-1.2,0.6-1.2,1.6v0.1c0,1,0.5,1.6,1.2,1.6
				C131.4,25.5,131.9,24.9,131.9,23.9z"/>
			<path class="st0" d="M134.3,21.4h1.4v0.7c0.3-0.5,0.8-0.9,1.6-0.9c0.6,0,1.2,0.3,1.4,0.9c0.4-0.6,1.1-0.9,1.7-0.9
				c0.9,0,1.7,0.6,1.7,1.9v3.3h-1.4v-3.1c0-0.6-0.3-0.9-0.8-0.9c-0.6,0-1,0.4-1,1v3h-1.4v-3.1c0-0.6-0.3-0.9-0.8-0.9
				c-0.6,0-1,0.4-1,1v3h-1.4L134.3,21.4L134.3,21.4z"/>
		</g>
	</g>
</g>
</svg>
