<?xml version="1.0" encoding="utf-8"?>
<!-- Generator: Adobe Illustrator 24.0.0, SVG Export Plug-In . SVG Version: 6.00 Build 0)  -->
<svg version="1.1" id="Layer_1" xmlns="http://www.w3.org/2000/svg" xmlns:xlink="http://www.w3.org/1999/xlink" x="0px" y="0px"
	 viewBox="0 0 114.1 40" style="enable-background:new 0 0 114.1 40;" xml:space="preserve">
<style type="text/css">
	.st0{fill:#85B266;}
	.st1{fill:#142F48;}
</style>
<g>
	<path class="st0" d="M27.1,33.4c0.9-0.7,1-1.6,1.1-2.5V7.1c0-0.7-0.6-1.1-1.2-0.7L4.4,16.6c-0.7,0.3-1.2,1.1-1.2,1.9
		c0,1.2,0.8,2,1.3,2.4l6.5,4.1c0.7,0.4,1.5,0.2,1.8-0.4l1.5-2.2c0.4-0.7,0.2-1.4-0.4-1.8l-1.2-0.7c-0.7-0.4-0.6-1,0.1-1.2l8.8-4
		c0.7-0.3,1.2,0.1,1.2,0.7v9.5c0,0.7-0.5,1-1.1,0.6l-1.2-0.8c-0.7-0.4-1.5-0.2-1.8,0.4l-1.6,2.1c-0.4,0.7-0.2,1.4,0.4,1.8l7,4.5
		C25,33.6,26.2,34.1,27.1,33.4"/>
	<path class="st1" d="M44.1,24.1c1.4,0,2.2-0.6,2.6-1.4l0.3-0.2h3.4l0.3,0.2c-0.6,3.4-3.4,4.8-6.4,4.8c-4.2,0-7-2.8-7-7.3
		s2.8-7.3,7-7.3c3.1,0,6,1.4,6.4,4.8l-0.3,0.3h-3.5l-0.3-0.3c-0.3-0.8-1.2-1.4-2.6-1.4c-2,0-3.1,1.4-3.1,3.9
		C41,22.7,42.1,24.1,44.1,24.1"/>
	<path class="st1" d="M63.2,16.5h-2c-2.2,0-3.1,1.2-3.1,3.6v6.7l-0.3,0.2h-3.4L54,26.9V13.5l0.3-0.2h3.1l0.3,0.2l0.3,0.8h0.3
		c0,0,0.6-1.2,3.1-1.2h1.7l0.3,0.2v2.8L63.2,16.5z"/>
	<path class="st1" d="M75.3,18.5c0-0.2-0.3-2.2-2.6-2.2c-2.2,0-2.6,2-2.6,2.2l0.3,0.2H75L75.3,18.5z M79.5,21.3l-0.3,0.2h-8.8
		l-0.3,0.3c0,0.6,0.6,2.2,2.8,2.2c0.8,0,1.7-0.3,2-0.8l0.3-0.3h3.4l0.3,0.3c-0.3,1.7-1.7,4.2-6,4.2c-4.8,0-7-3.4-7-7.3
		s2.2-7.3,6.8-7.3c4.5,0,6.8,3.4,6.8,7.3V21.3z"/>
	<polygon class="st1" points="94.6,27.2 82.8,27.2 82.6,26.9 82.6,23.8 82.8,23.2 89.3,16.9 89.3,16.5 83.1,16.5 82.8,16.3 
		82.8,13.5 83.1,13.2 94.4,13.2 94.6,13.5 94.6,16.5 94.4,17.1 87.9,23.6 87.9,23.8 94.6,23.8 95,24.1 95,26.9 	"/>
	<path class="st1" d="M106.7,18.5c0-0.2-0.3-2.2-2.6-2.2c-2.2,0-2.6,2-2.6,2.2l0.3,0.2h4.5L106.7,18.5z M110.9,21.3l-0.3,0.2h-8.8
		l-0.3,0.3c0,0.6,0.6,2.2,2.8,2.2c0.8,0,1.7-0.3,2-0.8l0.3-0.3h3.4l0.3,0.3c-0.3,1.7-1.7,4.2-6,4.2c-4.8,0-7-3.4-7-7.3
		s2.2-7.3,6.8-7.3c4.5,0,6.8,3.4,6.8,7.3L110.9,21.3L110.9,21.3z"/>
</g>
</svg>
