<svg id="Layer_1" data-name="Layer 1" xmlns="http://www.w3.org/2000/svg" viewBox="0 0 107.146 67.468"><title>gmx-seguros-brand</title><path d="M71.946,55.12541a3.708,3.708,0,0,0-1.4-.4,1.49871,1.49871,0,0,0-1.6,1.5c0,.9.5,1.1,1.2,1.3.3.1.7.2.7.5a.56.56,0,0,1-.6.5,1.38858,1.38858,0,0,1-1-.5l-.5,1a3.02176,3.02176,0,0,0,1.6.5,2.00984,2.00984,0,0,0,1.3-.4,1.45664,1.45664,0,0,0,.5-1.2,1.20073,1.20073,0,0,0-1.1-1.2l-.3-.1c-.2-.1-.5-.2-.5-.4,0-.3.3-.4.5-.4a1.13549,1.13549,0,0,1,.8.3Z" style="fill:#0f3d5c"/><polygon points="76.746 55.825 76.746 54.825 74.146 54.825 74.146 59.425 76.746 59.425 76.746 58.425 75.346 58.425 75.346 57.625 76.646 57.625 76.646 56.625 75.346 56.625 75.346 55.825 76.746 55.825" style="fill:#0f3d5c"/><path d="M81.146,56.82542v.9h1a.90848.90848,0,0,1-1,.8,1.41667,1.41667,0,0,1,0-2.8,1.08749,1.08749,0,0,1,1,.7l1.1-.5a2.0834,2.0834,0,0,0-2.1-1.3,2.36193,2.36193,0,0,0-2.5,2.5,2.41792,2.41792,0,0,0,4.3,1.5,2.89967,2.89967,0,0,0,.5-1.8Z" style="fill:#0f3d5c"/><path d="M88.246,54.82542v2.4c0,.6,0,1.2-.8,1.2s-.8-.6-.8-1.2v-2.4h-1.2v2.6a1.84472,1.84472,0,0,0,.5,1.6,2.5,2.5,0,0,0,3,0,1.84472,1.84472,0,0,0,.5-1.6v-2.6Z" style="fill:#0f3d5c"/><path d="M94.046,57.52541a1.2951,1.2951,0,0,0,1-1.3c0-1-.7-1.4-1.6-1.4h-1.8v4.6h1.2v-1.7h0l1.1,1.7h1.5Zm-1.2-1.8h0c.5,0,.9.1.9.6s-.4.6-.8.6h-.1Z" style="fill:#0f3d5c"/><path d="M99.546,54.72542a2.40208,2.40208,0,1,0,2.5,2.3A2.37166,2.37166,0,0,0,99.546,54.72542Zm0,1.1a1.30936,1.30936,0,0,1,1.3,1.2,1.30357,1.30357,0,1,1-2.6,0A1.30937,1.30937,0,0,1,99.546,55.82542Z" style="fill:#0f3d5c"/><path d="M107.046,55.12541a3.708,3.708,0,0,0-1.4-.4,1.49871,1.49871,0,0,0-1.6,1.5c0,.9.5,1.1,1.2,1.3.3.1.7.2.7.5a.56.56,0,0,1-.6.5,1.60581,1.60581,0,0,1-1.1-.5l-.5,1a3.02176,3.02176,0,0,0,1.6.5,2.00984,2.00984,0,0,0,1.3-.4,1.45665,1.45665,0,0,0,.5-1.2,1.20073,1.20073,0,0,0-1.1-1.2l-.3-.1c-.2-.1-.5-.2-.5-.4,0-.3.3-.4.5-.4a1.13549,1.13549,0,0,1,.8.3Z" style="fill:#0f3d5c"/><path d="M12.146.12541a10.51889,10.51889,0,0,0-10.5,4.7c-4.4,7.1.7,15.9,7.3,16.7a10.73123,10.73123,0,0,0,12.1-10.2,10.32327,10.32327,0,0,0-8.9-11.2Z" style="fill:#0f3d5c"/><path d="M72.046,67.02541c-.2-1.4-1.7-1.9-2.7-2.4-8.2-4.3-18-6.9-27.3-10-7.8-2.7-15.7-5.5-22.5-9.5-1.8-1.1-5.4-3.1-5.3-5.5.1-2,3.6-2.7,5.5-3.2,11.5-2.7,26.7-2,40.1-2.7,5.5-.3,10.9-.2,14.9-2.3-1-1.8-3.5-1.9-5.5-2.3-6.4-1.1-14.3-1-21.8-1.4a125.03794,125.03794,0,0,0-23.9,1.3c-7.8,1.1-14.3,2.4-19.2,5.8-1.7,1.2-4.1,3.2-3.7,6.3.3,2.8,3.7,5,5.9,6.5,7.6,4.9,17.1,7.8,26,10.9a207.52759,207.52759,0,0,0,29.2,7.6C65.046,66.92541,68.546,68.12541,72.046,67.02541Z" style="fill:#0f3d5c"/><path d="M63.546,48.02541h-2.4v-3.6h8.5v1.1a8.75074,8.75074,0,0,1-.3,2.4,8.38966,8.38966,0,0,1-.7,1.9,8.61272,8.61272,0,0,1-3,3,8.16461,8.16461,0,0,1-4.2,1,8.29107,8.29107,0,0,1-3.2-.6,7.82059,7.82059,0,0,1-2.6-1.7,7.323,7.323,0,0,1-1.7-2.6,8.83334,8.83334,0,0,1,0-6.4,7.58173,7.58173,0,0,1,4.3-4.3,8.66171,8.66171,0,0,1,3.2-.6,8.16461,8.16461,0,0,1,4.2,1,8.61272,8.61272,0,0,1,3,3l-4.9,1.8a4.50382,4.50382,0,0,0-.9-1,2.6627,2.6627,0,0,0-1.2-.3,2.51759,2.51759,0,0,0-2,.9,3.9039,3.9039,0,0,0-.7,2.5,3.72669,3.72669,0,0,0,.7,2.5,2.58283,2.58283,0,0,0,2.1.9,2.50178,2.50178,0,0,0,1.3-.3C63.246,48.72542,63.446,48.42541,63.546,48.02541Z" style="fill:#0f3d5c"/><path d="M85.046,53.52541l-.7-6.1c0-.5-.1-.9-.1-1.4s-.1-.9-.1-1.4c-.1.4-.2.9-.3,1.4s-.3,1-.4,1.6l-1.8,5.9h-3.3l-1.8-5.9a12.437,12.437,0,0,1-.4-1.6c-.1-.5-.2-1-.3-1.4,0,.5-.1,1-.1,1.4,0,.5-.1.9-.1,1.4l-.7,6.1h-5.4l2.6-15.4h5.7l1.1,3.8a1.6895,1.6895,0,0,0,.2.5,30.35314,30.35314,0,0,1,.9,4h.1a19.13718,19.13718,0,0,1,.4-2.1c.2-.7.4-1.6.7-2.5l1.1-3.7h5.7l2.4,15.4Z" style="fill:#0f3d5c"/><path d="M98.446,50.02541a4.11635,4.11635,0,0,1-.3-.8,1.08731,1.08731,0,0,1-.1-.5,4.33118,4.33118,0,0,0-.1.5l-.4.8-1.7,3.5h-6.3l5.5-8.2-4.8-7.2h6.3l1.1,2.5a.09794.09794,0,0,0,.1.1c.2.5.3.8.4,1.1a.76386.76386,0,0,1,.2-.5,4.8761,4.8761,0,0,0,.3-.7l1.2-2.5h6.3l-4.8,7.2,5.5,8.2h-6.3Z" style="fill:#0f3d5c"/></svg>