<?xml version="1.0" encoding="utf-8"?>
<!-- Generator: Adobe Illustrator 24.0.0, SVG Export Plug-In . SVG Version: 6.00 Build 0)  -->
<svg version="1.1" id="Layer_1" xmlns="http://www.w3.org/2000/svg" xmlns:xlink="http://www.w3.org/1999/xlink" x="0px" y="0px"
	 viewBox="0 0 82.4 40" style="enable-background:new 0 0 82.4 40;" xml:space="preserve">
<style type="text/css">
	.st0{fill:#002D74;}
	.st1{fill:#FF6C0E;}
</style>
<g>
	<path class="st0" d="M37.2,19.4c0-0.8,0.1-1.1-0.8-1.6l0,0l-0.6-0.3v-0.6h6.2v0.6l-0.6,0.2l0,0c-0.9,0.4-0.9,0.5-0.9,1.6l0,0l0,4.6
		l-0.2,0.2l0,0c-1.1,0.3-3.6,1-5.9,1c-5.2,0-7.8-2.7-7.8-8.6c0-6.3,3.6-9.1,8.4-9.1c1.3,0,3.6,0,5.2,1.4c0.5,0.5,0.6,1,0.6,1.2
		c0,0.4-0.1,0.5-0.2,0.6l0,0l-1.2,2.3h-0.4l0,0c0-1.1-1.3-4.1-4.7-4.1c-3.9,0-4.1,2.7-4.1,7.3c0,4,0.4,7.7,5.1,7.7
		c1.5,0,1.8-0.8,1.8-1.7C37.2,22.1,37.2,19.8,37.2,19.4L37.2,19.4L37.2,19.4z"/>
	<path class="st0" d="M43.6,24.3l1.1-0.5l0,0c0.9-0.4,0.9-1,0.9-2.5l0,0V10.7l0,0c0-0.8-0.2-1.2-0.9-1.7l0,0l-1-0.7V7.8h4.6L48.7,8
		l0,0c0.5,0.7,1.6,2.5,3,4.4l0,0l4.9,6.7l0,0c0.2,0.3,0.3,0.4,0.4,0.4c0.2,0,0.2-0.2,0.2-0.7l0,0v-8.1l0,0c0-1.2,0-1.4-1-1.8l0,0
		l-1.4-0.6V7.8h5.8v0.6l-0.7,0.3l0,0c-1.1,0.4-1.3,0.7-1.3,2.4l0,0v10l0,0c0,1.5,0,3.1,0,3.6l0,0l-0.2,0.2h-1.4l-0.3-0.2l0,0
		c-0.2-0.3-1.5-2.1-2.9-3.9l0,0l-5.9-7.9l0,0c-0.3-0.4-0.5-0.7-0.6-0.7c-0.2,0-0.2,0.3-0.2,0.6l0,0v9.1l0,0c0,1.2,0,1.6,1.1,2l0,0
		l1.5,0.5v0.6h-5.9V24.3L43.6,24.3z"/>
	<path class="st0" d="M62,24.3l1.1-0.4l0,0c0.8-0.3,0.9-0.7,0.9-2.3l0,0v-11l0,0c0-1.2,0-1.5-0.9-1.8l0,0L62,8.4V7.8h8.4l0,0
		c2.9,0,5.8,0.6,5.8,4.5c0,3.5-2.6,5.7-6.7,5.7c-0.2,0-0.4,0-0.6,0l0,0l-0.4-0.9l0.2-0.2l0,0c1.8,0,4.1-0.8,3.8-4.4
		c-0.2-2.8-1.1-3.3-3.3-3.3c-1.5,0-1.7,0.2-1.7,0.9l0,0v11.5l0,0c0,1.7,0,2.1,1,2.3l0,0l1.3,0.4v0.6H62V24.3L62,24.3z"/>
	<polygon class="st0" points="80,27.4 26.6,27.4 26.6,27.1 80,27.1 80,27.4 	"/>
	<path class="st1" d="M16.1,16.2c0,1.6-1.3,2.8-2.8,2.8c-1.6,0-2.8-1.3-2.8-2.8c0-1.6,1.3-2.8,2.8-2.8
		C14.9,13.4,16.1,14.7,16.1,16.2L16.1,16.2L16.1,16.2z"/>
	<path class="st1" d="M8.6,11.5H2.4l1.2,3.8h3.1v0l0,0c3.1,0,5.6-2.5,5.6-5.6l0,0l0,0l0,0v-3L8.6,5.4V11.5L8.6,11.5z"/>
	<path class="st1" d="M8.6,21v6.1l3.8-1.2v-3.1h0l0,0c0-3.1-2.5-5.6-5.6-5.6l0,0l0,0l0,0h-3L2.4,21H8.6L8.6,21z"/>
	<path class="st1" d="M18,21h6.1l-1.2-3.8h-3h0l0,0c-3.1,0-5.6,2.5-5.6,5.6l0,0l0,0v0v3l3.8,1.2V21L18,21z"/>
	<path class="st1" d="M18,11.5V5.4l-3.8,1.2v3.1l0,0l0,0c0,3.1,2.5,5.6,5.6,5.6l0,0h0l0,0h3l1.2-3.8H18L18,11.5z"/>
	<path class="st0" d="M78.6,8.1c0.6,0,1.1,0.5,1.1,1.1c0,0.7-0.5,1.1-1.1,1.1v0.3c0.8,0,1.4-0.6,1.4-1.4c0-0.8-0.6-1.4-1.4-1.4V8.1
		L78.6,8.1z M78.6,9.5V9.1h0l0,0c0.2,0,0.3,0,0.3-0.2c0-0.2-0.2-0.2-0.3-0.2l0,0h0V8.4h0l0,0c0.4,0,0.6,0.1,0.6,0.5
		c0,0.3-0.2,0.4-0.4,0.4l0,0l0.4,0.7h-0.3L78.6,9.5z M78.6,10.4c-0.6,0-1.1-0.5-1.1-1.1c0-0.7,0.5-1.1,1.1-1.1l0,0V7.8l0,0
		c-0.8,0-1.4,0.6-1.4,1.4c0,0.8,0.6,1.4,1.4,1.4l0,0l0,0l0,0V10.4L78.6,10.4L78.6,10.4L78.6,10.4L78.6,10.4z M78.6,8.4v0.2h-0.2l0,0
		v0.5h0.2v0.3l-0.1-0.1h-0.2v0.7H78l0,0V8.4H78.6z"/>
	<g>
		<path class="st0" d="M27.8,34.6c-0.6,0-1-0.2-1.1-0.2c-0.1-0.1-0.2-0.6-0.2-1.1c0-0.1,0.2-0.1,0.2,0c0.1,0.4,0.6,1,1.1,1
			c0.5,0,0.7-0.3,0.7-0.7c0-0.5-0.5-0.8-0.9-1c-0.5-0.2-1-0.6-1-1.3c0-0.7,0.6-1.2,1.5-1.2c0.2,0,0.5,0,0.7,0.1c0.1,0,0.1,0,0.2,0.1
			c0.1,0.1,0.1,0.5,0.1,0.9c0,0.1-0.2,0.1-0.3,0c-0.1-0.3-0.4-0.8-0.9-0.8c-0.4,0-0.7,0.3-0.7,0.6c0,0.3,0.3,0.6,0.6,0.7l0.4,0.2
			c0.4,0.2,0.9,0.6,0.9,1.3C29.5,34.1,28.8,34.6,27.8,34.6z"/>
		<path class="st0" d="M34.8,31.9c0,0.2,0,0.2,0.2,0.2h0.5c0.3,0,0.4,0,0.5-0.4l0-0.2c0-0.1,0.2-0.1,0.2,0c0,0.2,0,0.4,0,0.7
			c0,0.2,0,0.5,0,0.7c0,0.1-0.2,0.1-0.2,0l0-0.2c-0.1-0.3-0.1-0.4-0.5-0.4H35c-0.2,0-0.2,0-0.2,0.2v0.8c0,0.3,0,0.5,0.1,0.6
			c0.1,0.1,0.2,0.2,0.7,0.2c0.6,0,0.8,0,1.1-0.8c0.1-0.1,0.2,0,0.2,0c0,0.3-0.2,0.9-0.3,1c-0.3,0-1,0-1.5,0h-0.8c-0.3,0-0.6,0-1.1,0
			c-0.1,0-0.1-0.2,0-0.2l0.3,0c0.3,0,0.3-0.1,0.3-0.7v-2.4c0-0.6,0-0.6-0.3-0.7l-0.2,0c-0.1,0-0.1-0.2,0-0.2c0.3,0,0.6,0,0.9,0h1.4
			c0.4,0,0.8,0,0.9,0c0,0.1,0.1,0.6,0.1,1c0,0.1-0.2,0.1-0.2,0c-0.1-0.2-0.2-0.4-0.2-0.5c-0.1-0.1-0.3-0.2-0.6-0.2H35
			c-0.2,0-0.2,0-0.2,0.3V31.9z"/>
		<path class="st0" d="M44.8,33.8c0,0.3,0,0.4,0.1,0.4c0,0,0,0.1,0,0.2c-0.1,0-0.3,0-0.5,0.1c-0.2,0.1-0.8,0.2-1.2,0.2
			c-0.4,0-0.8,0-1.3-0.2c-0.8-0.3-1.3-1-1.3-2c0-0.8,0.4-1.5,1.1-2c0.4-0.2,1-0.3,1.5-0.3c0.7,0,1.1,0.2,1.3,0.2
			c0,0.2,0,0.7,0.1,1.1c0,0.1-0.2,0.1-0.2,0c-0.2-0.6-0.6-0.9-1.2-0.9c-1,0-1.5,0.9-1.5,1.9c0,0.9,0.3,1.5,0.7,1.8
			c0.3,0.2,0.7,0.2,0.9,0.2c0.4,0,0.5-0.1,0.5-0.5v-0.4c0-0.4,0-0.4-0.4-0.4l-0.3,0c-0.1,0-0.1-0.2,0-0.2c0.5,0,0.8,0,1.1,0
			c0.3,0,0.6,0,0.9,0c0.1,0,0.1,0.2,0,0.2l-0.1,0c-0.2,0-0.2,0.1-0.2,0.5V33.8z"/>
		<path class="st0" d="M49.4,31.1c0-0.6,0-0.6-0.3-0.7l-0.2,0c-0.1,0-0.1-0.2,0-0.2c0.3,0,0.6,0,1,0c0.3,0,0.6,0,1,0
			c0.1,0,0.1,0.2,0,0.2l-0.2,0c-0.3,0.1-0.3,0.1-0.3,0.7v1.5c0,0.8,0.1,1.6,1.1,1.6c0.8,0,1.1-0.7,1.1-1.6v-0.8c0-0.5,0-1-0.1-1.2
			c-0.1-0.1-0.2-0.2-0.4-0.2l-0.2,0c-0.1-0.1,0-0.2,0-0.2c0.4,0,0.6,0,0.9,0c0.2,0,0.5,0,0.7,0c0,0,0.1,0.2,0,0.2l-0.1,0
			c-0.2,0-0.3,0.1-0.4,0.2c-0.1,0.2-0.1,0.7-0.1,1.2v0.7c0,0.6-0.1,1.2-0.4,1.6c-0.3,0.3-0.8,0.5-1.3,0.5c-0.5,0-0.9-0.1-1.3-0.4
			c-0.3-0.3-0.5-0.8-0.5-1.5V31.1z"/>
		<path class="st0" d="M57.7,31.3c0-0.7,0-0.7-0.3-0.8l-0.2,0c-0.1,0-0.1-0.2,0-0.2c0.5,0,1-0.1,1.6-0.1c0.6,0,1,0.1,1.3,0.2
			c0.4,0.2,0.6,0.5,0.6,1c0,0.6-0.4,0.8-0.7,1c-0.1,0-0.1,0.1,0,0.1c0.4,0.9,0.7,1.4,1,1.6c0.2,0.1,0.3,0.2,0.4,0.2
			c0.1,0,0.1,0.1,0,0.2c-0.1,0-0.3,0.1-0.5,0.1c-0.6,0-1-0.2-1.3-0.7c-0.2-0.3-0.4-0.7-0.5-1c-0.1-0.2-0.2-0.2-0.3-0.2
			c-0.2,0-0.2,0-0.2,0.1v0.8c0,0.6,0,0.6,0.3,0.7l0.2,0c0,0,0,0.2,0,0.2c-0.3,0-0.6,0-1,0c-0.3,0-0.6,0-1,0c-0.1,0-0.1-0.2,0-0.2
			l0.2,0c0.3-0.1,0.3-0.1,0.3-0.7V31.3z M58.6,32.1c0,0.2,0,0.2,0.4,0.2c0.2,0,0.4-0.1,0.5-0.2c0.1-0.1,0.2-0.3,0.2-0.7
			c0-0.6-0.3-1-0.9-1c-0.3,0-0.3,0-0.3,0.3V32.1z"/>
		<path class="st0" d="M69.5,32.3c0,1.4-1,2.3-2.4,2.3c-1.3,0-2.3-0.9-2.3-2.2c0-1.3,1-2.3,2.3-2.3C68.5,30.1,69.5,31,69.5,32.3z
			 M67.1,30.4c-0.8,0-1.2,0.8-1.2,1.8c0,0.8,0.3,2.1,1.3,2.1c0.9,0,1.2-0.8,1.2-1.9C68.4,31.3,67.9,30.4,67.1,30.4z"/>
		<path class="st0" d="M74.6,34.6c-0.6,0-1-0.2-1.1-0.2c-0.1-0.1-0.2-0.6-0.2-1.1c0-0.1,0.2-0.1,0.2,0c0.1,0.4,0.6,1,1.1,1
			c0.5,0,0.7-0.3,0.7-0.7c0-0.5-0.5-0.8-0.9-1c-0.5-0.2-1-0.6-1-1.3c0-0.7,0.6-1.2,1.5-1.2c0.2,0,0.5,0,0.7,0.1c0.1,0,0.1,0,0.2,0.1
			c0.1,0.1,0.1,0.5,0.1,0.9c0,0.1-0.2,0.1-0.3,0c-0.1-0.3-0.4-0.8-0.9-0.8c-0.4,0-0.7,0.3-0.7,0.6c0,0.3,0.3,0.6,0.6,0.7l0.4,0.2
			c0.4,0.2,0.9,0.6,0.9,1.3C76.3,34.1,75.6,34.6,74.6,34.6z"/>
	</g>
</g>
</svg>
