<svg xmlns="http://www.w3.org/2000/svg" xmlns:xlink="http://www.w3.org/1999/xlink" width="193" height="64" viewBox="0 0 193 64">
  <defs>
    <filter id="Rectángulo_1332" x="0" y="0" width="193" height="64" filterUnits="userSpaceOnUse">
      <feOffset dy="3" input="SourceAlpha"/>
      <feGaussianBlur stdDeviation="3" result="blur"/>
      <feFlood flood-color="#add0fc"/>
      <feComposite operator="in" in2="blur"/>
      <feComposite in="SourceGraphic"/>
    </filter>
    <clipPath id="clip-path">
      <rect id="Rectángulo_1337" data-name="Rectángulo 1337" width="80.28" height="30.25" fill="none"/>
    </clipPath>
  </defs>
  <g id="Grupo_1634" data-name="Grupo 1634" transform="translate(-828 -1734)">
    <g transform="matrix(1, 0, 0, 1, 828, 1734)" filter="url(#Rectángulo_1332)">
      <rect id="Rectángulo_1332-2" data-name="Rectángulo 1332" width="175" height="46" rx="10" transform="translate(9 6)" fill="#f4f8fd"/>
    </g>
    <g id="Grupo_1633" data-name="Grupo 1633" transform="translate(884.36 1747.875)">
      <g id="Grupo_1632" data-name="Grupo 1632" transform="translate(0 0)" clip-path="url(#clip-path)">
        <path id="Trazado_2284" data-name="Trazado 2284" d="M67.057,17.165c0-.835.149-1.134-.785-1.631l-.646-.318v-.577h6.443v.577l-.656.259c-.974.4-.974.507-.954,1.69l.01,4.762-.239.229a25.892,25.892,0,0,1-6.115,1c-5.429,0-8.1-2.814-8.1-8.9,0-6.542,3.779-9.376,8.74-9.376,1.332,0,3.748,0,5.429,1.422a1.557,1.557,0,0,1,.606,1.2,1.029,1.029,0,0,1-.159.636l-1.2,2.337h-.448a4.778,4.778,0,0,0-4.832-4.226c-4.047,0-4.245,2.824-4.245,7.6,0,4.176.437,7.934,5.27,7.934,1.561,0,1.849-.825,1.889-1.75Z" transform="translate(-31.043 -2.708)" fill="#00397a"/>
        <path id="Trazado_2285" data-name="Trazado 2285" d="M95.647,22.669,96.8,22.2c.945-.368.945-1.054.945-2.575V8.659a1.764,1.764,0,0,0-.9-1.71L95.8,6.243V5.666h4.783l.288.179c.527.706,1.621,2.605,3.092,4.594l5.071,6.9c.209.288.318.418.418.418.209,0,.209-.259.209-.736V8.679c0-1.2-.02-1.442-1.044-1.859l-1.5-.577V5.666h6.016v.577l-.766.288c-1.123.447-1.342.706-1.342,2.436V19.308c0,1.581.03,3.182.03,3.728l-.179.209H109.4l-.288-.209c-.238-.288-1.6-2.207-2.993-4.067l-6.145-8.213c-.338-.448-.5-.686-.626-.686-.238,0-.238.268-.238.636v9.386c0,1.262,0,1.66,1.1,2.028l1.551.547v.577H95.647Z" transform="translate(-53.012 -3.14)" fill="#00397a"/>
        <path id="Trazado_2286" data-name="Trazado 2286" d="M138.319,22.669l1.153-.388c.865-.288.9-.765.9-2.416V8.52c0-1.253,0-1.571-.9-1.859l-1.153-.418V5.666h8.7c3.043,0,6.026.656,6.026,4.643,0,3.649-2.724,5.906-6.98,5.906-.179,0-.417-.03-.576-.03l-.388-.945.209-.209c1.909-.049,4.226-.835,3.9-4.524-.259-2.874-1.094-3.41-3.45-3.41-1.6,0-1.71.238-1.71.9V19.865c0,1.76-.03,2.128,1.024,2.416l1.362.388v.577h-8.113Z" transform="translate(-76.662 -3.14)" fill="#00397a"/>
        <rect id="Rectángulo_1336" data-name="Rectángulo 1336" width="55.298" height="0.368" transform="translate(24.967 22.462)" fill="#00397a"/>
        <path id="Trazado_2287" data-name="Trazado 2287" d="M24.479,21.537A2.938,2.938,0,1,1,21.536,18.6a2.935,2.935,0,0,1,2.943,2.934" transform="translate(-10.311 -10.311)" fill="#ec7818"/>
        <path id="Trazado_2288" data-name="Trazado 2288" d="M6.344,6.324H0l1.282,3.928H4.444v-.01a5.814,5.814,0,0,0,5.807-5.807V1.283L6.344,0Z" transform="translate(0 0)" fill="#ec7818"/>
        <path id="Trazado_2289" data-name="Trazado 2289" d="M6.324,31.3v6.334l3.928-1.273V33.2h-.01a5.813,5.813,0,0,0-5.806-5.807H1.283L0,31.3Z" transform="translate(0 -15.182)" fill="#ec7818"/>
        <path id="Trazado_2290" data-name="Trazado 2290" d="M31.3,31.31h6.344L36.35,27.392H33.189a5.812,5.812,0,0,0-5.8,5.807v3.152L31.3,37.633Z" transform="translate(-15.182 -15.182)" fill="#ec7818"/>
        <path id="Trazado_2291" data-name="Trazado 2291" d="M31.309,6.356V.022L27.392,1.295V4.456A5.826,5.826,0,0,0,33.2,10.263H36.35l1.293-3.908Z" transform="translate(-15.182 -0.012)" fill="#ec7818"/>
        <path id="Trazado_2292" data-name="Trazado 2292" d="M174.989,5.954a1.121,1.121,0,0,1,1.1,1.183,1.127,1.127,0,0,1-1.1,1.183V8.6a1.467,1.467,0,0,0,0-2.933Zm0,1.4V7.008H175c.189,0,.338-.03.338-.248,0-.2-.179-.229-.328-.229h-.02V6.292h.049c.4,0,.617.139.617.487a.415.415,0,0,1-.438.448l.448.736h-.318Zm0,.964a1.129,1.129,0,0,1-1.113-1.183,1.123,1.123,0,0,1,1.113-1.183V5.666a1.467,1.467,0,1,0,0,2.933Zm0-2.028v.238h-.259v.477h.259v.348l-.07-.11h-.189v.716h-.308V6.292Z" transform="translate(-96.17 -3.14)" fill="#00397a"/>
        <path id="Trazado_2293" data-name="Trazado 2293" d="M57.3,62.05a2.344,2.344,0,0,1-1.148-.257A2.185,2.185,0,0,1,55.94,60.7a.167.167,0,0,1,.257-.021c.135.44.588,1.061,1.162,1.061a.672.672,0,0,0,.73-.682c0-.547-.514-.871-.919-1.074a1.555,1.555,0,0,1-1.02-1.318c-.007-.763.588-1.29,1.567-1.29a2.735,2.735,0,0,1,.77.108,1.633,1.633,0,0,0,.23.054,3.275,3.275,0,0,1,.122.966c-.034.081-.2.088-.263.021-.115-.345-.405-.838-.892-.838a.628.628,0,0,0-.689.629.989.989,0,0,0,.615.77l.446.236a1.541,1.541,0,0,1,.953,1.358c0,.831-.682,1.372-1.7,1.372" transform="translate(-31.004 -31.8)" fill="#00397a"/>
        <path id="Trazado_2294" data-name="Trazado 2294" d="M73.112,59.349c0,.189.007.2.189.2h.466c.351,0,.432-.047.5-.371l.034-.169c.047-.053.216-.053.25.007-.013.216-.02.459-.02.716s.007.5.02.716a.193.193,0,0,1-.25.007l-.034-.168c-.067-.325-.148-.378-.5-.378H73.3c-.182,0-.189.007-.189.21v.8a1.23,1.23,0,0,0,.108.642c.088.122.216.176.71.176.588,0,.817-.021,1.189-.784a.164.164,0,0,1,.25.034,3.842,3.842,0,0,1-.284,1.081c-.358-.014-1.007-.021-1.561-.021h-.878c-.324,0-.655.007-1.162.021a.193.193,0,0,1,0-.237l.317-.047c.3-.047.345-.088.345-.709v-2.52c0-.615-.041-.655-.345-.716l-.169-.034a.171.171,0,0,1,.013-.237c.318.014.649.021.973.021h1.432c.432,0,.817-.007.9-.021.007.108.054.595.088,1.047-.027.074-.182.088-.25.027a1.559,1.559,0,0,0-.256-.534.888.888,0,0,0-.662-.21h-.541c-.223,0-.223.013-.223.263Z" transform="translate(-39.597 -31.909)" fill="#00397a"/>
        <path id="Trazado_2295" data-name="Trazado 2295" d="M93.124,61.178c0,.284.013.419.142.446.027.027.021.142-.02.162a3.011,3.011,0,0,0-.473.1,5.211,5.211,0,0,1-1.2.162,3.361,3.361,0,0,1-1.331-.237,2.128,2.128,0,0,1-1.331-2.04,2.238,2.238,0,0,1,1.189-2.04,3.3,3.3,0,0,1,1.581-.358,8.639,8.639,0,0,1,1.338.162c.02.2.027.676.095,1.088-.027.074-.21.081-.257.013a1.253,1.253,0,0,0-1.27-.953c-1.074,0-1.594.892-1.594,1.959a2.069,2.069,0,0,0,.77,1.837,1.651,1.651,0,0,0,.925.257c.385,0,.466-.074.466-.514V60.8c0-.365-.041-.405-.365-.452l-.3-.041a.153.153,0,0,1,0-.237c.48.014.81.021,1.142.021s.655-.007.885-.021a.193.193,0,0,1,0,.237l-.155.027c-.2.034-.243.1-.243.466Z" transform="translate(-49.281 -31.8)" fill="#00397a"/>
        <path id="Trazado_2296" data-name="Trazado 2296" d="M108.427,58.565c0-.628-.041-.669-.345-.73l-.169-.034a.162.162,0,0,1,.013-.23c.325.014.662.021.986.021s.662-.007.986-.021a.183.183,0,0,1,0,.23l-.162.027c-.3.054-.345.108-.345.736v1.561c0,.79.088,1.662,1.115,1.662.865,0,1.128-.756,1.128-1.682v-.818a4.691,4.691,0,0,0-.1-1.236c-.061-.142-.21-.182-.392-.216l-.182-.034a.2.2,0,0,1,0-.23c.365.014.628.021.905.021.25,0,.5-.007.756-.021a.2.2,0,0,1,0,.23l-.122.027c-.176.041-.3.081-.365.223a4.691,4.691,0,0,0-.1,1.236v.757a2.345,2.345,0,0,1-.432,1.628,1.825,1.825,0,0,1-1.338.486,2.033,2.033,0,0,1-1.337-.378,1.873,1.873,0,0,1-.5-1.527Z" transform="translate(-59.787 -31.909)" fill="#00397a"/>
        <path id="Trazado_2297" data-name="Trazado 2297" d="M127.734,58.686c0-.675-.014-.75-.3-.79l-.182-.027a.154.154,0,0,1,.013-.237c.506-.034,1.033-.061,1.676-.061a2.842,2.842,0,0,1,1.324.243,1.106,1.106,0,0,1,.595,1,1.089,1.089,0,0,1-.716,1.013c-.068.034-.068.074-.034.149a5.554,5.554,0,0,0,1.047,1.689.826.826,0,0,0,.453.189.129.129,0,0,1,.027.176,1.625,1.625,0,0,1-.534.061,1.381,1.381,0,0,1-1.311-.71,8.4,8.4,0,0,1-.527-1.047.343.343,0,0,0-.358-.236c-.237,0-.25.013-.25.148v.831c0,.622.041.669.345.723l.182.033a.215.215,0,0,1,0,.237c-.358-.014-.669-.021-.993-.021s-.635.007-.986.021a.193.193,0,0,1,0-.237l.182-.033c.3-.054.345-.1.345-.723Zm.925.858c0,.237.021.257.419.257a.647.647,0,0,0,.513-.189.98.98,0,0,0,.243-.729.893.893,0,0,0-.885-1c-.277,0-.29.021-.29.345Z" transform="translate(-70.481 -31.909)" fill="#00397a"/>
        <path id="Trazado_2298" data-name="Trazado 2298" d="M149.74,59.692A2.242,2.242,0,0,1,147.3,62.05a2.206,2.206,0,0,1-2.344-2.3,2.326,2.326,0,0,1,2.412-2.371,2.234,2.234,0,0,1,2.371,2.317m-2.425-2.006c-.831,0-1.277.777-1.277,1.9,0,.825.291,2.148,1.392,2.148.885,0,1.229-.864,1.229-1.959,0-1.155-.507-2.094-1.344-2.094" transform="translate(-80.341 -31.8)" fill="#00397a"/>
        <path id="Trazado_2299" data-name="Trazado 2299" d="M166.038,62.05a2.344,2.344,0,0,1-1.148-.257,2.185,2.185,0,0,1-.216-1.094.167.167,0,0,1,.257-.021c.135.44.587,1.061,1.162,1.061a.672.672,0,0,0,.73-.682c0-.547-.513-.871-.919-1.074a1.555,1.555,0,0,1-1.02-1.318c-.007-.763.588-1.29,1.567-1.29a2.736,2.736,0,0,1,.77.108,1.632,1.632,0,0,0,.23.054,3.275,3.275,0,0,1,.122.966c-.034.081-.2.088-.263.021-.115-.345-.405-.838-.892-.838a.628.628,0,0,0-.689.629.989.989,0,0,0,.615.77l.446.236a1.541,1.541,0,0,1,.953,1.358c0,.831-.682,1.372-1.7,1.372" transform="translate(-91.269 -31.8)" fill="#00397a"/>
      </g>
    </g>
  </g>
</svg>
