<svg xmlns="http://www.w3.org/2000/svg" xmlns:xlink="http://www.w3.org/1999/xlink" width="193" height="64" viewBox="0 0 193 64">
  <defs>
    <filter id="Rectángulo_46" x="0" y="0" width="193" height="64" filterUnits="userSpaceOnUse">
      <feOffset dy="3" input="SourceAlpha"/>
      <feGaussianBlur stdDeviation="3" result="blur"/>
      <feFlood flood-color="#add0fc"/>
      <feComposite operator="in" in2="blur"/>
      <feComposite in="SourceGraphic"/>
    </filter>
    <clipPath id="clip-path">
      <rect id="Rectángulo_1354" data-name="Rectángulo 1354" width="138.938" height="29.843" fill="none"/>
    </clipPath>
  </defs>
  <g id="Grupo_1646" data-name="Grupo 1646" transform="translate(-1033 -1810)">
    <g id="Grupo_1622" data-name="Grupo 1622" transform="translate(1042 1816)">
      <g transform="matrix(1, 0, 0, 1, -9, -6)" filter="url(#Rectángulo_46)">
        <rect id="Rectángulo_46-2" data-name="Rectángulo 46" width="175" height="46" rx="10" transform="translate(9 6)" fill="#f4f8fd"/>
      </g>
    </g>
    <g id="Grupo_1645" data-name="Grupo 1645" transform="translate(1060.031 1824.078)">
      <g id="Grupo_1644" data-name="Grupo 1644" transform="translate(0 0)" clip-path="url(#clip-path)">
        <path id="Trazado_2316" data-name="Trazado 2316" d="M136.539,17.49a2.3,2.3,0,0,1,.193-.9,2.7,2.7,0,0,1,.561-.841,2.94,2.94,0,0,1,.931-.635,3.143,3.143,0,0,1,1.3-.252,2.953,2.953,0,0,1,1.27.252,2.867,2.867,0,0,1,.887.635,2.657,2.657,0,0,1,.531.841,2.469,2.469,0,0,1,.177.9Zm7.829,4.194a9.313,9.313,0,0,1-1.507.843,6.357,6.357,0,0,1-2.688.487,3.872,3.872,0,0,1-2.645-.842,2.645,2.645,0,0,1-.99-1.964H146.4V19.5a10.987,10.987,0,0,0-.442-3.2,7.1,7.1,0,0,0-1.315-2.512,6.076,6.076,0,0,0-2.141-1.638,6.928,6.928,0,0,0-2.954-.591,7.193,7.193,0,0,0-3.014.605,6.846,6.846,0,0,0-2.245,1.609,6.994,6.994,0,0,0-1.4,2.349,8.143,8.143,0,0,0-.487,2.79,8.522,8.522,0,0,0,.517,3.028,6.425,6.425,0,0,0,1.507,2.349,6.924,6.924,0,0,0,2.406,1.521,8.822,8.822,0,0,0,3.19.547,10.088,10.088,0,0,0,2.362-.252,11.267,11.267,0,0,0,1.787-.577,6.457,6.457,0,0,0,1.225-.664c.316-.227.553-.389.71-.487Zm-47.079.5a5.538,5.538,0,0,1-.886.517,2.63,2.63,0,0,1-1.122.222,1.445,1.445,0,0,1-1.255-.548,2.592,2.592,0,0,1-.4-1.549V15.364H97.2V12.026H93.626V8.314H89.374v3.713H87.181v3.338h2.193v5.228a9.776,9.776,0,0,0,.265,2.364,4.562,4.562,0,0,0,.886,1.816,4.182,4.182,0,0,0,1.624,1.181,6.351,6.351,0,0,0,2.481.429A6.885,6.885,0,0,0,99,24.786ZM134.112,7.094a5.554,5.554,0,0,0-2.1-1.122,8.355,8.355,0,0,0-2.275-.326,6.53,6.53,0,0,0-2.082.34,5.319,5.319,0,0,0-1.817,1.034,5.091,5.091,0,0,0-1.283,1.758,6.041,6.041,0,0,0-.489,2.539v.709h-2.244v3.338h2.244V25.88h4.224V15.364h3.28V12.026h-3.28v-.768a2.229,2.229,0,0,1,.532-1.6,1.862,1.862,0,0,1,1.418-.561,3.432,3.432,0,0,1,1.093.177,3.546,3.546,0,0,1,.975.5ZM115.419,25.88h4.253V12.026h-4.253Zm-14.824,0h12.959V22.231h-8.5V6.177h-4.46ZM76.3,17.49a2.315,2.315,0,0,1,.192-.9,2.729,2.729,0,0,1,.561-.841,2.945,2.945,0,0,1,.93-.635,3.154,3.154,0,0,1,1.3-.252,2.949,2.949,0,0,1,1.27.252,2.843,2.843,0,0,1,.886.635,2.648,2.648,0,0,1,.532.841,2.5,2.5,0,0,1,.177.9Zm7.828,4.194a9.238,9.238,0,0,1-1.507.843,6.356,6.356,0,0,1-2.689.487,3.87,3.87,0,0,1-2.643-.842,2.642,2.642,0,0,1-.99-1.964h9.866V19.5a11.044,11.044,0,0,0-.442-3.2,7.115,7.115,0,0,0-1.315-2.512,6.072,6.072,0,0,0-2.142-1.638,6.919,6.919,0,0,0-2.953-.591,7.189,7.189,0,0,0-3.013.605,6.837,6.837,0,0,0-2.245,1.609,6.952,6.952,0,0,0-1.4,2.349,8.1,8.1,0,0,0-.487,2.79,8.5,8.5,0,0,0,.517,3.028,6.41,6.41,0,0,0,1.505,2.349,6.936,6.936,0,0,0,2.407,1.521,8.826,8.826,0,0,0,3.19.547,10.09,10.09,0,0,0,2.363-.252,11.326,11.326,0,0,0,1.787-.577,6.484,6.484,0,0,0,1.224-.664c.315-.227.553-.389.71-.487Zm-34.235,4.2h4.253l.5-12.791,4.313,7.592h2.3L65.338,13,65.9,25.88H70.36l-.917-19.7H65.19l-5.02,9.245L55.03,6.177H50.806Zm67.654-15.438a2.4,2.4,0,0,1,0-4.8,2.37,2.37,0,0,1,2.4,2.4,2.412,2.412,0,0,1-2.4,2.4" transform="translate(-7.467 -0.845)" fill="#231f20"/>
        <path id="Trazado_2317" data-name="Trazado 2317" d="M19.055,9.671A26.335,26.335,0,0,1,24.386,25.6a26.541,26.541,0,0,1-.34,4.241h9.687a1.528,1.528,0,0,0,1.526-1.53V1.532a1.524,1.524,0,0,0-1.9-1.481,26.389,26.389,0,0,0-14.3,9.62" transform="translate(-2.852 0)" fill="#99d538"/>
        <path id="Trazado_2318" data-name="Trazado 2318" d="M11.212,29.843a26.707,26.707,0,0,1-.34-4.241A26.352,26.352,0,0,1,16.2,9.67,26.377,26.377,0,0,0,1.9.051,1.523,1.523,0,0,0,0,1.532V28.315a1.527,1.527,0,0,0,1.526,1.528Z" transform="translate(0 0)" fill="#239de0"/>
        <path id="Trazado_2319" data-name="Trazado 2319" d="M18.117,11.373a26.5,26.5,0,0,0-4.991,20.173h9.981a26.541,26.541,0,0,0,.34-4.241,26.335,26.335,0,0,0-5.331-15.931" transform="translate(-1.914 -1.702)" fill="#1563a9"/>
      </g>
    </g>
  </g>
</svg>
