<svg id="Grupo_1656" data-name="Grupo 1656" xmlns="http://www.w3.org/2000/svg" xmlns:xlink="http://www.w3.org/1999/xlink" width="94.526" height="78.022" viewBox="0 0 94.526 78.022">
  <defs>
    <clipPath id="clip-path">
      <rect id="Rectángulo_1369" data-name="Rectángulo 1369" width="94.526" height="78.022" fill="none" stroke="#91b336" stroke-width="3"/>
    </clipPath>
  </defs>
  <g id="Grupo_1655" data-name="Grupo 1655" transform="translate(0 0)" clip-path="url(#clip-path)">
    <path id="Rectángulo_1365" data-name="Rectángulo 1365" d="M1.7,0H13.435a1.7,1.7,0,0,1,1.7,1.7V15.973a1.7,1.7,0,0,1-1.7,1.7H1.7a1.7,1.7,0,0,1-1.7-1.7V1.7A1.7,1.7,0,0,1,1.7,0Z" transform="translate(2.09 58.842)" fill="none" stroke="#91b336" stroke-width="3"/>
    <path id="Rectángulo_1366" data-name="Rectángulo 1366" d="M1.7,0H13.435a1.7,1.7,0,0,1,1.7,1.7V15.973a1.7,1.7,0,0,1-1.7,1.7H1.7a1.7,1.7,0,0,1-1.7-1.7V1.7A1.7,1.7,0,0,1,1.7,0Z" transform="translate(2.09 58.842)" fill="none" stroke="#91b336" stroke-linejoin="round" stroke-width="3"/>
    <path id="Rectángulo_1367" data-name="Rectángulo 1367" d="M1.7,0H13.436a1.7,1.7,0,0,1,1.7,1.7V15.973a1.7,1.7,0,0,1-1.7,1.7H1.7a1.7,1.7,0,0,1-1.7-1.7V1.7A1.7,1.7,0,0,1,1.7,0Z" transform="translate(77.3 58.842)" fill="none" stroke="#91b336" stroke-width="3"/>
    <path id="Rectángulo_1368" data-name="Rectángulo 1368" d="M1.7,0H13.436a1.7,1.7,0,0,1,1.7,1.7V15.973a1.7,1.7,0,0,1-1.7,1.7H1.7a1.7,1.7,0,0,1-1.7-1.7V1.7A1.7,1.7,0,0,1,1.7,0Z" transform="translate(77.3 58.842)" fill="none" stroke="#91b336" stroke-linejoin="round" stroke-width="3"/>
    <path id="Trazado_2336" data-name="Trazado 2336" d="M91.93,66.105V42.44a8.6,8.6,0,0,0-3.947-7.459c-2.84-2.072-3.168-7.038-3.168-7.038,1.622-.414,6.818-2.081,7.631-4.565s-5.872-5.133-8.306-5.133a3.053,3.053,0,0,0-3.016,2.429C78.424,14.835,73.088,3.81,70.54,3.486c0,0-4.829-2.486-23.783-2.486S22.973,3.486,22.973,3.486c-2.546.324-7.883,11.349-10.584,17.187a3.053,3.053,0,0,0-3.016-2.429c-2.435,0-9.116,2.649-8.306,5.133S7.077,27.528,8.7,27.942c0,0-.328,4.966-3.168,7.038A8.6,8.6,0,0,0,1.584,42.44V66.105Z" transform="translate(0.506 0.506)" fill="none" stroke="#91b336" stroke-width="3"/>
    <path id="Trazado_2337" data-name="Trazado 2337" d="M91.93,66.105V42.44a8.6,8.6,0,0,0-3.947-7.459c-2.84-2.072-3.168-7.038-3.168-7.038,1.622-.414,6.818-2.081,7.631-4.565s-5.872-5.133-8.306-5.133a3.053,3.053,0,0,0-3.016,2.429C78.424,14.835,73.088,3.81,70.54,3.486c0,0-4.829-2.486-23.783-2.486S22.973,3.486,22.973,3.486c-2.546.324-7.883,11.349-10.584,17.187a3.053,3.053,0,0,0-3.016-2.429c-2.435,0-9.116,2.649-8.306,5.133S7.077,27.528,8.7,27.942c0,0-.328,4.966-3.168,7.038A8.6,8.6,0,0,0,1.584,42.44V66.105Z" transform="translate(0.506 0.506)" fill="none" stroke="#91b336" stroke-linejoin="round" stroke-width="3"/>
    <path id="Trazado_2338" data-name="Trazado 2338" d="M11.98,37.48a5.388,5.388,0,1,1,5.388-5.388A5.386,5.386,0,0,1,11.98,37.48" transform="translate(3.335 13.506)" fill="none" stroke="#91b336" stroke-width="3"/>
    <path id="Trazado_2339" data-name="Trazado 2339" d="M11.98,37.48a5.388,5.388,0,1,1,5.388-5.388A5.386,5.386,0,0,1,11.98,37.48Z" transform="translate(3.335 13.506)" fill="none" stroke="#91b336" stroke-linejoin="round" stroke-width="3"/>
    <path id="Trazado_2340" data-name="Trazado 2340" d="M59.8,32.094a5.386,5.386,0,1,1-5.385-5.388A5.386,5.386,0,0,1,59.8,32.094" transform="translate(24.796 13.506)" fill="none" stroke="#91b336" stroke-width="3"/>
    <path id="Trazado_2341" data-name="Trazado 2341" d="M59.8,32.094a5.386,5.386,0,1,1-5.385-5.388A5.386,5.386,0,0,1,59.8,32.094Z" transform="translate(24.796 13.506)" fill="none" stroke="#91b336" stroke-linejoin="round" stroke-width="3"/>
    <path id="Trazado_2342" data-name="Trazado 2342" d="M41.15,25.28H12.085L19.928,8.2C22.148,6.617,36.373,6.383,41.15,6.35c4.778.033,19,.267,21.222,1.851l7.843,17.08Z" transform="translate(6.112 3.211)" fill="none" stroke="#91b336" stroke-width="3"/>
    <path id="Trazado_2343" data-name="Trazado 2343" d="M41.15,25.28H12.085L19.928,8.2C22.148,6.617,36.373,6.383,41.15,6.35c4.778.033,19,.267,21.222,1.851l7.843,17.08Z" transform="translate(6.112 3.211)" fill="none" stroke="#91b336" stroke-linejoin="round" stroke-width="3"/>
  </g>
</svg>
