<svg xmlns="http://www.w3.org/2000/svg" xmlns:xlink="http://www.w3.org/1999/xlink" width="95.898" height="115.27" viewBox="0 0 95.898 115.27">
  <defs>
    <clipPath id="clip-path">
      <rect id="Rectángulo_1361" data-name="Rectángulo 1361" width="95.898" height="115.27" fill="none" stroke="#91b336" stroke-width="3"/>
    </clipPath>
  </defs>
  <g id="Grupo_1652" data-name="Grupo 1652" transform="translate(0 0)">
    <g id="Grupo_1651" data-name="Grupo 1651" transform="translate(0 0)" clip-path="url(#clip-path)">
      <path id="Trazado_2323" data-name="Trazado 2323" d="M6.91,60.74,1.045,20.4a4.033,4.033,0,0,1,3.3-4.639L20,13.5a4.026,4.026,0,0,1,4.481,3.512l5.581,43" transform="translate(0.716 9.633)" fill="none" stroke="#91b336" stroke-linejoin="round" stroke-width="3"/>
      <path id="Trazado_2324" data-name="Trazado 2324" d="M12.745,84.5h-8.3a1.1,1.1,0,0,1-1.041-1.041V44.709a4.119,4.119,0,0,1,4.118-4.118h57.21a4.12,4.12,0,0,1,4.121,4.118V83.464A1.07,1.07,0,0,1,67.811,84.5h-8.3a1.046,1.046,0,0,1-1.038-1.041V79.315H13.787v4.148A1.046,1.046,0,0,1,12.745,84.5Z" transform="translate(2.438 29.05)" fill="none" stroke="#91b336" stroke-linejoin="round" stroke-width="3"/>
      <path id="Trazado_2325" data-name="Trazado 2325" d="M34.128,13.742A12.741,12.741,0,1,0,46.867,1,12.739,12.739,0,0,0,34.128,13.742Z" transform="translate(24.424 0.716)" fill="none" stroke="#91b336" stroke-linejoin="round" stroke-width="3"/>
      <path id="Trazado_2326" data-name="Trazado 2326" d="M42.023,59.935l9.465,20.439c1.635,2.726,3.908,4.337,8.062,2.879,3.074-1.089,4.759-3.895,3.627-7.671-1.513-5.023-5.842-19.711-8.6-28.863a7.621,7.621,0,0,0-7.163-5.372H40.9" transform="translate(29.27 29.592)" fill="none" stroke="#91b336" stroke-linejoin="round" stroke-width="3"/>
      <path id="Trazado_2327" data-name="Trazado 2327" d="M17.517,54.224c1.014-7.144,2.649-15.721,3.936-19.649C26.032,20.595,32.98,14.108,41.262,15.463c6.574,1.072,9.036,6.609,10.63,9.848C53.846,29.273,59.825,43.8,59.825,43.8s12.7,3.332,18.366,5.192c1.836.6,4.1,3.272,3.284,7.065-1.043,4.879-6.115,4.37-6.121,4.37s-16.872-2.39-22.214-3.915a6.164,6.164,0,0,1-4.159-2.98c-.911-1.4-5.413-10.254-5.413-10.254S42.361,55.586,41.85,58.7" transform="translate(12.536 10.941)" fill="none" stroke="#91b336" stroke-linejoin="round" stroke-width="3"/>
    </g>
  </g>
</svg>
