<svg xmlns="http://www.w3.org/2000/svg" xmlns:xlink="http://www.w3.org/1999/xlink" width="193" height="64" viewBox="0 0 193 64">
  <defs>
    <filter id="Rectángulo_43" x="0" y="0" width="193" height="64" filterUnits="userSpaceOnUse">
      <feOffset dy="3" input="SourceAlpha"/>
      <feGaussianBlur stdDeviation="3" result="blur"/>
      <feFlood flood-color="#add0fc"/>
      <feComposite operator="in" in2="blur"/>
      <feComposite in="SourceGraphic"/>
    </filter>
    <clipPath id="clip-path">
      <rect id="Rectángulo_1335" data-name="Rectángulo 1335" width="43.625" height="27.762" fill="none"/>
    </clipPath>
  </defs>
  <g id="Grupo_1631" data-name="Grupo 1631" transform="translate(-1238 -1658)">
    <g id="Grupo_202" data-name="Grupo 202" transform="translate(1247 1664.172)">
      <g transform="matrix(1, 0, 0, 1, -9, -6.17)" filter="url(#Rectángulo_43)">
        <rect id="Rectángulo_43-2" data-name="Rectángulo 43" width="175" height="46" rx="10" transform="translate(9 6)" fill="#f4f8fd"/>
      </g>
    </g>
    <g id="Grupo_1630" data-name="Grupo 1630" transform="translate(1312.688 1673.119)">
      <g id="Grupo_1629" data-name="Grupo 1629" clip-path="url(#clip-path)">
        <path id="Trazado_2272" data-name="Trazado 2272" d="M600.7,4.356A4.357,4.357,0,1,1,596.339,0,4.357,4.357,0,0,1,600.7,4.356" transform="translate(-557.07 0.001)" fill="#db2455"/>
        <path id="Trazado_2273" data-name="Trazado 2273" d="M213.421,198.491c3.751-.916,16.02-1.7,24.747.568,1.413.367,4.852,1.369,5.143,3.655,0,0,.475,1.69-3.712,3.695a69.309,69.309,0,0,1-10.491,4.023c-2.693.8-7.618,2.126-9.25,2.431a36.516,36.516,0,0,1-5.793.827c-1.066-.028-.417-.564.307-.984a54.3,54.3,0,0,1,6.951-2.658c1.936-.638,8.069-2.791,9.392-3.288a40.072,40.072,0,0,0,5.4-2.489c1.037-.7,2.247-1.781,1.051-2.471-1.05-.6-2.062-.73-4.322-1.045-2.233-.311-7.507-.515-8.974-.528s-4.639-.142-5.521-.154c-.616-.008-5.082-.277-5.688-.67-.426-.276-.4-.628.754-.911" transform="translate(-199.886 -185.929)" fill="#db2455"/>
        <path id="Trazado_2274" data-name="Trazado 2274" d="M9.132,271.7H6.54L4.276,278.11H6.737l.186-.809H8.662l.23.809h2.461Zm-1.837,4.1.519-2.2.487,2.2Z" transform="translate(-4.024 -255.681)" fill="#db2455"/>
        <path id="Trazado_2275" data-name="Trazado 2275" d="M286.013,271.7h-2.592l-2.264,6.405h2.461l.186-.809h1.739l.23.809h2.461Zm-1.837,4.1.52-2.2.487,2.2Z" transform="translate(-264.576 -255.681)" fill="#db2455"/>
        <path id="Trazado_2276" data-name="Trazado 2276" d="M150.186,278.11V271.7H152.4l1.977,3.3v-3.3h2.212v6.405h-2.212L152.4,274.8v3.313Z" transform="translate(-141.329 -255.681)" fill="#db2455"/>
        <path id="Trazado_2277" data-name="Trazado 2277" d="M0,398.526H.351q0,.088.036.113a.144.144,0,0,0,.067.02q.041,0,.261,0t.276,0a.221.221,0,0,0,.073-.013q.04-.017.04-.09a.078.078,0,0,0-.028-.071.256.256,0,0,0-.115-.02q-.067,0-.284-.01l-.289-.012a.847.847,0,0,1-.2-.025.22.22,0,0,1-.109-.066A.388.388,0,0,1,.01,398.1a.416.416,0,0,1,.077-.284.29.29,0,0,1,.179-.082,4.2,4.2,0,0,1,.492-.018,3.1,3.1,0,0,1,.368.015.364.364,0,0,1,.225.091.344.344,0,0,1,.061.23c0,.01,0,.028,0,.056H1.06a.259.259,0,0,0-.008-.068.056.056,0,0,0-.026-.03.2.2,0,0,0-.083-.018q-.059,0-.251,0A1.519,1.519,0,0,0,.412,398a.072.072,0,0,0-.05.08.069.069,0,0,0,.05.077,3.515,3.515,0,0,0,.384.022q.288.009.385.02a.411.411,0,0,1,.155.045.215.215,0,0,1,.092.108.557.557,0,0,1,.027.2.534.534,0,0,1-.045.25.214.214,0,0,1-.094.09.506.506,0,0,1-.17.04q-.117.01-.438.01-.268,0-.4-.014a.526.526,0,0,1-.192-.05.206.206,0,0,1-.093-.1A.531.531,0,0,1,0,398.582Z" transform="translate(0 -374.258)" fill="#db2455"/>
        <path id="Trazado_2278" data-name="Trazado 2278" d="M40.765,398.022h1.316v.279h-.959v.172h.911v.261h-.911v.191h.966v.286H40.765Z" transform="translate(-38.361 -374.549)" fill="#db2455"/>
        <path id="Trazado_2279" data-name="Trazado 2279" d="M79.426,398.26h.828q0,.029,0,.032,0,.251-.013.379a.264.264,0,0,1-.233.249,1.49,1.49,0,0,1-.209.025q-.118.007-.36.007a3.846,3.846,0,0,1-.434-.017.466.466,0,0,1-.2-.066.226.226,0,0,1-.077-.087.425.425,0,0,1-.038-.14,3.121,3.121,0,0,1-.01-.32q0-.163.009-.246a.579.579,0,0,1,.034-.148.262.262,0,0,1,.218-.167,3.557,3.557,0,0,1,.562-.032q.225,0,.355.011a1.049,1.049,0,0,1,.215.037.228.228,0,0,1,.165.185,1.086,1.086,0,0,1,.015.194h-.362a.305.305,0,0,0-.006-.068.055.055,0,0,0-.022-.03.269.269,0,0,0-.127-.027q-.091-.005-.265-.005t-.269.009a.226.226,0,0,0-.11.032.13.13,0,0,0-.04.08,1.161,1.161,0,0,0-.01.189,1.407,1.407,0,0,0,.01.21.135.135,0,0,0,.04.084.145.145,0,0,0,.077.028q.047,0,.3.008t.3,0a.272.272,0,0,0,.085-.016.068.068,0,0,0,.037-.037.207.207,0,0,0,.011-.077q0-.008,0-.033h-.476Z" transform="translate(-74.04 -374.272)" fill="#db2455"/>
        <path id="Trazado_2280" data-name="Trazado 2280" d="M121.688,398.022h.362v.546a1.688,1.688,0,0,0,.013.238.115.115,0,0,0,.09.091,1.374,1.374,0,0,0,.308.022,2.081,2.081,0,0,0,.261-.011.176.176,0,0,0,.1-.043.13.13,0,0,0,.028-.055.658.658,0,0,0,.013-.111c0-.053,0-.1,0-.131v-.546h.362v.546q-.006.285-.018.373a.286.286,0,0,1-.143.219.5.5,0,0,1-.194.054q-.125.014-.412.014-.215,0-.332-.008a1.294,1.294,0,0,1-.2-.028.27.27,0,0,1-.223-.23,1.089,1.089,0,0,1-.015-.128q0-.057,0-.266Z" transform="translate(-114.512 -374.549)" fill="#db2455"/>
        <path id="Trazado_2281" data-name="Trazado 2281" d="M164.578,399.212v-1.189h.875q.308,0,.369.007a.27.27,0,0,1,.118.04.21.21,0,0,1,.093.113.738.738,0,0,1,.025.226.814.814,0,0,1-.016.191.182.182,0,0,1-.061.1.3.3,0,0,1-.145.054.232.232,0,0,1,.164.065.166.166,0,0,1,.037.082,1.614,1.614,0,0,1,.008.2v.111h-.357v-.064a.934.934,0,0,0-.007-.141.131.131,0,0,0-.027-.065.1.1,0,0,0-.055-.027,1.181,1.181,0,0,0-.148-.006h-.51v.3Zm.362-.6h.509q.133,0,.159,0a.1.1,0,0,0,.044-.014.079.079,0,0,0,.033-.044.3.3,0,0,0,.01-.088.261.261,0,0,0-.011-.087.074.074,0,0,0-.038-.042.131.131,0,0,0-.046-.01l-.152,0h-.508Z" transform="translate(-154.872 -374.55)" fill="#db2455"/>
        <path id="Trazado_2282" data-name="Trazado 2282" d="M206.248,397.729a4.767,4.767,0,0,1,.529.019.273.273,0,0,1,.255.2,2.438,2.438,0,0,1,0,.79.273.273,0,0,1-.255.2,4.76,4.76,0,0,1-.526.019,4.853,4.853,0,0,1-.533-.019.272.272,0,0,1-.255-.2,1.714,1.714,0,0,1-.032-.4,1.616,1.616,0,0,1,.032-.387.272.272,0,0,1,.255-.2,4.752,4.752,0,0,1,.529-.019m0,.309a2.182,2.182,0,0,0-.347.015.118.118,0,0,0-.088.078.883.883,0,0,0-.021.241.774.774,0,0,0,.011.158.136.136,0,0,0,.131.1,3.008,3.008,0,0,0,.314.01q.219,0,.291-.008a.213.213,0,0,0,.107-.035.123.123,0,0,0,.043-.072.754.754,0,0,0,.011-.155,1.456,1.456,0,0,0-.009-.188.2.2,0,0,0-.031-.091.136.136,0,0,0-.095-.047q-.066-.009-.319-.009" transform="translate(-193.316 -374.273)" fill="#db2455"/>
        <path id="Trazado_2283" data-name="Trazado 2283" d="M248.809,398.526h.351q0,.088.036.113a.144.144,0,0,0,.067.02q.041,0,.261,0t.276,0a.221.221,0,0,0,.073-.013q.04-.017.04-.09a.078.078,0,0,0-.028-.071.256.256,0,0,0-.115-.02q-.067,0-.284-.01l-.289-.012a.848.848,0,0,1-.2-.025.219.219,0,0,1-.109-.066.388.388,0,0,1-.067-.256.415.415,0,0,1,.077-.284.29.29,0,0,1,.179-.082,4.2,4.2,0,0,1,.492-.018,3.1,3.1,0,0,1,.368.015.364.364,0,0,1,.225.091.345.345,0,0,1,.061.23q0,.015,0,.056h-.351a.265.265,0,0,0-.008-.068.057.057,0,0,0-.026-.03.2.2,0,0,0-.083-.018q-.059,0-.251,0a1.518,1.518,0,0,0-.281.014.072.072,0,0,0-.05.08.069.069,0,0,0,.05.077,3.513,3.513,0,0,0,.384.022q.288.009.385.02a.41.41,0,0,1,.155.045.215.215,0,0,1,.092.108.557.557,0,0,1,.027.2.533.533,0,0,1-.045.25.214.214,0,0,1-.094.09.5.5,0,0,1-.17.04q-.118.01-.438.01-.268,0-.4-.014a.526.526,0,0,1-.192-.05.205.205,0,0,1-.093-.1.532.532,0,0,1-.026-.191Z" transform="translate(-234.136 -374.258)" fill="#db2455"/>
      </g>
    </g>
  </g>
</svg>
