<svg xmlns="http://www.w3.org/2000/svg" xmlns:xlink="http://www.w3.org/1999/xlink" width="193" height="64" viewBox="0 0 193 64">
  <defs>
    <filter id="Rectángulo_43" x="0" y="0" width="193" height="64" filterUnits="userSpaceOnUse">
      <feOffset dy="3" input="SourceAlpha"/>
      <feGaussianBlur stdDeviation="3" result="blur"/>
      <feFlood flood-color="#add0fc"/>
      <feComposite operator="in" in2="blur"/>
      <feComposite in="SourceGraphic"/>
    </filter>
    <clipPath id="clip-path">
      <rect id="Rectángulo_1353" data-name="Rectángulo 1353" width="25.868" height="36.665" fill="none"/>
    </clipPath>
  </defs>
  <g id="Grupo_1643" data-name="Grupo 1643" transform="translate(-1238 -1810)">
    <g id="Grupo_1623" data-name="Grupo 1623" transform="translate(1247 1816.172)">
      <g transform="matrix(1, 0, 0, 1, -9, -6.17)" filter="url(#Rectángulo_43)">
        <rect id="Rectángulo_43-2" data-name="Rectángulo 43" width="175" height="46" rx="10" transform="translate(9 6)" fill="#f4f8fd"/>
      </g>
    </g>
    <g id="Grupo_1642" data-name="Grupo 1642" transform="translate(1321.566 1820.667)">
      <g id="Grupo_1641" data-name="Grupo 1641" clip-path="url(#clip-path)">
        <path id="Trazado_2302" data-name="Trazado 2302" d="M35.743,80.493c-.6.121-.966.447-2.787,1a12.48,12.48,0,0,1-7.223-.733c-1.876-.781-4.711-1.993-4.711-1.993l-1.989-.887-.41,1.3a33.052,33.052,0,0,1,5.628,2.841c1.135.751,4.275,2.724,4.275,2.724A6.228,6.228,0,0,0,30.7,85.828c.591-.01,1.088-.638,1.876-1.391.963-.861,1.4-1.344,2.453-2.2a8.374,8.374,0,0,0,1.138-1.1.413.413,0,0,0-.423-.641" transform="translate(-15.097 -63.131)" fill="#77006f"/>
        <rect id="Rectángulo_1340" data-name="Rectángulo 1340" width="0.813" height="0.813" transform="translate(0.003 25.443)" fill="#77006f"/>
        <rect id="Rectángulo_1341" data-name="Rectángulo 1341" width="0.813" height="0.813" transform="translate(1.989 25.443)" fill="#77006f"/>
        <rect id="Rectángulo_1342" data-name="Rectángulo 1342" width="0.812" height="0.813" transform="translate(3.975 25.443)" fill="#77006f"/>
        <rect id="Rectángulo_1343" data-name="Rectángulo 1343" width="0.813" height="0.813" transform="translate(5.959 25.443)" fill="#77006f"/>
        <rect id="Rectángulo_1344" data-name="Rectángulo 1344" width="0.813" height="0.813" transform="translate(7.945 25.443)" fill="#77006f"/>
        <rect id="Rectángulo_1345" data-name="Rectángulo 1345" width="0.813" height="0.813" transform="translate(9.931 25.443)" fill="#77006f"/>
        <rect id="Rectángulo_1346" data-name="Rectángulo 1346" width="0.812" height="0.813" transform="translate(11.916 25.443)" fill="#77006f"/>
        <rect id="Rectángulo_1347" data-name="Rectángulo 1347" width="0.812" height="0.813" transform="translate(13.901 25.443)" fill="#77006f"/>
        <rect id="Rectángulo_1348" data-name="Rectángulo 1348" width="0.813" height="0.813" transform="translate(15.887 25.443)" fill="#77006f"/>
        <rect id="Rectángulo_1349" data-name="Rectángulo 1349" width="0.813" height="0.813" transform="translate(17.872 25.443)" fill="#77006f"/>
        <rect id="Rectángulo_1350" data-name="Rectángulo 1350" width="0.812" height="0.813" transform="translate(19.858 25.443)" fill="#77006f"/>
        <rect id="Rectángulo_1351" data-name="Rectángulo 1351" width="0.813" height="0.813" transform="translate(21.844 25.443)" fill="#77006f"/>
        <rect id="Rectángulo_1352" data-name="Rectángulo 1352" width="0.813" height="0.813" transform="translate(23.834 25.444)" fill="#77006f"/>
        <path id="Trazado_2303" data-name="Trazado 2303" d="M.014,24.642H24.656V0H.014Zm23.833-.809H.824V.81H23.847Z" transform="translate(-0.011)" fill="#77006f"/>
        <path id="Trazado_2304" data-name="Trazado 2304" d="M29.535,23.057c-1.7,0-4.412-.769-4.412-5.74,0-3.172,1.241-5.669,4.409-5.745,3.535.073,4.412,2.464,4.413,5.743.076,3.237-1.057,5.815-4.41,5.743m8.472-5.727c0-3.185-2.158-7.047-8.46-7.12-5.563.15-8.456,3.193-8.454,7.127.151,5.613,5.2,7.119,8.46,7.118,5.348,0,8.6-3.107,8.453-7.125" transform="translate(-17.099 -8.277)" fill="#77006f"/>
        <path id="Trazado_2305" data-name="Trazado 2305" d="M2.438,145.907a1.237,1.237,0,0,0-1.082.68,6.83,6.83,0,0,0-.023,5.217,1.394,1.394,0,0,0,1.13.8,1.4,1.4,0,0,0,1.128-.809,4.893,4.893,0,0,0,.466-2.457,7.2,7.2,0,0,0-.275-2.131,2.223,2.223,0,0,0-.56-.984,1.147,1.147,0,0,0-.783-.315M3.05,152.9a2.069,2.069,0,0,0,1.84.836,2.649,2.649,0,0,0,1.75-.619s.138-.067.226.006.027.23.027.23a2.48,2.48,0,0,1-1.941,1.269,3.025,3.025,0,0,1-1.729-.756,4.632,4.632,0,0,1-.742-.931,1.771,1.771,0,0,1-1.532-.767,3.518,3.518,0,0,1-.7-1.239A5.473,5.473,0,0,1,0,149.186a4.485,4.485,0,0,1,.725-2.628,2.1,2.1,0,0,1,1.757-1.048,2.045,2.045,0,0,1,1.692,1.048A4.574,4.574,0,0,1,4.9,149.2a4.973,4.973,0,0,1-.49,2.312A2.591,2.591,0,0,1,3.05,152.9" transform="translate(0 -117.957)" fill="#0084a0"/>
        <path id="Trazado_2306" data-name="Trazado 2306" d="M30.776,158.408v2.907c0,.544.009.881.026,1a.6.6,0,0,0,.084.256c.052.066.051.107.136.148a.2.2,0,0,0,.246-.031l.064.178-.978.464h-.161l.011-.88a3.142,3.142,0,0,1-.591.773.578.578,0,0,1-.475.167.718.718,0,0,1-.49-.293,1.3,1.3,0,0,1-.276-.594,5.568,5.568,0,0,1-.074-1.035v-2.129a1.491,1.491,0,0,0-.05-.474.471.471,0,0,0-.145-.2.577.577,0,0,0-.349-.069v-.187h1.125v3.2a1.634,1.634,0,0,0,.156.88.534.534,0,0,0,.38.258.661.661,0,0,0,.375-.134,1.379,1.379,0,0,0,.394-.481l0-2.82a1.079,1.079,0,0,0-.1-.563.492.492,0,0,0-.413-.158l0-.186Z" transform="translate(-22.5 -128.413)" fill="#0084a0"/>
        <path id="Trazado_2307" data-name="Trazado 2307" d="M50.987,162.144v-1.816a7,7,0,0,0-.737.446,1.451,1.451,0,0,0-.429.478,1.188,1.188,0,0,0-.131.546,1.111,1.111,0,0,0,.164.621.466.466,0,0,0,.375.248c.193,0,.447-.175.758-.521m0,.337a5.857,5.857,0,0,1-.665.659.8.8,0,0,1-.438.133.694.694,0,0,1-.594-.34,1.274,1.274,0,0,1-.225-.807,1.858,1.858,0,0,1,.152-.69,1.894,1.894,0,0,1,.568-.66,6.366,6.366,0,0,1,1.191-.73v-.22a3.423,3.423,0,0,0-.126-1.014.473.473,0,0,0-.486-.3.5.5,0,0,0-.393.2.771.771,0,0,0-.144.458l.005.3a.4.4,0,0,1-.067.285.274.274,0,0,1-.236.13.268.268,0,0,1-.229-.135.618.618,0,0,1-.1-.369,1,1,0,0,1,.32-.739,1.185,1.185,0,0,1,.935-.375,1.064,1.064,0,0,1,.69.246,1.012,1.012,0,0,1,.312.616,4.236,4.236,0,0,1,.064.837v1.621c0,.457,0,.736.017.838a.476.476,0,0,0,.065.207c.114.11.228.11.415-.1l.086.129c-.282.518-.451.611-.707.611a.332.332,0,0,1-.3-.176,1.258,1.258,0,0,1-.117-.614" transform="translate(-39.775 -128.296)" fill="#0084a0"/>
        <path id="Trazado_2308" data-name="Trazado 2308" d="M102.182,162.147v-1.815a6.886,6.886,0,0,0-.74.442,1.494,1.494,0,0,0-.426.477,1.174,1.174,0,0,0-.128.547,1.081,1.081,0,0,0,.164.619.453.453,0,0,0,.374.248c.194,0,.443-.174.756-.518m0,.334a5.338,5.338,0,0,1-.667.66.777.777,0,0,1-.436.132.691.691,0,0,1-.59-.338,1.265,1.265,0,0,1-.228-.808,1.92,1.92,0,0,1,.154-.691,1.891,1.891,0,0,1,.568-.659,6.3,6.3,0,0,1,1.191-.732v-.219a3.634,3.634,0,0,0-.122-1.014.484.484,0,0,0-.491-.3.509.509,0,0,0-.391.2.8.8,0,0,0-.141.458l0,.3a.377.377,0,0,1-.071.282.267.267,0,0,1-.231.131.261.261,0,0,1-.23-.135.588.588,0,0,1-.1-.371,1,1,0,0,1,.32-.738,1.179,1.179,0,0,1,.935-.374,1.077,1.077,0,0,1,.69.245,1.029,1.029,0,0,1,.312.617,4.056,4.056,0,0,1,.062.839v1.624c0,.454.006.733.021.836a.409.409,0,0,0,.061.2c.116.113.227.112.416-.1l.086.129c-.284.52-.454.612-.707.612a.337.337,0,0,1-.3-.177,1.312,1.312,0,0,1-.117-.614" transform="translate(-81.275 -128.296)" fill="#0084a0"/>
        <path id="Trazado_2309" data-name="Trazado 2309" d="M67.48,145.589l0,6.335a2.378,2.378,0,0,0,.046.592.427.427,0,0,0,.147.218.636.636,0,0,0,.375.077V153h-1.73v-.188a.578.578,0,0,0,.332-.068.439.439,0,0,0,.138-.221,2.283,2.283,0,0,0,.052-.6l0-4.335a7.855,7.855,0,0,0-.072-1.311c-.034-.1-.146-.174-.455-.025l-.063-.165,1.055-.5Z" transform="translate(-53.704 -118.021)" fill="#0084a0"/>
        <path id="Trazado_2310" data-name="Trazado 2310" d="M78.071,145.961a.312.312,0,0,1,.257.152.64.64,0,0,1,.106.369.672.672,0,0,1-.106.376.313.313,0,0,1-.257.152.319.319,0,0,1-.26-.153.69.69,0,0,1-.107-.375.649.649,0,0,1,.105-.368.31.31,0,0,1,.261-.153m.3,2.475,0,3.8a2.62,2.62,0,0,0,.041.587.481.481,0,0,0,.132.219.521.521,0,0,0,.319.071v.185h-1.6v-.186a.509.509,0,0,0,.323-.069.422.422,0,0,0,.131-.217,2.118,2.118,0,0,0,.051-.59v-1.82a8.883,8.883,0,0,0-.032-1,.518.518,0,0,0-.083-.231.185.185,0,0,0-.146-.065.532.532,0,0,0-.244.079l-.05-.188,1-.58Z" transform="translate(-62.591 -118.322)" fill="#0084a0"/>
        <path id="Trazado_2311" data-name="Trazado 2311" d="M89.29,150.955v1.454h.766v.279l-.766.014v3.168a3.48,3.48,0,0,0,.05.66.344.344,0,0,0,.317.292c.168,0,.366-.237.407-.377h.146c-.087.339-.406.952-.883.9a.624.624,0,0,1-.588-.6,5.513,5.513,0,0,1-.045-.759l0-3.294h-.446V152.6c.133-.076.2-.206.334-.387a3.045,3.045,0,0,0,.366-.646,3.718,3.718,0,0,0,.237-.61Z" transform="translate(-71.536 -122.371)" fill="#0084a0"/>
        <path id="Trazado_2312" data-name="Trazado 2312" d="M120.6,158.108v1.561h-.074a2.768,2.768,0,0,0-.371-1.075.624.624,0,0,0-.529-.261.547.547,0,0,0-.393.253.681.681,0,0,0-.146.424,1.044,1.044,0,0,0,.1.5,1.706,1.706,0,0,0,.457.5l.535.441a1.368,1.368,0,0,1,.655,1.24,1.6,1.6,0,0,1-.329,1.051.936.936,0,0,1-.731.4,1.77,1.77,0,0,1-.669-.149.55.55,0,0,0-.188-.048c-.052,0-.092.041-.121.123h-.122v-1.7h.089a2.82,2.82,0,0,0,.346,1.194.8.8,0,0,0,.664.33.558.558,0,0,0,.436-.218.976.976,0,0,0,.112-.552,1.039,1.039,0,0,0-.166-.6,3.09,3.09,0,0,0-.676-.619,2.288,2.288,0,0,1-.66-.677,1.617,1.617,0,0,1-.155-.749,1.571,1.571,0,0,1,.246-.931.782.782,0,0,1,.652-.429.768.768,0,0,1,.513.1.651.651,0,0,0,.357.057c.022-.022.048-.05.052-.154Z" transform="translate(-96.193 -128.157)" fill="#0084a0"/>
        <path id="Trazado_2313" data-name="Trazado 2313" d="M128.547,182.557a.7.7,0,0,0-.342.091.638.638,0,0,0-.264.259.739.739,0,0,0-.094.351.716.716,0,0,0,.092.348.682.682,0,0,0,.261.26.7.7,0,0,0,.348.091.71.71,0,0,0,.35-.091.663.663,0,0,0,.262-.261.706.706,0,0,0,0-.7.628.628,0,0,0-.263-.258.728.728,0,0,0-.347-.091m0-.14a.865.865,0,0,1,.419.109.768.768,0,0,1,.313.31.847.847,0,0,1,0,.84.791.791,0,0,1-.314.314.844.844,0,0,1-.838,0,.767.767,0,0,1-.311-.311.84.84,0,0,1,0-.842.785.785,0,0,1,.315-.31.857.857,0,0,1,.412-.109" transform="translate(-103.525 -147.875)" fill="#0084a0"/>
        <path id="Trazado_2314" data-name="Trazado 2314" d="M130.343,184.939h.181a.286.286,0,0,0,.174-.039.119.119,0,0,0,.047-.1.118.118,0,0,0-.02-.071.151.151,0,0,0-.064-.048.563.563,0,0,0-.148-.015h-.169Zm-.145.508v-.9h.313a.768.768,0,0,1,.232.024.234.234,0,0,1,.115.089.228.228,0,0,1,.042.131.239.239,0,0,1-.071.174.282.282,0,0,1-.188.081.288.288,0,0,1,.078.049,1.136,1.136,0,0,1,.133.178l.112.177h-.181l-.08-.142a.749.749,0,0,0-.153-.211.191.191,0,0,0-.118-.03h-.087v.383Z" transform="translate(-105.543 -149.599)" fill="#0084a0"/>
        <path id="Trazado_2315" data-name="Trazado 2315" d="M54.311,146.879c-.225.3-.4.516-.3.582s.218-.049.354-.149.373-.369.639-.6.762-.736.509-.96c-.293-.257-.376-.092-.655.37-.068.106-.323.469-.546.762" transform="translate(-43.758 -118.051)" fill="#0084a0"/>
      </g>
    </g>
  </g>
</svg>
