<svg xmlns="http://www.w3.org/2000/svg" xmlns:xlink="http://www.w3.org/1999/xlink" width="193" height="64" viewBox="0 0 193 64">
  <defs>
    <filter id="Rectángulo_43" x="0" y="0" width="193" height="64" filterUnits="userSpaceOnUse">
      <feOffset dy="3" input="SourceAlpha"/>
      <feGaussianBlur stdDeviation="3" result="blur"/>
      <feFlood flood-color="#add0fc"/>
      <feComposite operator="in" in2="blur"/>
      <feComposite in="SourceGraphic"/>
    </filter>
    <clipPath id="clip-path">
      <rect id="Rectángulo_1339" data-name="Rectángulo 1339" width="38.3" height="38.5" fill="none"/>
    </clipPath>
  </defs>
  <g id="Grupo_1640" data-name="Grupo 1640" transform="translate(-1238 -1734)">
    <g id="Grupo_1621" data-name="Grupo 1621" transform="translate(1247 1740.172)">
      <g transform="matrix(1, 0, 0, 1, -9, -6.17)" filter="url(#Rectángulo_43)">
        <rect id="Rectángulo_43-2" data-name="Rectángulo 43" width="175" height="46" rx="10" transform="translate(9 6)" fill="#f4f8fd"/>
      </g>
    </g>
    <g id="Grupo_1639" data-name="Grupo 1639">
      <g id="Grupo_1638" data-name="Grupo 1638" transform="translate(1315.35 1743.75)">
        <rect id="Rectángulo_1338" data-name="Rectángulo 1338" width="38.3" height="38.5" fill="#222d80"/>
        <path id="Trazado_2300" data-name="Trazado 2300" d="M36.2,0,21.5,19h2.2L38.3,0Z" fill="#c0003c"/>
        <g id="Grupo_1637" data-name="Grupo 1637">
          <g id="Grupo_1636" data-name="Grupo 1636" clip-path="url(#clip-path)">
            <path id="Trazado_2301" data-name="Trazado 2301" d="M29.3,27.5c.7,1.9,2,6.8,2.6,7.2H28.3a4.759,4.759,0,0,0-.2-1.3c-.2-.6-1.5-4.8-1.5-4.8H20.9L20,29.9s1.1,3.4,1.2,3.6a13.014,13.014,0,0,0,.6,1.2H18.3a5.639,5.639,0,0,1-.1-.7,8.112,8.112,0,0,0-.3-1.1,10.1,10.1,0,0,0-1,1.3l-.3.6H13.9a5.639,5.639,0,0,1-.1-.7,8.338,8.338,0,0,0-.4-1.2,10.1,10.1,0,0,0-1,1.3l-.3.6H9.4a9.111,9.111,0,0,0,1-1c.4-.5,2.1-2.7,2.1-2.7l-.7-2.3H6.2S3,33.1,2.8,33.2a15.258,15.258,0,0,0-1.1,1.6H0V33.7l.1-.1c.1,0,2.5-3,4.7-6,2-2.6,3.9-5.1,4-5.3.4-.6,1-1.8,1-1.8h2.9a9.322,9.322,0,0,0,.2,1.4c.1.2,1.9,6.2,1.9,6.2l1-1.3-1.7-5.3a9.744,9.744,0,0,0-.5-1.1H17a4.4,4.4,0,0,0,.1.9c.1.4.9,3.1.9,3.1s2.3-3,2.5-3.2a1.67,1.67,0,0,0,.3-.9h2.9a9.668,9.668,0,0,0-1.4,1.6c-.3.4-3.3,4.3-3.3,4.3s.3.9.4,1.4a.349.349,0,0,0,.1.2l.2-.2c.8-1,4.3-5.7,4.5-6.1a10.908,10.908,0,0,0,.6-1.1h2.8a8.915,8.915,0,0,0,.2,1.1ZM25,23.1a34.278,34.278,0,0,1-2.8,3.8H26s-.7-2.3-.9-2.8a2.509,2.509,0,0,0-.1-1c.1,0,.1-.1,0,0m-14.7,0a34.278,34.278,0,0,1-2.8,3.8h3.8s-.7-2.3-.9-2.8c-.1-.4,0-.9-.1-1,.1,0,.1-.1,0,0m5.8,9,1.1-1.5c-.1-.1-.7-1.9-.7-1.9l-1,1.3Z" fill="#fff"/>
          </g>
        </g>
      </g>
    </g>
  </g>
</svg>
