<?xml version="1.0" encoding="utf-8"?>
<!-- Generator: Adobe Illustrator 24.0.0, SVG Export Plug-In . SVG Version: 6.00 Build 0)  -->
<svg version="1.1" id="Layer_1" xmlns="http://www.w3.org/2000/svg" xmlns:xlink="http://www.w3.org/1999/xlink" x="0px" y="0px"
	 viewBox="0 0 107.2 40" style="enable-background:new 0 0 107.2 40;" xml:space="preserve">
<style type="text/css">
	.st0{fill:#E42613;}
</style>
<g>
	<polygon class="st0" points="57.6,20 43.7,6.1 43.7,33.9 	"/>
	<polygon class="st0" points="29.8,20 43.7,6.1 15.9,6.1 	"/>
	<polygon class="st0" points="2,20 15.9,33.9 15.9,6.1 	"/>
	<polygon class="st0" points="29.8,20 15.9,33.9 43.7,33.9 	"/>
	<g>
		<polygon points="69.8,20.8 64.7,20.8 64.7,25.8 62.2,25.8 62.2,14.2 64.7,14.2 64.7,18.9 69.8,18.9 69.8,14.2 72.3,14.2 
			72.3,25.8 69.8,25.8 		"/>
		<path d="M78.3,26c-2.5,0-4.6-1-4.6-3.8h2.5c0,1.2,0.8,2,2.1,2c1,0,2.2-0.5,2.2-1.7c0-0.9-0.8-1.2-2.1-1.6l-0.8-0.2
			c-1.8-0.5-3.7-1.2-3.7-3.3c0-2.6,2.4-3.5,4.6-3.5c2.3,0,4.2,0.8,4.2,3.4h-2.5c-0.1-1.1-0.7-1.7-1.9-1.7c-0.9,0-1.9,0.5-1.9,1.5
			c0,0.9,0.8,1.1,2.4,1.6l1,0.3c2,0.6,3.2,1.3,3.2,3.2C83.2,25,80.6,26,78.3,26"/>
		<path d="M84.6,14.2h4c1.3,0,1.8,0,2.3,0.1c1.4,0.3,2.5,1.2,2.5,2.8c0,1.5-0.9,2.3-2.3,2.6c1.6,0.3,2.7,1.1,2.7,2.8
			c0,2.6-2.6,3.2-4.6,3.2h-4.6L84.6,14.2L84.6,14.2z M88.6,19c1.1,0,2.2-0.2,2.2-1.6c0-1.2-1.1-1.5-2.1-1.5H87V19L88.6,19L88.6,19z
			 M88.9,24.1c1.2,0,2.3-0.3,2.3-1.7c0-1.4-1-1.7-2.2-1.7h-2v3.4H88.9z"/>
		<path d="M100.4,26c-3.7,0-5.4-2.4-5.4-5.9c0-3.5,1.9-6.1,5.6-6.1c2.3,0,4.6,1,4.6,3.7h-2.6c-0.1-1.2-0.9-1.8-2-1.8
			c-2.3,0-3,2.4-3,4.3c0,1.8,0.7,4,2.9,4c1.1,0,2-0.6,2.2-1.8h2.6C104.9,25,102.8,26,100.4,26"/>
	</g>
</g>
</svg>
