<?xml version="1.0" encoding="utf-8"?>
<!-- Generator: Adobe Illustrator 24.0.0, SVG Export Plug-In . SVG Version: 6.00 Build 0)  -->
<svg version="1.1" id="Layer_1" xmlns="http://www.w3.org/2000/svg" xmlns:xlink="http://www.w3.org/1999/xlink" x="0px" y="0px"
	 viewBox="0 0 119.5 40" style="enable-background:new 0 0 119.5 40;" xml:space="preserve">
<style type="text/css">
	.st0{fill:#11284A;}
</style>
<g>
	<path class="st0" d="M17.7,13.6c-1.8,0-3.3,0.6-4.6,1.9c-1.3,1.3-1.9,2.8-1.9,4.6c0,1.8,0.6,3.3,1.9,4.6c1.3,1.3,2.8,1.9,4.6,1.9
		c1.8,0,3.3-0.6,4.6-1.9c1.3-1.3,1.9-2.7,1.9-4.6c0-1.8-0.6-3.3-1.9-4.6C21,14.2,19.5,13.6,17.7,13.6L17.7,13.6z"/>
	<path class="st0" d="M17.7,12.4V5.1c-2.6,0-5.1,0.7-7.3,1.9v11.2c0.4-1.6,1.3-3,2.6-4C14.4,13,15.9,12.4,17.7,12.4L17.7,12.4z"/>
	<path class="st0" d="M16.1,27.5c-1.7-0.4-3.1-1.3-4.1-2.7c-1.1-1.4-1.7-2.9-1.7-4.7H2.8c0,2.6,0.7,5.1,2,7.3L16.1,27.5L16.1,27.5z"
		/>
	<path class="st0" d="M25.1,21.9c-0.4,1.7-1.3,3-2.6,4.1c-1.4,1.1-3,1.6-4.7,1.6v7.2c2.6,0,5.1-0.6,7.3-1.9L25.1,21.9L25.1,21.9z"/>
	<path class="st0" d="M32.6,19.9c0-2.6-0.7-5.1-2-7.3h-11c1.7,0.4,3.1,1.3,4.1,2.6c1.1,1.4,1.7,3,1.7,4.7H32.6L32.6,19.9z"/>
	<polygon class="st0" points="36,13 36,21.6 38.6,21.6 38.6,13 	"/>
	<polygon class="st0" points="52.4,13 49.7,13 49.7,19.3 49.7,19.3 44.6,13 40.5,13 40.5,21.6 43.2,21.6 43.2,15.3 43.2,15.3 
		48.2,21.6 52.4,21.6 	"/>
	<path class="st0" d="M56.7,16.4V15h4.7c0.5,0,0.8,0.2,0.8,0.7c0,0.5-0.3,0.7-0.8,0.7L56.7,16.4L56.7,16.4z M56.7,18.2h4.8
		c0.6,0,1,0.3,1,0.7c0,0.5-0.3,0.6-1,0.6h-4.8V18.2L56.7,18.2z M63.6,17.3L63.6,17.3c0.5-0.2,0.7-0.3,0.9-0.6
		c0.3-0.3,0.4-0.8,0.4-1.5c0-0.8-0.3-1.4-0.8-1.8c-0.5-0.3-1.3-0.5-2.4-0.5h-7.7v8.7h8.5c0.9,0,1.5-0.1,1.9-0.4
		c0.5-0.4,0.7-1,0.7-1.9c0-0.7-0.1-1.2-0.3-1.5C64.6,17.6,64.2,17.3,63.6,17.3L63.6,17.3z"/>
	<path class="st0" d="M77.7,13h-2.6v5c0,0.5-0.2,0.9-0.3,1.1c-0.2,0.3-0.7,0.4-1.2,0.4h-2.6c-0.6,0-0.9-0.1-1.2-0.4
		c-0.2-0.2-0.3-0.6-0.3-1.1v-5h-2.7v5.6c0,1.1,0.3,1.9,0.9,2.4c0.6,0.6,1.5,0.8,2.7,0.8h3.9c1.2,0,2.1-0.2,2.7-0.8
		c0.6-0.5,0.9-1.3,0.9-2.4L77.7,13L77.7,13z"/>
	<path class="st0" d="M82.1,17.2v-2.1c1.4,0,2.8,0,4.2,0c0.7,0,1.2,0.1,1.2,0.9c0,0.1,0,0.2,0,0.3c0,0.6-0.3,0.9-1,0.9H82.1
		L82.1,17.2z M82.1,19.4h4.2c0.4,0,0.7,0.1,0.9,0.2c0.2,0.2,0.2,0.5,0.2,1v1h2.7v-1.5c0-0.6-0.1-1.1-0.4-1.4c-0.2-0.2-0.6-0.4-1-0.5
		c0.6-0.1,1-0.4,1.2-0.7c0.2-0.3,0.3-0.8,0.3-1.4v-0.5c0-0.9-0.2-1.5-0.5-1.9c-0.5-0.5-1.1-0.7-2.1-0.7h-8.1v8.7h2.7L82.1,19.4
		L82.1,19.4L82.1,19.4z"/>
	<path class="st0" d="M97.5,16.2l-2.7-0.1c-0.2,0-0.3-0.1-0.4-0.2c-0.1-0.1-0.1-0.2-0.1-0.4c0-0.5,0.3-0.7,1-0.7h3
		c0.6,0,1,0.1,1.1,0.2c0.1,0.1,0.2,0.3,0.2,0.7h2.7v-0.3c0-0.9-0.2-1.5-0.6-1.9c-0.5-0.5-1.4-0.7-2.8-0.7h-3.8c-1.5,0-2.6,0.3-3,0.8
		c-0.3,0.4-0.5,1.1-0.5,2c0,0.6,0.1,1,0.2,1.4c0.1,0.3,0.3,0.6,0.6,0.8c0.6,0.3,1.8,0.5,3.8,0.5l3.2,0.1c0.2,0,0.4,0.1,0.5,0.2
		l0.1,0.5c0,0.3-0.1,0.5-0.3,0.6l-0.8,0.1h-3.3l-0.9-0.2c-0.2-0.1-0.3-0.4-0.3-0.9h-2.7v0.6c0,0.9,0.3,1.5,0.8,1.9
		c0.5,0.3,1.4,0.5,2.6,0.5h3.2c1.8,0,3-0.2,3.5-0.5c0.3-0.2,0.6-0.5,0.7-0.8c0.1-0.3,0.2-0.9,0.2-1.4c0-0.7-0.1-1.1-0.2-1.5
		c-0.1-0.4-0.4-0.7-0.7-0.9C101,16.4,99.7,16.2,97.5,16.2L97.5,16.2z"/>
	<polygon class="st0" points="111.5,13 108,13 103.3,21.6 106.3,21.6 107.1,20.1 108.1,18.2 109.8,15 111.5,18.2 108.1,18.2 
		107.1,20.1 112.5,20.1 113.3,21.6 116.3,21.6 	"/>
	<path class="st0" d="M57.9,28.5v-0.7l2.5,0v2.1c-0.4,0.3-0.8,0.5-1.2,0.7c-0.4,0.2-0.8,0.2-1.2,0.2c-0.6,0-1.1-0.1-1.6-0.4
		c-0.5-0.2-0.8-0.6-1.1-1.1c-0.2-0.5-0.4-1-0.4-1.5c0-0.6,0.1-1.1,0.4-1.6c0.2-0.5,0.6-0.9,1-1.1c0.4-0.2,1-0.4,1.5-0.4
		c0.4,0,0.8,0.1,1.1,0.2c0.3,0.1,0.6,0.3,0.8,0.6c0.2,0.2,0.3,0.6,0.4,0.9l-0.7,0.2c-0.1-0.3-0.2-0.5-0.3-0.7
		c-0.1-0.2-0.3-0.3-0.6-0.4c-0.2-0.1-0.5-0.2-0.8-0.2c-0.3,0-0.7,0.1-0.9,0.2c-0.3,0.1-0.5,0.2-0.6,0.4c-0.2,0.2-0.3,0.4-0.4,0.6
		c-0.1,0.4-0.2,0.7-0.2,1.2c0,0.5,0.1,0.9,0.3,1.3c0.2,0.3,0.4,0.6,0.8,0.8c0.3,0.2,0.7,0.3,1.1,0.3c0.3,0,0.7-0.1,1-0.2
		c0.3-0.1,0.6-0.3,0.7-0.4v-1.1L57.9,28.5L57.9,28.5L57.9,28.5z"/>
	<path class="st0" d="M61.3,30.7v-4.2H62v0.6c0.2-0.3,0.3-0.5,0.5-0.6c0.1-0.1,0.3-0.1,0.5-0.1c0.2,0,0.5,0.1,0.7,0.2l-0.2,0.7
		c-0.2-0.1-0.3-0.2-0.5-0.2c-0.2,0-0.3,0.1-0.4,0.1c-0.1,0.1-0.2,0.2-0.3,0.4C62.1,28,62,28.3,62,28.6v2.2L61.3,30.7L61.3,30.7z"/>
	<path class="st0" d="M66.8,30.7v-0.6c-0.3,0.5-0.8,0.7-1.3,0.7c-0.2,0-0.5,0-0.7-0.1c-0.2-0.1-0.4-0.2-0.5-0.4
		c-0.1-0.1-0.2-0.3-0.2-0.5c0-0.1,0-0.4,0-0.7v-2.6h0.7v2.3c0,0.4,0,0.6,0,0.8c0,0.2,0.1,0.3,0.3,0.4c0.1,0.1,0.3,0.2,0.5,0.2
		s0.4-0.1,0.6-0.2c0.2-0.1,0.3-0.3,0.4-0.4c0.1-0.2,0.1-0.5,0.1-0.8v-2.2h0.7v4.2L66.8,30.7C66.8,30.7,66.8,30.7,66.8,30.7z"/>
	<path class="st0" d="M68.5,32.4v-5.8h0.6v0.5c0.2-0.2,0.3-0.4,0.5-0.5c0.2-0.1,0.4-0.2,0.7-0.2c0.4,0,0.7,0.1,0.9,0.3
		c0.3,0.2,0.5,0.4,0.6,0.8c0.1,0.3,0.2,0.7,0.2,1.1c0,0.4-0.1,0.8-0.2,1.2s-0.4,0.6-0.7,0.8c-0.3,0.2-0.6,0.3-0.9,0.3
		c-0.2,0-0.4,0-0.6-0.1c-0.2-0.1-0.3-0.2-0.5-0.4v2L68.5,32.4L68.5,32.4z M69.2,28.7c0,0.5,0.1,0.9,0.3,1.2c0.2,0.3,0.5,0.4,0.8,0.4
		c0.3,0,0.6-0.1,0.8-0.4c0.2-0.3,0.3-0.7,0.3-1.2c0-0.5-0.1-0.9-0.3-1.2S70.6,27,70.3,27s-0.6,0.1-0.8,0.4
		C69.3,27.7,69.2,28.1,69.2,28.7L69.2,28.7z"/>
	<path class="st0" d="M72.8,28.6c0-0.8,0.2-1.4,0.6-1.7c0.4-0.3,0.8-0.5,1.3-0.5c0.6,0,1,0.2,1.4,0.6c0.4,0.4,0.5,0.9,0.5,1.6
		c0,0.5-0.1,1-0.2,1.3c-0.2,0.3-0.4,0.5-0.7,0.7c-0.3,0.2-0.6,0.3-1,0.3c-0.6,0-1.1-0.2-1.4-0.6C73,29.9,72.8,29.4,72.8,28.6
		L72.8,28.6z M73.5,28.6c0,0.5,0.1,0.9,0.4,1.2c0.2,0.3,0.5,0.4,0.9,0.4c0.3,0,0.6-0.1,0.9-0.4c0.2-0.3,0.4-0.7,0.4-1.2
		c0-0.5-0.1-0.9-0.4-1.2c-0.2-0.3-0.5-0.4-0.9-0.4c-0.4,0-0.6,0.1-0.9,0.4C73.6,27.7,73.5,28.1,73.5,28.6L73.5,28.6z"/>
	<polygon class="st0" points="79.9,30.7 79.9,25 83.8,25 83.8,25.6 80.7,25.6 80.7,27.4 83.4,27.4 83.4,28.1 80.7,28.1 80.7,30.7 	
		"/>
	<path class="st0" d="M84.7,25.8V25h0.7v0.8H84.7L84.7,25.8z M84.7,30.7v-4.2h0.7v4.2L84.7,30.7L84.7,30.7z"/>
	<path class="st0" d="M86.5,30.7v-4.2h0.6v0.6c0.3-0.5,0.8-0.7,1.3-0.7c0.3,0,0.5,0,0.7,0.1c0.2,0.1,0.4,0.2,0.5,0.4
		c0.1,0.1,0.2,0.3,0.2,0.5c0,0.1,0,0.4,0,0.7v2.6h-0.7v-2.6c0-0.3,0-0.5-0.1-0.6c-0.1-0.1-0.2-0.3-0.3-0.3c-0.1-0.1-0.3-0.1-0.5-0.1
		c-0.3,0-0.6,0.1-0.8,0.3c-0.2,0.2-0.3,0.6-0.3,1.1v2.3L86.5,30.7L86.5,30.7L86.5,30.7z"/>
	<path class="st0" d="M93.8,30.2c-0.3,0.2-0.5,0.4-0.8,0.5c-0.2,0.1-0.5,0.1-0.8,0.1c-0.5,0-0.8-0.1-1.1-0.3
		c-0.2-0.2-0.4-0.5-0.4-0.9c0-0.2,0-0.4,0.1-0.6c0.1-0.2,0.2-0.3,0.4-0.4c0.2-0.1,0.3-0.2,0.5-0.2c0.1,0,0.4-0.1,0.6-0.1
		c0.6-0.1,1-0.1,1.3-0.2c0-0.1,0-0.2,0-0.2c0-0.3-0.1-0.5-0.2-0.6c-0.2-0.2-0.5-0.2-0.8-0.2c-0.3,0-0.6,0.1-0.7,0.2
		c-0.2,0.1-0.3,0.3-0.4,0.6l-0.7-0.1c0.1-0.3,0.2-0.5,0.3-0.7c0.1-0.2,0.4-0.3,0.6-0.4c0.3-0.1,0.6-0.1,1-0.1c0.4,0,0.6,0,0.9,0.1
		c0.2,0.1,0.4,0.2,0.5,0.3c0.1,0.1,0.2,0.3,0.2,0.5c0,0.1,0,0.3,0,0.7V29c0,0.7,0,1.1,0,1.3c0,0.2,0.1,0.3,0.2,0.5h-0.7
		C93.8,30.6,93.8,30.4,93.8,30.2L93.8,30.2z M93.7,28.6c-0.3,0.1-0.6,0.2-1.2,0.3c-0.3,0-0.5,0.1-0.6,0.1c-0.1,0.1-0.2,0.1-0.3,0.2
		c-0.1,0.1-0.1,0.2-0.1,0.3c0,0.2,0.1,0.3,0.2,0.5c0.1,0.1,0.4,0.2,0.6,0.2s0.5-0.1,0.7-0.2c0.2-0.1,0.4-0.3,0.5-0.5
		c0.1-0.2,0.1-0.4,0.1-0.7L93.7,28.6L93.7,28.6z"/>
	<path class="st0" d="M95.5,30.7v-4.2h0.6v0.6c0.3-0.5,0.8-0.7,1.3-0.7c0.3,0,0.5,0,0.7,0.1c0.2,0.1,0.4,0.2,0.5,0.4
		c0.1,0.1,0.2,0.3,0.2,0.5c0,0.1,0,0.4,0,0.7v2.6h-0.7v-2.6c0-0.3,0-0.5-0.1-0.6c-0.1-0.1-0.2-0.3-0.3-0.3c-0.1-0.1-0.3-0.1-0.5-0.1
		c-0.3,0-0.6,0.1-0.8,0.3c-0.2,0.2-0.3,0.6-0.3,1.1v2.3L95.5,30.7L95.5,30.7L95.5,30.7z"/>
	<path class="st0" d="M102.8,29.2l0.7,0.1c-0.1,0.5-0.3,0.9-0.6,1.1c-0.3,0.3-0.7,0.4-1.2,0.4c-0.6,0-1-0.2-1.4-0.6
		c-0.4-0.4-0.5-0.9-0.5-1.6c0-0.5,0.1-0.8,0.2-1.2c0.1-0.3,0.4-0.6,0.7-0.8c0.3-0.2,0.6-0.3,1-0.3c0.5,0,0.8,0.1,1.1,0.3
		c0.3,0.2,0.5,0.6,0.6,1l-0.7,0.1c-0.1-0.3-0.2-0.5-0.3-0.6c-0.2-0.1-0.4-0.2-0.6-0.2c-0.4,0-0.6,0.1-0.9,0.4
		c-0.2,0.3-0.3,0.7-0.3,1.2c0,0.6,0.1,1,0.3,1.2c0.2,0.3,0.5,0.4,0.8,0.4c0.3,0,0.5-0.1,0.7-0.3C102.6,29.8,102.7,29.6,102.8,29.2
		L102.8,29.2z"/>
	<path class="st0" d="M104.1,25.8V25h0.7v0.8H104.1L104.1,25.8z M104.1,30.7v-4.2h0.7v4.2L104.1,30.7L104.1,30.7z"/>
	<path class="st0" d="M108.7,29.4l0.7,0.1c-0.1,0.4-0.3,0.8-0.6,1c-0.3,0.2-0.7,0.4-1.2,0.4c-0.6,0-1.1-0.2-1.5-0.6
		c-0.4-0.4-0.5-0.9-0.5-1.6c0-0.7,0.2-1.3,0.5-1.6c0.4-0.4,0.8-0.6,1.4-0.6c0.6,0,1,0.2,1.4,0.6c0.4,0.4,0.5,0.9,0.5,1.6
		c0,0,0,0.1,0,0.2h-3.1c0,0.5,0.2,0.8,0.4,1.1c0.2,0.2,0.5,0.4,0.9,0.4c0.3,0,0.5-0.1,0.7-0.2C108.5,29.9,108.6,29.7,108.7,29.4
		L108.7,29.4z M106.4,28.2h2.3c0-0.4-0.1-0.6-0.3-0.8c-0.2-0.3-0.5-0.4-0.9-0.4c-0.3,0-0.6,0.1-0.8,0.3
		C106.5,27.6,106.4,27.9,106.4,28.2L106.4,28.2z"/>
	<path class="st0" d="M110.3,30.7v-4.2h0.6v0.6c0.2-0.3,0.3-0.5,0.5-0.6c0.1-0.1,0.3-0.1,0.5-0.1c0.2,0,0.5,0.1,0.7,0.2l-0.2,0.7
		c-0.2-0.1-0.3-0.2-0.5-0.2c-0.2,0-0.3,0.1-0.4,0.1c-0.1,0.1-0.2,0.2-0.3,0.4c-0.1,0.3-0.1,0.5-0.1,0.8v2.2L110.3,30.7L110.3,30.7z"
		/>
	<path class="st0" d="M112.8,28.6c0-0.8,0.2-1.4,0.6-1.7c0.4-0.3,0.8-0.5,1.3-0.5c0.6,0,1,0.2,1.4,0.6c0.4,0.4,0.5,0.9,0.5,1.6
		c0,0.5-0.1,1-0.2,1.3c-0.2,0.3-0.4,0.5-0.7,0.7c-0.3,0.2-0.6,0.3-1,0.3c-0.6,0-1.1-0.2-1.4-0.6C113,29.9,112.8,29.4,112.8,28.6
		L112.8,28.6z M113.5,28.6c0,0.5,0.1,0.9,0.4,1.2c0.2,0.3,0.5,0.4,0.9,0.4c0.4,0,0.6-0.1,0.9-0.4c0.2-0.3,0.4-0.7,0.4-1.2
		c0-0.5-0.1-0.9-0.4-1.2c-0.2-0.3-0.5-0.4-0.9-0.4c-0.4,0-0.6,0.1-0.9,0.4C113.6,27.7,113.5,28.1,113.5,28.6L113.5,28.6z"/>
</g>
</svg>
