<?xml version="1.0" encoding="utf-8"?>
<!-- Generator: Adobe Illustrator 24.0.0, SVG Export Plug-In . SVG Version: 6.00 Build 0)  -->
<svg version="1.1" id="Layer_1" xmlns="http://www.w3.org/2000/svg" xmlns:xlink="http://www.w3.org/1999/xlink" x="0px" y="0px"
	 viewBox="0 0 119.5 40" style="enable-background:new 0 0 119.5 40;" xml:space="preserve">
<style type="text/css">
	.st0{fill:#6D5ED2;}
</style>
<g>
	<path class="st0" d="M61.2,14.2c-4.8,0-9.3,3.7-9.3,10.2c0,3.4,1.6,5.5,6,5.5c4.8,0,9.2-4,9.2-10.1C67.2,16.4,65.7,14.2,61.2,14.2
		 M58.6,25.8c-1.5,0-2-0.9-2-2.1c0-2.4,1.3-5.6,3.7-5.6c1.5,0,2,0.7,2,2.1C62.5,23.1,61.1,25.8,58.6,25.8"/>
	<path class="st0" d="M110.7,14.2c-4.8,0-9.3,3.7-9.3,10.2c0,3.4,1.6,5.5,6,5.5c4.9,0,9.2-4,9.2-10.1
		C116.9,16.4,115.2,14.2,110.7,14.2 M108.2,25.8c-1.5,0-2-0.9-2-2.1c0-2.4,1.3-5.6,3.7-5.6c1.5,0,2,0.7,2,2.1
		C112,23.1,110.6,25.8,108.2,25.8"/>
	<path class="st0" d="M77.2,29.3c-0.2,1.2,0.7,2.8,4,2.8l0,0L83.6,19c0.6-2.9-0.2-5-3.3-5c-2.7,0-4.7,1.9-5.9,4.2l0,0
		c0.2-0.7,0.5-1.3,0.7-1.9c0.3-1.3-0.1-2-1.3-2c-1.7,0-3.5,0.1-5.1,0.2c-0.2,1.5,0,3,2,3.3v0.1L69,27.2c-0.1,1.2,0.9,2.2,4.2,2.2
		l0,0l0.8-4.2c0.7-3.4,3.1-7.3,4.7-7.3c0.7,0,0.9,0.6,0.7,2.1L77.2,29.3z"/>
	<path class="st0" d="M49.5,13.5l-6.2,6.9l2.4-13c-2.4-0.1-5,0-7.2,0.2c-0.2,1.5,0,2.9,1.9,3.3h0.1V11l-3.1,16.4c0,1,1,2,4.2,2l0,0
		L43,22l1.7,4.9c0.3,1.2,1.5,2.4,4.9,2.4h1.5l-3.7-8l3.5-3.4C52.6,16.4,50.7,14.2,49.5,13.5"/>
	<path class="st0" d="M95.6,10.8c1.5,0,2.4,1.5,5.6,0.9s5.1-2.4,5.2-5.1c0-0.6-0.8-1-1.5,0c-1.2,1.5-3.4,1.2-6.6,0.7
		c-0.8-0.2-1.5-0.2-2.4-0.2c-4.5,0-6.5,2.2-7.2,6.2c0,0-0.1,0.3-0.2,0.9c-0.8,0.1-1.6,0.2-2.4,0.2c-0.3,1.5-0.2,3.4,1.5,3.3
		c0.1,0,0.1,0,0.2,0c-0.7,3.8-1.7,9.3-2.3,12.1c-0.8,4.5-4.3,5.1-7.1,4.1c-0.7-0.2-1.2,0.3-0.6,1.3c1.5,2,4.4,2.4,6.5,1.7
		c2.8-0.9,4.5-2.4,5.6-7c0.6-2.8,1.6-8.3,2.4-12.2c1,0.1,2.2,0.2,3.6,0.2l-1.6,9.2c-0.2,1.2,0.7,2.4,4.1,2.4l2.4-13.1
		c0.2-1.4-0.2-2-1.6-2.1c-1.4-0.1-3.5-0.2-6-0.2c0.1-0.3,0.1-0.6,0.1-0.6C93.5,11.5,94.2,10.8,95.6,10.8"/>
	<path class="st0" d="M20.9,17.8c0.7,0.5,1.5,0.8,2.1,1.3c4-2.8,7.2-6.4,9.7-10.5c-0.6-0.7-1.2-1.2-1.6-1.6
		C28.6,11.4,25,15.1,20.9,17.8"/>
	<path class="st0" d="M23,20.1c-0.2-0.2-0.5-0.3-0.7-0.6c-0.7-0.5-1.4-0.9-2.2-1.3c-0.2-0.2-0.6-0.2-0.8-0.5
		c-0.2-0.1-0.5-0.2-0.7-0.3c-0.8,0.5-1.6,0.9-2.6,1.3c0.2,0.1,0.6,0.2,0.7,0.3c0.3,0.2,0.7,0.2,0.9,0.5c0.8,0.5,1.5,0.8,2.4,1.3
		c0.2,0.2,0.6,0.3,0.8,0.6c4.2,2.8,7.7,6.4,10.1,10.8c0.6-0.6,1.2-1.2,1.6-1.6C30.2,26.5,26.9,22.9,23,20.1"/>
	<path class="st0" d="M18.5,22.7c-0.8,0.5-1.7,0.8-2.7,1.2c4.8,2.4,8.6,6.3,11.3,10.9c0.7-0.3,1.4-0.7,2-1.2
		C26.6,29.3,22.9,25.4,18.5,22.7"/>
	<path class="st0" d="M12.6,24.9c-0.5-0.2-0.9-0.3-1.4-0.6c0.5-0.1,0.9-0.2,1.5-0.3c0.3-0.1,0.7-0.2,1-0.2c0.3-0.1,0.8-0.2,1.2-0.3
		c0.9-0.3,1.9-0.7,2.8-1.2c0.2-0.2,0.7-0.2,0.9-0.5c0.2-0.1,0.5-0.2,0.7-0.3c-0.8-0.5-1.5-0.9-2.4-1.3c-0.2,0.1-0.5,0.2-0.7,0.3
		c-0.3,0.2-0.7,0.2-1.2,0.5c-1.2,0.5-2.3,0.8-3.5,1.2c-0.6,0.2-1.2,0.2-1.6,0.3c-0.6,0.1-1.2,0.2-1.6,0.2c-1.5,0.2-3,0.3-4.5,0.3
		c0.2,0.8,0.3,1.5,0.7,2.3c1.3,0.1,2.6,0.2,3.7,0.5c6.2,1.3,11.3,5.1,14.7,10.3c0.8-0.1,1.5-0.2,2.4-0.6
		C22.2,31,17.9,27.1,12.6,24.9"/>
	<path class="st0" d="M9.8,21.7c1.4-0.2,2.8-0.7,4.1-1.2c-0.2-0.1-0.7-0.2-0.9-0.3c-0.5-0.2-0.9-0.2-1.4-0.5
		c0.5-0.1,0.9-0.2,1.4-0.5c0.3-0.1,0.7-0.2,0.9-0.3c0.3-0.2,0.7-0.2,1.2-0.5c0.9-0.3,1.9-0.8,2.7-1.3c0.2-0.2,0.7-0.3,0.9-0.6
		c4.4-2.7,8.1-6.4,10.6-10.9c-0.7-0.5-1.3-0.8-2-1.2c-2.7,4.7-6.5,8.5-11.3,10.9c-0.3,0.2-0.7,0.3-1,0.6c-1.2,0.6-2.2,1-3.4,1.3
		c-0.6,0.2-1.2,0.3-1.6,0.5c-0.6,0.1-1.2,0.3-1.7,0.5c-1.5,0.2-3.3,0.5-4.9,0.5c0,0.3-0.1,0.7-0.1,1.2c0,0.3,0,0.7,0.1,1.2
		c1.6,0,3.4,0.2,4.9,0.5C8.6,21.3,9.2,21.4,9.8,21.7"/>
	<path class="st0" d="M9.8,16.9c1.4-0.3,2.7-0.8,4-1.3c-0.3-0.1-0.7-0.2-1-0.2c-0.5-0.1-0.9-0.2-1.5-0.3c0.5-0.2,0.9-0.3,1.4-0.6
		c5.1-2.1,9.5-5.9,12.3-10.7c-0.7-0.2-1.5-0.3-2.4-0.6c-3.3,5.1-8.5,9-14.5,10.3c-1.2,0.2-2.4,0.3-3.7,0.5c-0.2,0.7-0.6,1.5-0.7,2.3
		c1.5,0,3,0.1,4.5,0.3C8.6,16.7,9.2,16.8,9.8,16.9"/>
</g>
</svg>
