<?xml version="1.0" encoding="utf-8"?>
<!-- Generator: Adobe Illustrator 16.0.0, SVG Export Plug-In . SVG Version: 6.00 Build 0)  -->
<!DOCTYPE svg PUBLIC "-//W3C//DTD SVG 1.1//EN" "http://www.w3.org/Graphics/SVG/1.1/DTD/svg11.dtd">
<svg version="1.1" id="Layer_1" xmlns="http://www.w3.org/2000/svg" xmlns:xlink="http://www.w3.org/1999/xlink" x="0px" y="0px"
	 width="182.5px" height="40px" viewBox="0 0 182.5 40" enable-background="new 0 0 182.5 40" xml:space="preserve">
<g>
	<path fill-rule="evenodd" clip-rule="evenodd" fill="#ED3247" d="M38.601,13.693c-0.176-0.436-0.494-0.792-0.87-1.099
		c-0.604-0.497-1.299-0.863-2.033-1.171c-1.912-0.796-3.937-1.241-6.014-1.498c-1.25-0.152-2.513-0.249-3.772-0.323
		c-1.75-0.098-3.501-0.055-5.247,0.079c-1.395,0.108-2.782,0.283-4.151,0.555c-1.569,0.313-3.107,0.718-4.539,1.395
		c-0.726,0.343-1.403,0.748-1.941,1.312c-0.836,0.875-0.856,1.905-0.006,2.769c0.333,0.336,0.725,0.637,1.134,0.89
		c1.072,0.669,2.281,1.073,3.52,1.411c1.288,0.355,2.608,0.593,3.941,0.769c0.51,0.065,1.022,0.115,1.549,0.172
		c0.846-2.633,1.687-5.248,2.528-7.862c0.009,0.005,0.021,0.008,0.033,0.01c0.137,2.661,0.273,5.32,0.412,7.998
		c0.185,0.009,0.344,0.025,0.503,0.021c1.034-0.025,2.068-0.04,3.099-0.089c1.585-0.07,3.161-0.267,4.715-0.562
		c1.536-0.293,3.038-0.682,4.453-1.311c0.837-0.375,1.631-0.809,2.23-1.477C38.675,15.09,38.901,14.438,38.601,13.693"/>
	<path fill-rule="evenodd" clip-rule="evenodd" fill="#ED3247" d="M19.617,19.309c-1.829,0.043-3.643,0.204-5.438,0.532
		c-1.735,0.322-3.422,0.77-5.006,1.502c-1.006,0.468-1.94,1.024-2.645,1.845c-0.639,0.746-0.92,1.573-0.605,2.507
		c0.263,0.777,0.831,1.359,1.512,1.861c1.148,0.843,2.474,1.382,3.86,1.814c1.433,0.447,2.911,0.734,4.41,0.938
		c0.234,0.031,0.468,0.055,0.703,0.077c1.188-3.7,2.37-7.382,3.561-11.077C19.833,19.309,19.725,19.306,19.617,19.309"/>
	<path fill-rule="evenodd" clip-rule="evenodd" fill="#ED3247" d="M32.853,21.928c-1.299-0.785-2.737-1.283-4.228-1.673
		c-1.426-0.37-2.884-0.608-4.358-0.766c-0.356-0.039-0.712-0.062-1.091-0.092c0.191,3.698,0.378,7.367,0.567,11.051
		c0.112,0,0.203,0.011,0.29-0.004c0.905-0.122,1.814-0.226,2.711-0.379c1.63-0.284,3.215-0.714,4.714-1.366
		c1.082-0.474,2.087-1.041,2.869-1.892c0.949-1.033,1.06-2.234,0.293-3.33C34.172,22.83,33.544,22.347,32.853,21.928"/>
	<path fill="#ED3247" d="M59.128,21.177c1.183-0.334,1.781-1.11,1.781-2.312V17.19c0-1.857-1.085-2.8-3.225-2.8H45.799v13.995
		h11.035c2.774,0,4.182-0.951,4.182-2.827v-1.754C61.015,22.426,60.381,21.546,59.128,21.177 M49.221,22.435h7.135
		c0.625,0,0.912,0.09,1.039,0.163c0.237,0.148,0.358,0.457,0.358,0.915v1.036c0,0.458-0.121,0.767-0.354,0.911
		c-0.189,0.11-0.54,0.167-1.043,0.167h-7.135V22.435z M57.673,19.05c0,0.209,0,0.84-1.317,0.84h-7.135v-2.982h7.135
		c1.317,0,1.317,0.632,1.317,0.84V19.05z"/>
	<path fill="#ED3247" d="M73.999,14.39H70.75L62.83,28.385h3.521l1.593-3.002h8.516l1.647,3.002h3.919L74.04,14.463L73.999,14.39z
		 M74.978,22.625h-5.523l2.811-5.132L74.978,22.625z"/>
	<path fill="#ED3247" d="M97.446,21.732c0,0.273,0.036,0.935,0.105,1.966c-0.337-0.35-0.774-0.751-1.304-1.199l-9.644-8.075
		l-0.039-0.034H84.19v13.995h3.157v-7.556c0-0.474-0.032-1.064-0.093-1.762c0.266,0.279,0.556,0.551,0.866,0.809l10.068,8.474
		l0.041,0.034h2.375V14.39h-3.157V21.732z"/>
	<path fill="#ED3247" d="M118.253,14.39h-10.095c-1.36,0-2.271,0.229-2.781,0.702c-0.514,0.476-0.764,1.353-0.764,2.682V25
		c0,1.33,0.25,2.207,0.764,2.682c0.511,0.473,1.421,0.703,2.781,0.703h10.095c1.36,0,2.27-0.23,2.779-0.703
		c0.515-0.475,0.764-1.352,0.764-2.682v-7.226c0-1.329-0.249-2.207-0.763-2.682C120.522,14.62,119.613,14.39,118.253,14.39
		 M118.321,25.521h-10.232v-8.399h10.232V25.521z"/>
	<path fill="#ED3247" d="M137.793,23.205c2.144,0,3.229-0.942,3.229-2.801V17.19c0-1.857-1.085-2.8-3.229-2.8h-11.889v13.995h3.423
		v-5.18h2.827l5.487,5.141l0.042,0.039h5.031l-6.329-5.18H137.793z M129.327,17.015h7.028c0.584,0,0.85,0.079,0.963,0.139
		c0.223,0.135,0.332,0.401,0.332,0.814v1.658c0,0.413-0.109,0.679-0.327,0.81c-0.118,0.065-0.382,0.143-0.968,0.143h-7.028V17.015z"
		/>
	<polygon fill="#ED3247" points="143.666,17.122 149.962,17.122 149.962,28.385 153.438,28.385 153.438,17.122 159.76,17.122 
		159.76,14.39 143.666,14.39 	"/>
	<polygon fill="#ED3247" points="165.984,25.521 165.984,22.408 172.484,22.408 172.484,19.783 165.984,19.783 165.984,17.015 
		176.574,17.015 176.574,14.39 162.51,14.39 162.51,28.385 176.707,28.385 176.707,25.521 	"/>
</g>
</svg>
