<?xml version="1.0" encoding="utf-8"?>
<!-- Generator: Adobe Illustrator 16.0.0, SVG Export Plug-In . SVG Version: 6.00 Build 0)  -->
<!DOCTYPE svg PUBLIC "-//W3C//DTD SVG 1.1//EN" "http://www.w3.org/Graphics/SVG/1.1/DTD/svg11.dtd">
<svg version="1.1" id="Layer_1" xmlns="http://www.w3.org/2000/svg" xmlns:xlink="http://www.w3.org/1999/xlink" x="0px" y="0px"
	 width="182.5px" height="40px" viewBox="0 0 182.5 40" enable-background="new 0 0 182.5 40" xml:space="preserve">
<g>
	<path fill="#FF0000" d="M153.324,18.854c0,0.734-0.087,1.624-0.222,2.09c-0.581-0.067-1.164-0.086-1.856-0.086
		c-0.604,0-1.211,0.041-1.811,0.131v9.523h-2.464V19.389c1.051-0.357,2.821-0.624,4.208-0.624
		C151.938,18.765,152.789,18.786,153.324,18.854 M136.809,23.703h5.551c0-1.825-0.985-2.892-2.686-2.892
		C137.93,20.812,137.011,21.81,136.809,23.703 M144.708,25.749h-7.854c0.313,1.98,1.477,2.938,3.671,2.938
		c1.343,0,2.708-0.289,3.938-0.847c-0.09,0.647-0.223,1.491-0.381,2.227c-1.118,0.511-2.306,0.71-3.624,0.71
		c-4.119,0-6.11-2.269-6.11-6.072c0-3.312,1.546-5.937,5.461-5.937c3.515,0,5.035,2.291,5.035,5.093
		C144.843,24.548,144.798,25.104,144.708,25.749 M129.894,27.929v-6.851c-0.649-0.134-1.321-0.22-1.969-0.22
		c-2.439,0-3.604,1.511-3.604,4.045c0,2.27,0.918,3.874,3.114,3.874C128.416,28.774,129.223,28.441,129.894,27.929 M132.332,14.938
		V30.51h-2.261l-0.132-1.424c-0.627,1.044-1.588,1.69-3.202,1.69c-2.953,0-4.923-2.138-4.923-5.873c0-3.917,2.102-6.139,6.246-6.139
		c0.649,0,1.252,0.066,1.834,0.177V15.27C130.652,15.004,131.527,14.938,132.332,14.938 M119.845,23.035v7.475h-2.461v-7.052
		c0-1.761-0.584-2.602-3.046-2.602c-0.581,0-1.275,0.064-1.945,0.177v9.477h-2.461V19.386c1.567-0.378,3.289-0.623,4.473-0.623
		C118.525,18.765,119.845,20.344,119.845,23.035 M104.781,27.974v-6.984c-0.513-0.09-1.074-0.131-1.767-0.131
		c-2.551,0-3.737,1.556-3.737,4.045c0,2.27,0.919,3.874,3.113,3.874C103.351,28.774,104.136,28.464,104.781,27.974 M107.244,19.388
		v11.125h-2.26l-0.135-1.335c-0.626,0.979-1.589,1.602-3.156,1.602c-2.953,0-4.923-2.136-4.923-5.874
		c0-3.916,2.104-6.137,6.244-6.137C104.625,18.765,105.947,18.941,107.244,19.388 M94.041,28.687c0.717,0,1.387-0.134,1.925-0.332
		c-0.068,0.666-0.158,1.422-0.292,2.066c-0.672,0.269-1.387,0.355-2.081,0.355c-2.394,0-3.917-1.088-3.917-3.804V15.294
		c0.763-0.245,1.702-0.356,2.462-0.356v4.204h3.894c-0.044,0.758-0.112,1.447-0.224,2.09h-3.67v5.453
		C92.138,28.13,92.854,28.687,94.041,28.687 M87.215,23.035v7.475h-2.463v-7.052c0-1.761-0.58-2.602-3.041-2.602
		c-0.585,0-1.279,0.064-1.949,0.177v9.477h-2.463V19.386c1.568-0.378,3.291-0.623,4.478-0.623
		C85.895,18.765,87.215,20.344,87.215,23.035 M72.153,27.974v-6.984c-0.516-0.09-1.075-0.131-1.769-0.131
		c-2.551,0-3.738,1.556-3.738,4.045c0,2.27,0.918,3.874,3.112,3.874C70.721,28.774,71.506,28.464,72.153,27.974 M74.614,19.388
		v11.125h-2.26l-0.135-1.335c-0.626,0.979-1.59,1.602-3.154,1.602c-2.955,0-4.926-2.136-4.926-5.874
		c0-3.916,2.104-6.137,6.245-6.137C71.996,18.765,73.316,18.941,74.614,19.388 M52.257,30.021c0.046-0.912,0.18-1.537,0.426-2.247
		c1.253,0.58,2.866,0.867,4.095,0.867c2.081,0,3.247-0.668,3.247-1.98c0-1.289-0.852-1.892-2.955-2.803l-1.141-0.489
		c-2.104-0.911-3.537-2.093-3.537-4.448c0-2.535,1.769-4.161,5.394-4.161c1.454,0,2.82,0.2,4.095,0.646
		c-0.066,0.889-0.223,1.579-0.446,2.224c-1.211-0.445-2.642-0.645-3.673-0.645c-1.945,0-2.84,0.757-2.84,1.935
		c0,1.157,0.873,1.824,2.438,2.491l1.208,0.512c2.843,1.201,4.029,2.47,4.029,4.627c0,2.558-1.948,4.316-5.751,4.316
		C55.01,30.867,53.511,30.601,52.257,30.021 M41.008,19.054c-0.034-0.812-0.263-1.617-0.685-2.345l-3.731-6.422
		c-0.285-0.491-0.482-1.017-0.59-1.554l-0.157,0.27c-0.923,1.59-0.923,3.547,0,5.137l2.983,5.14c0.925,1.591,0.925,3.548,0,5.138
		l-0.155,0.267c-0.11-0.536-0.308-1.061-0.59-1.552l-2.732-4.705l-1.744-3.006c-0.285-0.489-0.482-1.013-0.592-1.552l-0.156,0.269
		c-0.921,1.585-0.923,3.537-0.009,5.122l0,0l2.994,5.154c0.922,1.59,0.922,3.551,0,5.142l-0.156,0.266
		c-0.11-0.538-0.307-1.063-0.591-1.553l-3.73-6.422c-0.502-0.863-0.729-1.833-0.688-2.793c-3.994,1.038-6.75,3.238-6.75,5.789
		c0,3.55,5.333,6.425,11.915,6.425c6.579,0,11.912-2.872,11.912-6.425C47.76,22.292,45.004,20.092,41.008,19.054"/>
	<path fill="#FF0000" d="M156.012,15.735v0.84h0.43c0.447,0,0.654-0.1,0.654-0.408c0-0.314-0.214-0.432-0.666-0.432H156.012
		L156.012,15.735z M157.516,16.138c0,0.337-0.209,0.584-0.565,0.645l0.54,1.112h-0.452l-0.509-1.054h-0.516v1.054h-0.405v-2.426
		h0.896C157.179,15.469,157.516,15.682,157.516,16.138L157.516,16.138z M157.783,15.396c-0.362-0.359-0.82-0.549-1.337-0.549
		c-0.504,0-0.96,0.184-1.301,0.534c-0.365,0.364-0.562,0.84-0.562,1.337c0,0.489,0.197,0.949,0.55,1.313
		c0.357,0.359,0.823,0.548,1.311,0.548c0.504,0,0.97-0.188,1.339-0.548c0.348-0.345,0.541-0.799,0.541-1.301
		C158.321,16.22,158.13,15.745,157.783,15.396L157.783,15.396z M157.961,15.22c0.396,0.396,0.61,0.929,0.61,1.498
		c0,0.58-0.215,1.1-0.614,1.489c-0.424,0.411-0.957,0.633-1.513,0.633c-0.562,0-1.09-0.223-1.496-0.633
		c-0.401-0.401-0.622-0.927-0.622-1.489s0.226-1.102,0.642-1.516c0.387-0.395,0.902-0.608,1.477-0.608
		C157.027,14.594,157.549,14.812,157.961,15.22L157.961,15.22z"/>
</g>
</svg>
