<?xml version="1.0" encoding="utf-8"?>
<!-- Generator: Adobe Illustrator 16.0.0, SVG Export Plug-In . SVG Version: 6.00 Build 0)  -->
<!DOCTYPE svg PUBLIC "-//W3C//DTD SVG 1.1//EN" "http://www.w3.org/Graphics/SVG/1.1/DTD/svg11.dtd">
<svg version="1.1" id="Layer_1" xmlns="http://www.w3.org/2000/svg" xmlns:xlink="http://www.w3.org/1999/xlink" x="0px" y="0px"
	 width="182.5px" height="40px" viewBox="0 0 182.5 40" enable-background="new 0 0 182.5 40" xml:space="preserve">
<g>
	<path fill="#ED1D24" d="M79.477,25.952c-2.916,0-5.003-1.75-5.003-4.488c0-2.705,2.162-4.504,5.003-4.504
		c2.836,0,4.999,1.788,4.999,4.504C84.476,24.202,82.373,25.952,79.477,25.952 M79.477,23.8c1.213,0,1.931-1.066,1.931-2.336
		c0-1.288-0.682-2.353-1.931-2.353c-1.307,0-1.933,1.064-1.933,2.353C77.544,22.733,78.26,23.8,79.477,23.8"/>
	<path fill="#ED1D24" d="M108.125,25.768V13.636h2.988v4.157h0.033c0.211-0.132,1.178-0.824,2.6-0.824
		c2.324,0,4.033,1.869,4.033,4.345c0,3.089-1.895,4.647-4.053,4.647c-1.633,0-2.463-0.761-2.666-0.981h-0.049l-0.047,0.788H108.125z
		 M114.684,21.464c0-1.148-0.658-2.17-1.801-2.17c-1.008,0-1.814,0.861-1.814,2.17c0,1.275,0.662,2.183,1.814,2.183
		C113.92,23.646,114.684,22.78,114.684,21.464"/>
	<path fill="#ED1D24" d="M92.409,17.179h2.997v8.608h-2.997V17.179z M93.907,12.82c-0.925,0-1.683,0.757-1.683,1.681
		s0.758,1.683,1.683,1.683c0.923,0,1.68-0.759,1.68-1.683S94.83,12.82,93.907,12.82"/>
	<path fill="#ED1D24" d="M130.236,25.777h2.91v-4.446c0-1.043,0.691-1.754,1.574-1.754c1.01,0,1.58,0.656,1.58,1.754v4.446h2.912
		v-5.182c0-1.951-1.256-3.619-3.557-3.619c-1.541,0-2.342,0.835-2.703,1.164h-0.062l-0.031-0.95h-2.623V25.777z"/>
	<polygon fill="#ED1D24" points="140.891,25.777 143.869,25.777 143.869,21.794 143.902,21.794 146.553,25.777 149.877,25.777 
		146.674,21.217 149.795,17.185 146.477,17.185 143.902,20.732 143.869,20.732 143.869,13.647 140.891,13.647 	"/>
	<path fill="#ED1D24" d="M73.878,17.304c-0.224-0.062-1.046-0.344-2.136-0.344c-2.694,0-4.714,1.688-4.714,4.498
		c0,2.555,1.813,4.496,4.596,4.496c1.183,0,2.056-0.314,2.254-0.374l-0.145-2.51c-0.231,0.104-0.827,0.445-1.517,0.445
		c-1.208,0-2.09-0.854-2.09-2.058c0-1.263,0.945-2.079,2.125-2.079c0.666,0,1.258,0.31,1.481,0.421L73.878,17.304z"/>
	<path fill="#ED1D24" d="M106.363,17.174v8.601h-2.908l-0.045-0.866h-0.062c-0.322,0.291-0.994,1.058-2.867,1.058
		c-2.08,0-3.899-1.806-3.899-4.502c0-2.495,1.613-4.493,4.091-4.493c1.685,0,2.371,0.743,2.632,0.98h0.074l0.029-0.777H106.363z
		 M99.749,21.386c0,1.423,0.793,2.314,1.822,2.314c0.931,0,1.839-0.874,1.839-2.194c0-1.336-0.805-2.246-1.839-2.246
		C100.5,19.26,99.749,20.214,99.749,21.386"/>
	<path fill="#ED1D24" d="M128.467,17.168v8.604h-2.906l-0.047-0.87h-0.061c-0.322,0.293-0.992,1.06-2.867,1.06
		c-2.078,0-3.9-1.807-3.9-4.501c0-2.498,1.615-4.492,4.092-4.492c1.686,0,2.371,0.74,2.629,0.978h0.078l0.027-0.778H128.467z
		 M121.854,21.38c0,1.424,0.795,2.313,1.822,2.313c0.934,0,1.838-0.872,1.838-2.193c0-1.333-0.805-2.245-1.838-2.245
		C122.605,19.255,121.854,20.209,121.854,21.38"/>
	<path fill="#ED1D24" d="M57.586,25.459c0.839,0.252,2.108,0.483,3.458,0.483c2.555,0,5.104-0.905,5.104-3.709
		c0-3.849-5.308-3.315-5.308-4.85c0-0.786,0.814-0.953,1.614-0.953c1.109,0,2.512,0.533,2.822,0.658l0.244-2.649
		c-0.777-0.267-1.951-0.416-3.054-0.416c-2.521,0-5.012,0.985-5.012,3.483c0,3.781,5.291,2.991,5.291,4.977
		c0,0.762-0.762,1.054-1.731,1.054c-1.337,0-2.591-0.667-3.136-0.91L57.586,25.459z"/>
	<path fill="#ED1D24" d="M91.121,23.43c-0.145,0.042-0.551,0.146-0.827,0.146c-0.605,0-1.269-0.286-1.269-1.338v-2.907h1.88v-2.162
		h-1.88v-2.771h-2.994v2.771h-1.309v2.162h1.309v3.402c0,1.873,0.868,3.214,3.083,3.214c0.642,0,1.232-0.084,1.64-0.164
		L91.121,23.43z"/>
	<path fill="#ED1D24" d="M34.045,19.932c-0.695-1.109-0.851-2.58-0.851-3.707c0-3.845,3.437-7.091,7.016-7.091h11.214l-4.35,4.39
		h-6.939C37.344,13.523,33.97,16.35,34.045,19.932 M38.324,16.782c0.288-0.922,1.189-2.104,2.041-2.729
		c-1.625,0-3.453,0.774-4.847,2.729H38.324z M40.567,14.601c-0.637,0.562-1.334,1.411-1.691,2.182h3.366
		C41.887,16.012,41.187,15.163,40.567,14.601 M35.238,17.352c-0.42,0.754-0.624,1.601-0.697,2.449h3.145
		c0-0.849,0.153-1.695,0.432-2.449H35.238z M38.664,17.352c-0.279,0.754-0.409,1.601-0.486,2.449h4.763
		c-0.076-0.849-0.204-1.695-0.483-2.449H38.664z M45.541,16.782c-1.333-1.954-3.159-2.729-4.762-2.729
		c0.825,0.624,1.678,1.807,2.033,2.729H45.541z M43.015,17.352c0.288,0.754,0.418,1.601,0.418,2.449h3.146
		c-0.053-0.849-0.266-1.695-0.699-2.449H43.015z M35.518,23.231c1.394,2.04,3.222,2.739,4.847,2.739
		c-0.852-0.649-1.753-1.831-2.041-2.739H35.518z M40.567,25.474c0.62-0.561,1.32-1.472,1.675-2.242h-3.366
		C39.233,24.002,39.93,24.913,40.567,25.474 M38.117,22.744c-0.278-0.851-0.432-1.683-0.432-2.451h-3.145
		c0.073,0.829,0.277,1.677,0.697,2.451H38.117z M42.457,22.744c0.279-0.774,0.407-1.622,0.483-2.451h-4.763
		c0.077,0.829,0.207,1.677,0.486,2.451H42.457z M42.812,23.231c-0.355,0.908-1.208,2.09-2.033,2.739
		c1.603,0,3.429-0.699,4.762-2.739H42.812z M45.88,22.744c0.434-0.774,0.646-1.622,0.699-2.451h-3.146
		c0,0.769-0.13,1.601-0.418,2.451H45.88z M47.075,20.007c0.074,3.715-3.286,6.521-6.092,6.521h-6.938l-4.351,4.338h11.214
		c3.577,0,7.013-3.225,7.013-7.067c0-1.131-0.135-2.602-0.847-3.717V20.007z"/>
	<path fill-rule="evenodd" clip-rule="evenodd" fill="#ED1D24" d="M149.518,15.484c0,0.906,0.738,1.646,1.645,1.646
		c0.904,0,1.643-0.74,1.643-1.646c0-0.907-0.738-1.645-1.643-1.645C150.256,13.84,149.518,14.577,149.518,15.484 M149.992,15.484
		c0-0.759,0.506-1.279,1.17-1.279c0.646,0,1.17,0.521,1.17,1.279s-0.523,1.279-1.17,1.279
		C150.498,16.764,149.992,16.243,149.992,15.484 M150.498,16.391h0.396v-0.775h0.188l0.438,0.775h0.398l-0.484-0.79
		c0.283-0.022,0.484-0.157,0.484-0.489c0-0.413-0.266-0.547-0.729-0.547h-0.691V16.391z M150.895,15.313v-0.451h0.275
		c0.154,0,0.359,0.026,0.359,0.215c0,0.206-0.129,0.236-0.318,0.236H150.895z"/>
</g>
</svg>
