<?xml version="1.0" encoding="utf-8"?>
<!-- Generator: Adobe Illustrator 16.0.0, SVG Export Plug-In . SVG Version: 6.00 Build 0)  -->
<!DOCTYPE svg PUBLIC "-//W3C//DTD SVG 1.1//EN" "http://www.w3.org/Graphics/SVG/1.1/DTD/svg11.dtd">
<svg version="1.1" id="Layer_1" xmlns="http://www.w3.org/2000/svg" xmlns:xlink="http://www.w3.org/1999/xlink" x="0px" y="0px"
	 width="182.5px" height="40px" viewBox="0 0 182.5 40" enable-background="new 0 0 182.5 40" xml:space="preserve">
<g>
	<path fill="#E86726" d="M46.193,9.081h3.256c-0.011,1.971,0.023,3.942-0.021,5.914c2.018-2.296,6.145-1.962,7.923,0.468
		c1.223,1.591,1.466,3.718,1.237,5.659c-0.256,2.061-1.514,4.095-3.507,4.856c-1.905,0.743-4.452,0.494-5.698-1.292
		c0.009,0.458,0.009,0.915,0.009,1.372h-3.201C46.191,20.399,46.189,14.74,46.193,9.081 M51.301,16.672
		c-2.012,0.805-2.39,3.565-1.383,5.285c0.8,1.475,3,1.854,4.264,0.768c1.324-1.117,1.452-3.174,0.771-4.675
		C54.345,16.714,52.634,16.126,51.301,16.672"/>
	<path fill="#E86726" d="M61.84,14.166c1.635-0.979,3.704-1.004,5.487-0.448c1.537,0.473,2.682,1.904,2.837,3.501
		c0.146,2.945-0.144,5.908,0.199,8.844c-1.021-0.008-2.044-0.01-3.068,0.005c-0.044-0.441-0.071-0.886-0.089-1.327
		c-1.575,2.026-4.918,2.226-6.727,0.421c-1.415-1.403-1.344-4.026,0.256-5.261c1.633-1.319,3.88-0.96,5.778-1.547
		c0.599-0.241,0.521-1.062,0.214-1.507c-0.617-0.86-1.866-0.89-2.778-0.567c-0.772,0.268-1.143,1.052-1.321,1.792
		c-0.983-0.208-1.969-0.407-2.947-0.645C59.892,16.094,60.658,14.85,61.84,14.166 M64.05,21.013c-0.69,0.128-1.331,0.757-1.234,1.5
		c-0.041,0.688,0.579,1.267,1.237,1.323c0.985,0.126,2.147-0.26,2.585-1.219c0.357-0.631,0.309-1.372,0.3-2.069
		C65.976,20.709,65.009,20.827,64.05,21.013"/>
	<path fill="#E86726" d="M75.22,15.106c1.319-1.891,4.214-2.21,6.063-0.94c1.267,0.888,1.759,2.509,1.777,3.993
		c0.002,2.653,0,5.304-0.002,7.958h-3.311c-0.007-2.415,0.004-4.83-0.005-7.247c-0.009-0.763-0.268-1.589-0.926-2.037
		c-0.894-0.583-2.234-0.455-2.929,0.387c-0.48,0.576-0.61,1.355-0.604,2.087c0.005,2.268,0.002,4.54,0.002,6.81h-3.312
		c-0.002-4.191-0.002-8.383-0.002-12.576h3.258C75.229,14.062,75.229,14.585,75.22,15.106"/>
	<path fill="#E86726" d="M93.968,14.956c2.169-2.087,5.938-2.126,8.189-0.158c1.607,1.463,1.953,3.777,1.815,5.844
		c-2.903,0.104-5.814,0.01-8.72,0.049c0.148,1.522,1.527,2.745,3.06,2.69c1.216,0.085,2.336-0.716,2.757-1.84
		c0.926,0.27,1.849,0.551,2.778,0.818c-0.46,1.473-1.521,2.762-2.957,3.37c-2.076,0.873-4.637,0.646-6.45-0.725
		C91.361,22.697,91.196,17.569,93.968,14.956 M95.978,17c-0.361,0.382-0.51,0.894-0.659,1.385c1.806,0.028,3.613,0.014,5.419,0.007
		c-0.117-0.604-0.283-1.242-0.777-1.653C98.852,15.774,96.928,15.835,95.978,17"/>
	<path fill="#E86726" d="M128.391,13.531c1.974-0.444,4.178-0.032,5.734,1.301c2.855,2.387,2.913,7.308,0.16,9.798
		c-2.364,2.165-6.428,2.177-8.744-0.068c-2.688-2.468-2.627-7.286,0.146-9.666C126.442,14.208,127.4,13.764,128.391,13.531
		 M129.282,16.464c-2.758,0.572-3.203,4.76-1.002,6.251c1.169,0.798,2.909,0.615,3.853-0.453c0.961-1.111,1.07-2.799,0.511-4.12
		C132.108,16.874,130.617,16.135,129.282,16.464"/>
	<path fill="#E86726" d="M84.375,13.54h3.202c0,0.592,0.002,1.184-0.009,1.778c0.8-1.502,2.666-1.973,4.241-1.728
		c-0.006,1.167,0.003,2.332-0.004,3.496c-0.913-0.089-1.904-0.171-2.728,0.315c-0.993,0.544-1.379,1.744-1.386,2.817
		c-0.002,1.964,0,3.929,0.002,5.896c-1.106,0.004-2.21,0-3.315,0.004C84.373,21.925,84.375,17.733,84.375,13.54"/>
	<path fill="#E86726" d="M107.172,14.453c1.923-1.297,4.959-1.395,6.544,0.494c-0.014-0.469-0.019-0.937-0.021-1.404
		c1.067-0.005,2.136-0.002,3.206-0.002c0.002,3.752-0.005,7.502,0.004,11.254c0.009,1.742-0.627,3.569-1.976,4.724
		c-1.765,1.45-4.287,1.692-6.437,1.104c-1.925-0.525-3.501-2.128-3.882-4.102c0.996-0.318,2.016-0.561,3.027-0.83
		c0.219,1.009,0.937,1.943,1.981,2.18c1.173,0.265,2.623,0.072,3.4-0.94c0.663-0.853,0.634-1.984,0.636-3.007
		c-1.706,1.98-4.966,1.75-6.887,0.206C103.795,21.773,104.005,16.554,107.172,14.453 M110.302,16.478
		c-2.127,0.322-2.886,3.096-1.802,4.758c0.76,1.262,2.586,1.573,3.823,0.864c1.706-1.018,1.848-3.764,0.356-5.031
		C112.042,16.51,111.125,16.302,110.302,16.478"/>
	<path fill="#E86726" d="M118.729,13.542c1.105-0.002,2.209-0.002,3.316-0.002v12.576h-3.316V13.542z"/>
</g>
</svg>
