<svg xmlns="http://www.w3.org/2000/svg" width="127.346" height="13.601" viewBox="0 0 127.346 13.601"><defs><style>.a{fill:#fff;}</style></defs><g transform="translate(0 -11.459)"><path class="a" d="M0,19.408V19.27a6.018,6.018,0,1,1,12.028-.034v.137A6.018,6.018,0,1,1,0,19.408Zm11.025-.052v-.138c0-3.007-1.987-5.409-5.011-5.409S.985,16.142.985,19.253v.137a5.134,5.134,0,0,0,5.063,5.443C9,24.834,11.025,22.519,11.025,19.356Z" transform="translate(0 -0.639)"/><path class="a" d="M24.206,16.609H22.841v-.778h1.365V14.207c0-1.883,1.054-2.748,2.557-2.748a2.907,2.907,0,0,1,1,.156v.777a3.071,3.071,0,0,0-.968-.156c-1,0-1.676.57-1.676,1.883v1.711h2.523v.778H25.122v8.26h-.916Z" transform="translate(-9.382)"/><path class="a" d="M33.954,14.034a.653.653,0,0,1,.657-.639.648.648,0,0,1,0,1.3A.656.656,0,0,1,33.954,14.034Zm.207,2.592h.916v9.038h-.916Z" transform="translate(-13.947 -0.795)"/><path class="a" d="M39.584,23.4v-.138a4.344,4.344,0,0,1,4.32-4.614,3.481,3.481,0,0,1,3.768,3.007h-.9A2.639,2.639,0,0,0,43.9,19.423c-1.884,0-3.37,1.451-3.37,3.837V23.4c0,2.386,1.469,3.785,3.37,3.785a2.844,2.844,0,0,0,3.007-2.488h.847A3.707,3.707,0,0,1,43.9,27.96,4.28,4.28,0,0,1,39.584,23.4Z" transform="translate(-16.26 -2.952)"/><path class="a" d="M56.737,14.034a.653.653,0,0,1,.656-.639.648.648,0,0,1,0,1.3A.656.656,0,0,1,56.737,14.034Zm.207,2.592h.916v9.038h-.916Z" transform="translate(-23.305 -0.795)"/><path class="a" d="M63.51,18.782h.916v1.763a3.411,3.411,0,0,1,3.2-1.9c1.918,0,3.214,1.037,3.214,3.611v5.564h-.916V22.2c0-1.918-.9-2.764-2.505-2.764a2.85,2.85,0,0,0-2.99,2.9V27.82H63.51Z" transform="translate(-26.088 -2.951)"/><path class="a" d="M79.49,25.384c0-2.091,2-2.73,4.234-2.73h1.884v-.813c0-1.694-.692-2.419-2.281-2.419a2.249,2.249,0,0,0-2.541,1.918h-.9c.207-1.9,1.763-2.7,3.474-2.7,1.884,0,3.162.9,3.162,3.2V27.82h-.916V26.438a3.407,3.407,0,0,1-3.059,1.521C80.769,27.96,79.49,27.1,79.49,25.384Zm6.117-.483V23.362h-1.85c-1.883,0-3.352.4-3.352,2.022,0,1.158.726,1.832,2.211,1.832C84.277,27.216,85.607,26.249,85.607,24.9Z" transform="translate(-32.652 -2.952)"/><path class="a" d="M102.654,19.384v-.138a6.109,6.109,0,0,1,6.359-6.291,6.006,6.006,0,0,1,6.359,6.222v.138a6.359,6.359,0,0,1-12.718.069Zm9.8-.034v-.137c0-2.4-1.279-4.044-3.439-4.044-2.142,0-3.439,1.573-3.439,4.062v.137c0,2.523,1.452,4.079,3.474,4.079C111.139,23.445,112.452,21.837,112.452,19.349Z" transform="translate(-42.166 -0.615)"/><path class="a" d="M127.284,18.783h2.506v1.729a2.967,2.967,0,0,1,2.92-1.867v2.333c-1.85-.017-2.92.588-2.92,2.316v4.528h-2.506Z" transform="translate(-52.283 -2.952)"/><path class="a" d="M138.045,23.349v-.138a4.532,4.532,0,0,1,4.77-4.683,4.485,4.485,0,0,1,4.752,4.631V23.3a4.762,4.762,0,0,1-9.521.052Zm6.982-.035v-.121c0-1.728-.813-2.765-2.212-2.765-1.383,0-2.212,1-2.212,2.731V23.3c0,1.729.8,2.765,2.212,2.765C144.214,26.062,145.027,25.026,145.027,23.314Z" transform="translate(-56.704 -2.904)"/><g transform="translate(100.807 11.968)"><path class="a" d="M181.325,14.221a1.9,1.9,0,1,1-1.9-1.9,1.9,1.9,0,0,1,1.9,1.9" transform="translate(-173.729 -12.322)"/><path class="a" d="M181.325,21.676a1.9,1.9,0,1,1-1.9-1.9,1.9,1.9,0,0,1,1.9,1.9" transform="translate(-173.729 -15.385)"/><path class="a" d="M181.325,29.133a1.9,1.9,0,1,1-1.9-1.9,1.9,1.9,0,0,1,1.9,1.9" transform="translate(-173.729 -18.447)"/><path class="a" d="M173.927,16.314a1.9,1.9,0,1,1-2.593.694,1.9,1.9,0,0,1,2.593-.694" transform="translate(-171.081 -13.857)"/><path class="a" d="M186.841,23.766a1.9,1.9,0,1,1-2.593.7,1.9,1.9,0,0,1,2.593-.7" transform="translate(-176.385 -16.919)"/><path class="a" d="M172.035,23.767a1.9,1.9,0,1,1-.693,2.593,1.9,1.9,0,0,1,.693-2.593" transform="translate(-171.083 -16.919)"/><path class="a" d="M184.949,16.313a1.9,1.9,0,1,1-.694,2.593,1.9,1.9,0,0,1,.694-2.593" transform="translate(-176.387 -13.857)"/></g><g transform="translate(115.935 11.968)"><path class="a" d="M207,14.221a1.9,1.9,0,1,1-1.9-1.9,1.9,1.9,0,0,1,1.9,1.9" transform="translate(-199.403 -12.322)"/><path class="a" d="M207,21.676a1.9,1.9,0,1,1-1.9-1.9,1.9,1.9,0,0,1,1.9,1.9" transform="translate(-199.403 -15.385)"/><path class="a" d="M207,29.133a1.9,1.9,0,1,1-1.9-1.9,1.9,1.9,0,0,1,1.9,1.9" transform="translate(-199.403 -18.447)"/><path class="a" d="M199.6,16.314a1.9,1.9,0,1,1-2.593.694,1.9,1.9,0,0,1,2.593-.694" transform="translate(-196.754 -13.857)"/><path class="a" d="M212.515,23.766a1.9,1.9,0,1,1-2.593.7,1.9,1.9,0,0,1,2.593-.7" transform="translate(-202.059 -16.919)"/><path class="a" d="M197.711,23.767a1.9,1.9,0,1,1-.694,2.593,1.9,1.9,0,0,1,.694-2.593" transform="translate(-196.757 -16.919)"/><path class="a" d="M210.623,16.313a1.9,1.9,0,1,1-.694,2.593,1.9,1.9,0,0,1,.694-2.593" transform="translate(-202.061 -13.857)"/></g></g></svg>