<?xml version="1.0" encoding="utf-8"?>
<!-- Generator: Adobe Illustrator 16.0.0, SVG Export Plug-In . SVG Version: 6.00 Build 0)  -->
<!DOCTYPE svg PUBLIC "-//W3C//DTD SVG 1.1//EN" "http://www.w3.org/Graphics/SVG/1.1/DTD/svg11.dtd">
<svg version="1.1" id="Layer_1" xmlns="http://www.w3.org/2000/svg" xmlns:xlink="http://www.w3.org/1999/xlink" x="0px" y="0px"
	 width="117.25px" height="40px" viewBox="0 0 117.25 40" enable-background="new 0 0 117.25 40" xml:space="preserve">
<g>
	<polygon fill="#E42613" points="62.572,20 48.688,6.116 48.688,33.885 	"/>
	<polygon fill="#E42613" points="34.804,20 48.688,6.115 20.919,6.115 	"/>
	<polygon fill="#E42613" points="7.035,20 20.92,33.885 20.92,6.115 	"/>
	<polygon fill="#E42613" points="34.804,20 20.919,33.885 48.688,33.885 	"/>
	<g>
		<polygon points="74.76,20.844 69.726,20.844 69.726,25.814 67.2,25.814 67.2,14.185 69.726,14.185 69.726,18.947 74.76,18.947 
			74.76,14.185 77.285,14.185 77.285,25.814 74.76,25.814 		"/>
		<path d="M83.331,26.023c-2.51,0-4.568-0.998-4.616-3.779h2.524c0.032,1.238,0.757,1.977,2.14,1.977
			c1.028,0,2.188-0.514,2.188-1.672c0-0.9-0.788-1.189-2.091-1.561l-0.836-0.24c-1.834-0.532-3.651-1.239-3.651-3.33
			c0-2.589,2.412-3.458,4.615-3.458c2.269,0,4.215,0.789,4.23,3.361H85.31c-0.098-1.062-0.708-1.673-1.899-1.673
			c-0.932,0-1.865,0.5-1.865,1.528c0,0.854,0.772,1.111,2.413,1.625l0.966,0.305c1.993,0.628,3.248,1.318,3.248,3.25
			C88.172,25.01,85.615,26.023,83.331,26.023"/>
		<path d="M89.595,14.186h4.036c1.271,0,1.785,0.032,2.283,0.145c1.416,0.322,2.478,1.238,2.478,2.798
			c0,1.495-0.949,2.267-2.316,2.622c1.576,0.289,2.734,1.093,2.734,2.816c0,2.637-2.605,3.248-4.647,3.248h-4.567V14.186z
			 M93.646,19.027c1.111,0,2.236-0.226,2.236-1.577c0-1.206-1.062-1.528-2.075-1.528h-1.77v3.104H93.646z M93.888,24.076
			c1.175,0,2.334-0.273,2.334-1.688c0-1.385-0.998-1.705-2.188-1.705h-1.995v3.393H93.888z"/>
		<path d="M105.39,26.023c-3.747,0-5.437-2.398-5.437-5.935c0-3.506,1.866-6.128,5.565-6.128c2.316,0,4.567,1.03,4.632,3.667h-2.605
			c-0.128-1.158-0.9-1.769-2.026-1.769c-2.269,0-2.96,2.445-2.96,4.311c0,1.849,0.691,4.005,2.879,4.005
			c1.142,0,1.979-0.611,2.155-1.785h2.622C109.926,25.025,107.802,26.023,105.39,26.023"/>
	</g>
</g>
</svg>
