<?xml version="1.0" encoding="utf-8"?>
<!-- Generator: Adobe Illustrator 16.0.0, SVG Export Plug-In . SVG Version: 6.00 Build 0)  -->
<!DOCTYPE svg PUBLIC "-//W3C//DTD SVG 1.1//EN" "http://www.w3.org/Graphics/SVG/1.1/DTD/svg11.dtd">
<svg version="1.1" id="Layer_1" xmlns="http://www.w3.org/2000/svg" xmlns:xlink="http://www.w3.org/1999/xlink" x="0px" y="0px"
	 width="159px" height="40px" viewBox="0 0 159 40" enable-background="new 0 0 159 40" xml:space="preserve">
<g>
	<g>
		<path fill="#00953A" d="M56.143,29.534l-3.526-5.123c-0.11-0.195-0.322-0.324-0.56-0.324c-0.354,0-0.648,0.29-0.648,0.646
			c0,0.157,0.057,0.291,0.14,0.4l2.382,3.456c0,0.001,0.003,0.005,0.003,0.005l0.392,0.57c0.024,0.04,0.028,0.083,0.011,0.126
			c-0.025,0.039-0.062,0.064-0.107,0.064h-7.11c-0.358-0.01-0.702-0.111-1.015-0.323c-0.829-0.574-1.037-1.704-0.467-2.536
			l3.942-5.731c0.083-0.108,0.129-0.237,0.129-0.383c0-0.356-0.29-0.648-0.652-0.648c-0.227,0-0.427,0.121-0.538,0.295l-7.3,10.604
			l14.345,0.007c0.259,0,0.499-0.146,0.624-0.379C56.308,30.03,56.29,29.753,56.143,29.534z M41.511,23.328
			c0-0.877,0.276-1.685,0.742-2.352l3.652-5.312c0.082-0.113,0.14-0.25,0.14-0.4c0-0.37-0.302-0.665-0.667-0.665
			c-0.24,0-0.448,0.127-0.563,0.313L34.006,30.637h5.973l2.913-4.238C42.045,25.646,41.511,24.553,41.511,23.328z M36.901,19.483
			c0-0.867,0.269-1.672,0.725-2.334l3.988-5.797c0,0,0.051-0.075,0.064-0.101c0.021-0.02,0.044-0.043,0.098-0.043
			c0.057,0,0.079,0.023,0.097,0.041c0.018,0.027,0.072,0.103,0.072,0.103l0.824,1.188c0.126,0.181,0.323,0.278,0.527,0.278
			c0.126,0,0.255-0.037,0.373-0.118c0.291-0.201,0.359-0.605,0.161-0.896l-1.51-2.166c-0.204-0.294-0.605-0.364-0.9-0.162
			c-0.064,0.042-0.15,0.153-0.15,0.153L27.542,29.534c-0.144,0.212-0.165,0.489-0.043,0.723c0.122,0.234,0.366,0.38,0.628,0.38
			l4.635-0.005l5.542-8.054C37.442,21.822,36.901,20.717,36.901,19.483z"/>
		<g>
			<path fill="#00953A" d="M69.336,20.185c0,0-1.643,4.127-1.969,4.987h3.878C70.922,24.312,69.336,20.185,69.336,20.185
				 M76.755,30.637h-2.152c-1.241,0-1.657-1.108-1.657-1.108l-1.213-3.121h-4.854l-1.632,4.229h-1.884
				c0,0,4.334-10.516,5.775-14.021c0.072-0.175,0.23-0.477,0.578-0.477c0.319,0.004,1.213,0,1.213,0L76.755,30.637z"/>
			<path fill="#00953A" d="M99.146,17.771c-0.86-0.506-2.12-0.431-2.12-0.431l0.015,5.731c0,0,1.213,0.106,2.167-0.521
				c0.62-0.412,1.141-1.138,1.141-2.413C100.348,18.854,99.799,18.153,99.146,17.771 M97.025,23.938l0.008,6.701h-3.44V16.732
				c0,0-0.014-0.589,0.639-0.589h4.165c0.527,0,0.982,0.019,1.363,0.041c0.376,0.031,0.699,0.07,0.972,0.123
				c0.272,0.06,0.51,0.133,0.714,0.224c0.201,0.093,0.392,0.2,0.574,0.327c0.416,0.309,0.746,0.687,0.989,1.139
				c0.248,0.452,0.373,0.997,0.373,1.626c0,1.02-0.279,1.85-0.835,2.493c-0.567,0.642-1.367,1.095-2.411,1.36
				c0.671,1.188,4.459,7.162,4.459,7.162s-1.453-0.002-2.554-0.002c-1.346,0-1.851-1.155-1.851-1.155l-2.979-5.544H97.025z"/>
			<path fill="#00953A" d="M77.824,16.747c0,0-0.004-0.607,0.646-0.607c1.7,0,5.907,0,7.468,0.004v1.107
				c0,0.801-0.735,0.707-0.735,0.707c-0.67,0-3.942,0.002-3.942,0.002v4.256l4.589,0.002v1.164c0,0,0.046,0.635-0.668,0.635
				c0,0-2.342,0-3.921,0l0.004,6.622h-3.439V16.747z"/>
			<path fill="#00953A" d="M87.592,16.84c0,0-0.083-0.7,0.628-0.7h2.822v14.497h-3.45V16.84z"/>
			<path fill="#00953A" d="M106.718,30.637h-1.973l2.099-14.041c0,0,0.064-0.456,0.603-0.456h1.162l4.832,10.119l4.886-10.119h1.271
				c0.474,0,0.573,0.456,0.573,0.456l1.732,14.041h-3.429c0,0-0.674-8.007-0.836-9.656h-0.047l-4.631,9.656h-0.793
				c0,0-3.773-7.842-4.566-9.445h-0.043L106.718,30.637z"/>
			<path fill="#00953A" d="M123.478,16.663c0,0,0.036-0.525,0.642-0.525h7.462c0,0,0,0.906,0,1.19c0,0.562-0.506,0.628-0.506,0.628
				h-4.222v4.26h4.648v1.094c0,0.715-0.556,0.71-0.556,0.71l-4.093-0.003v4.839l4.728,0.004v1.168c0,0,0.008,0.609-0.628,0.609
				h-7.476V16.663z"/>
		</g>
	</g>
</g>
</svg>
