<?xml version="1.0" encoding="utf-8"?>
<!-- Generator: Adobe Illustrator 16.0.0, SVG Export Plug-In . SVG Version: 6.00 Build 0)  -->
<!DOCTYPE svg PUBLIC "-//W3C//DTD SVG 1.1//EN" "http://www.w3.org/Graphics/SVG/1.1/DTD/svg11.dtd">
<svg version="1.1" id="Layer_1" xmlns="http://www.w3.org/2000/svg" xmlns:xlink="http://www.w3.org/1999/xlink" x="0px" y="0px"
	 width="182.5px" height="40px" viewBox="0 0 182.5 40" enable-background="new 0 0 182.5 40" xml:space="preserve">
<g>
	<path fill="#11284A" d="M49.199,13.566c-1.765,0-3.3,0.626-4.555,1.879c-1.251,1.252-1.879,2.789-1.879,4.554
		c0,1.82,0.627,3.301,1.879,4.555c1.254,1.311,2.79,1.935,4.555,1.935c1.766,0,3.302-0.624,4.555-1.935
		c1.251-1.254,1.877-2.734,1.877-4.555c0-1.763-0.626-3.3-1.877-4.554C52.501,14.192,50.965,13.566,49.199,13.566L49.199,13.566z"/>
	<path fill="#11284A" d="M49.199,12.428V5.085c-2.618,0-5.066,0.684-7.342,1.935v11.158c0.399-1.65,1.31-3.017,2.619-4.043
		C45.898,12.998,47.434,12.428,49.199,12.428L49.199,12.428z"/>
	<path fill="#11284A" d="M47.604,27.511c-1.706-0.396-3.072-1.307-4.098-2.673c-1.139-1.367-1.652-2.905-1.652-4.67h-7.57
		c0,2.617,0.683,5.069,1.993,7.341h11.327V27.511z"/>
	<path fill="#11284A" d="M56.599,21.934c-0.398,1.653-1.253,3.019-2.619,4.101c-1.365,1.081-2.96,1.65-4.725,1.65v7.23
		c2.619,0,5.067-0.627,7.343-1.938L56.599,21.934L56.599,21.934z"/>
	<path fill="#11284A" d="M64.114,19.941c0-2.618-0.685-5.066-1.993-7.344H51.078c1.707,0.398,3.074,1.311,4.099,2.619
		c1.139,1.424,1.651,2.961,1.651,4.725H64.114L64.114,19.941z"/>
	<polygon fill="#11284A" points="67.528,12.998 67.528,21.649 70.146,21.649 70.146,12.998 	"/>
	<polygon fill="#11284A" points="83.867,12.998 81.19,12.998 81.19,19.259 81.19,19.259 76.125,12.998 72.026,12.998 72.026,21.649 
		74.702,21.649 74.702,15.331 74.702,15.331 79.712,21.649 83.867,21.649 	"/>
	<path fill="#11284A" d="M88.25,16.413v-1.366h4.725c0.513,0,0.797,0.229,0.797,0.683c0,0.456-0.284,0.684-0.797,0.684H88.25
		L88.25,16.413z M88.25,18.178h4.783c0.625,0,0.967,0.284,0.967,0.738c0,0.455-0.342,0.626-0.967,0.626H88.25V18.178L88.25,18.178z
		 M95.138,17.268v-0.057c0.454-0.115,0.739-0.285,0.911-0.512c0.285-0.285,0.398-0.796,0.398-1.481c0-0.796-0.287-1.365-0.797-1.764
		c-0.513-0.341-1.311-0.455-2.391-0.455h-7.686v8.651h8.538c0.855,0,1.479-0.114,1.878-0.398c0.457-0.398,0.742-1.023,0.742-1.879
		c0-0.681-0.115-1.193-0.344-1.477C96.105,17.552,95.707,17.323,95.138,17.268L95.138,17.268z"/>
	<path fill="#11284A" d="M109.197,12.998h-2.617v5.01c0,0.513-0.174,0.91-0.344,1.139c-0.229,0.282-0.682,0.396-1.195,0.396h-2.619
		c-0.568,0-0.91-0.114-1.193-0.396c-0.23-0.229-0.285-0.626-0.285-1.139v-5.01h-2.677v5.578c0,1.082,0.284,1.879,0.854,2.391
		c0.57,0.568,1.48,0.797,2.676,0.797h3.871c1.195,0,2.107-0.229,2.676-0.797c0.57-0.512,0.854-1.309,0.854-2.391V12.998
		L109.197,12.998z"/>
	<path fill="#11284A" d="M113.58,17.211v-2.107c1.404,0,2.809,0,4.213,0c0.713,0,1.197,0.122,1.197,0.91c0,0.096,0,0.19,0,0.285
		c0,0.626-0.344,0.912-0.969,0.912H113.58L113.58,17.211z M113.58,19.429h4.213c0.398,0,0.686,0.058,0.854,0.228
		c0.174,0.17,0.229,0.512,0.229,0.969v1.022h2.676v-1.479c0-0.626-0.113-1.138-0.398-1.423c-0.229-0.228-0.568-0.397-1.023-0.512
		c0.568-0.114,0.969-0.398,1.197-0.74c0.168-0.342,0.283-0.796,0.283-1.424v-0.511c0-0.854-0.172-1.48-0.512-1.878
		c-0.459-0.512-1.139-0.683-2.107-0.683h-8.084v8.651h2.676v-2.221H113.58z"/>
	<path fill="#11284A" d="M129.008,16.241l-2.676-0.112c-0.17,0-0.34-0.115-0.398-0.228c-0.057-0.058-0.113-0.228-0.113-0.398
		c0-0.456,0.342-0.683,1.025-0.683h2.959c0.57,0,0.969,0.057,1.139,0.17c0.113,0.115,0.172,0.342,0.172,0.739h2.676v-0.282
		c0-0.911-0.17-1.538-0.57-1.879c-0.455-0.512-1.424-0.74-2.789-0.74h-3.758c-1.537,0-2.561,0.284-3.016,0.797
		c-0.344,0.398-0.516,1.08-0.516,1.992c0,0.626,0.059,1.024,0.172,1.366c0.057,0.341,0.285,0.569,0.57,0.796
		c0.568,0.341,1.766,0.511,3.758,0.511l3.188,0.115c0.227,0,0.398,0.114,0.455,0.227l0.113,0.456c0,0.283-0.113,0.511-0.342,0.624
		l-0.797,0.113h-3.301l-0.854-0.17c-0.172-0.113-0.285-0.397-0.285-0.854h-2.678v0.625c0,0.911,0.287,1.537,0.801,1.877
		c0.453,0.287,1.365,0.457,2.617,0.457h3.244c1.766,0,2.961-0.17,3.473-0.513c0.344-0.17,0.57-0.454,0.684-0.796
		c0.113-0.341,0.172-0.854,0.172-1.423c0-0.683-0.059-1.138-0.229-1.479c-0.113-0.399-0.398-0.684-0.742-0.854
		C132.539,16.356,131.172,16.241,129.008,16.241L129.008,16.241z"/>
	<polygon fill="#11284A" points="143.012,12.998 139.539,12.998 134.816,21.649 137.832,21.649 138.572,20.113 139.596,18.234 
		141.303,14.989 143.012,18.234 139.596,18.234 138.572,20.113 144.037,20.113 144.834,21.649 147.793,21.649 	"/>
	<path fill="#11284A" d="M89.355,28.474v-0.675l2.454-0.005v2.146c-0.376,0.302-0.764,0.527-1.164,0.679
		c-0.402,0.151-0.812,0.228-1.233,0.228c-0.569,0-1.085-0.121-1.552-0.366c-0.465-0.242-0.816-0.596-1.051-1.058
		c-0.238-0.459-0.356-0.975-0.356-1.544c0-0.562,0.118-1.086,0.354-1.575c0.234-0.489,0.575-0.854,1.016-1.09
		c0.443-0.236,0.952-0.354,1.529-0.354c0.418,0,0.796,0.066,1.135,0.2c0.338,0.135,0.603,0.325,0.794,0.566
		c0.194,0.243,0.339,0.559,0.44,0.949l-0.692,0.189c-0.087-0.296-0.196-0.527-0.324-0.694c-0.129-0.171-0.312-0.308-0.554-0.404
		c-0.238-0.102-0.504-0.153-0.797-0.153c-0.349,0-0.653,0.052-0.907,0.161c-0.256,0.104-0.461,0.246-0.619,0.421
		c-0.156,0.173-0.277,0.365-0.366,0.572c-0.146,0.358-0.22,0.746-0.22,1.165c0,0.515,0.088,0.948,0.267,1.293
		c0.177,0.349,0.437,0.605,0.775,0.772c0.339,0.17,0.701,0.257,1.082,0.257c0.333,0,0.656-0.066,0.972-0.196
		c0.317-0.126,0.555-0.261,0.718-0.406v-1.081h-1.702V28.474z"/>
	<path fill="#11284A" d="M92.839,30.746v-4.193h0.642v0.635c0.161-0.295,0.312-0.492,0.451-0.588
		c0.139-0.093,0.292-0.144,0.457-0.144c0.238,0,0.482,0.078,0.729,0.231l-0.244,0.66c-0.172-0.104-0.347-0.158-0.521-0.158
		c-0.156,0-0.295,0.051-0.42,0.142c-0.124,0.096-0.21,0.226-0.264,0.391c-0.08,0.252-0.119,0.528-0.119,0.828v2.196H92.839
		L92.839,30.746z"/>
	<path fill="#11284A" d="M98.289,30.746v-0.614c-0.326,0.473-0.771,0.708-1.331,0.708c-0.247,0-0.479-0.047-0.693-0.142
		c-0.213-0.095-0.372-0.214-0.478-0.359c-0.105-0.143-0.18-0.317-0.221-0.526c-0.027-0.141-0.041-0.361-0.041-0.664v-2.6h0.709
		v2.326c0,0.372,0.016,0.621,0.041,0.754c0.047,0.186,0.142,0.329,0.287,0.438c0.146,0.106,0.324,0.16,0.537,0.16
		s0.414-0.056,0.602-0.165c0.186-0.109,0.316-0.257,0.395-0.443c0.078-0.191,0.117-0.466,0.117-0.821v-2.249h0.711v4.194h-0.635
		V30.746z"/>
	<path fill="#11284A" d="M100.039,32.353v-5.8h0.649v0.543c0.15-0.211,0.323-0.371,0.519-0.479c0.189-0.109,0.424-0.162,0.697-0.162
		c0.361,0,0.676,0.092,0.947,0.276c0.273,0.186,0.482,0.442,0.619,0.779c0.141,0.335,0.209,0.706,0.209,1.104
		c0,0.427-0.076,0.82-0.23,1.163s-0.377,0.604-0.672,0.789c-0.293,0.184-0.602,0.272-0.926,0.272c-0.236,0-0.449-0.05-0.639-0.147
		c-0.189-0.102-0.342-0.226-0.463-0.381v2.041H100.039L100.039,32.353z M100.684,28.673c0,0.539,0.108,0.938,0.326,1.198
		c0.221,0.255,0.484,0.385,0.795,0.385c0.314,0,0.588-0.133,0.811-0.4c0.227-0.269,0.34-0.681,0.34-1.241
		c0-0.534-0.111-0.936-0.33-1.201s-0.482-0.398-0.787-0.398s-0.572,0.141-0.807,0.422C100.801,27.722,100.684,28.134,100.684,28.673
		L100.684,28.673z"/>
	<path fill="#11284A" d="M104.273,28.649c0-0.776,0.215-1.353,0.648-1.729c0.361-0.309,0.799-0.465,1.318-0.465
		c0.576,0,1.049,0.189,1.414,0.568c0.367,0.376,0.547,0.899,0.547,1.563c0,0.541-0.08,0.965-0.24,1.274
		c-0.164,0.312-0.4,0.55-0.709,0.724c-0.311,0.17-0.646,0.255-1.012,0.255c-0.588,0-1.062-0.186-1.424-0.562
		C104.453,29.9,104.273,29.358,104.273,28.649L104.273,28.649z M105.004,28.649c0,0.538,0.117,0.936,0.352,1.206
		c0.234,0.268,0.531,0.4,0.885,0.4c0.35,0,0.646-0.133,0.879-0.4c0.232-0.269,0.352-0.678,0.352-1.228
		c0-0.521-0.117-0.915-0.354-1.183c-0.236-0.267-0.529-0.399-0.881-0.399c-0.354,0-0.648,0.133-0.883,0.399
		C105.121,27.711,105.004,28.112,105.004,28.649L105.004,28.649z"/>
	<polygon fill="#11284A" points="111.412,30.746 111.412,24.958 115.32,24.958 115.32,25.641 112.182,25.641 112.182,27.435 
		114.896,27.435 114.896,28.117 112.182,28.117 112.182,30.746 	"/>
	<path fill="#11284A" d="M116.229,25.776v-0.818h0.709v0.818H116.229L116.229,25.776z M116.229,30.746v-4.193h0.709v4.193H116.229
		L116.229,30.746z"/>
	<path fill="#11284A" d="M118.021,30.746v-4.193h0.641v0.595c0.309-0.46,0.754-0.691,1.332-0.691c0.256,0,0.486,0.048,0.699,0.136
		c0.211,0.094,0.371,0.213,0.475,0.361c0.105,0.146,0.182,0.318,0.223,0.525c0.027,0.133,0.041,0.362,0.041,0.69v2.579h-0.713
		v-2.552c0-0.286-0.029-0.504-0.082-0.649c-0.055-0.145-0.154-0.257-0.295-0.342c-0.141-0.087-0.307-0.131-0.494-0.131
		c-0.305,0-0.562,0.097-0.787,0.289c-0.217,0.193-0.326,0.555-0.326,1.093v2.292h-0.713V30.746z"/>
	<path fill="#11284A" d="M125.256,30.229c-0.264,0.224-0.516,0.38-0.76,0.476c-0.244,0.094-0.506,0.138-0.785,0.138
		c-0.461,0-0.812-0.11-1.062-0.336c-0.244-0.227-0.367-0.515-0.367-0.866c0-0.203,0.045-0.393,0.141-0.56
		c0.092-0.173,0.213-0.309,0.365-0.409c0.152-0.104,0.322-0.182,0.512-0.234c0.141-0.037,0.352-0.076,0.633-0.105
		c0.574-0.069,0.996-0.147,1.27-0.247c0.002-0.097,0.004-0.157,0.004-0.186c0-0.289-0.07-0.494-0.203-0.611
		c-0.18-0.16-0.451-0.242-0.809-0.242c-0.334,0-0.58,0.059-0.742,0.174c-0.158,0.119-0.275,0.326-0.352,0.624l-0.695-0.096
		c0.064-0.298,0.166-0.537,0.311-0.719c0.145-0.181,0.355-0.323,0.629-0.424c0.271-0.098,0.592-0.147,0.951-0.147
		c0.357,0,0.648,0.041,0.873,0.127c0.223,0.084,0.387,0.19,0.494,0.319c0.104,0.127,0.178,0.287,0.221,0.482
		c0.023,0.122,0.035,0.34,0.035,0.655v0.947c0,0.661,0.014,1.078,0.045,1.256c0.029,0.172,0.09,0.342,0.18,0.501h-0.744
		C125.326,30.6,125.277,30.427,125.256,30.229L125.256,30.229z M125.199,28.641c-0.26,0.106-0.648,0.195-1.164,0.269
		c-0.293,0.043-0.5,0.091-0.619,0.143c-0.121,0.054-0.215,0.128-0.281,0.232c-0.066,0.101-0.098,0.212-0.098,0.337
		c0,0.191,0.072,0.349,0.215,0.477c0.141,0.125,0.354,0.186,0.629,0.186s0.52-0.059,0.73-0.179c0.213-0.119,0.369-0.284,0.471-0.491
		c0.078-0.161,0.117-0.398,0.117-0.711V28.641L125.199,28.641z"/>
	<path fill="#11284A" d="M127.02,30.746v-4.193h0.637v0.595c0.312-0.46,0.756-0.691,1.336-0.691c0.254,0,0.486,0.048,0.697,0.136
		c0.211,0.094,0.371,0.213,0.477,0.361c0.105,0.146,0.18,0.318,0.223,0.525c0.025,0.133,0.039,0.362,0.039,0.69v2.579h-0.711v-2.552
		c0-0.286-0.027-0.504-0.084-0.649c-0.055-0.142-0.152-0.257-0.293-0.342c-0.143-0.087-0.309-0.131-0.498-0.131
		c-0.303,0-0.562,0.097-0.783,0.289c-0.219,0.193-0.33,0.555-0.33,1.093v2.292h-0.709V30.746z"/>
	<path fill="#11284A" d="M134.252,29.21l0.701,0.093c-0.078,0.48-0.271,0.857-0.59,1.129c-0.311,0.274-0.699,0.409-1.156,0.409
		c-0.574,0-1.035-0.186-1.385-0.562c-0.352-0.374-0.523-0.912-0.523-1.613c0-0.452,0.074-0.848,0.223-1.188
		c0.15-0.341,0.379-0.597,0.688-0.767c0.305-0.169,0.639-0.255,0.998-0.255c0.457,0,0.83,0.117,1.117,0.349
		c0.291,0.229,0.479,0.555,0.559,0.98l-0.691,0.106c-0.066-0.281-0.18-0.494-0.348-0.635c-0.168-0.144-0.369-0.216-0.609-0.216
		c-0.355,0-0.648,0.13-0.873,0.386c-0.225,0.258-0.336,0.661-0.336,1.22c0,0.561,0.107,0.973,0.324,1.227
		c0.217,0.253,0.498,0.382,0.848,0.382c0.277,0,0.51-0.083,0.697-0.257C134.086,29.828,134.201,29.565,134.252,29.21L134.252,29.21z
		"/>
	<path fill="#11284A" d="M135.562,25.776v-0.818h0.713v0.818H135.562L135.562,25.776z M135.562,30.746v-4.193h0.713v4.193H135.562
		L135.562,30.746z"/>
	<path fill="#11284A" d="M140.229,29.396l0.734,0.091c-0.115,0.429-0.33,0.762-0.645,0.998c-0.312,0.235-0.711,0.355-1.201,0.355
		c-0.613,0-1.1-0.188-1.457-0.566c-0.359-0.376-0.539-0.906-0.539-1.589c0-0.706,0.186-1.254,0.545-1.645
		c0.363-0.387,0.832-0.585,1.412-0.585c0.561,0,1.02,0.191,1.375,0.574c0.357,0.379,0.535,0.919,0.535,1.611
		c0,0.041-0.002,0.106-0.004,0.192h-3.129c0.027,0.458,0.156,0.812,0.393,1.057c0.234,0.245,0.525,0.366,0.875,0.366
		c0.262,0,0.484-0.068,0.67-0.207C139.975,29.914,140.119,29.695,140.229,29.396L140.229,29.396z M137.895,28.245h2.342
		c-0.029-0.351-0.121-0.616-0.268-0.792c-0.227-0.274-0.521-0.412-0.879-0.412c-0.326,0-0.602,0.109-0.822,0.33
		C138.041,27.586,137.92,27.881,137.895,28.245L137.895,28.245z"/>
	<path fill="#11284A" d="M141.85,30.746v-4.193h0.639v0.635c0.162-0.295,0.312-0.492,0.453-0.588
		c0.139-0.093,0.289-0.144,0.457-0.144c0.238,0,0.48,0.078,0.729,0.231l-0.244,0.66c-0.174-0.104-0.348-0.158-0.523-0.158
		c-0.154,0-0.295,0.051-0.418,0.142c-0.125,0.096-0.213,0.226-0.264,0.391c-0.08,0.252-0.119,0.528-0.119,0.828v2.196H141.85
		L141.85,30.746z"/>
	<path fill="#11284A" d="M144.283,28.649c0-0.776,0.217-1.353,0.65-1.729c0.359-0.309,0.799-0.465,1.318-0.465
		c0.578,0,1.049,0.189,1.414,0.568c0.367,0.376,0.549,0.899,0.549,1.563c0,0.541-0.08,0.965-0.242,1.274
		c-0.162,0.312-0.4,0.55-0.709,0.724c-0.309,0.17-0.646,0.255-1.014,0.255c-0.586,0-1.061-0.186-1.424-0.562
		C144.465,29.9,144.283,29.358,144.283,28.649L144.283,28.649z M145.018,28.649c0,0.538,0.117,0.936,0.35,1.206
		c0.236,0.268,0.531,0.4,0.885,0.4c0.352,0,0.648-0.133,0.883-0.4c0.23-0.269,0.35-0.678,0.35-1.228
		c0-0.521-0.119-0.915-0.355-1.183c-0.232-0.267-0.527-0.399-0.877-0.399c-0.354,0-0.65,0.133-0.885,0.399
		C145.133,27.711,145.018,28.112,145.018,28.649L145.018,28.649z"/>
</g>
</svg>
