<svg xmlns="http://www.w3.org/2000/svg" width="190.848" height="13.569" viewBox="0 0 190.848 13.569"><defs><style>.a{fill:#fff;}</style></defs><g transform="translate(-1502.909 -16)"><g transform="translate(1502.909 16)"><g transform="translate(149.272 0.507)"><path class="a" d="M3254.483,3281.117a1.894,1.894,0,1,1-1.894-1.895,1.892,1.892,0,0,1,1.894,1.895" transform="translate(-3246.905 -3279.223)"/><path class="a" d="M3254.483,3297.784a1.894,1.894,0,1,1-1.894-1.893,1.894,1.894,0,0,1,1.894,1.893" transform="translate(-3246.905 -3291.508)"/><path class="a" d="M3254.483,3314.45a1.894,1.894,0,1,1-1.894-1.895,1.893,1.893,0,0,1,1.894,1.895" transform="translate(-3246.905 -3303.789)"/><path class="a" d="M3239.123,3287.831a1.893,1.893,0,1,1-2.588.692,1.9,1.9,0,0,1,2.588-.692" transform="translate(-3236.282 -3285.379)"/><path class="a" d="M3267.988,3304.49a1.894,1.894,0,1,1-2.587.694,1.9,1.9,0,0,1,2.587-.694" transform="translate(-3257.556 -3297.658)"/><path class="a" d="M3237.243,3304.491a1.894,1.894,0,1,1-.692,2.587,1.894,1.894,0,0,1,.692-2.587" transform="translate(-3236.292 -3297.66)"/><path class="a" d="M3266.107,3287.831a1.894,1.894,0,1,1-.693,2.587,1.894,1.894,0,0,1,.693-2.587" transform="translate(-3257.565 -3285.379)"/><g transform="translate(15.094)"><path class="a" d="M3311.873,3281.117a1.894,1.894,0,1,1-1.895-1.895,1.892,1.892,0,0,1,1.895,1.895" transform="translate(-3304.294 -3279.223)"/><path class="a" d="M3311.873,3297.784a1.894,1.894,0,1,1-1.895-1.893,1.894,1.894,0,0,1,1.895,1.893" transform="translate(-3304.294 -3291.508)"/><path class="a" d="M3311.873,3314.45a1.894,1.894,0,1,1-1.895-1.895,1.894,1.894,0,0,1,1.895,1.895" transform="translate(-3304.294 -3303.789)"/><path class="a" d="M3296.511,3287.831a1.893,1.893,0,1,1-2.586.692,1.9,1.9,0,0,1,2.586-.692" transform="translate(-3293.671 -3285.379)"/><path class="a" d="M3325.376,3304.49a1.894,1.894,0,1,1-2.588.694,1.9,1.9,0,0,1,2.588-.694" transform="translate(-3314.944 -3297.658)"/><path class="a" d="M3294.633,3304.491a1.894,1.894,0,1,1-.691,2.587,1.9,1.9,0,0,1,.691-2.587" transform="translate(-3293.682 -3297.66)"/><path class="a" d="M3323.5,3287.831a1.894,1.894,0,1,1-.693,2.587,1.894,1.894,0,0,1,.693-2.587" transform="translate(-3314.954 -3285.379)"/></g><g transform="translate(30.193)"><path class="a" d="M3369.287,3281.117a1.894,1.894,0,1,1-1.894-1.895,1.892,1.892,0,0,1,1.894,1.895" transform="translate(-3361.708 -3279.223)"/><path class="a" d="M3369.287,3297.784a1.894,1.894,0,1,1-1.894-1.893,1.894,1.894,0,0,1,1.894,1.893" transform="translate(-3361.708 -3291.508)"/><path class="a" d="M3369.287,3314.45a1.894,1.894,0,1,1-1.894-1.895,1.893,1.893,0,0,1,1.894,1.895" transform="translate(-3361.708 -3303.789)"/><path class="a" d="M3353.921,3287.831a1.894,1.894,0,1,1-2.588.692,1.9,1.9,0,0,1,2.588-.692" transform="translate(-3351.081 -3285.379)"/><path class="a" d="M3382.786,3304.49a1.895,1.895,0,1,1-2.588.694,1.9,1.9,0,0,1,2.588-.694" transform="translate(-3372.354 -3297.658)"/><path class="a" d="M3352.041,3304.491a1.894,1.894,0,1,1-.693,2.587,1.9,1.9,0,0,1,.693-2.587" transform="translate(-3351.091 -3297.66)"/><path class="a" d="M3380.906,3287.831a1.894,1.894,0,1,1-.694,2.587,1.894,1.894,0,0,1,.694-2.587" transform="translate(-3372.364 -3285.379)"/></g></g><g transform="translate(0 0)"><path class="a" d="M2668.717,3287.148v-.138a6,6,0,1,1,12-.034v.137a6,6,0,1,1-12,.035Zm11-.052v-.138c0-3-1.983-5.4-5-5.4s-5.017,2.327-5.017,5.431v.137a5.122,5.122,0,0,0,5.052,5.431C2677.7,3292.562,2679.717,3290.253,2679.717,3287.1Z" transform="translate(-2668.717 -3279.855)"/><path class="a" d="M2721.135,3282.432h-1.362v-.776h1.362v-1.621a2.406,2.406,0,0,1,2.552-2.741,2.907,2.907,0,0,1,1,.156v.775a3.076,3.076,0,0,0-.965-.155c-1,0-1.672.569-1.672,1.879v1.707h2.517v.776h-2.517v8.242h-.914Z" transform="translate(-2706.345 -3277.294)"/><path class="a" d="M2744.613,3282.259a.651.651,0,0,1,.656-.637.646.646,0,0,1,0,1.292A.655.655,0,0,1,2744.613,3282.259Zm.207,2.586h.915v9.018h-.915Z" transform="translate(-2724.652 -3280.483)"/><path class="a" d="M2757.2,3298.1v-.139a4.334,4.334,0,0,1,4.31-4.6,3.473,3.473,0,0,1,3.759,3h-.9a2.633,2.633,0,0,0-2.862-2.224c-1.879,0-3.362,1.448-3.362,3.828v.138c0,2.38,1.466,3.776,3.362,3.776a2.838,2.838,0,0,0,3-2.483h.845a3.7,3.7,0,0,1-3.845,3.259A4.271,4.271,0,0,1,2757.2,3298.1Z" transform="translate(-2733.927 -3289.132)"/><path class="a" d="M2795.539,3282.259a.651.651,0,0,1,.655-.637.646.646,0,0,1,0,1.292A.654.654,0,0,1,2795.539,3282.259Zm.207,2.586h.914v9.018h-.914Z" transform="translate(-2762.184 -3280.483)"/><path class="a" d="M2810.679,3293.492h.914v1.759a3.4,3.4,0,0,1,3.19-1.9c1.913,0,3.207,1.035,3.207,3.6v5.552h-.914v-5.6c0-1.913-.9-2.758-2.5-2.758a2.843,2.843,0,0,0-2.982,2.9v5.465h-.914Z" transform="translate(-2773.343 -3289.13)"/><path class="a" d="M2846.4,3300.08c0-2.086,2-2.724,4.224-2.724h1.879v-.811c0-1.69-.69-2.413-2.276-2.413a2.244,2.244,0,0,0-2.535,1.914h-.9c.207-1.9,1.759-2.69,3.465-2.69,1.879,0,3.155.9,3.155,3.189v5.965h-.913v-1.38a3.4,3.4,0,0,1-3.052,1.518C2847.675,3302.649,2846.4,3301.787,2846.4,3300.08Zm6.1-.482v-1.534h-1.845c-1.879,0-3.345.4-3.345,2.017,0,1.156.724,1.827,2.207,1.827C2851.175,3301.907,2852.5,3300.942,2852.5,3299.6Z" transform="translate(-2799.668 -3289.132)"/><path class="a" d="M2900.6,3281.292h4.034c4.328,0,6.466,2.345,6.466,6.035v.137c0,3.689-2.155,6.155-6.483,6.155H2900.6Zm3.931,10.155c2.482,0,3.655-1.4,3.655-3.948v-.138c0-2.535-1.086-3.9-3.689-3.9h-1.1v7.983h1.138Z" transform="translate(-2839.615 -3280.24)"/><path class="a" d="M2946.876,3280.229a1.424,1.424,0,1,1,1.414,1.362A1.367,1.367,0,0,1,2946.876,3280.229Zm.189,2.586h2.482v9.018h-2.482Z" transform="translate(-2873.719 -3278.453)"/><path class="a" d="M2963.52,3299.816c0-2.1,1.931-2.9,4.689-2.9h1.017v-.362c0-1.069-.328-1.655-1.466-1.655a1.36,1.36,0,0,0-1.534,1.276h-2.362c.155-2.137,1.845-3.086,4.052-3.086s3.776.9,3.776,3.344v5.879h-2.431v-1.086a3.068,3.068,0,0,1-2.725,1.276C2964.9,3302.507,2963.52,3301.713,2963.52,3299.816Zm5.707-.654v-.759h-.966c-1.448,0-2.292.31-2.292,1.276,0,.656.4,1.087,1.31,1.087C2968.383,3300.765,2969.227,3300.162,2969.227,3299.162Z" transform="translate(-2885.985 -3288.937)"/><path class="a" d="M3002.716,3293.3h2.5v1.38a3.066,3.066,0,0,1,2.758-1.586,2.486,2.486,0,0,1,2.517,1.569,3.582,3.582,0,0,1,3.034-1.569c1.673,0,2.966,1.052,2.966,3.448v5.775h-2.483v-5.5c0-1.155-.518-1.672-1.416-1.672a1.676,1.676,0,0,0-1.74,1.845v5.328h-2.483v-5.5c0-1.155-.534-1.673-1.414-1.673a1.676,1.676,0,0,0-1.741,1.845v5.328h-2.5v-9.02Z" transform="translate(-2914.872 -3288.939)"/><path class="a" d="M3060.984,3299.816c0-2.1,1.93-2.9,4.689-2.9h1.017v-.362c0-1.069-.327-1.655-1.465-1.655a1.36,1.36,0,0,0-1.535,1.276h-2.362c.155-2.137,1.846-3.086,4.053-3.086s3.775.9,3.775,3.344v5.879h-2.431v-1.086a3.068,3.068,0,0,1-2.725,1.276C3062.363,3302.507,3060.984,3301.713,3060.984,3299.816Zm5.707-.654v-.759h-.966c-1.448,0-2.293.31-2.293,1.276,0,.656.4,1.087,1.31,1.087C3065.845,3300.765,3066.691,3300.162,3066.691,3299.162Z" transform="translate(-2957.816 -3288.937)"/><path class="a" d="M3100.175,3293.3h2.5v1.432a3.114,3.114,0,0,1,2.93-1.638c1.776,0,3.035,1.069,3.035,3.483v5.742h-2.5v-5.378c0-1.225-.483-1.811-1.586-1.811a1.785,1.785,0,0,0-1.878,1.983v5.206h-2.5V3293.3Z" transform="translate(-2986.7 -3288.939)"/><path class="a" d="M3138.689,3294.767V3290.2h-1.155v-1.776h1.155v-1.948h2.482v1.948h1.9v1.776h-1.9v4.345c0,.723.363,1.069,1,1.069a2.327,2.327,0,0,0,.948-.172v1.931a4.545,4.545,0,0,1-1.517.241A2.57,2.57,0,0,1,3138.689,3294.767Z" transform="translate(-3014.233 -3284.06)"/><path class="a" d="M3163.094,3297.92v-.138a4.477,4.477,0,0,1,4.639-4.69c2.329,0,4.4,1.361,4.4,4.586v.69h-6.5a2.16,2.16,0,0,0,2.24,2.362c1.155,0,1.725-.5,1.878-1.258h2.363c-.293,1.948-1.844,3.034-4.31,3.034A4.376,4.376,0,0,1,3163.094,3297.92Zm6.6-1.085c-.086-1.362-.775-2.018-1.966-2.018a2.069,2.069,0,0,0-2.068,2.018Z" transform="translate(-3033.071 -3288.937)"/></g></g></g></svg>