<?xml version="1.0" encoding="utf-8"?>
<!-- Generator: Adobe Illustrator 16.0.0, SVG Export Plug-In . SVG Version: 6.00 Build 0)  -->
<!DOCTYPE svg PUBLIC "-//W3C//DTD SVG 1.1//EN" "http://www.w3.org/Graphics/SVG/1.1/DTD/svg11.dtd">
<svg version="1.1" id="Layer_1" xmlns="http://www.w3.org/2000/svg" xmlns:xlink="http://www.w3.org/1999/xlink" x="0px" y="0px"
	 width="182.5px" height="40px" viewBox="0 0 182.5 40" enable-background="new 0 0 182.5 40" xml:space="preserve">
<g>
	<path fill="#FF0000" d="M164.604,20.61c-0.697-0.23-1.439-0.447-2.127-0.616c0.367-0.428,0.988-1.188,1.449-1.814
		c0.48-0.65,0.711-1.156,0.711-1.668c0-0.436-0.166-0.889-0.486-1.441c-0.561-1.011-1.555-1.987-2.4-2.628
		c-0.613-0.44-1.543-0.981-2.438-0.981c-0.498,0-0.99,0.203-1.391,0.692c-0.438,0.591-0.867,1.22-1.244,1.808
		c-0.305-0.479-0.836-1.293-1.301-1.917c-0.684-0.875-1.225-1.229-2.051-1.229c-1.518,0-3.207,0.935-4.113,1.551
		c-0.73,0.526-1.832,1.405-1.832,2.476c0,0.323,0.111,0.668,0.379,1.019c0.43,0.6,0.902,1.2,1.344,1.736
		c-0.545,0.143-1.498,0.386-2.246,0.624c-1.469,0.476-2.078,1.126-2.078,3.053c0,0.828,0.121,1.789,0.475,2.836
		c0.361,1.111,1.133,3.033,2.914,2.449c0.703-0.227,1.426-0.481,2.088-0.736c-0.039,0.564-0.094,1.11-0.094,1.884
		c0,1.932,0.393,2.499,1.604,3.083c1.074,0.489,2.447,0.705,3.568,0.705c1.174,0,3.26-0.14,3.26-1.99
		c0-1.16-0.018-1.501-0.061-2.196c0.52,0.206,1.441,0.559,2.191,0.799c0.492,0.159,0.891,0.238,1.254,0.238
		c0.629,0,1.127-0.313,1.756-0.98c1.102-1.175,2.137-3.426,2.137-4.91C165.871,21.661,165.582,20.929,164.604,20.61 M151.68,15.38
		c1.35-0.971,2.752-1.187,3.799-1.187c0.404,0,0.752,0.027,1.002,0.069c-0.707,1.103-1.049,1.924-1.074,2.312
		c-0.029-0.091-0.234-0.689-1.076-0.689c-0.898,0-1.771,0.568-2.422,0.568c-0.453,0-0.584-0.373-0.584-0.537
		C151.324,15.759,151.414,15.563,151.68,15.38 M150.119,22.055c0.01,0.616-0.066,0.988-0.447,1.111
		c-0.277,0.089-0.588-0.005-0.742-0.494c-0.715-2.127,0.01-3.988,0.404-4.803c0.811,0.926,1.453,1.544,1.84,1.734
		c-0.072-0.008-0.143,0.001-0.236,0.045C150.002,19.943,150.098,21.265,150.119,22.055 M155.088,27.577
		c-2.326,0-3.893-1.26-4.498-1.885c0.557-0.249,1.084-0.484,1.453-0.706c0.258-0.147,0.529-0.301,0.744-0.529
		c-0.029,0.081-0.045,0.178-0.045,0.281c0,0.97,1.295,1.286,2.059,1.519c0.605,0.182,0.99,0.386,0.99,0.773
		C155.791,27.319,155.613,27.577,155.088,27.577 M157.74,24.13c-0.365-0.353-1.031-0.598-2.285-0.598
		c-1.125,0-2.006,0.178-2.441,0.571c0.104-0.211,0.166-0.47,0.166-0.812c0-0.396-0.092-0.843-0.299-1.463
		c-0.35-1.064-0.787-1.841-1.299-2.119c0.506,0.069,1.186-0.118,2.205-0.846c0.906-0.657,1.521-1.312,1.631-1.882
		c0.096,0.504,0.49,1.082,1.498,1.812c0.918,0.656,1.729,1.026,2.314,0.954c-0.461,0.245-0.896,0.793-1.285,1.961
		c-0.211,0.664-0.332,1.211-0.332,1.686C157.609,23.681,157.654,23.927,157.74,24.13 M160.877,24.931
		c-0.811,1.096-1.801,1.715-2.369,2.021c-0.049-0.645-0.121-1.217-0.207-1.641c-0.068-0.285-0.139-0.585-0.291-0.854
		c0.066,0.054,0.164,0.092,0.268,0.128c0.928,0.305,1.637-0.819,2.094-1.471c0.307-0.427,0.582-0.655,0.881-0.655
		c0.213,0,0.539,0.139,0.539,0.474C161.791,23.276,161.465,24.077,160.877,24.931 M160.018,19.566c-0.133,0-0.26,0.011-0.391,0.038
		c0.15-0.104,0.398-0.373,0.398-0.795c0-0.651-0.594-1.355-0.957-1.838c-0.266-0.351-0.445-0.644-0.445-0.897
		c0-0.274,0.24-0.523,0.518-0.523c0.143,0,0.299,0.058,0.482,0.188c1.881,1.345,2.398,3.27,2.531,4.173
		C161.326,19.697,160.488,19.566,160.018,19.566 M48.674,14.086h-3.008c-2.056-2.119-4.757-3.271-7.509-3.271
		c-2.801,0.007-5.454,1.152-7.516,3.271H27.64c2.251-3.341,6.277-5.579,10.518-5.579C42.46,8.504,46.495,10.811,48.674,14.086"/>
	<path fill="#004785" d="M57.337,15.898c-1.336,0-2.597,0.631-3.521,1.482v-5.196l-2.57,1.38v15.361h2.57v-1.191
		c0.705,0.778,2.111,1.458,3.4,1.458c2.647,0,5.33-2.066,5.33-6.441C62.547,17.891,60.085,15.898,57.337,15.898 M56.973,26.883
		c-1.264,0-2.621-0.923-3.18-1.677v-5.371c0.656-0.826,1.893-1.628,3.083-1.628c1.847,0,3.153,1.409,3.153,4.618
		C60.03,25.522,58.772,26.883,56.973,26.883 M87.238,21.608v7.317h-2.572v-7.22c0-2.575-0.972-3.499-2.625-3.499
		c-1.677,0-2.721,1.19-2.721,3.257v7.462h-2.57V16.165h2.57v1.216c0.632-0.924,2.036-1.482,3.349-1.482
		C85.633,15.898,87.238,17.546,87.238,21.608 M69.362,15.898c-1.8,0-3.208,0.389-4.423,1.142l0.972,1.896
		c0.996-0.56,2.017-0.804,3.329-0.804c1.557,0,2.597,0.779,2.597,2.164v0.948c-0.704-0.316-1.748-0.486-2.938-0.486
		c-2.892,0-5.208,1.288-5.208,4.132c0,3.135,2.486,4.302,4.552,4.302c1.386,0,2.721-0.656,3.595-1.531v1.265h2.572v-8.751
		C74.409,17.283,72.205,15.898,69.362,15.898 M71.836,25.304c-0.583,0.802-1.845,1.628-3.182,1.628c-1.652,0-2.55-0.851-2.55-2.114
		c0-1.167,1.117-1.895,2.721-1.895c1.36,0,2.331,0.219,3.011,0.558V25.304z M94.453,15.898c-1.8,0-3.209,0.389-4.424,1.142
		l0.973,1.896c0.996-0.56,2.017-0.804,3.329-0.804c1.556,0,2.597,0.779,2.597,2.164v0.948c-0.705-0.316-1.748-0.486-2.938-0.486
		c-2.893,0-5.208,1.288-5.208,4.132c0,3.135,2.486,4.302,4.552,4.302c1.386,0,2.721-0.656,3.595-1.531v1.265H99.5v-8.751
		C99.5,17.283,97.295,15.898,94.453,15.898 M96.927,25.304c-0.583,0.802-1.845,1.628-3.182,1.628c-1.653,0-2.55-0.851-2.55-2.114
		c0-1.167,1.115-1.895,2.72-1.895c1.361,0,2.332,0.219,3.012,0.558V25.304z M119.4,21.514v7.412h-2.572v-7.22
		c0-2.575-0.803-3.499-2.453-3.499c-1.678,0-2.422,1.19-2.422,3.257v7.462h-2.572v-7.22c0-2.575-0.768-3.499-2.42-3.499
		c-1.678,0-2.551,1.19-2.551,3.257v7.462h-2.571V16.165h2.571v1.216c0.633-0.924,1.82-1.482,3.133-1.482
		c1.727,0,2.82,0.655,3.5,1.871c0.924-1.143,1.92-1.871,3.914-1.871C117.924,15.898,119.4,17.237,119.4,21.514 M132.494,22.29
		c0-3.451-1.941-6.392-5.561-6.392c-3.307,0-5.832,2.333-5.832,6.659c0,4.229,2.768,6.635,5.758,6.635
		c1.945,0,3.473-0.607,4.59-1.678l-1.387-1.636c-0.852,0.632-1.986,1.021-3.057,1.021c-1.557,0-3.133-1.013-3.398-3.468h8.814
		C132.445,23.165,132.494,22.751,132.494,22.29 M123.656,21.366c0.217-2.041,1.43-3.208,3.107-3.208
		c2.064,0,3.082,1.458,3.203,3.208H123.656z M143.494,28.926h-2.992l-1.213-2.213c-0.512-0.924-1.096-2.09-1.338-2.576
		c-0.219,0.486-0.9,1.726-1.387,2.601l-1.238,2.188h-2.836l3.916-6.612l-3.648-6.148h2.908l0.998,1.799
		c0.508,0.923,1.117,2.065,1.336,2.552c0.268-0.486,0.875-1.701,1.361-2.601l0.971-1.75h2.893l-3.67,6.148L143.494,28.926z
		 M19.269,22.555c0,2.389,1.669,4.105,3.969,4.105c1.108,0,2.179-0.494,3.102-1.435l0.055-0.061l1.491,1.789l-0.041,0.047
		c-1.238,1.459-2.717,2.166-4.532,2.166c-1.823,0-3.485-0.61-4.694-1.72c-1.298-1.201-1.989-2.895-1.989-4.893
		c0-2.002,0.691-3.692,1.989-4.891c1.209-1.11,2.871-1.717,4.694-1.717c1.815,0,3.294,0.703,4.532,2.161l0.041,0.046l-1.491,1.792
		l-0.055-0.056c-0.923-0.948-1.993-1.446-3.102-1.446C20.938,18.444,19.269,20.177,19.269,22.555 M29.375,16.148h2.618v12.772
		h-2.618V16.148z M42.247,26.143l0.15-0.096l-0.629,2.465l-0.028,0.018c-0.427,0.263-1.144,0.61-2.316,0.585
		c-1.743-0.028-2.908-1.372-2.908-3.339v-7.209h-2.211v-2.402h2.211v-2.6l2.572-1.38v3.979h2.657v2.402h-2.657v6.78
		c0,0.993,0.373,1.44,1.224,1.44C40.896,26.787,41.549,26.569,42.247,26.143 M44.412,16.148h2.621v12.772h-2.621V16.148z"/>
</g>
</svg>
