<svg xmlns="http://www.w3.org/2000/svg" width="121.137" height="13.486" viewBox="0 0 121.137 13.486"><defs><style>.a{fill:#fff;}</style></defs><g transform="translate(-2.657 -11.503)"><g transform="translate(2.657 11.503)"><path class="a" d="M2.657,19.421v-.137a5.989,5.989,0,1,1,11.971-.033v.137a5.99,5.99,0,1,1-11.971.033Zm10.974-.052v-.137c0-2.993-1.978-5.383-4.988-5.383s-5.005,2.322-5.005,5.418V19.4a5.11,5.11,0,0,0,5.04,5.418C11.618,24.822,13.631,22.518,13.631,19.37Z" transform="translate(-2.657 -12.146)"/><path class="a" d="M26.856,16.629H25.5v-.774h1.358V14.238A2.4,2.4,0,0,1,29.4,11.5a2.89,2.89,0,0,1,1,.155v.774a3.054,3.054,0,0,0-.963-.155c-1,0-1.669.568-1.669,1.874v1.7h2.511v.774H27.768V24.85h-.912V16.629Z" transform="translate(-12.102 -11.503)"/><path class="a" d="M36.61,14.074a.65.65,0,0,1,.654-.636.645.645,0,0,1,0,1.29A.653.653,0,0,1,36.61,14.074Zm.207,2.58h.912v9h-.912Z" transform="translate(-16.697 -12.303)"/><path class="a" d="M42.241,23.418v-.136a4.323,4.323,0,0,1,4.3-4.593,3.465,3.465,0,0,1,3.75,2.993H49.4a2.626,2.626,0,0,0-2.855-2.219c-1.875,0-3.355,1.445-3.355,3.818v.137c0,2.375,1.462,3.768,3.355,3.768a2.831,2.831,0,0,0,2.993-2.477h.843a3.69,3.69,0,0,1-3.836,3.251A4.26,4.26,0,0,1,42.241,23.418Z" transform="translate(-19.026 -14.475)"/><path class="a" d="M59.393,14.074a.65.65,0,0,1,.653-.636.645.645,0,0,1,0,1.29A.652.652,0,0,1,59.393,14.074Zm.207,2.58h.912v9H59.6Z" transform="translate(-26.118 -12.303)"/><path class="a" d="M66.167,18.825h.911V20.58a3.4,3.4,0,0,1,3.182-1.893c1.909,0,3.2,1.032,3.2,3.595V27.82h-.912V22.23c0-1.909-.894-2.751-2.494-2.751a2.836,2.836,0,0,0-2.976,2.888V27.82h-.911Z" transform="translate(-28.919 -14.474)"/><path class="a" d="M82.146,25.4c0-2.081,2-2.717,4.214-2.717h1.875V21.87c0-1.686-.689-2.408-2.27-2.408a2.239,2.239,0,0,0-2.529,1.909h-.894c.206-1.892,1.754-2.683,3.457-2.683,1.875,0,3.148.894,3.148,3.183v5.95h-.911V26.445a3.392,3.392,0,0,1-3.044,1.514C83.419,27.959,82.146,27.1,82.146,25.4Zm6.089-.48V23.385H86.395c-1.875,0-3.336.4-3.336,2.013,0,1.152.722,1.823,2.2,1.823C86.911,27.219,88.235,26.256,88.235,24.916Z" transform="translate(-35.527 -14.474)"/></g><g transform="translate(63.498 11.614)"><path class="a" d="M106.4,13.014h4.248c2.992,0,4.7,1.324,4.7,3.922V17c0,2.6-1.806,3.836-4.609,3.836h-1.566v4.472h-2.769v-12.3Zm4.179,5.882c1.359,0,2.081-.654,2.081-1.875v-.069c0-1.307-.757-1.823-2.081-1.823h-1.41V18.9Z" transform="translate(-106.395 -12.239)"/><path class="a" d="M124.486,11.693h2.478V24.764h-2.478Z" transform="translate(-113.876 -11.693)"/><path class="a" d="M131.581,25c0-2.1,1.927-2.89,4.68-2.89h1.015v-.361c0-1.066-.328-1.65-1.463-1.65a1.353,1.353,0,0,0-1.529,1.272h-2.358c.156-2.132,1.841-3.078,4.043-3.078s3.766.894,3.766,3.336v5.865H137.31V26.409a3.058,3.058,0,0,1-2.718,1.274C132.958,27.685,131.581,26.892,131.581,25Zm5.694-.653v-.757h-.964c-1.446,0-2.287.309-2.287,1.273,0,.654.4,1.084,1.307,1.084C136.432,25.946,137.275,25.343,137.275,24.346Z" transform="translate(-116.81 -14.422)"/><path class="a" d="M148.95,23.6V19.046H147.8V17.274h1.154V15.33h2.477v1.944h1.893v1.772h-1.893v4.335c0,.721.362,1.065,1,1.065a2.322,2.322,0,0,0,.946-.172V26.2a4.537,4.537,0,0,1-1.513.242A2.565,2.565,0,0,1,148.95,23.6Z" transform="translate(-123.515 -13.197)"/><path class="a" d="M159.32,25c0-2.1,1.927-2.89,4.678-2.89h1.015v-.361c0-1.066-.327-1.65-1.462-1.65a1.355,1.355,0,0,0-1.53,1.272h-2.357c.155-2.132,1.84-3.078,4.041-3.078s3.768.894,3.768,3.336v5.865h-2.426V26.409a3.057,3.057,0,0,1-2.717,1.274C160.7,27.685,159.32,26.892,159.32,25Zm5.693-.653v-.757h-.962c-1.446,0-2.288.309-2.288,1.273,0,.654.4,1.084,1.307,1.084C164.171,25.946,165.013,25.343,165.013,24.346Z" transform="translate(-128.28 -14.422)"/><g transform="translate(48.94 0.231)"><path class="a" d="M200.069,13.977a1.89,1.89,0,1,1-1.89-1.89,1.889,1.889,0,0,1,1.89,1.89" transform="translate(-192.507 -12.087)"/><path class="a" d="M200.069,21.432a1.89,1.89,0,1,1-1.89-1.888,1.89,1.89,0,0,1,1.89,1.888" transform="translate(-192.507 -15.171)"/><path class="a" d="M200.069,28.89a1.89,1.89,0,1,1-1.89-1.89,1.89,1.89,0,0,1,1.89,1.89" transform="translate(-192.507 -18.254)"/><path class="a" d="M192.675,16.077a1.889,1.889,0,1,1-2.582.691,1.891,1.891,0,0,1,2.582-.691" transform="translate(-189.84 -13.632)"/><path class="a" d="M205.587,23.53a1.889,1.889,0,1,1-2.581.693,1.893,1.893,0,0,1,2.581-.693" transform="translate(-195.18 -16.714)"/><path class="a" d="M190.792,23.531a1.889,1.889,0,1,1-.691,2.581,1.89,1.89,0,0,1,.691-2.581" transform="translate(-189.843 -16.715)"/><path class="a" d="M203.7,16.077a1.889,1.889,0,1,1-.691,2.581,1.891,1.891,0,0,1,.691-2.581" transform="translate(-195.183 -13.632)"/></g></g></g></svg>