<?xml version="1.0" encoding="utf-8"?>
<!-- Generator: Adobe Illustrator 24.0.0, SVG Export Plug-In . SVG Version: 6.00 Build 0)  -->
<svg version="1.1" id="Layer_1" xmlns="http://www.w3.org/2000/svg" xmlns:xlink="http://www.w3.org/1999/xlink" x="0px" y="0px"
	 viewBox="0 0 139.1 40" style="enable-background:new 0 0 139.1 40;" xml:space="preserve">
<style type="text/css">
	.st0{fill:none;stroke:#CA2529;stroke-width:7.2649;stroke-miterlimit:10;}
	.st1{fill:#37539D;}
	.st2{fill:#969697;}
	.st3{fill:#66676A;}
</style>
<g>
	<g>
		<path class="st0" d="M19.8,7"/>
		<path class="st1" d="M19.8,13.8l1.7-1.5l-4.8-4.8c0,0-0.9-1.1-1.9-0.3c-1,0.9-11.5,11.4-11.5,11.4S2,19.6,3,20.7
			s11.7,11.8,11.7,11.8s0.9,1,1.8,0c0.8-1,11.5-11.7,11.5-11.7s1.1-0.9-0.2-2.2c-1.3-1.4-3.5-3.6-3.5-3.6l-1.7,1.5l2.4,2.6
			c0,0,1.1,0.8,0.1,1.7c-1,0.9-8.3,8.2-8.3,8.2s-1.1,1.5-2.4,0.1c-1.3-1.4-8-8.1-8-8.1S5.1,20.1,6.3,19c1.1-1.1,8.4-8.4,8.4-8.4
			s1.1-0.9,2,0.2C17.6,11.9,19.8,13.8,19.8,13.8z"/>
		<path class="st2" d="M24.2,26.2l-1.7,1.5l4.8,4.8c0,0,0.9,1.1,1.9,0.3c1-0.9,11.5-11.4,11.5-11.4s1.3-0.9,0.3-2
			C39.8,18.1,29.3,7.4,29.3,7.4s-0.9-1-1.8,0C26.7,8.4,16,19,16,19s-1.1,0.9,0.2,2.2c1.3,1.4,3.5,3.6,3.5,3.6l1.6-1.5L19,20.9
			c0,0-1.1-0.8-0.1-1.7c1-0.9,8.3-8.2,8.3-8.2s1.1-1.5,2.4-0.1c1.3,1.4,8,8.1,8,8.1s1.3,0.9,0.1,1.9c-1.1,1.1-8.4,8.4-8.4,8.4
			s-1.1,0.9-2-0.2C26.3,28.1,24.2,26.2,24.2,26.2z"/>
	</g>
	<g>
		<g>
			<path class="st1" d="M52.2,13.6c-0.6,0.5-1.5,0.8-2.6,0.8h-2.2v3.8h-2.2V7.6h4.6c1.1,0,1.9,0.3,2.6,0.8c0.6,0.5,1,1.4,1,2.6
				C53.1,12.2,52.8,13.1,52.2,13.6z M50.4,9.8c-0.3-0.2-0.6-0.4-1.1-0.4h-2v3.1h2c0.5,0,0.9-0.1,1.1-0.4s0.4-0.6,0.4-1.2
				C50.9,10.5,50.8,10,50.4,9.8z"/>
			<path class="st1" d="M62.7,17.3c-0.8,0.8-1.9,1.2-3.5,1.2c-1.5,0-2.6-0.4-3.4-1.2c-1.1-1.1-1.6-2.5-1.6-4.4s0.5-3.4,1.6-4.4
				c0.8-0.8,1.9-1.2,3.4-1.2c1.5,0,2.6,0.4,3.5,1.2c1.1,1,1.6,2.5,1.6,4.4C64.4,14.8,63.9,16.3,62.7,17.3z M61.4,15.7
				c0.5-0.6,0.8-1.6,0.8-2.7c0-1.2-0.3-2.1-0.8-2.7c-0.5-0.6-1.2-1-2.1-1s-1.6,0.4-2.1,1s-0.8,1.6-0.8,2.7c0,1.2,0.3,2.1,0.8,2.7
				c0.5,0.6,1.2,1,2.1,1S60.9,16.3,61.4,15.7z"/>
			<path class="st1" d="M72.5,7.9c0.4,0.2,0.7,0.4,1,0.7c0.3,0.3,0.4,0.5,0.5,0.9c0.1,0.4,0.2,0.7,0.2,1.1c0,0.5-0.1,1-0.4,1.5
				c-0.3,0.5-0.7,0.8-1.2,1.1c0.5,0.2,0.9,0.4,1.1,0.9c0.2,0.4,0.3,0.9,0.3,1.7v0.7c0,0.5,0,0.8,0.1,1c0.1,0.3,0.2,0.4,0.4,0.6v0.2
				H72c-0.1-0.3-0.1-0.4-0.2-0.5c-0.1-0.3-0.1-0.6-0.1-0.9v-1c0-0.7-0.1-1.1-0.4-1.3c-0.3-0.3-0.6-0.4-1.2-0.4h-2.2v4.1h-2.2V7.6
				h5.1C71.6,7.6,72.2,7.7,72.5,7.9z M67.9,9.4v2.8h2.4c0.4,0,0.8-0.1,1.1-0.2c0.4-0.2,0.6-0.6,0.6-1.2s-0.2-1.1-0.6-1.3
				c-0.2,0-0.5-0.1-1-0.1H67.9z"/>
			<path class="st1" d="M83.8,7.6v1.9h-3.2v8.8h-2.2V9.5h-3.2V7.6H83.8z"/>
			<path class="st1" d="M86.7,7.6h2.5L93,18.2h-2.4L89.9,16H86l-0.7,2.2H83L86.7,7.6z M86.6,14.2h2.7L88,10L86.6,14.2z"/>
			<path class="st1" d="M94,7.6h7.6v1.9h-5.4V12h4.7v1.9h-4.7v4.4H94V7.6z"/>
			<path class="st1" d="M110.9,17.3c-0.8,0.8-1.9,1.2-3.5,1.2c-1.5,0-2.6-0.4-3.4-1.2c-1.1-1.1-1.6-2.5-1.6-4.4s0.5-3.4,1.6-4.4
				c0.8-0.8,1.9-1.2,3.4-1.2c1.5,0,2.6,0.4,3.5,1.2c1.1,1,1.6,2.5,1.6,4.4C112.6,14.8,112,16.3,110.9,17.3z M109.6,15.7
				c0.5-0.6,0.8-1.6,0.8-2.7c0-1.2-0.3-2.1-0.8-2.7c-0.5-0.6-1.2-1-2.1-1s-1.6,0.4-2.1,1c-0.5,0.6-0.8,1.6-0.8,2.7
				c0,1.2,0.3,2.1,0.8,2.7c0.5,0.6,1.2,1,2.1,1S109,16.3,109.6,15.7z"/>
			<path class="st1" d="M113.9,7.6h2.2v8.7h5.3v1.9h-7.5V7.6z"/>
			<path class="st1" d="M124.7,18.2h-2.2V7.6h2.2V18.2z"/>
			<path class="st1" d="M134.6,17.3c-0.8,0.8-1.9,1.2-3.5,1.2c-1.5,0-2.6-0.4-3.5-1.2c-1.1-1.1-1.6-2.5-1.6-4.4s0.5-3.4,1.6-4.4
				c0.8-0.8,1.9-1.2,3.5-1.2c1.5,0,2.6,0.4,3.5,1.2c1.1,1,1.6,2.5,1.6,4.4C136.2,14.8,135.7,16.3,134.6,17.3z M133.2,15.7
				c0.5-0.6,0.8-1.6,0.8-2.7c0-1.2-0.3-2.1-0.8-2.7c-0.5-0.6-1.2-1-2.1-1c-0.9,0-1.6,0.4-2.1,1c-0.5,0.6-0.8,1.6-0.8,2.7
				c0,1.2,0.3,2.1,0.8,2.7c0.5,0.6,1.2,1,2.1,1C132,16.7,132.7,16.3,133.2,15.7z"/>
		</g>
		<g>
			<path class="st3" d="M45.1,32.4V22.4h3.4c0.3,0,0.5,0,0.8,0s0.5,0.1,0.8,0.1c0.3,0.1,0.5,0.1,0.8,0.3c0.3,0.1,0.5,0.3,0.7,0.4
				c0.4,0.3,0.6,0.5,0.8,0.9c0.2,0.4,0.4,0.7,0.5,1.1c0.1,0.4,0.2,0.8,0.3,1.1c0.1,0.4,0.1,0.8,0.1,1.1c0,0.4,0,0.7-0.1,1.1
				c0,0.4-0.1,0.7-0.2,1.1c-0.1,0.4-0.2,0.6-0.4,1c-0.2,0.3-0.4,0.6-0.6,0.8c-0.3,0.3-0.5,0.4-0.8,0.6s-0.5,0.3-0.9,0.4
				c-0.3,0.1-0.6,0.2-1,0.2c-0.4,0-0.6,0.1-1,0.1L45.1,32.4L45.1,32.4z M46,31.7h2.3c0.4,0,0.8,0,1.2-0.1c0.4-0.1,0.8-0.2,1.1-0.4
				c0.4-0.2,0.6-0.4,0.8-0.7c0.2-0.3,0.4-0.6,0.5-1c0.1-0.4,0.2-0.7,0.3-1.1c0.1-0.4,0.1-0.7,0.1-1.1c0-0.4,0-0.7-0.1-1.1
				c-0.1-0.4-0.2-0.7-0.3-1.1c-0.1-0.4-0.4-0.6-0.5-1c-0.3-0.3-0.5-0.5-0.9-0.7c-0.3-0.2-0.6-0.3-1.1-0.3c-0.4-0.1-0.8-0.1-1.2-0.1
				H46C46,23.2,46,31.7,46,31.7z"/>
			<path class="st3" d="M54.9,32.4V22.4h6.7v0.8h-5.7v3.6H61v0.8h-5.2v4h5.9v0.8L54.9,32.4L54.9,32.4z"/>
			<path class="st3" d="M67.7,23.6L67.7,23.6v8.8h-1V22.4h1.1l5.8,8.8l0,0v-8.8h1v10.1h-1.1L67.7,23.6z"/>
			<path class="st3" d="M76.5,32.4V22.4h6.7v0.8h-5.7v3.6h5.2v0.8h-5.2v4h5.9v0.8L76.5,32.4L76.5,32.4z"/>
			<path class="st3" d="M89,28v-0.8h4.3v5.2h-0.8v-1.8c-0.2,0.3-0.4,0.5-0.6,0.8c-0.3,0.3-0.5,0.4-0.8,0.6c-0.3,0.2-0.6,0.3-1.1,0.4
				c-0.4,0.1-0.8,0.2-1.3,0.2c-0.6,0-1.2-0.1-1.8-0.4c-0.5-0.3-1-0.5-1.4-1c-0.4-0.4-0.7-1-0.9-1.7c-0.2-0.7-0.4-1.5-0.4-2.4
				c0-0.7,0.1-1.4,0.3-2c0.2-0.6,0.4-1.2,0.9-1.7c0.4-0.4,0.9-0.9,1.5-1.1c0.6-0.3,1.2-0.4,2-0.4c0.5,0,1.1,0.1,1.5,0.2
				c0.4,0.1,0.9,0.4,1.2,0.6s0.7,0.6,1,1c0.3,0.4,0.4,0.9,0.5,1.4h-1c-0.1-0.4-0.3-0.7-0.4-1c-0.2-0.3-0.4-0.5-0.7-0.8
				c-0.3-0.3-0.6-0.4-1-0.4c-0.4-0.1-0.7-0.2-1.1-0.2c-0.7,0-1.2,0.1-1.7,0.4c-0.4,0.3-0.9,0.5-1.1,1c-0.4,0.4-0.5,1-0.7,1.5
				c-0.2,0.6-0.2,1.2-0.2,1.9c0,0.5,0.1,1.1,0.3,1.6c0.2,0.5,0.4,1,0.7,1.3c0.4,0.4,0.7,0.7,1.1,0.9c0.4,0.3,1,0.4,1.6,0.4
				c0.3,0,0.5,0,0.9-0.1c0.3-0.1,0.5-0.2,0.9-0.3c0.3-0.2,0.5-0.4,0.8-0.5c0.3-0.3,0.4-0.5,0.6-0.8c0.2-0.4,0.3-0.6,0.4-1
				c0.1-0.4,0.1-0.7,0.1-1.1L89,28L89,28z"/>
			<path class="st3" d="M94.9,27.4c0-0.7,0.1-1.4,0.3-2c0.2-0.6,0.5-1.2,0.9-1.7c0.4-0.4,0.9-0.9,1.5-1.1c0.6-0.3,1.2-0.4,2-0.4
				c0.8,0,1.5,0.2,2,0.4c0.6,0.3,1.1,0.6,1.5,1.1c0.4,0.4,0.7,1.1,0.9,1.7c0.2,0.6,0.3,1.3,0.3,2.1c0,0.7-0.1,1.4-0.3,2
				c-0.2,0.6-0.5,1.2-0.9,1.7c-0.4,0.4-0.9,0.9-1.5,1.1s-1.2,0.4-2,0.4c-0.8,0-1.5-0.2-2-0.4c-0.6-0.3-1.1-0.6-1.5-1.1
				c-0.4-0.4-0.7-1.1-0.9-1.7C95,28.8,94.9,28.1,94.9,27.4z M99.6,31.9c0.6,0,1.2-0.1,1.7-0.4c0.4-0.3,0.9-0.6,1.1-1
				c0.3-0.4,0.5-0.9,0.7-1.4c0.2-0.5,0.2-1.1,0.2-1.7c0-0.7-0.1-1.3-0.3-1.9c-0.2-0.5-0.4-1.1-0.7-1.4c-0.4-0.4-0.7-0.7-1.1-0.9
				c-0.4-0.2-1-0.4-1.6-0.4c-0.6,0-1.2,0.1-1.7,0.4c-0.4,0.3-0.9,0.6-1.1,1c-0.3,0.4-0.5,0.9-0.7,1.4c-0.2,0.5-0.2,1.1-0.2,1.7
				c0,0.6,0.1,1.1,0.2,1.7c0.2,0.5,0.4,1.1,0.7,1.4c0.3,0.4,0.7,0.7,1.1,1C98.4,31.8,99,31.9,99.6,31.9z"/>
			<path class="st3" d="M113,25.3c-0.2-0.9-0.5-1.5-1.1-1.9c-0.5-0.4-1.2-0.5-2.1-0.5c-0.6,0-1.1,0.1-1.6,0.4
				c-0.4,0.3-0.8,0.5-1.1,1s-0.5,0.9-0.6,1.4c-0.2,0.5-0.2,1.1-0.2,1.7c0,0.5,0.1,1.1,0.2,1.7c0.1,0.5,0.4,1.1,0.6,1.4
				c0.3,0.4,0.6,0.8,1.1,1.1c0.4,0.3,1.1,0.4,1.8,0.4c0.4,0,0.8-0.1,1.1-0.2c0.4-0.2,0.7-0.4,1-0.6s0.5-0.5,0.7-0.9
				c0.2-0.4,0.4-0.7,0.4-1.1h1c-0.1,0.4-0.3,1-0.5,1.4c-0.2,0.4-0.5,0.8-0.9,1.1c-0.4,0.4-0.8,0.6-1.2,0.8c-0.5,0.2-1.1,0.3-1.8,0.3
				c-0.8,0-1.4-0.2-2-0.4c-0.5-0.3-1-0.7-1.3-1.1c-0.4-0.5-0.6-1.1-0.8-1.7c-0.2-0.6-0.3-1.3-0.3-2c0-1,0.1-1.8,0.4-2.5
				c0.3-0.7,0.5-1.2,1-1.7c0.4-0.4,0.9-0.7,1.5-0.9c0.5-0.2,1.1-0.3,1.9-0.3c0.5,0,1,0.1,1.4,0.2c0.4,0.2,0.8,0.4,1.1,0.6
				c0.4,0.3,0.6,0.6,0.9,1c0.2,0.4,0.4,0.9,0.4,1.4L113,25.3L113,25.3z"/>
			<path class="st3" d="M116,32.4V22.4h1v10.1H116z"/>
			<path class="st3" d="M118.8,27.4c0-0.7,0.1-1.4,0.3-2c0.2-0.6,0.5-1.2,0.9-1.7c0.4-0.4,0.9-0.9,1.5-1.1c0.6-0.3,1.2-0.4,2-0.4
				c0.8,0,1.5,0.2,2,0.4c0.6,0.3,1.1,0.6,1.5,1.1c0.4,0.4,0.7,1.1,0.9,1.7c0.2,0.6,0.3,1.3,0.3,2.1c0,0.7-0.1,1.4-0.3,2
				c-0.2,0.6-0.5,1.2-0.9,1.7c-0.4,0.4-0.9,0.9-1.5,1.1c-0.6,0.3-1.2,0.4-2,0.4c-0.8,0-1.4-0.2-2-0.4s-1.1-0.6-1.5-1.1
				c-0.4-0.4-0.7-1.1-0.9-1.7C118.9,28.8,118.8,28.1,118.8,27.4z M123.6,31.9c0.6,0,1.2-0.1,1.7-0.4c0.4-0.3,0.9-0.6,1.1-1
				c0.3-0.4,0.5-0.9,0.7-1.4c0.2-0.5,0.2-1.1,0.2-1.7c0-0.7-0.1-1.3-0.3-1.9c-0.2-0.5-0.4-1.1-0.7-1.4c-0.4-0.4-0.7-0.7-1.1-0.9
				c-0.4-0.2-1-0.4-1.6-0.4s-1.2,0.1-1.7,0.4c-0.4,0.3-0.9,0.6-1.1,1c-0.3,0.4-0.5,0.9-0.7,1.4c-0.2,0.5-0.2,1.1-0.2,1.7
				c0,0.6,0.1,1.1,0.2,1.7c0.2,0.5,0.4,1.1,0.7,1.4c0.3,0.4,0.7,0.7,1.1,1C122.4,31.8,122.9,31.9,123.6,31.9z"/>
			<path class="st3" d="M130.2,29.4c0,0.4,0.2,0.8,0.3,1.1c0.2,0.4,0.4,0.5,0.6,0.8c0.3,0.2,0.5,0.4,0.9,0.4
				c0.4,0.1,0.7,0.2,1.1,0.2c0.4,0,0.8-0.1,1.1-0.2c0.4-0.1,0.6-0.3,0.8-0.4c0.2-0.2,0.4-0.4,0.4-0.7c0.1-0.3,0.2-0.5,0.2-0.8
				c0-0.4-0.1-0.7-0.3-1c-0.2-0.3-0.4-0.4-0.7-0.6c-0.3-0.2-0.6-0.3-1-0.4c-0.4-0.1-0.7-0.2-1.1-0.3c-0.4-0.1-0.8-0.2-1.1-0.4
				c-0.4-0.1-0.7-0.3-1-0.5c-0.3-0.2-0.5-0.4-0.7-0.8c-0.2-0.4-0.3-0.7-0.3-1.2c0-0.4,0.1-0.7,0.2-1c0.2-0.4,0.4-0.6,0.6-0.9
				c0.3-0.3,0.6-0.4,1.1-0.6c0.4-0.2,0.9-0.3,1.5-0.3c0.5,0,1.1,0.1,1.5,0.3c0.4,0.2,0.8,0.4,1.1,0.6c0.3,0.3,0.5,0.6,0.6,1
				c0.2,0.4,0.2,0.8,0.2,1.1h-0.9c0-0.4-0.1-0.7-0.2-1c-0.2-0.3-0.4-0.5-0.5-0.7c-0.3-0.2-0.5-0.4-0.8-0.4c-0.3-0.1-0.6-0.1-0.9-0.1
				c-0.5,0-0.9,0.1-1.2,0.2c-0.4,0.2-0.6,0.4-0.8,0.5c-0.2,0.2-0.4,0.4-0.4,0.7c-0.1,0.3-0.1,0.5,0,0.8c0.1,0.4,0.2,0.6,0.4,0.8
				c0.2,0.2,0.4,0.4,0.8,0.4c0.3,0.1,0.6,0.3,1,0.3c0.4,0.1,0.7,0.2,1.1,0.3c0.4,0.1,0.7,0.2,1.1,0.4c0.4,0.1,0.6,0.3,1,0.5
				c0.3,0.2,0.5,0.4,0.6,0.8c0.2,0.4,0.3,0.7,0.3,1.2c0,1-0.4,1.7-1,2.2c-0.6,0.5-1.6,0.8-2.7,0.8c-0.5,0-1-0.1-1.5-0.2
				c-0.4-0.2-0.8-0.4-1.1-0.6s-0.6-0.6-0.8-1.1s-0.3-0.9-0.3-1.4L130.2,29.4L130.2,29.4z"/>
		</g>
	</g>
</g>
</svg>
