<?xml version="1.0" encoding="utf-8"?>
<!-- Generator: Adobe Illustrator 24.0.0, SVG Export Plug-In . SVG Version: 6.00 Build 0)  -->
<svg version="1.1" id="Layer_1" xmlns="http://www.w3.org/2000/svg" xmlns:xlink="http://www.w3.org/1999/xlink" x="0px" y="0px"
	 viewBox="0 0 25.8 40" style="enable-background:new 0 0 25.8 40;" xml:space="preserve">
<style type="text/css">
	.st0{fill:#900580;}
	.st1{fill:#0093AF;}
</style>
<g>
	<path class="st0" d="M19.7,19.2c-0.5,0.1-0.8,0.4-2.4,0.9c-1.5,0.4-4.2,0.3-6.3-0.6c-1.6-0.7-4.1-1.7-4.1-1.7L5,16.9L4.7,18
		c0,0,2.7,1,4.9,2.5c1,0.7,3.7,2.4,3.7,2.4s1.3,1,1.9,0.9c0.5,0,1-0.6,1.6-1.2c0.8-0.8,1.2-1.2,2.1-1.9c0.6-0.5,0.9-0.8,1-1
		C20.2,19.4,20,19.1,19.7,19.2z"/>
	<g>
		<rect x="1.6" y="26.2" class="st0" width="0.7" height="0.7"/>
		<rect x="3.3" y="26.2" class="st0" width="0.7" height="0.7"/>
		<rect x="5.1" y="26.2" class="st0" width="0.7" height="0.7"/>
		<rect x="6.8" y="26.2" class="st0" width="0.7" height="0.7"/>
		<rect x="8.5" y="26.2" class="st0" width="0.7" height="0.7"/>
		<rect x="10.3" y="26.2" class="st0" width="0.7" height="0.7"/>
		<rect x="12" y="26.2" class="st0" width="0.7" height="0.7"/>
		<rect x="13.8" y="26.2" class="st0" width="0.7" height="0.7"/>
		<rect x="15.5" y="26.2" class="st0" width="0.7" height="0.7"/>
		<rect x="17.2" y="26.2" class="st0" width="0.7" height="0.7"/>
		<rect x="19" y="26.2" class="st0" width="0.7" height="0.7"/>
		<rect x="20.7" y="26.2" class="st0" width="0.7" height="0.7"/>
		<rect x="22.5" y="26.2" class="st0" width="0.7" height="0.7"/>
	</g>
	<g>
		<g>
			<path class="st0" d="M1.6,3.9v21.6h21.6V3.9H1.6z M22.5,24.8H2.3V4.7h20.2V24.8z"/>
		</g>
	</g>
	<path class="st0" d="M12.5,16.9c-1.5,0-3.9-0.7-3.9-5c0-2.8,1.1-5,3.9-5c3.1,0.1,3.9,2.2,3.9,5C16.4,14.7,15.4,17,12.5,16.9z
		 M19.9,11.9c0-2.8-1.9-6.2-7.4-6.2c-4.9,0.1-7.4,2.8-7.4,6.2c0.1,4.9,4.6,6.2,7.4,6.2C17.2,18.1,20,15.4,19.9,11.9z"/>
	<g>
		<g>
			<path class="st1" d="M3.7,28.4c-0.4,0-0.7,0.2-0.9,0.6c-0.3,0.5-0.5,1.3-0.5,2.3c0,1,0.1,1.7,0.4,2.3c0.2,0.4,0.6,0.7,1,0.7
				c0.4,0,0.7-0.3,1-0.7c0.3-0.5,0.4-1.2,0.4-2.2c0-0.7-0.1-1.4-0.2-1.9c-0.1-0.4-0.3-0.7-0.5-0.9C4.2,28.5,4,28.4,3.7,28.4z
				 M4.2,34.5c0.5,0.6,0.8,0.7,1.6,0.7c0.7,0,0.9-0.1,1.5-0.5c0,0,0.1-0.1,0.2,0c0.1,0.1,0,0.2,0,0.2c-0.2,0.2-0.6,1-1.7,1.1
				c-0.5,0-1.2-0.4-1.5-0.7c-0.3-0.3-0.4-0.5-0.7-0.8c-1-0.1-1.2-0.5-1.3-0.7c-0.3-0.3-0.5-0.7-0.6-1.1c-0.1-0.4-0.2-0.9-0.2-1.5
				c0-0.9,0.2-1.7,0.6-2.3c0.4-0.6,0.9-0.9,1.5-0.9c0.6,0,1.1,0.3,1.5,0.9c0.4,0.6,0.6,1.4,0.6,2.3c0,0.8-0.1,1.5-0.4,2
				C5.1,33.9,4.8,34.3,4.2,34.5z"/>
			<path class="st1" d="M8.8,30.2l0,2.5c0,0.5,0,0.8,0,0.9c0,0.1,0,0.2,0.1,0.2C9,33.9,9,34,9,34c0.1,0,0.1,0,0.2,0l0.1,0.2
				l-0.9,0.4H8.3l0-0.8c-0.2,0.4-0.4,0.6-0.5,0.7c-0.1,0.1-0.2,0.1-0.4,0.1c-0.2,0-0.3-0.1-0.4-0.3c-0.1-0.1-0.2-0.3-0.2-0.5
				c0-0.2-0.1-0.5-0.1-0.9V31c0-0.2,0-0.3,0-0.4c0-0.1-0.1-0.1-0.1-0.2c-0.1,0-0.2-0.1-0.3-0.1v-0.2l1,0l0,2.8c0,0.4,0,0.6,0.1,0.8
				C7.4,33.9,7.5,34,7.6,34c0.1,0,0.2,0,0.3-0.1c0.1-0.1,0.2-0.2,0.3-0.4l0-2.5c0-0.2,0-0.4-0.1-0.5c-0.1-0.1-0.2-0.1-0.4-0.1l0-0.2
				L8.8,30.2z"/>
			<path class="st1" d="M11.4,33.6l0-1.6c-0.3,0.2-0.5,0.3-0.6,0.4c-0.2,0.1-0.3,0.3-0.4,0.4c-0.1,0.1-0.1,0.3-0.1,0.5
				c0,0.2,0,0.4,0.1,0.5c0.1,0.1,0.2,0.2,0.3,0.2C10.9,34,11.1,33.9,11.4,33.6z M11.4,33.9c-0.3,0.3-0.5,0.5-0.6,0.6
				c-0.1,0.1-0.3,0.1-0.4,0.1c-0.2,0-0.4-0.1-0.5-0.3c-0.1-0.2-0.2-0.4-0.2-0.7c0-0.2,0.1-0.5,0.1-0.6c0.1-0.2,0.3-0.4,0.5-0.6
				c0.2-0.2,0.5-0.4,1-0.6v-0.2c0-0.4-0.1-0.7-0.1-0.9c-0.1-0.2-0.2-0.3-0.4-0.3c-0.1,0-0.3,0.1-0.3,0.2c-0.1,0.1-0.1,0.3-0.1,0.4
				l0,0.3c0,0.1,0,0.2-0.1,0.2c-0.1,0.1-0.1,0.1-0.2,0.1c-0.1,0-0.1,0-0.2-0.1c-0.1-0.1-0.1-0.2-0.1-0.3c0-0.3,0.1-0.4,0.3-0.6
				c0.2-0.2,0.5-0.3,0.8-0.3c0.3,0,0.4,0.1,0.6,0.2c0.1,0.1,0.2,0.3,0.3,0.5c0,0.1,0.1,0.3,0.1,0.7l0,1.4c0,0.4,0,0.6,0,0.7
				c0,0.1,0,0.2,0.1,0.2c0.1,0.1,0.2,0.1,0.4-0.1l0.1,0.1c-0.2,0.5-0.4,0.5-0.6,0.5c-0.1,0-0.2-0.1-0.3-0.2
				C11.4,34.3,11.4,34.1,11.4,33.9z"/>
			<path class="st1" d="M19.9,33.6l0-1.6c-0.3,0.2-0.5,0.3-0.6,0.4c-0.2,0.1-0.3,0.3-0.4,0.4c-0.1,0.1-0.1,0.3-0.1,0.5
				c0,0.2,0,0.4,0.1,0.5C19,34,19.1,34,19.2,34C19.4,34,19.6,33.9,19.9,33.6z M19.9,33.9c-0.3,0.3-0.5,0.5-0.6,0.6
				c-0.1,0.1-0.2,0.1-0.4,0.1c-0.2,0-0.4-0.1-0.5-0.3c-0.1-0.2-0.2-0.4-0.2-0.7c0-0.2,0.1-0.5,0.1-0.6c0.1-0.2,0.3-0.4,0.5-0.6
				c0.2-0.2,0.5-0.4,1-0.6l0-0.2c0-0.4-0.1-0.7-0.1-0.9c-0.1-0.2-0.2-0.3-0.4-0.3c-0.1,0-0.3,0.1-0.3,0.2c-0.1,0.1-0.1,0.3-0.1,0.4
				l0,0.3c0,0.1,0,0.2-0.1,0.2c-0.1,0.1-0.1,0.1-0.2,0.1c-0.1,0-0.2,0-0.2-0.1c-0.1-0.1-0.1-0.2-0.1-0.3c0-0.3,0.1-0.4,0.3-0.6
				c0.2-0.2,0.5-0.3,0.8-0.3c0.3,0,0.4,0.1,0.6,0.2c0.1,0.1,0.2,0.3,0.3,0.5c0,0.1,0.1,0.3,0.1,0.7l0,1.4c0,0.4,0,0.6,0,0.7
				c0,0.1,0,0.1,0.1,0.2c0.1,0.1,0.2,0.1,0.4-0.1l0.1,0.1c-0.2,0.5-0.4,0.5-0.6,0.5c-0.1,0-0.2-0.1-0.3-0.2
				C19.9,34.3,19.9,34.1,19.9,33.9z"/>
			<path class="st1" d="M13.6,28.1l0,5.5c0,0.3,0,0.4,0,0.5c0,0.1,0.1,0.1,0.1,0.2c0.1,0,0.2,0.1,0.3,0.1l0,0.2l-1.5,0l0-0.2
				c0.1,0,0.2,0,0.3-0.1c0.1,0,0.1-0.1,0.1-0.2c0-0.1,0-0.3,0-0.5l0-3.8c0-0.5,0-1.1-0.1-1.1c0-0.1-0.1-0.2-0.4,0l-0.1-0.1l0.9-0.4
				L13.6,28.1z"/>
			<path class="st1" d="M15.1,28.2c0.1,0,0.2,0,0.2,0.1c0.1,0.1,0.1,0.2,0.1,0.3c0,0.1,0,0.2-0.1,0.3c-0.1,0.1-0.1,0.1-0.2,0.1
				c-0.1,0-0.2,0-0.2-0.1c-0.1-0.1-0.1-0.2-0.1-0.3c0-0.1,0-0.2,0.1-0.3C15,28.2,15,28.2,15.1,28.2z M15.4,30.3l0,3.3
				c0,0.3,0,0.4,0,0.5c0,0.1,0.1,0.1,0.1,0.2c0,0,0.1,0.1,0.3,0.1l0,0.2l-1.4,0v-0.2c0.1,0,0.2,0,0.3-0.1c0,0,0.1-0.1,0.1-0.2
				c0-0.1,0-0.3,0-0.5v-1.6c0-0.5,0-0.7,0-0.9c0-0.1,0-0.2-0.1-0.2c0,0-0.1-0.1-0.1-0.1c-0.1,0-0.1,0-0.2,0.1l0-0.2l0.9-0.5
				L15.4,30.3z"/>
			<path class="st1" d="M17.1,29v1.3l0.7,0l0,0.2l-0.7,0v2.8c0,0.3,0,0.4,0,0.6c0,0.1,0.1,0.3,0.3,0.3c0.1,0,0.3-0.2,0.4-0.3h0.1
				c-0.1,0.3-0.4,0.8-0.8,0.8c-0.4,0-0.5-0.3-0.5-0.5c0-0.2,0-0.4,0-0.7l0-2.9l-0.4,0l0-0.1c0.1-0.1,0.2-0.2,0.3-0.3
				c0.1-0.2,0.2-0.3,0.3-0.6C16.9,29.4,16.9,29.3,17.1,29L17.1,29z"/>
			<path class="st1" d="M23,30.2v1.4h-0.1c-0.1-0.4-0.2-0.8-0.3-0.9c-0.1-0.2-0.3-0.2-0.5-0.2c-0.1,0-0.3,0.1-0.3,0.2
				c-0.1,0.1-0.1,0.2-0.1,0.4c0,0.2,0,0.3,0.1,0.4c0.1,0.1,0.2,0.3,0.4,0.4l0.5,0.4c0.4,0.3,0.6,0.6,0.6,1.1c0,0.4-0.1,0.7-0.3,0.9
				c-0.2,0.2-0.4,0.3-0.6,0.3c-0.2,0-0.4,0-0.6-0.1c-0.1,0-0.1,0-0.2,0c0,0-0.1,0-0.1,0.1h-0.1V33l0.1,0c0.1,0.4,0.1,0.8,0.3,1
				c0.2,0.2,0.4,0.3,0.6,0.3c0.1,0,0.3-0.1,0.4-0.2c0.1-0.1,0.1-0.3,0.1-0.5c0-0.2,0-0.4-0.1-0.5c-0.1-0.1-0.3-0.3-0.6-0.5
				c-0.3-0.2-0.5-0.4-0.6-0.6c-0.1-0.2-0.1-0.4-0.1-0.7c0-0.3,0.1-0.6,0.2-0.8c0.2-0.2,0.3-0.3,0.6-0.4c0.2,0,0.3,0,0.4,0.1
				c0.1,0,0.3,0.1,0.3,0C22.8,30.3,22.8,30.3,23,30.2L23,30.2z"/>
			<g>
				<g>
					<path class="st1" d="M23.5,34.3c-0.1,0-0.2,0-0.3,0.1c-0.1,0.1-0.2,0.1-0.2,0.2c-0.1,0.1-0.1,0.2-0.1,0.3c0,0.1,0,0.2,0.1,0.3
						c0.1,0.1,0.1,0.2,0.2,0.2c0.1,0.1,0.2,0.1,0.3,0.1c0.1,0,0.2,0,0.3-0.1c0.1-0.1,0.2-0.1,0.2-0.2c0.1-0.1,0.1-0.2,0.1-0.3
						c0-0.1,0-0.2-0.1-0.3c-0.1-0.1-0.1-0.2-0.2-0.2C23.7,34.3,23.6,34.3,23.5,34.3z M23.5,34.2c0.1,0,0.2,0,0.4,0.1
						c0.1,0.1,0.2,0.2,0.3,0.3c0.1,0.1,0.1,0.2,0.1,0.4c0,0.1,0,0.2-0.1,0.4c-0.1,0.1-0.2,0.2-0.3,0.3c-0.1,0.1-0.2,0.1-0.4,0.1
						c-0.1,0-0.2,0-0.4-0.1c-0.1-0.1-0.2-0.2-0.3-0.3c-0.1-0.1-0.1-0.2-0.1-0.4c0-0.1,0-0.3,0.1-0.4c0.1-0.1,0.2-0.2,0.3-0.3
						C23.3,34.2,23.4,34.2,23.5,34.2z"/>
				</g>
				<g>
					<path class="st1" d="M23.3,34.9h0.2c0.1,0,0.1,0,0.2,0c0,0,0-0.1,0-0.1c0,0,0,0,0-0.1c0,0,0,0-0.1,0c0,0-0.1,0-0.1,0h-0.1
						L23.3,34.9z M23.2,35.3l0-0.8l0.3,0c0.1,0,0.2,0,0.2,0c0,0,0.1,0,0.1,0.1c0,0,0,0.1,0,0.1c0,0.1,0,0.1-0.1,0.2
						c0,0-0.1,0.1-0.2,0.1c0,0,0,0,0.1,0c0,0,0.1,0.1,0.1,0.2l0.1,0.2l-0.2,0l-0.1-0.1c-0.1-0.1-0.1-0.2-0.1-0.2c0,0-0.1,0-0.1,0
						h-0.1l0,0.3L23.2,35.3z"/>
				</g>
			</g>
		</g>
		<g>
			<path class="st1" d="M10.8,29.2c-0.2,0.3-0.4,0.5-0.3,0.5c0.1,0,0.2,0,0.3-0.1c0.1-0.1,0.3-0.3,0.6-0.5c0.2-0.2,0.7-0.6,0.4-0.8
				c-0.3-0.2-0.3-0.1-0.6,0.3C11.2,28.6,11,28.9,10.8,29.2z"/>
		</g>
	</g>
</g>
</svg>
