<?xml version="1.0" encoding="utf-8"?>
<!-- Generator: Adobe Illustrator 24.0.0, SVG Export Plug-In . SVG Version: 6.00 Build 0)  -->
<svg version="1.1" id="Layer_1" xmlns="http://www.w3.org/2000/svg" xmlns:xlink="http://www.w3.org/1999/xlink" x="0px" y="0px"
	 viewBox="0 0 141 40" style="enable-background:new 0 0 141 40;" xml:space="preserve">
<style type="text/css">
	.st0{fill:#ED1D24;}
</style>
<g>
	<path class="st0" d="M57.4,26.6c-3.2,0-5.5-1.9-5.5-5c0-3,2.4-5,5.5-5c3.1,0,5.5,2,5.5,5C63,24.7,60.6,26.6,57.4,26.6 M57.4,24.2
		c1.3,0,2.1-1.2,2.1-2.6c0-1.4-0.8-2.6-2.1-2.6c-1.4,0-2.1,1.2-2.1,2.6C55.3,23,56.1,24.2,57.4,24.2"/>
	<path class="st0" d="M89.2,26.4V12.9h3.3v4.6h0c0.2-0.1,1.3-0.9,2.9-0.9c2.6,0,4.5,2.1,4.5,4.8c0,3.4-2.1,5.1-4.5,5.1
		c-1.8,0-2.7-0.8-3-1.1h-0.1l-0.1,0.9L89.2,26.4L89.2,26.4z M96.4,21.6c0-1.3-0.7-2.4-2-2.4c-1.1,0-2,1-2,2.4c0,1.4,0.7,2.4,2,2.4
		C95.6,24,96.4,23.1,96.4,21.6"/>
	<path class="st0" d="M71.8,16.9h3.3v9.5h-3.3V16.9z M73.4,12c-1,0-1.9,0.8-1.9,1.9s0.8,1.9,1.9,1.9c1,0,1.9-0.8,1.9-1.9
		S74.4,12,73.4,12"/>
	<path class="st0" d="M113.7,26.4h3.2v-4.9c0-1.2,0.8-1.9,1.7-1.9c1.1,0,1.8,0.7,1.8,1.9v4.9h3.2v-5.7c0-2.2-1.4-4-3.9-4
		c-1.7,0-2.6,0.9-3,1.3h-0.1l0-1.1h-2.9L113.7,26.4L113.7,26.4z"/>
	<polygon class="st0" points="125.5,26.4 128.8,26.4 128.8,22 128.8,22 131.8,26.4 135.5,26.4 131.9,21.3 135.4,16.9 131.7,16.9 
		128.8,20.8 128.8,20.8 128.8,13 125.5,13 	"/>
	<path class="st0" d="M51.2,17c-0.2-0.1-1.2-0.4-2.4-0.4c-3,0-5.2,1.9-5.2,5c0,2.8,2,5,5.1,5c1.3,0,2.3-0.3,2.5-0.4l-0.2-2.8
		c-0.3,0.1-0.9,0.5-1.7,0.5c-1.3,0-2.3-0.9-2.3-2.3c0-1.4,1-2.3,2.4-2.3c0.7,0,1.4,0.3,1.6,0.5L51.2,17z"/>
	<path class="st0" d="M87.2,16.9v9.5H84l-0.1-1h-0.1c-0.4,0.3-1.1,1.2-3.2,1.2c-2.3,0-4.3-2-4.3-5c0-2.8,1.8-5,4.5-5
		c1.9,0,2.6,0.8,2.9,1.1h0.1l0-0.9L87.2,16.9L87.2,16.9z M79.9,21.5c0,1.6,0.9,2.6,2,2.6c1,0,2-1,2-2.4c0-1.5-0.9-2.5-2-2.5
		C80.7,19.2,79.9,20.2,79.9,21.5"/>
	<path class="st0" d="M111.7,16.9v9.5h-3.2l-0.1-1h-0.1c-0.4,0.3-1.1,1.2-3.2,1.2c-2.3,0-4.3-2-4.3-5c0-2.8,1.8-5,4.5-5
		c1.9,0,2.6,0.8,2.9,1.1h0.1l0-0.9L111.7,16.9L111.7,16.9z M104.4,21.5c0,1.6,0.9,2.6,2,2.6c1,0,2-1,2-2.4c0-1.5-0.9-2.5-2-2.5
		C105.2,19.2,104.4,20.2,104.4,21.5"/>
	<path class="st0" d="M33.2,26c0.9,0.3,2.3,0.5,3.8,0.5c2.8,0,5.7-1,5.7-4.1c0-4.3-5.9-3.7-5.9-5.4c0-0.9,0.9-1.1,1.8-1.1
		c1.2,0,2.8,0.6,3.1,0.7l0.3-2.9c-0.9-0.3-2.2-0.5-3.4-0.5c-2.8,0-5.6,1.1-5.6,3.9c0,4.2,5.9,3.3,5.9,5.5c0,0.8-0.8,1.2-1.9,1.2
		c-1.5,0-2.9-0.7-3.5-1L33.2,26z"/>
	<path class="st0" d="M70.3,23.8c-0.2,0-0.6,0.2-0.9,0.2c-0.7,0-1.4-0.3-1.4-1.5v-3.2h2.1v-2.4H68v-3.1h-3.3v3.1h-1.4v2.4h1.4V23
		c0,2.1,1,3.6,3.4,3.6c0.7,0,1.4-0.1,1.8-0.2L70.3,23.8z"/>
	<path class="st0" d="M7.1,19.9c-0.8-1.2-0.9-2.9-0.9-4.1c0-4.3,3.8-7.9,7.8-7.9h12.4l-4.8,4.9h-7.7C10.7,12.8,7,16,7.1,19.9
		 M11.8,16.4c0.3-1,1.3-2.3,2.3-3c-1.8,0-3.8,0.9-5.4,3H11.8z M14.3,14c-0.7,0.6-1.5,1.6-1.9,2.4h3.7C15.8,15.6,15,14.6,14.3,14
		 M8.4,17.1c-0.5,0.8-0.7,1.8-0.8,2.7h3.5c0-0.9,0.2-1.9,0.5-2.7H8.4z M12.2,17.1c-0.3,0.8-0.5,1.8-0.5,2.7h5.3
		c-0.1-0.9-0.2-1.9-0.5-2.7H12.2z M19.8,16.4c-1.5-2.2-3.5-3-5.3-3c0.9,0.7,1.9,2,2.3,3H19.8z M17,17.1c0.3,0.8,0.5,1.8,0.5,2.7H21
		c-0.1-0.9-0.3-1.9-0.8-2.7H17z M8.7,23.6c1.5,2.3,3.6,3,5.4,3c-0.9-0.7-1.9-2-2.3-3H8.7z M14.3,26.1c0.7-0.6,1.5-1.6,1.9-2.5h-3.7
		C12.8,24.4,13.6,25.4,14.3,26.1 M11.6,23c-0.3-0.9-0.5-1.9-0.5-2.7H7.6c0.1,0.9,0.3,1.9,0.8,2.7H11.6z M16.4,23
		c0.3-0.9,0.5-1.8,0.5-2.7h-5.3c0.1,0.9,0.2,1.9,0.5,2.7H16.4z M16.8,23.6c-0.4,1-1.3,2.3-2.3,3c1.8,0,3.8-0.8,5.3-3H16.8z M20.2,23
		c0.5-0.9,0.7-1.8,0.8-2.7h-3.5c0,0.9-0.1,1.8-0.5,2.7H20.2z M21.5,20c0.1,4.1-3.6,7.2-6.8,7.2H7.1L2.3,32h12.4c4,0,7.8-3.6,7.8-7.8
		C22.5,23,22.3,21.3,21.5,20L21.5,20L21.5,20z"/>
	<path class="st0" d="M135.1,15c0,1,0.8,1.8,1.8,1.8c1,0,1.8-0.8,1.8-1.8c0-1-0.8-1.8-1.8-1.8C135.9,13.2,135.1,14,135.1,15
		 M135.6,15c0-0.8,0.6-1.4,1.3-1.4c0.7,0,1.3,0.6,1.3,1.4c0,0.8-0.6,1.4-1.3,1.4C136.1,16.4,135.6,15.8,135.6,15 M136.1,16h0.4v-0.9
		h0.2l0.5,0.9h0.4l-0.5-0.9c0.3,0,0.5-0.2,0.5-0.5c0-0.5-0.3-0.6-0.8-0.6h-0.8L136.1,16L136.1,16z M136.6,14.8v-0.5h0.3
		c0.2,0,0.4,0,0.4,0.2c0,0.2-0.1,0.3-0.4,0.3H136.6z"/>
</g>
</svg>
