<?xml version="1.0" encoding="utf-8"?>
<!-- Generator: Adobe Illustrator 24.0.0, SVG Export Plug-In . SVG Version: 6.00 Build 0)  -->
<svg version="1.1" id="Layer_1" xmlns="http://www.w3.org/2000/svg" xmlns:xlink="http://www.w3.org/1999/xlink" x="0px" y="0px"
	 viewBox="0 0 52.1 40" style="enable-background:new 0 0 52.1 40;" xml:space="preserve">
<style type="text/css">
	.st0{clip-path:url(#SVGID_2_);fill:#231F1F;}
	.st1{clip-path:url(#SVGID_2_);fill:#ED2A2F;}
	.st2{clip-path:url(#SVGID_2_);}
	.st3{clip-path:url(#SVGID_4_);}
	.st4{clip-path:url(#SVGID_4_);fill:#ED2A2F;}
	.st5{clip-path:url(#SVGID_4_);fill:#231F1F;}
</style>
<g>
	<g>
		<defs>
			<rect id="SVGID_1_" x="-6.5" y="-1.1" width="65.1" height="42.2"/>
		</defs>
		<clipPath id="SVGID_2_">
			<use xlink:href="#SVGID_1_"  style="overflow:visible;"/>
		</clipPath>
		<polygon class="st0" points="21,4.1 15.2,5.5 15.2,15.6 15.5,15.6 15.5,5.9 21.1,4.6 21.1,15.3 28.1,9.6 28.1,5.5 		"/>
		<polygon class="st1" points="2.6,21.7 3.5,21.7 10.3,16.2 17.6,21.7 29.5,21.7 21.9,15.6 28.7,10.2 35.9,15.6 47.8,15.6 40.1,9.6 
			28.6,9.6 21,15.6 10.2,15.6 		"/>
		<polygon class="st2" points="27.8,15.7 27.1,15.7 27.7,12.9 26.7,12.9 26.8,12.3 29.5,12.3 29.4,12.9 28.4,12.9 		"/>
		<g class="st2">
			<defs>
				<rect id="SVGID_3_" x="-6.5" y="-1.1" width="65.1" height="42.2"/>
			</defs>
			<clipPath id="SVGID_4_">
				<use xlink:href="#SVGID_3_"  style="overflow:visible;"/>
			</clipPath>
			<path class="st3" d="M29.7,13.3h0.7L30,14.7c0,0.2-0.1,0.3-0.1,0.3c0,0.1,0,0.1,0.1,0.2c0.1,0.1,0.1,0.1,0.2,0.1
				c0.1,0,0.1,0,0.2,0c0.1,0,0.1-0.1,0.2-0.1c0.1,0,0.1-0.1,0.2-0.2c0-0.1,0.1-0.1,0.1-0.2c0-0.1,0.1-0.2,0.1-0.3l0.2-1.2h0.7
				l-0.5,2.5h-0.6l0.1-0.3c-0.3,0.3-0.6,0.4-0.9,0.4c-0.2,0-0.4-0.1-0.5-0.2c-0.1-0.1-0.2-0.3-0.2-0.5c0-0.1,0-0.3,0.1-0.5
				L29.7,13.3z"/>
			<path class="st4" d="M32.9,19.8l1.3,0.2c-0.2,0.7-0.6,1.2-1.1,1.5C32.6,21.9,32,22,31.4,22c-0.7,0-1.3-0.2-1.7-0.7
				c-0.4-0.4-0.6-1.1-0.6-1.9c0-0.7,0.1-1.3,0.4-1.9c0.3-0.6,0.7-1,1.2-1.3c0.5-0.3,1-0.5,1.6-0.5c0.7,0,1.2,0.2,1.6,0.5
				c0.4,0.3,0.6,0.8,0.7,1.4l-1.2,0.1c-0.1-0.3-0.2-0.6-0.4-0.8c-0.2-0.2-0.4-0.2-0.8-0.2c-0.3,0-0.7,0.1-1,0.3
				c-0.3,0.2-0.5,0.5-0.7,1c-0.2,0.4-0.3,0.9-0.3,1.3c0,0.5,0.1,0.9,0.4,1.1c0.2,0.3,0.5,0.4,0.9,0.4c0.3,0,0.6-0.1,0.9-0.3
				C32.6,20.5,32.8,20.2,32.9,19.8"/>
			<path class="st4" d="M38.9,20l1.2-0.1c0,0.4,0.1,0.6,0.2,0.8c0.2,0.2,0.5,0.3,1,0.3c0.4,0,0.7-0.1,0.9-0.2
				c0.2-0.1,0.3-0.3,0.3-0.5c0-0.2-0.1-0.3-0.2-0.5c-0.1-0.1-0.4-0.2-0.9-0.4c-0.5-0.2-0.8-0.4-1-0.5c-0.2-0.1-0.4-0.3-0.5-0.5
				c-0.1-0.2-0.2-0.5-0.2-0.8c0-0.5,0.2-0.9,0.6-1.3s0.9-0.5,1.6-0.5c0.7,0,1.3,0.2,1.7,0.5c0.4,0.3,0.6,0.8,0.7,1.3l-1.2,0.1
				c0-0.3-0.1-0.5-0.3-0.7c-0.2-0.2-0.5-0.2-0.8-0.2c-0.3,0-0.6,0.1-0.7,0.2c-0.1,0.1-0.2,0.3-0.2,0.5c0,0.2,0.1,0.3,0.2,0.4
				c0.1,0.1,0.4,0.3,0.9,0.5c0.7,0.3,1.2,0.5,1.4,0.7c0.3,0.3,0.4,0.6,0.4,1.1c0,0.5-0.2,1-0.6,1.4c-0.4,0.4-1,0.6-1.8,0.6
				c-0.5,0-1-0.1-1.4-0.3c-0.4-0.2-0.7-0.4-0.8-0.7C39,20.7,38.9,20.4,38.9,20"/>
			<path class="st4" d="M47.4,20.6h-2.3l-0.7,1.3h-1.2l3.3-6h1.3l0.9,6h-1.1L47.4,20.6z M47.2,19.6l-0.3-2.4l-1.4,2.4H47.2z"/>
			<path class="st4" d="M37.7,20.6h-2.3l-0.7,1.3h-1.2l3.3-6h1.3l0.9,6h-1.1L37.7,20.6z M37.5,19.6l-0.3-2.4l-1.4,2.4H37.5z"/>
			<polygon class="st5" points="16.4,27.9 17.7,22.1 22.2,22.1 21.9,23.1 18.7,23.1 18.4,24.4 21.5,24.4 21.3,25.4 18.2,25.4 
				17.8,27 21.3,27 21.1,27.9 			"/>
			<polygon class="st5" points="24.1,26.7 23,27.9 21.5,27.9 23.5,25.8 22.4,23.7 23.7,23.7 24.3,24.9 25.4,23.7 26.9,23.7 
				24.8,25.9 25.9,27.9 24.7,27.9 			"/>
			<path class="st5" d="M32.8,23.7h1.1l-0.2,0.8c0.4-0.6,0.9-0.9,1.3-0.9c0.2,0,0.4,0,0.6,0.1l-0.5,0.9c-0.1,0-0.2-0.1-0.3-0.1
				c-0.2,0-0.4,0.1-0.6,0.2c-0.2,0.1-0.4,0.3-0.5,0.6c-0.1,0.2-0.2,0.6-0.4,1.2L33,27.9h-1.2L32.8,23.7z"/>
			<path class="st5" d="M39.5,26.2h-3c0,0,0,0.1,0,0.1c0,0.3,0.1,0.5,0.3,0.7c0.2,0.2,0.4,0.3,0.6,0.3c0.4,0,0.7-0.2,0.9-0.6
				l1.1,0.2c-0.2,0.4-0.5,0.7-0.8,0.9c-0.3,0.2-0.7,0.3-1.2,0.3c-0.6,0-1.1-0.2-1.4-0.5c-0.4-0.4-0.6-0.8-0.6-1.4
				c0-0.6,0.2-1.1,0.5-1.6c0.5-0.6,1.1-0.9,1.9-0.9c0.5,0,1,0.2,1.3,0.5c0.3,0.3,0.5,0.8,0.5,1.3C39.6,25.7,39.5,26,39.5,26.2
				 M38.5,25.5c0-0.1,0-0.1,0-0.1c0-0.3-0.1-0.6-0.2-0.7c-0.1-0.2-0.3-0.2-0.6-0.2c-0.2,0-0.5,0.1-0.7,0.3c-0.2,0.2-0.3,0.4-0.4,0.8
				H38.5z"/>
			<path class="st5" d="M39.8,26.8l1.1-0.2c0.1,0.2,0.2,0.4,0.4,0.5c0.2,0.1,0.4,0.1,0.6,0.1c0.3,0,0.5-0.1,0.6-0.2
				c0.1-0.1,0.2-0.2,0.2-0.3c0-0.1,0-0.1-0.1-0.2c-0.1-0.1-0.2-0.1-0.5-0.2c-0.7-0.2-1.2-0.4-1.3-0.5c-0.3-0.2-0.4-0.5-0.4-0.8
				c0-0.3,0.1-0.6,0.4-0.9c0.4-0.3,0.9-0.5,1.6-0.5c0.6,0,1,0.1,1.3,0.3c0.3,0.2,0.5,0.5,0.5,0.8l-1.1,0.2c-0.1-0.2-0.2-0.3-0.3-0.3
				c-0.2-0.1-0.4-0.2-0.6-0.2c-0.2,0-0.4,0-0.5,0.1c-0.1,0.1-0.2,0.2-0.2,0.3c0,0.1,0.1,0.2,0.2,0.3c0.1,0,0.3,0.1,0.7,0.2
				c0.6,0.2,1,0.3,1.2,0.5c0.3,0.2,0.4,0.5,0.4,0.8c0,0.4-0.2,0.8-0.5,1c-0.3,0.3-0.8,0.4-1.5,0.4c-0.6,0-1.1-0.1-1.5-0.3
				C40.1,27.5,39.9,27.2,39.8,26.8"/>
			<path class="st5" d="M44.5,26.8l1.1-0.2c0.1,0.2,0.2,0.4,0.4,0.5c0.2,0.1,0.4,0.1,0.6,0.1c0.3,0,0.5-0.1,0.6-0.2
				c0.1-0.1,0.2-0.2,0.2-0.3c0-0.1,0-0.1-0.1-0.2c-0.1-0.1-0.2-0.1-0.5-0.2c-0.7-0.2-1.2-0.4-1.3-0.5c-0.3-0.2-0.4-0.5-0.4-0.8
				c0-0.3,0.1-0.6,0.4-0.9c0.4-0.3,0.9-0.5,1.6-0.5c0.6,0,1,0.1,1.3,0.3c0.3,0.2,0.5,0.5,0.5,0.8l-1.1,0.2c-0.1-0.2-0.2-0.3-0.3-0.3
				c-0.2-0.1-0.4-0.2-0.6-0.2c-0.2,0-0.4,0-0.5,0.1c-0.1,0.1-0.2,0.2-0.2,0.3c0,0.1,0.1,0.2,0.2,0.3c0.1,0,0.3,0.1,0.7,0.2
				c0.6,0.2,1,0.3,1.2,0.5c0.3,0.2,0.4,0.5,0.4,0.8c0,0.4-0.2,0.8-0.5,1c-0.3,0.3-0.8,0.4-1.5,0.4c-0.6,0-1.1-0.1-1.5-0.3
				C44.8,27.5,44.6,27.2,44.5,26.8"/>
			<path class="st5" d="M31.1,24.1c-0.3-0.3-0.6-0.5-1.1-0.5c-0.2,0-0.5,0-0.7,0.1c-0.2,0.1-0.4,0.2-0.7,0.4l0.1-0.4h-1.1l-1.2,5.4
				h-23l-0.3,1.1h24.2l0.2-0.7h0l0.5-2.2c0.3,0.5,0.7,0.7,1.3,0.7c0.6,0,1.1-0.2,1.5-0.7c0.5-0.5,0.7-1.2,0.7-1.9
				C31.5,24.8,31.4,24.4,31.1,24.1 M30.2,26.3c-0.1,0.3-0.3,0.5-0.5,0.7c-0.2,0.1-0.4,0.2-0.6,0.2c-0.2,0-0.4-0.1-0.6-0.3
				c-0.2-0.2-0.2-0.4-0.2-0.8c0-0.2,0.1-0.5,0.2-0.8c0.1-0.3,0.2-0.5,0.4-0.7c0.2-0.2,0.4-0.2,0.6-0.2c0.2,0,0.4,0.1,0.6,0.3
				c0.2,0.2,0.2,0.4,0.2,0.7C30.4,25.7,30.3,26,30.2,26.3"/>
			<path class="st5" d="M47.4,29.7c0-0.2,0.1-0.4,0.2-0.6H28.1l-0.3,1.1h19.8C47.5,30.1,47.4,29.9,47.4,29.7"/>
			<path class="st3" d="M48.5,28.9c0.1,0,0.3,0,0.4,0.1c0.1,0.1,0.2,0.2,0.3,0.3c0.1,0.1,0.1,0.3,0.1,0.4c0,0.1,0,0.3-0.1,0.4
				c-0.1,0.1-0.2,0.2-0.3,0.3c-0.1,0.1-0.3,0.1-0.4,0.1c-0.1,0-0.3,0-0.4-0.1c-0.1-0.1-0.2-0.2-0.3-0.3c-0.1-0.1-0.1-0.3-0.1-0.4
				c0-0.1,0-0.3,0.1-0.4c0.1-0.1,0.2-0.2,0.3-0.3C48.2,28.9,48.3,28.9,48.5,28.9 M48.5,29c-0.1,0-0.2,0-0.3,0.1
				c-0.1,0.1-0.2,0.1-0.2,0.2c-0.1,0.1-0.1,0.2-0.1,0.3c0,0.1,0,0.2,0.1,0.3c0.1,0.1,0.1,0.2,0.2,0.2c0.1,0.1,0.2,0.1,0.3,0.1
				c0.1,0,0.2,0,0.3-0.1c0.1-0.1,0.2-0.1,0.2-0.2c0.1-0.1,0.1-0.2,0.1-0.3c0-0.1,0-0.2-0.1-0.3c-0.1-0.1-0.1-0.2-0.2-0.2
				C48.7,29,48.6,29,48.5,29 M48.1,30.1v-0.9h0.2c0.2,0,0.3,0,0.3,0c0.1,0,0.1,0,0.1,0c0,0,0.1,0,0.1,0.1c0,0,0,0.1,0,0.1
				c0,0.1,0,0.1-0.1,0.2c0,0-0.1,0.1-0.2,0.1c0,0,0,0,0.1,0c0,0,0,0,0.1,0.1c0,0,0,0,0.1,0.1l0.1,0.2h-0.2L48.6,30
				c0-0.1-0.1-0.2-0.1-0.2c0,0-0.1,0-0.1,0h0v0.4H48.1z M48.3,29.6L48.3,29.6c0.2,0,0.2,0,0.3,0c0,0,0,0,0.1,0c0,0,0,0,0-0.1
				c0,0,0,0,0-0.1c0,0,0,0-0.1,0c0,0-0.1,0-0.2,0h-0.1V29.6z"/>
			<polygon class="st3" points="3.6,35.8 3.6,32.2 5.6,32.2 5.6,32.6 4,32.6 4,33.8 5.4,33.8 5.4,34.2 4,34.2 4,35.8 			"/>
			<rect x="7" y="32.2" class="st3" width="0.4" height="3.6"/>
			<polygon class="st3" points="8.9,35.8 8.9,32.2 9.3,32.2 10.9,35.1 10.9,32.2 11.3,32.2 11.3,35.8 10.8,35.8 9.2,33 9.2,35.8 			
				"/>
			<path class="st3" d="M12.4,35.8l1.2-3.6H14l1.2,3.6h-0.5l-0.4-1.1h-1.3l-0.3,1.1H12.4z M13.3,34.3h1l-0.3-1
				c-0.1-0.3-0.2-0.6-0.2-0.8c0,0.2-0.1,0.5-0.2,0.7L13.3,34.3z"/>
			<polygon class="st3" points="16.3,35.8 16.3,32.2 16.7,32.2 18.3,35.1 18.3,32.2 18.7,32.2 18.7,35.8 18.3,35.8 16.7,33 
				16.7,35.8 			"/>
			<path class="st3" d="M22.4,34.6l0.4,0.1c-0.1,0.4-0.2,0.7-0.5,0.9c-0.2,0.2-0.5,0.3-0.8,0.3c-0.3,0-0.5-0.1-0.7-0.2
				c-0.2-0.1-0.4-0.3-0.5-0.6c-0.1-0.3-0.2-0.6-0.2-1.1c0-0.4,0.1-0.7,0.2-1c0.1-0.3,0.3-0.5,0.5-0.6c0.2-0.1,0.5-0.2,0.7-0.2
				c0.3,0,0.5,0.1,0.8,0.3c0.2,0.2,0.4,0.4,0.4,0.8l-0.4,0.1c-0.1-0.5-0.4-0.8-0.8-0.8c-0.2,0-0.4,0.1-0.5,0.2
				c-0.1,0.1-0.3,0.3-0.4,0.5c-0.1,0.2-0.1,0.5-0.1,0.8c0,0.5,0.1,0.9,0.3,1.1c0.2,0.2,0.4,0.4,0.7,0.4c0.2,0,0.4-0.1,0.6-0.2
				C22.2,35.1,22.3,34.9,22.4,34.6"/>
			<rect x="24.1" y="32.2" class="st3" width="0.4" height="3.6"/>
			<path class="st3" d="M25.7,35.8l1.2-3.6h0.4l1.2,3.6h-0.5l-0.4-1.1h-1.3l-0.3,1.1H25.7z M26.5,34.3h1l-0.3-1
				c-0.1-0.3-0.2-0.6-0.2-0.8c0,0.2-0.1,0.5-0.2,0.7L26.5,34.3z"/>
			<path class="st3" d="M29.6,35.8v-3.6h0.6l0.7,2.6l0.1,0.5c0-0.1,0.1-0.3,0.2-0.6l0.7-2.5h0.5v3.6h-0.4v-3l-0.9,3h-0.4L30,32.7
				v3.1H29.6z"/>
			<rect x="34" y="32.2" class="st3" width="0.4" height="3.6"/>
			<polygon class="st3" points="35.9,35.8 35.9,32.2 38.1,32.2 38.1,32.6 36.3,32.6 36.3,33.7 38,33.7 38,34.2 36.3,34.2 36.3,35.4 
				38.2,35.4 38.2,35.8 			"/>
			<polygon class="st3" points="39.5,35.8 39.5,32.2 39.9,32.2 41.5,35.1 41.5,32.2 41.9,32.2 41.9,35.8 41.5,35.8 39.9,33 
				39.9,35.8 			"/>
			<polygon class="st3" points="44.2,35.8 44.2,32.6 43.2,32.6 43.2,32.2 45.6,32.2 45.6,32.6 44.6,32.6 44.6,35.8 			"/>
			<path class="st3" d="M46.6,34.1c0-0.6,0.1-1.1,0.4-1.4c0.3-0.3,0.6-0.5,1-0.5c0.3,0,0.5,0.1,0.7,0.2c0.2,0.1,0.4,0.4,0.5,0.6
				c0.1,0.3,0.2,0.6,0.2,1c0,0.5-0.1,1-0.4,1.3c-0.3,0.4-0.6,0.6-1.1,0.6c-0.4,0-0.8-0.2-1.1-0.6C46.7,35,46.6,34.6,46.6,34.1
				 M47,34.1c0,0.4,0.1,0.8,0.3,1c0.2,0.2,0.4,0.4,0.7,0.4c0.3,0,0.5-0.1,0.7-0.4c0.2-0.2,0.3-0.6,0.3-1.1c0-0.3-0.1-0.6-0.2-0.8
				c-0.1-0.2-0.2-0.3-0.4-0.5c-0.2-0.1-0.3-0.2-0.5-0.2c-0.3,0-0.6,0.1-0.8,0.4C47.1,33.2,47,33.6,47,34.1"/>
		</g>
	</g>
</g>
</svg>
